<?xml version="1.0" encoding="UTF-8" standalone="no"?>
<svg
   xmlns:dc="http://purl.org/dc/elements/1.1/"
   xmlns:cc="http://creativecommons.org/ns#"
   xmlns:rdf="http://www.w3.org/1999/02/22-rdf-syntax-ns#"
   xmlns:svg="http://www.w3.org/2000/svg"
   xmlns="http://www.w3.org/2000/svg"
   xmlns:sodipodi="http://sodipodi.sourceforge.net/DTD/sodipodi-0.dtd"
   xmlns:inkscape="http://www.inkscape.org/namespaces/inkscape"
   width="256"
   height="256"
   viewBox="0 0 67.733332 67.733335"
   version="1.1"
   id="svg8"
   inkscape:version="1.0.1 (3bc2e813f5, 2020-09-07)"
   sodipodi:docname="ack-ping.svg"
   inkscape:export-filename="C:\Users\keath\Workspace\KMX\elite-streamdeck-icons\chaff.png"
   inkscape:export-xdpi="96"
   inkscape:export-ydpi="96">
  <defs
     id="defs2" />
  <sodipodi:namedview
     id="base"
     pagecolor="#000000"
     bordercolor="#666666"
     borderopacity="1.0"
     inkscape:pageopacity="0"
     inkscape:pageshadow="2"
     inkscape:zoom="5.6059422"
     inkscape:cx="117.59746"
     inkscape:cy="78.172085"
     inkscape:document-units="px"
     inkscape:current-layer="layer2"
     showgrid="true"
     units="px"
     inkscape:snap-grids="true"
     objecttolerance="10000"
     guidetolerance="10000"
     inkscape:window-width="2321"
     inkscape:window-height="1879"
     inkscape:window-x="4802"
     inkscape:window-y="103"
     inkscape:window-maximized="0"
     inkscape:document-rotation="0"
     showguides="true"
     inkscape:snap-to-guides="false"
     inkscape:snap-others="false"
     inkscape:snap-nodes="false"
     inkscape:snap-global="true">
    <inkscape:grid
       type="xygrid"
       id="grid4623" />
    <sodipodi:guide
       position="-3.96875,62.441667"
       orientation="0,256"
       id="guide3351" />
    <sodipodi:guide
       position="62.177083,70.379167"
       orientation="256,0"
       id="guide3353" />
    <sodipodi:guide
       position="-2.6458333,22.754167"
       orientation="0,-256"
       id="guide3355" />
    <sodipodi:guide
       position="5.2916667,70.379167"
       orientation="-256,0"
       id="guide3357" />
    <sodipodi:guide
       position="0,67.733334"
       orientation="0,256"
       id="guide3359" />
    <sodipodi:guide
       position="67.733334,67.733334"
       orientation="256,0"
       id="guide3361" />
    <sodipodi:guide
       position="67.733334,0"
       orientation="0,-256"
       id="guide3363" />
    <sodipodi:guide
       position="0,0"
       orientation="-256,0"
       id="guide3365" />
    <sodipodi:guide
       position="0,67.733334"
       orientation="0,256"
       id="guide3367" />
    <sodipodi:guide
       position="67.733334,67.733334"
       orientation="256,0"
       id="guide3369" />
    <sodipodi:guide
       position="67.733334,0"
       orientation="0,-256"
       id="guide3371" />
    <sodipodi:guide
       position="0,0"
       orientation="-256,0"
       id="guide3373" />
    <sodipodi:guide
       position="0,67.733334"
       orientation="0,256"
       id="guide3375" />
    <sodipodi:guide
       position="67.733334,0"
       orientation="0,-256"
       id="guide3379" />
    <sodipodi:guide
       position="0,0"
       orientation="-256,0"
       id="guide3381" />
  </sodipodi:namedview>
  <metadata
     id="metadata5">
    <rdf:RDF>
      <cc:Work
         rdf:about="">
        <dc:format>image/svg+xml</dc:format>
        <dc:type
           rdf:resource="http://purl.org/dc/dcmitype/StillImage" />
        <dc:title />
      </cc:Work>
    </rdf:RDF>
  </metadata>
  <g
     inkscape:groupmode="layer"
     id="layer2"
     inkscape:label="Icon">
    <g
       id="g852"
       transform="matrix(1.5681705,0,0,1.5681705,-21.223414,-13.648002)">
      <path
         id="path1022"
         style="color:#000000;font-style:normal;font-variant:normal;font-weight:normal;font-stretch:normal;font-size:medium;line-height:normal;font-family:sans-serif;font-variant-ligatures:normal;font-variant-position:normal;font-variant-caps:normal;font-variant-numeric:normal;font-variant-alternates:normal;font-variant-east-asian:normal;font-feature-settings:normal;font-variation-settings:normal;text-indent:0;text-align:start;text-decoration:none;text-decoration-line:none;text-decoration-style:solid;text-decoration-color:#000000;letter-spacing:normal;word-spacing:normal;text-transform:none;writing-mode:lr-tb;direction:ltr;text-orientation:mixed;dominant-baseline:auto;baseline-shift:baseline;text-anchor:start;white-space:normal;shape-padding:0;shape-margin:0;inline-size:0;clip-rule:nonzero;display:inline;overflow:visible;visibility:visible;opacity:1;isolation:auto;mix-blend-mode:normal;color-interpolation:sRGB;color-interpolation-filters:linearRGB;solid-color:#000000;solid-opacity:1;vector-effect:none;fill:#808080;fill-opacity:1;fill-rule:nonzero;stroke:none;stroke-width:1.5875;stroke-linecap:square;stroke-linejoin:miter;stroke-miterlimit:4;stroke-dasharray:1.5875, 3.175;stroke-dashoffset:0;stroke-opacity:1;paint-order:markers fill stroke;color-rendering:auto;image-rendering:auto;shape-rendering:auto;text-rendering:auto;enable-background:accumulate;stop-color:#000000;stop-opacity:1"
         d="m 29.736953,14.301972 -0.714685,0.343648 c -0.503153,0.241221 -0.995418,0.511274 -1.47071,0.812353 l -0.671796,0.424264 0.849562,1.34152 0.671792,-0.425813 c 0.418778,-0.26528 0.855801,-0.504106 1.306899,-0.72037 l 0.716751,-0.344165 z m 9.699151,0 -0.714687,0.343648 c -0.50315,0.241221 -0.995418,0.511274 -1.47071,0.812353 l -0.669727,0.424264 0.849561,1.34152 0.669727,-0.425813 c 0.418777,-0.26528 0.8558,-0.504106 1.306896,-0.72037 l 0.716751,-0.344165 z m 9.701215,0 -0.716751,0.343648 c -0.503158,0.241221 -0.995418,0.511274 -1.470713,0.812353 l -0.669726,0.424264 0.849561,1.34152 0.669726,-0.425813 c 0.41878,-0.26528 0.857867,-0.504106 1.308966,-0.72037 l 0.714684,-0.344165 z m -23.64455,2.718697 -0.541055,0.580326 c -0.386336,0.414481 -0.74482,0.855745 -1.068152,1.32395 l -0.451133,0.654224 1.306381,0.90227 0.451133,-0.654223 C 25.46798,19.4246 25.776664,19.04219 26.111852,18.682583 l 0.543118,-0.57981 z m 9.699148,0 -0.540535,0.580326 c -0.386337,0.414481 -0.743273,0.855745 -1.066602,1.32395 l -0.451136,0.654224 1.306381,0.90227 0.449585,-0.654223 c 0.278035,-0.402616 0.588269,-0.785026 0.923459,-1.144633 l 0.541052,-0.57981 z m 9.701218,0 -0.542605,0.580326 c -0.386339,0.414481 -0.743275,0.855745 -1.066601,1.32395 l -0.451133,0.654224 1.30638,0.90227 0.451652,-0.654223 c 0.278034,-0.402616 0.5862,-0.785026 0.92139,-1.144633 l 0.541052,-0.57981 z m -22.263242,4.218864 -0.224793,0.76171 c -0.03149,0.106913 -0.05951,0.214966 -0.08733,0.322978 h 1.64796 l 0.187587,-0.63562 z m 9.699151,0 -0.222726,0.76171 c -0.03149,0.106913 -0.05939,0.214966 -0.08733,0.322978 h 1.645896 l 0.187584,-0.63562 z m 9.701215,0 -0.224793,0.76171 c -0.03149,0.106913 -0.05942,0.214966 -0.08733,0.322978 h 1.647444 l 0.186034,-0.63562 z m -19.696988,6.087484 c 0.128,0.485989 0.289949,0.962977 0.487825,1.424201 l 0.312643,0.728639 1.458825,-0.625284 -0.312642,-0.73019 c -0.111816,-0.26063 -0.209201,-0.527116 -0.295072,-0.797366 z m 9.699148,0 c 0.128001,0.485989 0.289952,0.962977 0.487826,1.424201 l 0.312642,0.728639 1.458828,-0.625284 -0.312642,-0.73019 c -0.111832,-0.260662 -0.208749,-0.527081 -0.29404,-0.797366 z m 9.699152,0 c 0.127997,0.485989 0.289949,0.962977 0.487825,1.424201 l 0.312643,0.728639 1.458825,-0.625284 -0.312127,-0.73019 c -0.111828,-0.260662 -0.209116,-0.527081 -0.294555,-0.797366 z m -16.41657,2.670122 -1.205095,1.033528 0.517797,0.603062 c 0.368991,0.430713 0.767109,0.833202 1.189593,1.207162 l 0.593762,0.52555 1.05265,-1.187524 -0.593764,-0.527101 c -0.369925,-0.327437 -0.71759,-0.67809 -1.037146,-1.051097 z m 9.701217,0 -1.206645,1.033528 0.517281,0.603062 c 0.368991,0.430713 0.767107,0.833202 1.189591,1.207162 l 0.595831,0.52555 1.050581,-1.187524 -0.593762,-0.527101 c -0.36993,-0.327437 -0.71759,-0.67809 -1.037146,-1.051097 z m 9.699149,0 -1.205095,1.033528 0.515731,0.603062 c 0.368991,0.430713 0.769175,0.833202 1.191659,1.207162 l 0.593763,0.52555 1.052647,-1.187524 -0.595828,-0.527101 c -0.369925,-0.32744 -0.71759,-0.67809 -1.037146,-1.051097 z m -16.087907,2.963127 -0.742075,1.401979 0.701252,0.371554 c 0.15045,0.07964 0.295381,0.150495 0.431498,0.216525 l 0.715201,0.345715 0.69143,-1.427819 -0.713134,-0.345715 c -0.136385,-0.06617 -0.265644,-0.129127 -0.382923,-0.191204 z m 9.701217,0 -0.74414,1.401979 0.701249,0.371554 c 0.150452,0.07964 0.295899,0.150495 0.432014,0.216525 l 0.714684,0.345715 0.6935,-1.427819 -0.715203,-0.345715 c -0.136385,-0.06617 -0.263576,-0.129124 -0.380855,-0.191204 z m 9.699665,0 -0.74259,1.401979 0.701249,0.371554 c 0.150455,0.07964 0.295383,0.150495 0.431498,0.216525 l 0.713137,0.345715 0.693496,-1.427819 -0.7152,-0.345715 c -0.13639,-0.06617 -0.263578,-0.129124 -0.380857,-0.191204 z" />
      <rect
         style="fill:#808080;fill-opacity:1;stroke:none;stroke-width:1.5875;stroke-linecap:square;stroke-linejoin:miter;stroke-miterlimit:4;stroke-dasharray:1.5875, 3.175;stroke-dashoffset:0;stroke-opacity:1;paint-order:markers fill stroke"
         id="rect1037"
         width="30.347635"
         height="2.7374227"
         x="17.085293"
         y="23.409683" />
      <path
         sodipodi:type="star"
         style="fill:#808080;fill-opacity:1;stroke:none;stroke-width:1.5875;stroke-linecap:square;stroke-linejoin:miter;stroke-miterlimit:4;stroke-dasharray:1.5875, 3.175;stroke-dashoffset:0;stroke-opacity:1;paint-order:markers fill stroke"
         id="path1039"
         sodipodi:sides="3"
         sodipodi:cx="49.08482"
         sodipodi:cy="24.919987"
         sodipodi:r1="3.9690354"
         sodipodi:r2="1.9845178"
         sodipodi:arg1="0"
         sodipodi:arg2="1.0471976"
         inkscape:flatsided="true"
         inkscape:rounded="0"
         inkscape:randomized="0"
         d="m 53.053855,24.919987 -5.953553,3.437285 v -6.874571 z"
         inkscape:transform-center-x="-0.99225809" />
    </g>
  </g>
</svg>
