<?xml version="1.0" encoding="UTF-8" standalone="no"?>
<svg
   xmlns:osb="http://www.openswatchbook.org/uri/2009/osb"
   xmlns:dc="http://purl.org/dc/elements/1.1/"
   xmlns:cc="http://creativecommons.org/ns#"
   xmlns:rdf="http://www.w3.org/1999/02/22-rdf-syntax-ns#"
   xmlns:svg="http://www.w3.org/2000/svg"
   xmlns="http://www.w3.org/2000/svg"
   xmlns:sodipodi="http://sodipodi.sourceforge.net/DTD/sodipodi-0.dtd"
   xmlns:inkscape="http://www.inkscape.org/namespaces/inkscape"
   width="256"
   height="256"
   viewBox="0 0 67.733332 67.733335"
   version="1.1"
   id="svg8"
   inkscape:version="1.0.1 (3bc2e813f5, 2020-09-07)"
   sodipodi:docname="astromech-repair.svg"
   inkscape:export-filename="C:\Users\keath\Workspace\KMX\elite-streamdeck-icons\srv.png"
   inkscape:export-xdpi="96"
   inkscape:export-ydpi="96">
  <defs
     id="defs2">
    <linearGradient
       id="linearGradient1429"
       osb:paint="solid">
      <stop
         style="stop-color:#000000;stop-opacity:1;"
         offset="0"
         id="stop1427" />
    </linearGradient>
  </defs>
  <sodipodi:namedview
     id="base"
     pagecolor="#000000"
     bordercolor="#666666"
     borderopacity="1"
     inkscape:pageopacity="0"
     inkscape:pageshadow="2"
     inkscape:zoom="5.6"
     inkscape:cx="112.71089"
     inkscape:cy="104.98809"
     inkscape:document-units="px"
     inkscape:current-layer="layer2"
     showgrid="true"
     units="px"
     inkscape:snap-grids="false"
     objecttolerance="10000"
     guidetolerance="10000"
     inkscape:window-width="2752"
     inkscape:window-height="1879"
     inkscape:window-x="4802"
     inkscape:window-y="103"
     inkscape:window-maximized="0"
     inkscape:document-rotation="0"
     showguides="true"
     showborder="true"
     borderlayer="false"
     inkscape:snap-to-guides="false"
     inkscape:snap-global="false">
    <inkscape:grid
       type="xygrid"
       id="grid4623" />
    <sodipodi:guide
       position="-3.96875,62.441667"
       orientation="0,256"
       id="guide3351" />
    <sodipodi:guide
       position="62.177083,70.379167"
       orientation="256,0"
       id="guide3353" />
    <sodipodi:guide
       position="-2.6458333,22.754167"
       orientation="0,-256"
       id="guide3355" />
    <sodipodi:guide
       position="5.2916667,70.379167"
       orientation="-256,0"
       id="guide3357" />
    <sodipodi:guide
       position="0,67.733334"
       orientation="0,256"
       id="guide3359" />
    <sodipodi:guide
       position="67.733334,67.733334"
       orientation="256,0"
       id="guide3361" />
    <sodipodi:guide
       position="67.733334,0"
       orientation="0,-256"
       id="guide3363" />
    <sodipodi:guide
       position="0,0"
       orientation="-256,0"
       id="guide3365" />
    <sodipodi:guide
       position="0,67.733334"
       orientation="0,256"
       id="guide3367" />
    <sodipodi:guide
       position="67.733334,67.733334"
       orientation="256,0"
       id="guide3369" />
    <sodipodi:guide
       position="67.733334,0"
       orientation="0,-256"
       id="guide3371" />
    <sodipodi:guide
       position="0,0"
       orientation="-256,0"
       id="guide3373" />
    <sodipodi:guide
       position="0,67.733334"
       orientation="0,256"
       id="guide3375" />
    <sodipodi:guide
       position="67.733334,0"
       orientation="0,-256"
       id="guide3379" />
    <sodipodi:guide
       position="0,0"
       orientation="-256,0"
       id="guide3381" />
  </sodipodi:namedview>
  <metadata
     id="metadata5">
    <rdf:RDF>
      <cc:Work
         rdf:about="">
        <dc:format>image/svg+xml</dc:format>
        <dc:type
           rdf:resource="http://purl.org/dc/dcmitype/StillImage" />
        <dc:title />
      </cc:Work>
    </rdf:RDF>
  </metadata>
  <g
     inkscape:groupmode="layer"
     id="layer2"
     inkscape:label="Icon">
    <g
       id="g3043"
       transform="matrix(0.49927578,0,0,0.49927578,-4.9790258,-11.965863)"
       style="stroke-width:2.28018">
      <path
         id="path2975"
         style="fill:#808080;fill-opacity:1;stroke:none;stroke-width:50.164;stroke-linecap:round;stroke-linejoin:miter;stroke-miterlimit:4;stroke-dasharray:none;stroke-dashoffset:6.00002;stroke-opacity:1;paint-order:markers fill stroke"
         d="M 289.67578,130 A 140.00001,140.00001 0 0 0 220,148.75586 140.00001,140.00001 0 0 0 164.43359,245 H 415.56641 A 140.00001,140.00001 0 0 0 360,148.75586 140.00001,140.00001 0 0 0 289.67578,130 Z m 1.63672,27.96875 a 19.999999,19.999999 0 0 1 0.20312,0 19.999999,19.999999 0 0 1 20,20 19.999999,19.999999 0 0 1 -20,20 19.999999,19.999999 0 0 1 -20,-20 19.999999,19.999999 0 0 1 19.79688,-20 z m 44.74219,32.92773 a 10.807611,10.807611 0 0 1 10.80859,10.8086 10.807611,10.807611 0 0 1 -10.80859,10.80664 10.807611,10.807611 0 0 1 -10.80664,-10.80664 10.807611,10.807611 0 0 1 10.80664,-10.8086 z"
         transform="scale(0.26458333)" />
      <path
         id="rect3022"
         style="fill:#808080;fill-opacity:1;stroke:none;stroke-width:50.164;stroke-linecap:round;stroke-linejoin:miter;stroke-miterlimit:4;stroke-dasharray:none;stroke-dashoffset:6.00002;stroke-opacity:1;paint-order:markers fill stroke"
         d="M 140,270 V 430 H 440 V 270 Z m 79.30469,35.38867 a 40.416771,40.416771 0 0 1 0.16992,0 40.416771,40.416771 0 0 1 36.05664,22.16016 h 70.97852 a 40.416771,40.416771 0 0 1 36.05664,-22.16016 40.416771,40.416771 0 0 1 0.17187,0 40.416771,40.416771 0 0 1 35.5625,21.53516 H 359.60156 V 364.375 h 38.86133 A 40.416771,40.416771 0 0 1 362.56641,386.22266 40.416771,40.416771 0 0 1 327,365 H 255.04102 A 40.416771,40.416771 0 0 1 219.47461,386.22266 40.416771,40.416771 0 0 1 183.57812,364.375 h 38.86133 v -37.45117 h -38.69726 a 40.416771,40.416771 0 0 1 35.5625,-21.53516 z"
         transform="scale(0.26458333)" />
    </g>
  </g>
</svg>
