<?xml version="1.0" encoding="UTF-8" standalone="no"?>
<svg
   xmlns:dc="http://purl.org/dc/elements/1.1/"
   xmlns:cc="http://creativecommons.org/ns#"
   xmlns:rdf="http://www.w3.org/1999/02/22-rdf-syntax-ns#"
   xmlns:svg="http://www.w3.org/2000/svg"
   xmlns="http://www.w3.org/2000/svg"
   xmlns:sodipodi="http://sodipodi.sourceforge.net/DTD/sodipodi-0.dtd"
   xmlns:inkscape="http://www.inkscape.org/namespaces/inkscape"
   width="256"
   height="256"
   viewBox="0 0 67.733332 67.733335"
   version="1.1"
   id="svg8"
   inkscape:version="1.0.1 (3bc2e813f5, 2020-09-07)"
   sodipodi:docname="balance-power.svg"
   inkscape:export-filename="C:\Users\keath\Workspace\KMX\elite-streamdeck-icons\chaff.png"
   inkscape:export-xdpi="96"
   inkscape:export-ydpi="96">
  <defs
     id="defs2" />
  <sodipodi:namedview
     id="base"
     pagecolor="#000000"
     bordercolor="#666666"
     borderopacity="1.0"
     inkscape:pageopacity="0"
     inkscape:pageshadow="2"
     inkscape:zoom="3.959798"
     inkscape:cx="87.214126"
     inkscape:cy="86.50103"
     inkscape:document-units="px"
     inkscape:current-layer="layer2"
     showgrid="true"
     units="px"
     inkscape:snap-grids="true"
     objecttolerance="10000"
     guidetolerance="10000"
     inkscape:window-width="2321"
     inkscape:window-height="1879"
     inkscape:window-x="5315"
     inkscape:window-y="79"
     inkscape:window-maximized="0"
     inkscape:document-rotation="0"
     showguides="true"
     inkscape:snap-to-guides="false"
     inkscape:snap-others="false"
     inkscape:snap-nodes="false"
     inkscape:snap-global="true">
    <inkscape:grid
       type="xygrid"
       id="grid4623" />
    <sodipodi:guide
       position="-3.96875,62.441667"
       orientation="0,256"
       id="guide3351" />
    <sodipodi:guide
       position="62.177083,70.379167"
       orientation="256,0"
       id="guide3353" />
    <sodipodi:guide
       position="-2.6458333,22.754167"
       orientation="0,-256"
       id="guide3355" />
    <sodipodi:guide
       position="5.2916667,70.379167"
       orientation="-256,0"
       id="guide3357" />
    <sodipodi:guide
       position="0,67.733334"
       orientation="0,256"
       id="guide3359" />
    <sodipodi:guide
       position="67.733334,67.733334"
       orientation="256,0"
       id="guide3361" />
    <sodipodi:guide
       position="67.733334,0"
       orientation="0,-256"
       id="guide3363" />
    <sodipodi:guide
       position="0,0"
       orientation="-256,0"
       id="guide3365" />
    <sodipodi:guide
       position="0,67.733334"
       orientation="0,256"
       id="guide3367" />
    <sodipodi:guide
       position="67.733334,67.733334"
       orientation="256,0"
       id="guide3369" />
    <sodipodi:guide
       position="67.733334,0"
       orientation="0,-256"
       id="guide3371" />
    <sodipodi:guide
       position="0,0"
       orientation="-256,0"
       id="guide3373" />
    <sodipodi:guide
       position="0,67.733334"
       orientation="0,256"
       id="guide3375" />
    <sodipodi:guide
       position="67.733334,67.733334"
       orientation="256,0"
       id="guide3377" />
    <sodipodi:guide
       position="67.733334,0"
       orientation="0,-256"
       id="guide3379" />
    <sodipodi:guide
       position="0,0"
       orientation="-256,0"
       id="guide3381" />
  </sodipodi:namedview>
  <metadata
     id="metadata5">
    <rdf:RDF>
      <cc:Work
         rdf:about="">
        <dc:format>image/svg+xml</dc:format>
        <dc:type
           rdf:resource="http://purl.org/dc/dcmitype/StillImage" />
        <dc:title />
      </cc:Work>
    </rdf:RDF>
  </metadata>
  <g
     inkscape:groupmode="layer"
     id="layer2"
     inkscape:label="Icon">
    <path
       id="path2554"
       style="color:#000000;font-style:normal;font-variant:normal;font-weight:normal;font-stretch:normal;font-size:medium;line-height:normal;font-family:sans-serif;font-variant-ligatures:normal;font-variant-position:normal;font-variant-caps:normal;font-variant-numeric:normal;font-variant-alternates:normal;font-variant-east-asian:normal;font-feature-settings:normal;font-variation-settings:normal;text-indent:0;text-align:start;text-decoration:none;text-decoration-line:none;text-decoration-style:solid;text-decoration-color:#000000;letter-spacing:normal;word-spacing:normal;text-transform:none;writing-mode:lr-tb;direction:ltr;text-orientation:mixed;dominant-baseline:auto;baseline-shift:baseline;text-anchor:start;white-space:normal;shape-padding:0;shape-margin:0;inline-size:0;clip-rule:nonzero;display:inline;overflow:visible;visibility:visible;opacity:1;isolation:auto;mix-blend-mode:normal;color-interpolation:sRGB;color-interpolation-filters:linearRGB;solid-color:#000000;solid-opacity:1;vector-effect:none;fill:#808080;fill-opacity:1;fill-rule:nonzero;stroke:none;stroke-width:0.545282;stroke-linecap:square;stroke-linejoin:miter;stroke-miterlimit:4;stroke-dasharray:none;stroke-dashoffset:6.00002;stroke-opacity:1;paint-order:markers fill stroke;color-rendering:auto;image-rendering:auto;shape-rendering:auto;text-rendering:auto;enable-background:accumulate;stop-color:#000000;stop-opacity:1"
       d="m 26.986111,5.6126889 c -1.17126,0 -2.126492,0.9552374 -2.126492,2.1264984 0,1.1712617 0.955232,2.1266024 2.126492,2.1266024 1.171263,0 2.126495,-0.955346 2.126495,-2.1266024 0,-1.171261 -0.955232,-2.1264984 -2.126495,-2.1264984 z m 7.416056,0 c -1.17126,0 -2.126923,0.9552374 -2.126923,2.1264984 0,1.1712564 0.955663,2.1266024 2.126923,2.1266024 1.171262,0 2.126499,-0.9553407 2.126499,-2.1266024 0,-1.171261 -0.955237,-2.1264984 -2.126499,-2.1264984 z m 7.415631,0 c -1.171256,0 -2.126493,0.9552374 -2.126493,2.1264984 0,1.1712564 0.955237,2.1266024 2.126493,2.1266024 1.171256,0 2.126493,-0.955346 2.126493,-2.1266024 0,-1.171261 -0.955237,-2.1264984 -2.126493,-2.1264984 z M 26.986111,6.1577583 c 0.876569,0 1.581533,0.7048603 1.581533,1.581429 0,0.8765638 -0.704964,1.5811072 -1.581533,1.5811072 -0.05478,0 -0.108886,-0.00274 -0.162199,-0.0081 -0.02666,-0.00269 -0.0531,-0.00602 -0.07935,-0.010011 C 25.983648,9.1867145 25.405,8.5335752 25.405,7.7391857 c 0,-0.027394 6.72e-4,-0.054539 0.002,-0.08158 0.04216,-0.8382796 0.729909,-1.499849 1.579083,-1.499849 z m 7.416056,0 c 0.87657,0 1.581108,0.7048603 1.581108,1.581429 0,0.8765691 -0.704538,1.5811072 -1.581108,1.5811072 -0.876568,0 -1.581531,-0.7045434 -1.581531,-1.5811072 0,-0.8765687 0.704963,-1.581429 1.581531,-1.581429 z m 7.415631,0 c 0.876568,0 1.581532,0.7048603 1.581532,1.581429 0,0.8765638 -0.704964,1.5811072 -1.581532,1.5811072 -0.876569,0 -1.581532,-0.7045434 -1.581532,-1.5811072 0,-0.8765687 0.704963,-1.581429 1.581532,-1.581429 z M 26.986111,10.618001 c -1.17126,0 -2.126492,0.955766 -2.126492,2.127028 0,1.171261 0.955232,2.126498 2.126492,2.126498 1.171263,0 2.126495,-0.955237 2.126495,-2.126498 4e-6,-1.171262 -0.955232,-2.127028 -2.126495,-2.127028 z m 7.416056,0 c -1.17126,0 -2.126923,0.955766 -2.126923,2.127028 0,1.171261 0.955663,2.126498 2.126923,2.126498 1.171262,0 2.126499,-0.955237 2.126499,-2.126498 0,-1.171262 -0.955237,-2.127028 -2.126499,-2.127028 z m 7.415631,0 c -1.171261,0 -2.126493,0.955766 -2.126493,2.127028 0,1.171261 0.955237,2.126498 2.126493,2.126498 1.171256,0 2.126493,-0.955237 2.126493,-2.126498 0,-1.171262 -0.955231,-2.127028 -2.126493,-2.127028 z m -14.831687,0.545496 c 0.876569,0 1.581533,0.704962 1.581533,1.581532 0,0.876568 -0.704964,1.581106 -1.581533,1.581106 -0.876569,0 -1.581105,-0.704538 -1.581105,-1.581106 0,-0.87657 0.704536,-1.581532 1.581105,-1.581532 z m 7.416056,0 c 0.87657,0 1.581108,0.704962 1.581108,1.581532 0,0.876568 -0.704538,1.581106 -1.581108,1.581106 -0.876568,0 -1.581531,-0.704538 -1.581531,-1.581106 0,-0.87657 0.704963,-1.581532 1.581531,-1.581532 z m 7.415631,0 c 0.876568,0 1.581532,0.704962 1.581532,1.581532 0,0.876568 -0.704964,1.581106 -1.581532,1.581106 -0.876569,0 -1.581532,-0.704538 -1.581532,-1.581106 0,-0.87657 0.704963,-1.581532 1.581532,-1.581532 z m -14.831687,4.460345 c -1.17126,0 -2.126492,0.955237 -2.126492,2.126498 0,1.171262 0.955232,2.126924 2.126492,2.126919 1.171263,0 2.126495,-0.955657 2.126495,-2.126919 4e-6,-1.171261 -0.955232,-2.126498 -2.126495,-2.126498 z m 7.416056,0 c -1.17126,0 -2.126923,0.955237 -2.126923,2.126498 0,1.171262 0.955663,2.126919 2.126923,2.126919 1.171262,5e-6 2.126499,-0.955657 2.126499,-2.126919 0,-1.171261 -0.955237,-2.126498 -2.126499,-2.126498 z m 7.415631,0 c -1.171261,0 -2.126493,0.955237 -2.126493,2.126498 0,1.171262 0.955237,2.126919 2.126493,2.126919 1.171256,0 2.126493,-0.955657 2.126493,-2.126919 0,-1.171261 -0.955231,-2.126498 -2.126493,-2.126498 z m -14.831687,0.545392 c 0.876569,0 1.581533,0.704537 1.581533,1.581106 0,0.876564 -0.704964,1.581532 -1.581533,1.581532 -0.876569,0 -1.581105,-0.704963 -1.581105,-1.581532 0,-0.876569 0.704536,-1.581112 1.581105,-1.581106 z m 7.416056,0 c 0.87657,-6e-6 1.581108,0.704537 1.581108,1.581106 0,0.876569 -0.704538,1.581532 -1.581108,1.581532 -0.876568,0 -1.581531,-0.704968 -1.581531,-1.581532 0,-0.876569 0.704963,-1.581106 1.581531,-1.581106 z m 7.415631,0 c 0.876568,0 1.581532,0.704537 1.581532,1.581106 0,0.876564 -0.704964,1.581532 -1.581532,1.581532 -0.876569,0 -1.581532,-0.704968 -1.581532,-1.581532 0,-0.876569 0.704963,-1.581106 1.581532,-1.581106 z m -14.831687,4.460345 c -1.17126,0 -2.126492,0.955236 -2.126492,2.126497 0,1.171263 0.955232,2.126497 2.126492,2.126495 1.171263,0 2.126499,-0.955234 2.126495,-2.126495 0,-1.171259 -0.955232,-2.126497 -2.126495,-2.126497 z m 7.416056,0 c -1.17126,0 -2.126923,0.955238 -2.126923,2.126497 0,1.171261 0.955663,2.126495 2.126923,2.126495 1.171262,2e-6 2.126499,-0.955232 2.126499,-2.126495 0,-1.171261 -0.955237,-2.126497 -2.126499,-2.126497 z m 7.415631,0 c -1.171256,0 -2.126493,0.955238 -2.126493,2.126497 0,1.171261 0.955232,2.126495 2.126493,2.126495 1.171262,0 2.126493,-0.955234 2.126493,-2.126495 0,-1.171259 -0.955237,-2.126497 -2.126493,-2.126497 z m -14.831687,0.545392 c 0.876569,0 1.581533,0.704537 1.581533,1.581105 0,0.876569 -0.704964,1.581533 -1.581533,1.581533 -0.876569,0 -1.581105,-0.704964 -1.581105,-1.581533 0,-0.876568 0.704536,-1.581105 1.581105,-1.581105 z m 7.416056,0 c 0.87657,0 1.581108,0.704537 1.581108,1.581105 0,0.876569 -0.704538,1.581533 -1.581108,1.581533 -0.876568,0 -1.581531,-0.704964 -1.581531,-1.581533 0,-0.876568 0.704963,-1.581105 1.581531,-1.581105 z m 7.415631,0 c 0.876568,0 1.581532,0.704537 1.581532,1.581105 0,0.876569 -0.704964,1.581533 -1.581532,1.581533 -0.876569,0 -1.581532,-0.704964 -1.581532,-1.581533 0,-0.876568 0.704963,-1.581105 1.581532,-1.581105 z m -14.831687,4.732986 a 1.8539607,1.8539607 0 0 0 -1.853959,1.85396 1.8539607,1.8539607 0 0 0 1.853959,1.853963 1.8539607,1.8539607 0 0 0 1.853962,-1.853963 1.8539607,1.8539607 0 0 0 -1.853962,-1.85396 z m 7.415844,0 a 1.8539607,1.8539607 0 0 0 -1.853961,1.85396 1.8539607,1.8539607 0 0 0 1.853961,1.853963 1.8539607,1.8539607 0 0 0 1.853961,-1.853963 1.8539607,1.8539607 0 0 0 -1.853961,-1.85396 z m 7.415843,0 a 1.8539607,1.8539607 0 0 0 -1.853961,1.85396 1.8539607,1.8539607 0 0 0 1.853961,1.853963 1.8539607,1.8539607 0 0 0 1.853961,-1.853963 1.8539607,1.8539607 0 0 0 -1.853961,-1.85396 z m -14.831687,5.005631 a 1.8539607,1.8539607 0 0 0 -1.853959,1.853961 1.8539607,1.8539607 0 0 0 1.853959,1.853961 1.8539607,1.8539607 0 0 0 1.853962,-1.853961 1.8539607,1.8539607 0 0 0 -1.853962,-1.853961 z m 7.415844,0 a 1.8539607,1.8539607 0 0 0 -1.853961,1.853961 1.8539607,1.8539607 0 0 0 1.853961,1.853961 1.8539607,1.8539607 0 0 0 1.853961,-1.853961 1.8539607,1.8539607 0 0 0 -1.853961,-1.853961 z m 7.415843,0 a 1.8539607,1.8539607 0 0 0 -1.853961,1.853961 1.8539607,1.8539607 0 0 0 1.853961,1.853961 1.8539607,1.8539607 0 0 0 1.853961,-1.853961 1.8539607,1.8539607 0 0 0 -1.853961,-1.853961 z m -14.831687,5.005737 a 1.8539607,1.8539607 0 0 0 -1.853959,1.853959 1.8539607,1.8539607 0 0 0 1.853959,1.85396 1.8539607,1.8539607 0 0 0 1.853962,-1.85396 1.8539607,1.8539607 0 0 0 -1.853962,-1.853959 z m 7.415844,0 a 1.8539607,1.8539607 0 0 0 -1.853961,1.853959 1.8539607,1.8539607 0 0 0 1.853961,1.85396 1.8539607,1.8539607 0 0 0 1.853961,-1.85396 1.8539607,1.8539607 0 0 0 -1.853961,-1.853959 z m 7.415843,0 a 1.8539607,1.8539607 0 0 0 -1.853961,1.853959 1.8539607,1.8539607 0 0 0 1.853961,1.85396 1.8539607,1.8539607 0 0 0 1.853961,-1.85396 1.8539607,1.8539607 0 0 0 -1.853961,-1.853959 z M 26.986111,40.92506 a 1.8539607,1.8539607 0 0 0 -1.853959,1.853962 1.8539607,1.8539607 0 0 0 1.853959,1.85396 1.8539607,1.8539607 0 0 0 1.853962,-1.85396 1.8539607,1.8539607 0 0 0 -1.853962,-1.853962 z m 7.415844,0 a 1.8539607,1.8539607 0 0 0 -1.853961,1.853962 1.8539607,1.8539607 0 0 0 1.853961,1.85396 1.8539607,1.8539607 0 0 0 1.853961,-1.85396 1.8539607,1.8539607 0 0 0 -1.853961,-1.853962 z m 7.415843,0 a 1.8539607,1.8539607 0 0 0 -1.853961,1.853962 1.8539607,1.8539607 0 0 0 1.853961,1.85396 1.8539607,1.8539607 0 0 0 1.853961,-1.85396 1.8539607,1.8539607 0 0 0 -1.853961,-1.853962 z" />
  </g>
</svg>
