<?xml version="1.0" encoding="UTF-8" standalone="no"?>
<svg
   xmlns:dc="http://purl.org/dc/elements/1.1/"
   xmlns:cc="http://creativecommons.org/ns#"
   xmlns:rdf="http://www.w3.org/1999/02/22-rdf-syntax-ns#"
   xmlns:svg="http://www.w3.org/2000/svg"
   xmlns="http://www.w3.org/2000/svg"
   xmlns:sodipodi="http://sodipodi.sourceforge.net/DTD/sodipodi-0.dtd"
   xmlns:inkscape="http://www.inkscape.org/namespaces/inkscape"
   inkscape:export-ydpi="96"
   inkscape:export-xdpi="96"
   inkscape:export-filename="C:\Users\keath\Workspace\KMX\elite-streamdeck-icons\ship-lights.png"
   sodipodi:docname="comms-battle-cry.svg"
   inkscape:version="1.0.1 (3bc2e813f5, 2020-09-07)"
   id="svg8"
   version="1.1"
   viewBox="0 0 67.733332 67.733338"
   height="256"
   width="256">
  <defs
     id="defs2">
    <inkscape:path-effect
       effect="fillet_chamfer"
       id="path-effect1414"
       is_visible="true"
       lpeversion="1"
       satellites_param="F,0,0,1,0,0,0,1 @ F,0,0,1,0,0,0,1 @ F,0,0,1,0,0,0,1"
       unit="px"
       method="bezier"
       mode="F"
       radius="0"
       chamfer_steps="1"
       flexible="false"
       use_knot_distance="true"
       apply_no_radius="true"
       apply_with_radius="true"
       only_selected="false"
       hide_knots="false" />
  </defs>
  <sodipodi:namedview
     id="base"
     pagecolor="#000000"
     bordercolor="#666666"
     borderopacity="1.0"
     inkscape:pageopacity="0"
     inkscape:pageshadow="2"
     inkscape:zoom="4.6035152"
     inkscape:cx="155.24058"
     inkscape:cy="79.727223"
     inkscape:document-units="px"
     inkscape:current-layer="layer2"
     showgrid="true"
     units="px"
     inkscape:snap-grids="false"
     objecttolerance="1"
     guidetolerance="10000"
     inkscape:window-width="2321"
     inkscape:window-height="1879"
     inkscape:window-x="5307"
     inkscape:window-y="49"
     inkscape:window-maximized="0"
     inkscape:document-rotation="0"
     showguides="true"
     inkscape:snap-to-guides="false"
     gridtolerance="10">
    <inkscape:grid
       type="xygrid"
       id="grid4623" />
    <sodipodi:guide
       position="-3.96875,62.441667"
       orientation="0,256"
       id="guide3351" />
    <sodipodi:guide
       position="62.177083,70.379167"
       orientation="256,0"
       id="guide3353" />
    <sodipodi:guide
       position="-2.6458333,22.754167"
       orientation="0,-256"
       id="guide3355" />
    <sodipodi:guide
       position="5.2916667,70.379167"
       orientation="-256,0"
       id="guide3357" />
    <sodipodi:guide
       position="0,67.733334"
       orientation="0,256"
       id="guide3359" />
    <sodipodi:guide
       position="67.733334,67.733334"
       orientation="256,0"
       id="guide3361" />
    <sodipodi:guide
       position="67.733334,0"
       orientation="0,-256"
       id="guide3363" />
    <sodipodi:guide
       position="0,0"
       orientation="-256,0"
       id="guide3365" />
    <sodipodi:guide
       position="0,67.733334"
       orientation="0,256"
       id="guide3367" />
    <sodipodi:guide
       position="67.733334,67.733334"
       orientation="256,0"
       id="guide3369" />
    <sodipodi:guide
       position="67.733334,0"
       orientation="0,-256"
       id="guide3371" />
    <sodipodi:guide
       position="0,0"
       orientation="-256,0"
       id="guide3373" />
    <sodipodi:guide
       position="0,67.733334"
       orientation="0,256"
       id="guide3375" />
    <sodipodi:guide
       position="67.733334,67.733334"
       orientation="256,0"
       id="guide3377" />
    <sodipodi:guide
       position="67.733334,0"
       orientation="0,-256"
       id="guide3379" />
    <sodipodi:guide
       position="0,0"
       orientation="-256,0"
       id="guide3381" />
  </sodipodi:namedview>
  <metadata
     id="metadata5">
    <rdf:RDF>
      <cc:Work
         rdf:about="">
        <dc:format>image/svg+xml</dc:format>
        <dc:type
           rdf:resource="http://purl.org/dc/dcmitype/StillImage" />
        <dc:title />
      </cc:Work>
    </rdf:RDF>
  </metadata>
  <g
     inkscape:groupmode="layer"
     id="layer2"
     inkscape:label="Icon">
    <path
       id="rect863"
       style="fill:none;fill-opacity:1;stroke:#808080;stroke-width:2.36345;stroke-linecap:round;stroke-linejoin:round;stroke-miterlimit:4;stroke-dasharray:none;stroke-dashoffset:6.00002;stroke-opacity:1;paint-order:markers fill stroke"
       d="M 11.975207,6.7389855 H 54.919823 V 36.615008 H 48.12028 l -12.755517,7.113339 3.64896,-7.113339 H 11.975207 Z"
       sodipodi:nodetypes="cccccccc" />
    <path
       id="path1158"
       style="color:#000000;font-style:normal;font-variant:normal;font-weight:normal;font-stretch:normal;font-size:medium;line-height:normal;font-family:sans-serif;font-variant-ligatures:normal;font-variant-position:normal;font-variant-caps:normal;font-variant-numeric:normal;font-variant-alternates:normal;font-variant-east-asian:normal;font-feature-settings:normal;font-variation-settings:normal;text-indent:0;text-align:start;text-decoration:none;text-decoration-line:none;text-decoration-style:solid;text-decoration-color:#000000;letter-spacing:normal;word-spacing:normal;text-transform:none;writing-mode:lr-tb;direction:ltr;text-orientation:mixed;dominant-baseline:auto;baseline-shift:baseline;text-anchor:start;white-space:normal;shape-padding:0;shape-margin:0;inline-size:0;clip-rule:nonzero;display:inline;overflow:visible;visibility:visible;opacity:1;isolation:auto;mix-blend-mode:normal;color-interpolation:sRGB;color-interpolation-filters:linearRGB;solid-color:#000000;solid-opacity:1;vector-effect:none;fill:#808080;fill-opacity:1;fill-rule:nonzero;stroke:none;stroke-width:1.34628;stroke-linecap:round;stroke-linejoin:round;stroke-miterlimit:4;stroke-dasharray:none;stroke-dashoffset:6.00002;stroke-opacity:1;paint-order:markers fill stroke;color-rendering:auto;image-rendering:auto;shape-rendering:auto;text-rendering:auto;enable-background:accumulate;stop-color:#000000;stop-opacity:1"
       d="m 44.936218,10.851735 a 0.67314132,0.67314132 0 0 0 -0.02695,6.57e-4 0.67314132,0.67314132 0 0 0 -0.504199,0.266234 l -3.108031,4.131549 a 0.67314132,0.67314132 0 0 0 0.134105,0.941348 0.67314132,0.67314132 0 0 0 0.942006,-0.131473 l 3.108028,-4.13155 a 0.67314132,0.67314132 0 0 0 -0.134097,-0.942005 0.67314132,0.67314132 0 0 0 -0.410857,-0.13476 z m 5.372001,2.959464 a 0.67314132,0.67314132 0 0 0 -0.01971,6.57e-4 0.67314132,0.67314132 0 0 0 -0.335259,0.106498 l -5.520563,3.545178 a 0.67314132,0.67314132 0 0 0 -0.203784,0.932147 0.67314132,0.67314132 0 0 0 0.931489,0.201154 l 5.520563,-3.545178 a 0.67314132,0.67314132 0 0 0 0.201152,-0.932145 0.67314132,0.67314132 0 0 0 -0.573882,-0.308306 z m -13.970355,1.972759 c -0.104233,-0.0035 -0.208087,-3.59e-4 -0.310934,0.0092 -0.342825,0.03193 -0.673672,0.137503 -0.962386,0.335915 -0.198861,0.136662 -0.361632,0.309534 -0.494997,0.503542 -4.946125,4.603882 -11.169725,9.905421 -18.464769,10.861668 a 0.6031488,0.6031488 0 0 0 -0.414798,0.249141 c -0.19397,0.274115 -0.393337,0.760574 -0.241254,1.256231 0.152083,0.495651 0.529055,0.914435 1.18326,1.424513 a 0.6031488,0.6031488 0 0 0 0.256373,0.116357 c 8.378131,1.613121 17.032582,1.582409 25.158734,-3.167194 0.199039,-0.05644 0.389132,-0.142092 0.564021,-0.262286 0.461938,-0.317466 0.741798,-0.820256 0.865093,-1.367324 0.123304,-0.547067 0.10959,-1.155699 -0.0045,-1.806443 -0.228318,-1.30149 -0.86396,-2.787259 -1.853774,-4.227525 -0.989813,-1.440265 -2.150353,-2.568433 -3.283546,-3.248049 -0.566598,-0.339806 -1.128606,-0.568507 -1.683518,-0.649477 -0.104043,-0.01517 -0.208675,-0.02488 -0.312904,-0.02826 z m -0.09465,1.201665 c 0.07095,9.6e-5 0.14817,0.006 0.232707,0.0184 0.338143,0.04935 0.77196,0.2135 1.239135,0.493682 0.934354,0.560363 2.00204,1.578128 2.907534,2.8957 0.905497,1.317574 1.472917,2.679787 1.661165,3.752907 0.09413,0.536558 0.09093,0.998458 0.01577,1.331824 -0.05627,0.249616 -0.142251,0.418699 -0.25243,0.536412 a 0.6030885,0.6030885 0 0 0 -0.193265,0.07428 c -0.08516,0.05167 -0.171083,0.10062 -0.256374,0.151194 -0.113138,0.01674 -0.242647,0.01687 -0.399022,-0.006 -0.338147,-0.04935 -0.768013,-0.212842 -1.235192,-0.493024 -0.934349,-0.560363 -2.002691,-1.57747 -2.908188,-2.895042 -0.905495,-1.317573 -1.472918,-2.679787 -1.661165,-3.752906 -0.09413,-0.53656 -0.09352,-0.99912 -0.01841,-1.332482 0.03186,-0.14138 0.07533,-0.251765 0.125555,-0.346433 0.123036,-0.114716 0.25606,-0.234857 0.377326,-0.348404 a 0.6030885,0.6030885 0 0 0 0.02038,-0.01971 c 0.04634,-0.01814 0.09531,-0.03409 0.149879,-0.04403 0.05937,-0.01081 0.123621,-0.01652 0.194582,-0.01644 z m -2.112778,1.692718 c 0.01464,0.202646 0.03697,0.408456 0.07429,0.621212 0.228304,1.301491 0.865932,2.789233 1.855745,4.229496 0.989815,1.440266 2.149034,2.566462 3.282232,3.246077 0.222214,0.133268 0.443368,0.244957 0.663941,0.342488 -0.9454,0.4836 -1.897608,0.904621 -2.854943,1.267402 -2.51584,-2.029106 -4.520979,-4.339547 -5.272739,-7.674097 a 0.6030885,0.6030885 0 0 0 -0.0112,-0.04076 c 0.783808,-0.663048 1.534441,-1.33021 2.262654,-1.991822 z m 17.109939,2.297497 a 0.67314132,0.67314132 0 0 0 -0.01775,0.0013 l -5.483096,0.367468 a 0.67314132,0.67314132 0 0 0 -0.628444,0.715872 0.67314132,0.67314132 0 0 0 0.717847,0.625813 l 5.483094,-0.365496 a 0.67314132,0.67314132 0 0 0 0.62647,-0.715215 0.67314132,0.67314132 0 0 0 -0.698123,-0.629757 z m -20.399403,0.544956 c 0.847179,3.12053 2.736924,5.415109 4.983496,7.331613 -6.056743,1.954305 -12.314147,1.709346 -18.538396,0.527862 -0.424264,-0.359684 -0.659586,-0.65367 -0.684319,-0.73428 -0.0077,-0.02551 0.023,-0.04564 0.02105,-0.0585 5.417803,-0.815862 10.165325,-3.78081 14.218183,-7.066691 z" />
  </g>
</svg>
