<?xml version="1.0" encoding="UTF-8" standalone="no"?>
<svg
   xmlns:dc="http://purl.org/dc/elements/1.1/"
   xmlns:cc="http://creativecommons.org/ns#"
   xmlns:rdf="http://www.w3.org/1999/02/22-rdf-syntax-ns#"
   xmlns:svg="http://www.w3.org/2000/svg"
   xmlns="http://www.w3.org/2000/svg"
   xmlns:sodipodi="http://sodipodi.sourceforge.net/DTD/sodipodi-0.dtd"
   xmlns:inkscape="http://www.inkscape.org/namespaces/inkscape"
   inkscape:export-ydpi="96"
   inkscape:export-xdpi="96"
   inkscape:export-filename="C:\Users\keath\Workspace\KMX\elite-streamdeck-icons\ship-lights.png"
   sodipodi:docname="comms-brag.svg"
   inkscape:version="1.0.1 (3bc2e813f5, 2020-09-07)"
   id="svg8"
   version="1.1"
   viewBox="0 0 67.733332 67.733338"
   height="256"
   width="256">
  <defs
     id="defs2">
    <inkscape:path-effect
       effect="fillet_chamfer"
       id="path-effect1414"
       is_visible="true"
       lpeversion="1"
       satellites_param="F,0,0,1,0,0,0,1 @ F,0,0,1,0,0,0,1 @ F,0,0,1,0,0,0,1"
       unit="px"
       method="bezier"
       mode="F"
       radius="0"
       chamfer_steps="1"
       flexible="false"
       use_knot_distance="true"
       apply_no_radius="true"
       apply_with_radius="true"
       only_selected="false"
       hide_knots="false" />
  </defs>
  <sodipodi:namedview
     id="base"
     pagecolor="#000000"
     bordercolor="#666666"
     borderopacity="1.0"
     inkscape:pageopacity="0"
     inkscape:pageshadow="2"
     inkscape:zoom="2.3017576"
     inkscape:cx="37.703586"
     inkscape:cy="132.33233"
     inkscape:document-units="px"
     inkscape:current-layer="layer2"
     showgrid="true"
     units="px"
     inkscape:snap-grids="false"
     objecttolerance="1"
     guidetolerance="10000"
     inkscape:window-width="3840"
     inkscape:window-height="2066"
     inkscape:window-x="3829"
     inkscape:window-y="-11"
     inkscape:window-maximized="1"
     inkscape:document-rotation="0"
     showguides="true"
     inkscape:snap-to-guides="false"
     gridtolerance="10">
    <inkscape:grid
       type="xygrid"
       id="grid4623" />
    <sodipodi:guide
       position="-3.96875,62.441667"
       orientation="0,256"
       id="guide3351" />
    <sodipodi:guide
       position="62.177083,70.379167"
       orientation="256,0"
       id="guide3353" />
    <sodipodi:guide
       position="-2.6458333,22.754167"
       orientation="0,-256"
       id="guide3355" />
    <sodipodi:guide
       position="5.2916667,70.379167"
       orientation="-256,0"
       id="guide3357" />
    <sodipodi:guide
       position="0,67.733334"
       orientation="0,256"
       id="guide3359" />
    <sodipodi:guide
       position="67.733334,67.733334"
       orientation="256,0"
       id="guide3361" />
    <sodipodi:guide
       position="67.733334,0"
       orientation="0,-256"
       id="guide3363" />
    <sodipodi:guide
       position="0,0"
       orientation="-256,0"
       id="guide3365" />
    <sodipodi:guide
       position="0,67.733334"
       orientation="0,256"
       id="guide3367" />
    <sodipodi:guide
       position="67.733334,67.733334"
       orientation="256,0"
       id="guide3369" />
    <sodipodi:guide
       position="67.733334,0"
       orientation="0,-256"
       id="guide3371" />
    <sodipodi:guide
       position="0,0"
       orientation="-256,0"
       id="guide3373" />
    <sodipodi:guide
       position="0,67.733334"
       orientation="0,256"
       id="guide3375" />
    <sodipodi:guide
       position="67.733334,67.733334"
       orientation="256,0"
       id="guide3377" />
    <sodipodi:guide
       position="67.733334,0"
       orientation="0,-256"
       id="guide3379" />
    <sodipodi:guide
       position="0,0"
       orientation="-256,0"
       id="guide3381" />
  </sodipodi:namedview>
  <metadata
     id="metadata5">
    <rdf:RDF>
      <cc:Work
         rdf:about="">
        <dc:format>image/svg+xml</dc:format>
        <dc:type
           rdf:resource="http://purl.org/dc/dcmitype/StillImage" />
        <dc:title></dc:title>
      </cc:Work>
    </rdf:RDF>
  </metadata>
  <g
     inkscape:groupmode="layer"
     id="layer2"
     inkscape:label="Icon">
    <path
       id="rect863"
       style="fill:none;fill-opacity:1;stroke:#808080;stroke-width:2.36345;stroke-linecap:round;stroke-linejoin:round;stroke-miterlimit:4;stroke-dasharray:none;stroke-dashoffset:6.00002;stroke-opacity:1;paint-order:markers fill stroke"
       d="M 11.975207,6.7389855 H 54.919823 V 36.615008 H 48.12028 l -12.755517,7.113339 3.64896,-7.113339 H 11.975207 Z"
       sodipodi:nodetypes="cccccccc" />
    <path
       id="path936"
       style="fill:#808080;fill-opacity:1;stroke:none;stroke-width:2.7057;stroke-linecap:round;stroke-linejoin:round;stroke-miterlimit:4;stroke-dasharray:none;stroke-dashoffset:6.00002;stroke-opacity:1;paint-order:markers fill stroke"
       d="m 87.824219,60.824219 c -10.622128,-0.108397 -21.126459,1.223676 -32.902344,4.324219 -0.711591,0.841829 -1.290644,1.794729 0,4.3125 l 0.763672,0.861328 c -0.305197,9.698819 1.586542,17.64558 3.824219,27.601562 1.230402,2.618112 2.444568,4.261622 4.707031,4.748052 15.729218,1.6498 28.764646,1.87903 44.230473,0.42578 1.73495,-0.50263 4.00763,-0.25559 6.88085,-4.312504 5.72941,-9.083512 5.35356,-16.385394 6.88282,-23.285156 0.39658,-1.341933 2.71664,-2.445058 4.9707,-3.203125 2.25405,0.758067 4.57805,1.861192 4.97461,3.203125 1.52928,6.899762 1.15144,14.201644 6.88086,23.285156 2.87322,4.056854 5.14591,3.809894 6.88086,4.312504 15.46592,1.45327 28.50116,1.22404 44.23047,-0.42578 2.26246,-0.48642 3.47663,-2.12994 4.70703,-4.748052 2.2377,-9.955982 4.12748,-17.902743 3.82226,-27.601562 l 0.76368,-0.861328 c 1.29066,-2.517771 0.71161,-3.470671 0,-4.3125 -11.77693,-3.1008 -22.27731,-4.432907 -32.90039,-4.324219 -10.62311,0.108586 -21.36676,1.658155 -33.6211,4.324219 h -0.006 -11.46484 -0.006 C 109.1903,62.482597 98.44833,60.933126 87.826172,60.824219 Z m 0.636719,5.185547 c 9.492162,-0.01852 19.018122,1.114338 28.396482,3.451172 1.64771,8.313127 -0.99158,18.472707 -5.35351,28.46289 -8.83144,1.632306 -25.531638,2.922592 -47.404301,0 -3.326997,-7.965974 -3.874938,-18.466732 -3.824218,-28.46289 9.236016,-2.262805 18.693383,-3.432662 28.185547,-3.451172 z m 77.445312,0 c 9.49219,0.01852 18.94947,1.188367 28.18555,3.451172 0.0506,9.996158 -0.49722,20.496916 -3.82422,28.46289 -21.87279,2.922592 -38.57672,1.632306 -47.4082,0 -4.36198,-9.990183 -7.00124,-20.149763 -5.35352,-28.46289 9.37841,-2.336834 18.90816,-3.469752 28.40039,-3.451172 z"
       transform="scale(0.26458334)" />
    <path
       id="path1005"
       style="color:#000000;font-style:normal;font-variant:normal;font-weight:normal;font-stretch:normal;font-size:medium;line-height:normal;font-family:sans-serif;font-variant-ligatures:normal;font-variant-position:normal;font-variant-caps:normal;font-variant-numeric:normal;font-variant-alternates:normal;font-variant-east-asian:normal;font-feature-settings:normal;font-variation-settings:normal;text-indent:0;text-align:start;text-decoration:none;text-decoration-line:none;text-decoration-style:solid;text-decoration-color:#000000;letter-spacing:normal;word-spacing:normal;text-transform:none;writing-mode:lr-tb;direction:ltr;text-orientation:mixed;dominant-baseline:auto;baseline-shift:baseline;text-anchor:start;white-space:normal;shape-padding:0;shape-margin:0;inline-size:0;clip-rule:nonzero;display:inline;overflow:visible;visibility:visible;isolation:auto;mix-blend-mode:normal;color-interpolation:sRGB;color-interpolation-filters:linearRGB;solid-color:#000000;solid-opacity:1;vector-effect:none;fill:#808080;fill-opacity:1;fill-rule:nonzero;stroke:none;stroke-width:3.99999;stroke-linecap:round;stroke-linejoin:round;stroke-miterlimit:4;stroke-dasharray:none;stroke-dashoffset:6.00002;stroke-opacity:1;paint-order:markers fill stroke;color-rendering:auto;image-rendering:auto;shape-rendering:auto;text-rendering:auto;enable-background:accumulate;stop-color:#000000"
       d="m 88.154297,67.966797 c -8.793691,0.01701 -17.532811,1.214534 -26.117188,3.195312 0.02948,8.928117 0.736881,17.89713 3.337891,24.810547 20.276299,2.556643 35.77461,1.524845 44.3418,0.04492 3.77065,-8.923271 5.82198,-17.711878 4.82812,-24.847656 -8.72939,-2.049776 -17.568541,-3.22032 -26.390623,-3.203123 z m 77.435543,0 c -8.82214,-0.01739 -17.65896,1.15337 -26.38867,3.203125 -0.99388,7.135774 1.05549,15.924392 4.82617,24.847656 8.5684,1.480105 24.07086,2.513017 44.35157,-0.04492 2.6017,-6.915322 3.29864,-15.885881 3.32812,-24.816406 -8.58199,-1.97963 -17.32608,-3.172294 -26.11719,-3.189453 z m -80.757809,5.601562 h 0.002 c 0.07238,-0.0015 0.144948,0.0015 0.216797,0.0098 h 0.002 c 0.416814,0.04829 0.78886,0.261876 1.050782,0.5625 0.617586,0.699572 0.618686,1.706195 -0.002,2.404297 l -0.002,0.002 -6.767578,7.621094 a 1.0001,1.0001 0 0 1 -0.0059,0.0059 c -0.619109,0.684885 -1.812531,0.684885 -2.431641,0 a 1.0001,1.0001 0 0 1 -0.0059,-0.0078 c -0.618803,-0.699122 -0.618803,-1.703222 0,-2.402344 a 1.0001,1.0001 0 0 0 0,-0.002 l 6.751953,-7.615235 c 0.285634,-0.331373 0.707414,-0.554628 1.167969,-0.576172 a 1.0001,1.0001 0 0 1 0.02344,-0.002 z m 9.466797,0 c 0.07109,-0.0015 0.142327,0.0018 0.212891,0.0098 0.419444,0.04656 0.795047,0.260327 1.058593,0.5625 0.617587,0.699575 0.618695,1.706195 -0.002,2.404297 l -0.002,0.002 -13.527344,15.246094 -0.002,0.002 c -0.62087,0.701117 -1.837306,0.700566 -2.457031,-0.002 a 1.0001,1.0001 0 0 1 -0.0039,-0.0039 c -0.607423,-0.696226 -0.607423,-1.690491 0,-2.386718 a 1.0001,1.0001 0 0 1 0.0078,-0.0059 l 13.523438,-15.25 c 0.28563,-0.331373 0.707411,-0.554628 1.167969,-0.576172 a 1.0001,1.0001 0 0 1 0.02344,-0.002 z m 68.976562,0 h 0.002 a 1.0001,1.0001 0 0 1 0.0254,0 1.0001,1.0001 0 0 1 0.008,0 1.0001,1.0001 0 0 1 0.11523,0.0059 c 0.0274,0.0015 0.0548,9.05e-4 0.082,0.0039 0.0106,0.0011 0.0168,0.01227 0.0273,0.01367 a 1.0001,1.0001 0 0 1 0.47461,0.251953 c 0.19261,0.09827 0.42085,0.13685 0.56054,0.296875 0.6176,0.699572 0.6187,1.706195 -0.002,2.404297 l -0.002,0.002 -6.76758,7.621094 a 1.0001,1.0001 0 0 1 -0.004,0.0059 c -0.61934,0.687912 -1.81817,0.687912 -2.4375,0 a 1.0001,1.0001 0 0 1 -0.006,-0.0078 c -0.6188,-0.699122 -0.6188,-1.703222 0,-2.402344 a 1.0001,1.0001 0 0 0 0,-0.002 l 6.75,-7.615235 c 0.11066,-0.128352 0.30731,-0.132136 0.45313,-0.222656 a 1.0001,1.0001 0 0 1 0.47656,-0.3125 l 0.0117,0.07227 c 0.0878,-0.01928 0.14073,-0.111077 0.23242,-0.115235 z m 9.4668,0 h 0.002 a 1.0001,1.0001 0 0 1 0.0254,0 c 0.003,-4.9e-5 0.005,3.4e-5 0.008,0 a 1.0001,1.0001 0 0 1 0.11524,0.0059 c 0.0274,0.0015 0.0548,9.05e-4 0.082,0.0039 0.0106,0.0011 0.0168,0.01227 0.0273,0.01367 a 1.0001,1.0001 0 0 1 0.47461,0.251953 c 0.19264,0.09827 0.42086,0.13685 0.56055,0.296875 0.61759,0.699572 0.61876,1.706195 -0.002,2.404297 l -0.002,0.002 -13.52929,15.248047 a 1.0001,1.0001 0 0 1 -0.006,0.0059 c -0.61932,0.687916 -1.81816,0.687916 -2.4375,0 a 1.0001,1.0001 0 0 1 -0.01,-0.01172 c -0.60743,-0.696226 -0.60743,-1.690491 0,-2.386718 a 1.0001,1.0001 0 0 1 0.006,-0.0059 l 13.51172,-15.25 c 0.11066,-0.128352 0.30731,-0.132136 0.45312,-0.222656 a 1.0001,1.0001 0 0 1 0.47657,-0.3125 l 0.0117,0.07227 c 0.0879,-0.01928 0.14073,-0.111077 0.23242,-0.115235 z m -74.357424,7.634766 c 0.481621,-0.0039 0.934256,0.216698 1.238281,0.558594 a 1.0001,1.0001 0 0 0 0,0.002 c 0.618803,0.699122 0.618803,1.703222 0,2.402344 a 1.0001,1.0001 0 0 0 0,0.002 l -6.759766,7.625 -0.002,0.002 c -0.62087,0.701117 -1.837302,0.700551 -2.457031,-0.002 a 1.0001,1.0001 0 0 1 -0.0039,-0.0039 c -0.60742,-0.696226 -0.60742,-1.690491 0,-2.386718 a 1.0001,1.0001 0 0 1 0.0059,-0.0059 l 6.773438,-7.634765 c 0.242607,-0.273615 0.578507,-0.472404 0.957031,-0.53711 a 1.0001,1.0001 0 0 1 0.02148,-0.002 c 0.05337,-0.0076 0.1081,-0.01314 0.162109,-0.01563 0.0079,-5.02e-4 0.0155,-0.0016 0.02344,-0.002 a 1.0001,1.0001 0 0 1 0.04102,-0.002 z m 78.431644,0 v 0.002 a 1.0001,1.0001 0 0 1 0.0293,-0.002 c 0.0949,-0.0011 0.15245,0.09388 0.24414,0.109375 l 0.0117,-0.08008 a 1.0001,1.0001 0 0 1 0.50977,0.314453 c 0.15532,0.08995 0.3627,0.0823 0.48047,0.214844 a 1.0001,1.0001 0 0 0 0,0.002 c 0.6188,0.699122 0.6188,1.703222 0,2.402344 a 1.0001,1.0001 0 0 0 0,0.002 l -6.75977,7.625 -0.004,0.002 c -0.62087,0.701125 -1.8373,0.700563 -2.45703,-0.002 a 1.0001,1.0001 0 0 1 -0.004,-0.0039 c -0.60741,-0.696226 -0.60741,-1.690491 0,-2.386718 a 1.0001,1.0001 0 0 1 0.006,-0.0059 l 6.77148,-7.634765 c 0.1417,-0.159836 0.36342,-0.217508 0.55859,-0.314453 a 1.0001,1.0001 0 0 1 0.34766,-0.19336 c 0.0202,-0.0045 0.0307,-0.02584 0.0508,-0.0293 a 1.0001,1.0001 0 0 1 0.0195,-0.002 c 0.0342,-0.0053 0.0691,-0.0069 0.10352,-0.0098 a 1.0001,1.0001 0 0 1 0.0293,-0.0039 h -0.0156 c 0.007,-6.5e-4 0.0143,-0.0014 0.0215,-0.002 0.003,-2.53e-4 0.007,2.31e-4 0.01,0 0.003,-1.85e-4 0.005,1.7e-4 0.008,0 0.013,-7.29e-4 0.0258,-0.0034 0.0391,-0.0039 z"
       transform="scale(0.26458334)" />
  </g>
</svg>
