<?xml version="1.0" encoding="UTF-8" standalone="no"?>
<svg
   xmlns:dc="http://purl.org/dc/elements/1.1/"
   xmlns:cc="http://creativecommons.org/ns#"
   xmlns:rdf="http://www.w3.org/1999/02/22-rdf-syntax-ns#"
   xmlns:svg="http://www.w3.org/2000/svg"
   xmlns="http://www.w3.org/2000/svg"
   xmlns:sodipodi="http://sodipodi.sourceforge.net/DTD/sodipodi-0.dtd"
   xmlns:inkscape="http://www.inkscape.org/namespaces/inkscape"
   inkscape:export-ydpi="96"
   inkscape:export-xdpi="96"
   inkscape:export-filename="C:\Users\keath\Workspace\KMX\elite-streamdeck-icons\ship-lights.png"
   sodipodi:docname="comms-praise.svg"
   inkscape:version="1.0.1 (3bc2e813f5, 2020-09-07)"
   id="svg8"
   version="1.1"
   viewBox="0 0 67.733332 67.733338"
   height="256"
   width="256">
  <defs
     id="defs2">
    <inkscape:path-effect
       effect="fillet_chamfer"
       id="path-effect1414"
       is_visible="true"
       lpeversion="1"
       satellites_param="F,0,0,1,0,0,0,1 @ F,0,0,1,0,0,0,1 @ F,0,0,1,0,0,0,1"
       unit="px"
       method="bezier"
       mode="F"
       radius="0"
       chamfer_steps="1"
       flexible="false"
       use_knot_distance="true"
       apply_no_radius="true"
       apply_with_radius="true"
       only_selected="false"
       hide_knots="false" />
  </defs>
  <sodipodi:namedview
     id="base"
     pagecolor="#000000"
     bordercolor="#666666"
     borderopacity="1.0"
     inkscape:pageopacity="0"
     inkscape:pageshadow="2"
     inkscape:zoom="6.5103536"
     inkscape:cx="158.80565"
     inkscape:cy="89.256003"
     inkscape:document-units="px"
     inkscape:current-layer="layer2"
     showgrid="true"
     units="px"
     inkscape:snap-grids="false"
     objecttolerance="1"
     guidetolerance="10000"
     inkscape:window-width="2586"
     inkscape:window-height="1879"
     inkscape:window-x="5042"
     inkscape:window-y="49"
     inkscape:window-maximized="0"
     inkscape:document-rotation="0"
     showguides="true"
     inkscape:snap-to-guides="false"
     gridtolerance="10">
    <inkscape:grid
       type="xygrid"
       id="grid4623" />
    <sodipodi:guide
       position="-3.96875,62.441667"
       orientation="0,256"
       id="guide3351" />
    <sodipodi:guide
       position="62.177083,70.379167"
       orientation="256,0"
       id="guide3353" />
    <sodipodi:guide
       position="-2.6458333,22.754167"
       orientation="0,-256"
       id="guide3355" />
    <sodipodi:guide
       position="5.2916667,70.379167"
       orientation="-256,0"
       id="guide3357" />
    <sodipodi:guide
       position="0,67.733334"
       orientation="0,256"
       id="guide3359" />
    <sodipodi:guide
       position="67.733334,67.733334"
       orientation="256,0"
       id="guide3361" />
    <sodipodi:guide
       position="67.733334,0"
       orientation="0,-256"
       id="guide3363" />
    <sodipodi:guide
       position="0,0"
       orientation="-256,0"
       id="guide3365" />
    <sodipodi:guide
       position="0,67.733334"
       orientation="0,256"
       id="guide3367" />
    <sodipodi:guide
       position="67.733334,67.733334"
       orientation="256,0"
       id="guide3369" />
    <sodipodi:guide
       position="67.733334,0"
       orientation="0,-256"
       id="guide3371" />
    <sodipodi:guide
       position="0,0"
       orientation="-256,0"
       id="guide3373" />
    <sodipodi:guide
       position="0,67.733334"
       orientation="0,256"
       id="guide3375" />
    <sodipodi:guide
       position="67.733334,67.733334"
       orientation="256,0"
       id="guide3377" />
    <sodipodi:guide
       position="67.733334,0"
       orientation="0,-256"
       id="guide3379" />
    <sodipodi:guide
       position="0,0"
       orientation="-256,0"
       id="guide3381" />
  </sodipodi:namedview>
  <metadata
     id="metadata5">
    <rdf:RDF>
      <cc:Work
         rdf:about="">
        <dc:format>image/svg+xml</dc:format>
        <dc:type
           rdf:resource="http://purl.org/dc/dcmitype/StillImage" />
        <dc:title></dc:title>
      </cc:Work>
    </rdf:RDF>
  </metadata>
  <g
     inkscape:groupmode="layer"
     id="layer2"
     inkscape:label="Icon">
    <path
       id="rect863"
       style="fill:none;fill-opacity:1;stroke:#808080;stroke-width:2.36345;stroke-linecap:round;stroke-linejoin:round;stroke-miterlimit:4;stroke-dasharray:none;stroke-dashoffset:6.00002;stroke-opacity:1;paint-order:markers fill stroke"
       d="M 11.975207,6.7389855 H 54.919823 V 36.615008 H 48.12028 l -12.755517,7.113339 3.64896,-7.113339 H 11.975207 Z"
       sodipodi:nodetypes="cccccccc" />
    <path
       id="path1195"
       style="color:#000000;font-style:normal;font-variant:normal;font-weight:normal;font-stretch:normal;font-size:medium;line-height:normal;font-family:sans-serif;font-variant-ligatures:normal;font-variant-position:normal;font-variant-caps:normal;font-variant-numeric:normal;font-variant-alternates:normal;font-variant-east-asian:normal;font-feature-settings:normal;font-variation-settings:normal;text-indent:0;text-align:start;text-decoration:none;text-decoration-line:none;text-decoration-style:solid;text-decoration-color:#000000;letter-spacing:normal;word-spacing:normal;text-transform:none;writing-mode:lr-tb;direction:ltr;text-orientation:mixed;dominant-baseline:auto;baseline-shift:baseline;text-anchor:start;white-space:normal;shape-padding:0;shape-margin:0;inline-size:0;clip-rule:nonzero;display:inline;overflow:visible;visibility:visible;opacity:1;isolation:auto;mix-blend-mode:normal;color-interpolation:sRGB;color-interpolation-filters:linearRGB;solid-color:#000000;solid-opacity:1;vector-effect:none;fill:#808080;fill-opacity:1;fill-rule:nonzero;stroke:none;stroke-width:1.14062;stroke-linecap:round;stroke-linejoin:round;stroke-miterlimit:4;stroke-dasharray:none;stroke-dashoffset:6.00002;stroke-opacity:1;paint-order:markers fill stroke;color-rendering:auto;image-rendering:auto;shape-rendering:auto;text-rendering:auto;enable-background:accumulate;stop-color:#000000;stop-opacity:1"
       d="m 23.50551,11.210219 c -0.682634,0.06552 -1.088563,0.669217 -1.443543,1.299146 -0.44549,-0.09887 -0.974175,-0.231908 -1.574131,-0.06837 -0.570149,0.155416 -0.950719,0.791023 -1.230632,1.52059 -0.237168,0.01067 -0.55345,-0.06119 -1.017719,0.01323 -0.257646,0.04125 -0.552213,0.170102 -0.757259,0.397824 -0.205035,0.22772 -0.332953,0.524442 -0.419436,0.916084 -0.0064,0.0276 -0.01027,0.05566 -0.01071,0.08391 v 7.12199 c 4.21e-4,0.02161 0.0028,0.04317 0.0071,0.06449 0.135002,0.823175 0.259524,1.680148 0.567055,2.472416 0.266803,0.687359 0.792372,1.275207 1.472642,1.760684 v 3.885782 c -5e-6,0.0013 -5e-6,0.0024 0,0.0039 0.0025,0.17548 0.123329,0.332358 0.306595,0.397824 l -0.0079,0.0039 c 0.01418,0.0054 0.02644,0.0011 0.04046,0.0062 0.04086,0.01158 0.08282,0.01724 0.125623,0.01864 2.731,0.970099 5.13601,0.535981 7.369597,0.01942 0.215185,-0.05021 0.365111,-0.222674 0.364791,-0.420357 v -3.675214 c 0.0764,-0.135067 0.327128,-0.362418 0.710418,-0.679097 0.402981,-0.33295 0.897033,-0.770325 1.25689,-1.405596 0.423893,-0.748327 1.230101,-1.174567 2.016987,-1.571095 0.393442,-0.198265 0.775581,-0.383304 1.097206,-0.634809 0.321623,-0.25151 0.591408,-0.624682 0.573445,-1.064491 -0.002,-0.04488 -0.01127,-0.08984 -0.02839,-0.132091 -0.259064,-0.630065 -0.803945,-1.014867 -1.378959,-1.111888 -0.57501,-0.09703 -1.142502,0.02822 -1.655747,0.192695 -0.513247,0.164513 -0.979169,0.379601 -1.313668,0.528361 -0.141127,0.06278 -0.237123,0.105642 -0.306593,0.131308 -0.210387,-0.04315 -0.277255,-0.08393 -0.300205,-0.105671 -0.01209,-0.01158 -0.06109,-0.08468 -0.08659,-0.125098 v -7.334217 c 8.1e-5,-0.03544 -0.0047,-0.0705 -0.01419,-0.104891 -0.106344,-0.375776 -0.269228,-0.667445 -0.519505,-0.872572 -0.250278,-0.205128 -0.572309,-0.290209 -0.845261,-0.305361 -0.461332,-0.02559 -0.810239,0.05257 -1.122046,0.0676 -0.210888,-0.359832 -0.422096,-0.710318 -0.689097,-0.919977 -0.346264,-0.271898 -0.77225,-0.415144 -1.187342,-0.375291 z m 20.578668,0 c -0.415095,-0.03985 -0.841073,0.103386 -1.187341,0.375291 -0.266996,0.209657 -0.478209,0.560147 -0.689124,0.919969 -0.311807,-0.01504 -0.660716,-0.09319 -1.122046,-0.0676 -0.272952,0.01515 -0.594983,0.100232 -0.845261,0.305362 -0.250273,0.205126 -0.413181,0.496771 -0.519506,0.872572 -0.0095,0.03439 -0.01427,0.06945 -0.01418,0.10489 v 7.334109 c -0.02551,0.04042 -0.0745,0.113521 -0.08659,0.125099 -0.02295,0.02174 -0.08982,0.06253 -0.300209,0.105672 -0.06946,-0.02567 -0.16546,-0.06853 -0.306593,-0.131308 -0.334493,-0.148766 -0.800422,-0.363852 -1.313667,-0.528361 -0.513244,-0.164473 -1.080738,-0.289723 -1.655746,-0.192696 -0.575011,0.09703 -1.119896,0.482601 -1.378961,1.112664 -0.01711,0.04225 -0.02647,0.08642 -0.02839,0.131309 -0.01797,0.439809 0.251822,0.812982 0.573444,1.064491 0.321626,0.251505 0.703765,0.436544 1.097208,0.634809 0.786888,0.39653 1.593093,0.822769 2.016987,1.571096 0.359859,0.635274 0.853909,1.072645 1.256889,1.405596 0.383291,0.316681 0.634019,0.544029 0.710418,0.679096 v 3.675215 c -3.2e-4,0.197678 0.149607,0.370122 0.364791,0.420356 2.233588,0.516571 4.638597,0.950676 7.369598,-0.01942 0.04277,-0.0014 0.08476,-0.0078 0.125622,-0.01942 0.01401,-0.0051 0.02627,-2.6e-5 0.04046,-0.0054 l -0.0079,-0.0039 c 0.183243,-0.06547 0.304122,-0.22234 0.306597,-0.397824 7e-6,-0.0015 7e-6,-0.0025 0,-0.0039 v -3.885782 c 0.680272,-0.485477 1.205836,-1.073328 1.472641,-1.760683 0.307531,-0.792269 0.432054,-1.649243 0.567056,-2.472416 0.0043,-0.02132 0.0066,-0.04288 0.0071,-0.06449 v -7.121989 c -4.16e-4,-0.02824 -0.0043,-0.05631 -0.01071,-0.08391 -0.0865,-0.391638 -0.214402,-0.688365 -0.419439,-0.916083 -0.205046,-0.227728 -0.499611,-0.356565 -0.757256,-0.397824 -0.464267,-0.07441 -0.78055,-0.0025 -1.017718,-0.01323 -0.279912,-0.729566 -0.661192,-1.365158 -1.231342,-1.520592 -0.599956,-0.163528 -1.127933,-0.03049 -1.573421,0.06837 -0.35498,-0.629932 -0.760915,-1.233619 -1.443547,-1.299145 z M 23.70139,12.071913 c 0.0944,0.009 0.20123,0.05058 0.345625,0.163946 0.160654,0.126151 0.347614,0.352362 0.532283,0.682208 -9.8e-4,0.01203 -0.0022,0.02435 -0.0022,0.03652 v 5.63714 c -9.82e-4,0.239924 0.216841,0.434964 0.486857,0.435897 0.27151,9.54e-4 0.492182,-0.19465 0.491117,-0.435897 v -5.207458 c 0.384762,-0.02251 0.699338,-0.09049 0.887844,-0.08005 0.129302,0.0072 0.178738,0.02567 0.241304,0.07693 0.05855,0.048 0.14636,0.178372 0.220717,0.416472 v 7.376068 c 7.6e-5,0.08823 0.03081,0.174527 0.0873,0.247086 0.0331,0.04264 0.08801,0.186339 0.266139,0.35509 0.149589,0.141698 0.408367,0.234289 0.696933,0.308469 0.02122,0.01278 0.03209,0.0397 0.05323,0.04818 0.107645,0.04324 0.19671,0.0471 0.261172,0.04506 0.128904,-0.0039 0.198843,-0.03023 0.273944,-0.05438 0.150225,-0.04835 0.296234,-0.112694 0.469119,-0.189588 0.345777,-0.153777 0.777084,-0.352756 1.20863,-0.491065 0.431543,-0.1383 0.855431,-0.205163 1.141211,-0.156954 0.253305,0.04274 0.415336,0.189775 0.569895,0.494173 -0.01418,0.102755 -0.03623,0.183727 -0.19872,0.310799 -0.19901,0.155613 -0.538568,0.332633 -0.934682,0.532247 -0.792235,0.399222 -1.829943,0.917759 -2.407327,1.937062 -0.279883,0.494078 -0.665163,0.841624 -1.046818,1.156954 -0.381656,0.315333 -0.785392,0.575248 -0.989333,1.030303 -0.02309,0.051 -0.03447,0.105883 -0.03477,0.16084 v 3.436673 c -2.0294,0.458701 -3.99514,0.738114 -6.244004,-0.01631 v -3.633257 c -4.22e-4,-0.148363 -0.08669,-0.285783 -0.22775,-0.365194 -0.659013,-0.374045 -1.032785,-0.908221 -1.295215,-1.584305 -0.260611,-0.671395 -0.388835,-1.473005 -0.523764,-2.296037 v -7.0101 c 0.06761,-0.291436 0.157292,-0.45561 0.217171,-0.522146 0.06179,-0.06861 0.101493,-0.03895 0.166071,-0.09014 0.136376,-0.108123 0.626428,-0.204681 0.810486,0.158508 l -0.0071,4.414919 c 4.9e-4,0.238929 0.21795,0.432635 0.486859,0.433568 0.26927,-4.79e-4 0.487751,-0.194327 0.488279,-0.433568 v -4.838383 l -0.0114,-0.230769 c 0.173729,-0.745229 0.261722,-0.969832 0.591896,-1.059829 0.279545,-0.07623 0.658268,-0.03714 1.025526,0.03341 v 5.437452 c 9.81e-4,0.238597 0.219058,0.431856 0.487569,0.43279 0.270018,9.54e-4 0.489358,-0.19286 0.490408,-0.43279 v -5.756044 c -2.58e-4,-0.03169 -0.0039,-0.06313 -0.01209,-0.09402 0.277238,-0.542101 0.633401,-0.799325 0.84597,-0.819735 0.02972,-0.0029 0.06009,-0.0036 0.09155,-7.78e-4 z m 20.18691,0 c 0.03146,-0.0029 0.06183,-0.0021 0.09155,7.77e-4 0.212572,0.0204 0.568732,0.277634 0.845973,0.819735 -0.0081,0.03089 -0.01181,0.06233 -0.01209,0.09402 v 5.756023 c 10e-4,0.239932 0.220392,0.433744 0.490409,0.432789 0.268512,-9.36e-4 0.486592,-0.194192 0.487569,-0.432789 v -5.437451 c 0.367254,-0.07055 0.745981,-0.109627 1.025528,-0.03341 0.330173,0.09001 0.418145,0.3146 0.591894,1.059829 l -0.0114,0.23077 v 4.83916 c 5.3e-4,0.23926 0.21901,0.433089 0.488277,0.433566 0.268909,-9.31e-4 0.48639,-0.194634 0.486862,-0.433566 l -0.0071,-4.415695 c 0.184061,-0.363194 0.674113,-0.266631 0.810486,-0.158509 0.06459,0.05121 0.104279,0.02152 0.166071,0.09014 0.05988,0.06654 0.149548,0.230707 0.217171,0.522144 v 7.010101 c -0.134934,0.823035 -0.263153,1.624639 -0.523761,2.296037 -0.26243,0.676084 -0.636203,1.210264 -1.295218,1.584305 -0.141061,0.0794 -0.227343,0.216831 -0.227815,0.36519 v 3.633256 c -2.248865,0.754431 -4.214598,0.47502 -6.244002,0.01631 v -3.436681 c -3.05e-4,-0.05495 -0.01167,-0.109868 -0.03477,-0.160839 -0.203943,-0.455059 -0.607678,-0.714969 -0.98933,-1.030304 -0.381661,-0.315325 -0.76694,-0.662871 -1.046819,-1.156954 -0.577387,-1.019299 -1.615099,-1.537838 -2.407325,-1.937062 -0.39612,-0.199612 -0.735681,-0.376632 -0.934687,-0.532247 -0.162499,-0.127067 -0.18453,-0.208043 -0.198716,-0.310798 0.154554,-0.304399 0.316583,-0.451426 0.569895,-0.494174 0.285775,-0.04823 0.709666,0.01866 1.141208,0.156955 0.431544,0.1383 0.862854,0.337287 1.20863,0.491064 0.172885,0.07689 0.318893,0.141263 0.469118,0.189588 0.0751,0.02416 0.145044,0.05047 0.273945,0.05438 0.06447,0.0021 0.153527,-0.0018 0.261172,-0.04507 0.02114,-0.0084 0.03201,-0.0354 0.05323,-0.04818 0.288566,-0.07417 0.547367,-0.166786 0.696932,-0.30847 0.178132,-0.168753 0.233753,-0.312447 0.266849,-0.35509 0.05647,-0.07256 0.08651,-0.158855 0.08659,-0.247085 v -7.376073 c 0.07436,-0.238099 0.162161,-0.368479 0.220722,-0.416473 0.06256,-0.05129 0.111998,-0.06971 0.241299,-0.07693 0.18851,-0.01037 0.503083,0.05675 0.887844,0.07925 v 5.208236 c -0.0011,0.241243 0.21961,0.436892 0.491117,0.435897 0.270017,-9.33e-4 0.487838,-0.195973 0.486858,-0.435897 v -5.63714 c 0,-0.01217 -0.0011,-0.02449 -0.0022,-0.03652 0.184668,-0.329848 0.371631,-0.556056 0.532282,-0.682207 0.144394,-0.113386 0.251221,-0.154925 0.345628,-0.163947 z" />
  </g>
</svg>
