<?xml version="1.0" encoding="UTF-8" standalone="no"?>
<svg
   xmlns:dc="http://purl.org/dc/elements/1.1/"
   xmlns:cc="http://creativecommons.org/ns#"
   xmlns:rdf="http://www.w3.org/1999/02/22-rdf-syntax-ns#"
   xmlns:svg="http://www.w3.org/2000/svg"
   xmlns="http://www.w3.org/2000/svg"
   xmlns:sodipodi="http://sodipodi.sourceforge.net/DTD/sodipodi-0.dtd"
   xmlns:inkscape="http://www.inkscape.org/namespaces/inkscape"
   inkscape:export-ydpi="96"
   inkscape:export-xdpi="96"
   inkscape:export-filename="C:\Users\keath\Workspace\KMX\elite-streamdeck-icons\ship-lights.png"
   sodipodi:docname="comms-boo.svg"
   inkscape:version="1.0.1 (3bc2e813f5, 2020-09-07)"
   id="svg8"
   version="1.1"
   viewBox="0 0 67.733332 67.733338"
   height="256"
   width="256">
  <defs
     id="defs2">
    <inkscape:path-effect
       effect="fillet_chamfer"
       id="path-effect1414"
       is_visible="true"
       lpeversion="1"
       satellites_param="F,0,0,1,0,0,0,1 @ F,0,0,1,0,0,0,1 @ F,0,0,1,0,0,0,1"
       unit="px"
       method="bezier"
       mode="F"
       radius="0"
       chamfer_steps="1"
       flexible="false"
       use_knot_distance="true"
       apply_no_radius="true"
       apply_with_radius="true"
       only_selected="false"
       hide_knots="false" />
  </defs>
  <sodipodi:namedview
     id="base"
     pagecolor="#000000"
     bordercolor="#666666"
     borderopacity="1.0"
     inkscape:pageopacity="0"
     inkscape:pageshadow="2"
     inkscape:zoom="4.6035152"
     inkscape:cx="160.44534"
     inkscape:cy="92.450082"
     inkscape:document-units="px"
     inkscape:current-layer="layer2"
     showgrid="true"
     units="px"
     inkscape:snap-grids="false"
     objecttolerance="1"
     guidetolerance="10000"
     inkscape:window-width="2586"
     inkscape:window-height="1879"
     inkscape:window-x="5042"
     inkscape:window-y="49"
     inkscape:window-maximized="0"
     inkscape:document-rotation="0"
     showguides="true"
     inkscape:snap-to-guides="false"
     gridtolerance="10">
    <inkscape:grid
       type="xygrid"
       id="grid4623" />
    <sodipodi:guide
       position="-3.96875,62.441667"
       orientation="0,256"
       id="guide3351" />
    <sodipodi:guide
       position="62.177083,70.379167"
       orientation="256,0"
       id="guide3353" />
    <sodipodi:guide
       position="-2.6458333,22.754167"
       orientation="0,-256"
       id="guide3355" />
    <sodipodi:guide
       position="5.2916667,70.379167"
       orientation="-256,0"
       id="guide3357" />
    <sodipodi:guide
       position="0,67.733334"
       orientation="0,256"
       id="guide3359" />
    <sodipodi:guide
       position="67.733334,67.733334"
       orientation="256,0"
       id="guide3361" />
    <sodipodi:guide
       position="67.733334,0"
       orientation="0,-256"
       id="guide3363" />
    <sodipodi:guide
       position="0,0"
       orientation="-256,0"
       id="guide3365" />
    <sodipodi:guide
       position="0,67.733334"
       orientation="0,256"
       id="guide3367" />
    <sodipodi:guide
       position="67.733334,67.733334"
       orientation="256,0"
       id="guide3369" />
    <sodipodi:guide
       position="67.733334,0"
       orientation="0,-256"
       id="guide3371" />
    <sodipodi:guide
       position="0,0"
       orientation="-256,0"
       id="guide3373" />
    <sodipodi:guide
       position="0,67.733334"
       orientation="0,256"
       id="guide3375" />
    <sodipodi:guide
       position="67.733334,67.733334"
       orientation="256,0"
       id="guide3377" />
    <sodipodi:guide
       position="67.733334,0"
       orientation="0,-256"
       id="guide3379" />
    <sodipodi:guide
       position="0,0"
       orientation="-256,0"
       id="guide3381" />
  </sodipodi:namedview>
  <metadata
     id="metadata5">
    <rdf:RDF>
      <cc:Work
         rdf:about="">
        <dc:format>image/svg+xml</dc:format>
        <dc:type
           rdf:resource="http://purl.org/dc/dcmitype/StillImage" />
        <dc:title></dc:title>
      </cc:Work>
    </rdf:RDF>
  </metadata>
  <g
     inkscape:groupmode="layer"
     id="layer2"
     inkscape:label="Icon">
    <path
       id="rect863"
       style="fill:none;fill-opacity:1;stroke:#808080;stroke-width:2.36345;stroke-linecap:round;stroke-linejoin:round;stroke-miterlimit:4;stroke-dasharray:none;stroke-dashoffset:6.00002;stroke-opacity:1;paint-order:markers fill stroke"
       d="M 11.975207,6.7389855 H 54.919823 V 36.615008 H 48.12028 l -12.755517,7.113339 3.64896,-7.113339 H 11.975207 Z"
       sodipodi:nodetypes="cccccccc" />
    <path
       id="path900"
       style="color:#000000;font-style:normal;font-variant:normal;font-weight:normal;font-stretch:normal;font-size:medium;line-height:normal;font-family:sans-serif;font-variant-ligatures:normal;font-variant-position:normal;font-variant-caps:normal;font-variant-numeric:normal;font-variant-alternates:normal;font-variant-east-asian:normal;font-feature-settings:normal;font-variation-settings:normal;text-indent:0;text-align:start;text-decoration:none;text-decoration-line:none;text-decoration-style:solid;text-decoration-color:#000000;letter-spacing:normal;word-spacing:normal;text-transform:none;writing-mode:lr-tb;direction:ltr;text-orientation:mixed;dominant-baseline:auto;baseline-shift:baseline;text-anchor:start;white-space:normal;shape-padding:0;shape-margin:0;inline-size:0;clip-rule:nonzero;display:inline;overflow:visible;visibility:visible;opacity:1;isolation:auto;mix-blend-mode:normal;color-interpolation:sRGB;color-interpolation-filters:linearRGB;solid-color:#000000;solid-opacity:1;vector-effect:none;fill:#808080;fill-opacity:1;fill-rule:nonzero;stroke:none;stroke-width:1.48232;stroke-linecap:round;stroke-linejoin:round;stroke-miterlimit:4;stroke-dasharray:none;stroke-dashoffset:6.00002;stroke-opacity:1;paint-order:markers fill stroke;color-rendering:auto;image-rendering:auto;shape-rendering:auto;text-rendering:auto;enable-background:accumulate;stop-color:#000000;stop-opacity:1"
       d="m 34.906285,10.477415 c -2.23133,-0.0042 -4.614645,0.0901 -7.33549,0.449161 l -5.477033,0.06303 a 0.74056521,0.74191251 0 0 0 -0.732536,0.741835 v 10.725504 a 0.74056521,0.74191251 0 0 0 0.737597,0.741837 l 5.665769,0.01667 c 0.921457,0.0053 1.543487,0.0014 1.930053,0.03549 0.386565,0.03408 0.476129,0.07472 0.592971,0.169523 0.23368,0.189607 0.673269,1.067407 1.907632,2.932579 a 0.74056521,0.74191251 0 0 0 0.101245,0.120255 c 2.344055,2.30007 2.827256,3.676904 3.139857,4.611134 0.156303,0.467112 0.241603,0.928121 0.694211,1.325022 0.452602,0.396899 1.047153,0.452304 1.790482,0.408591 a 0.74056521,0.74191251 0 0 0 0.48378,-0.219511 c 0.633517,-0.640384 0.905762,-1.448698 0.921276,-2.209576 0.01552,-0.760879 -0.185693,-1.483237 -0.420866,-2.160314 C 38.670056,27.551568 38.391757,26.915928 38.202344,26.3726 38.012926,25.829274 37.93964,25.383803 37.97311,25.170011 a 0.74056521,0.74191251 0 0 0 0,-0.218785 c -0.03234,-0.230866 0.0091,-0.241227 0.06798,-0.304269 0.03367,-0.03605 0.105343,-0.06824 0.16126,-0.100703 h 4.051009 a 0.74056521,0.74191251 0 0 0 0.248757,-0.04419 c 1.111428,-0.400337 1.968664,-0.946377 2.393581,-1.795915 0.399784,-0.7993 0.249154,-1.751897 -0.229234,-2.658736 0.404116,-1.146337 0.280628,-2.3486 -0.344212,-3.417239 0.12944,-0.816482 0.304208,-2.060972 -0.678302,-3.258582 a 0.74056521,0.74191251 0 0 0 -0.05135,-0.05723 c -0.01175,-0.659119 -0.100715,-1.283358 -0.41869,-1.769095 -0.360275,-0.550351 -0.981263,-0.923056 -1.655993,-0.960633 a 0.74056521,0.74191251 0 0 0 -0.04123,0 c -2.180426,-0.0062 -4.275967,-0.101376 -6.512562,-0.107219 -0.0028,-6e-6 -0.0059,8e-6 -0.0087,0 a 0.74056521,0.74191251 0 0 0 -0.04918,0 z m -0.0029,1.484402 c 2.20486,0.0042 4.307181,0.09911 6.532814,0.106485 0.2495,0.01388 0.364236,0.08359 0.499686,0.290506 0.05014,0.07658 0.0459,0.29701 0.0846,0.42163 h -0.642144 -0.0029 c -0.486969,-6.59e-4 -0.893968,0.413386 -0.895964,0.900492 5.92e-4,0.488367 0.408214,0.904802 0.895964,0.904116 h 1.25175 c 0.264721,0.414717 0.350059,0.807575 0.30372,1.193897 h -1.167145 -0.0029 c -0.487715,-6.67e-4 -0.895222,0.412401 -0.895965,0.900493 5.9e-4,0.488387 0.408219,0.901175 0.895965,0.900493 h 1.285012 c 0.273201,0.533902 0.295279,1.060943 0.172109,1.610455 h -1.142555 -0.0029 c -0.489186,-6.5e-4 -0.900618,0.413366 -0.898859,0.903391 a 0.74056521,0.74191251 0 0 0 0,0.008 c 0.0058,0.485213 0.414698,0.891043 0.898859,0.890351 h 1.317553 c 0.157384,0.410821 0.304901,0.80447 0.182953,1.048282 -0.158047,0.315985 -0.655179,0.697304 -1.50557,1.021476 h -4.069806 a 0.74056521,0.74191251 0 0 0 -0.325412,0.0768 c -0.05799,0.02845 -0.412214,0.173418 -0.713012,0.495525 -0.286197,0.30647 -0.484164,0.852247 -0.429544,1.448177 -0.05915,0.617583 0.07509,1.200096 0.27624,1.77708 0.21726,0.6232 0.492667,1.253623 0.702163,1.856769 0.209497,0.603151 0.345807,1.174759 0.336257,1.643056 -0.0075,0.37409 -0.175637,0.659346 -0.393386,0.955551 -0.09212,-0.01479 -0.345988,-0.02112 -0.344209,-0.01956 0.0038,0.0032 -0.100357,-0.188524 -0.265392,-0.68171 -0.323728,-0.967484 -1.033589,-2.708623 -3.411032,-5.082027 -1.188021,-1.795154 -1.441688,-2.639742 -2.210625,-3.263654 -0.384471,-0.311956 -0.873239,-0.44934 -1.397099,-0.495526 -0.523861,-0.04619 -1.141905,-0.03314 -2.049369,-0.0384 a 0.74056521,0.74191251 0 0 0 -0.0029,0 l -4.92817,-0.01667 v -9.251969 l 4.745217,-0.05433 a 0.74056521,0.74191251 0 0 0 0.08967,-0.0087 c 2.682574,-0.359482 5.008467,-0.444631 7.226294,-0.440465 z m -7.936414,0.61361 c -0.490155,-0.0019 -0.904235,0.412621 -0.902473,0.903391 v 7.127154 c -6.58e-4,0.490086 0.413013,0.905335 0.902473,0.903391 a 0.74056521,0.74191251 0 0 0 0.008,0 c 0.485154,-0.0058 0.889781,-0.42051 0.888011,-0.906289 v -7.124256 -0.003 c 6.78e-4,-0.485033 -0.406504,-0.89483 -0.890903,-0.900492 a 0.74056521,0.74191251 0 0 0 -0.0051,0 z" />
  </g>
</svg>
