<?xml version="1.0" encoding="UTF-8" standalone="no"?>
<svg
   xmlns:dc="http://purl.org/dc/elements/1.1/"
   xmlns:cc="http://creativecommons.org/ns#"
   xmlns:rdf="http://www.w3.org/1999/02/22-rdf-syntax-ns#"
   xmlns:svg="http://www.w3.org/2000/svg"
   xmlns="http://www.w3.org/2000/svg"
   xmlns:sodipodi="http://sodipodi.sourceforge.net/DTD/sodipodi-0.dtd"
   xmlns:inkscape="http://www.inkscape.org/namespaces/inkscape"
   width="256"
   height="256"
   viewBox="0 0 67.733332 67.733335"
   version="1.1"
   id="svg8"
   inkscape:version="1.0.1 (3bc2e813f5, 2020-09-07)"
   sodipodi:docname="convert-power-balance.svg"
   inkscape:export-filename="C:\Users\keath\Workspace\KMX\elite-streamdeck-icons\chaff.png"
   inkscape:export-xdpi="96"
   inkscape:export-ydpi="96">
  <defs
     id="defs2" />
  <sodipodi:namedview
     id="base"
     pagecolor="#000000"
     bordercolor="#666666"
     borderopacity="1.0"
     inkscape:pageopacity="0"
     inkscape:pageshadow="2"
     inkscape:zoom="6.7494636"
     inkscape:cx="70.591416"
     inkscape:cy="106.8642"
     inkscape:document-units="px"
     inkscape:current-layer="layer2"
     showgrid="true"
     units="px"
     inkscape:snap-grids="true"
     objecttolerance="10000"
     guidetolerance="10000"
     inkscape:window-width="3840"
     inkscape:window-height="2066"
     inkscape:window-x="3829"
     inkscape:window-y="-11"
     inkscape:window-maximized="1"
     inkscape:document-rotation="0"
     showguides="true"
     inkscape:snap-to-guides="true"
     inkscape:snap-others="false"
     inkscape:snap-nodes="false"
     inkscape:snap-global="true"
     inkscape:guide-bbox="true">
    <inkscape:grid
       type="xygrid"
       id="grid4623" />
    <sodipodi:guide
       position="-3.96875,62.441667"
       orientation="0,256"
       id="guide3351" />
    <sodipodi:guide
       position="62.177083,70.379167"
       orientation="256,0"
       id="guide3353" />
    <sodipodi:guide
       position="-2.6458333,22.754167"
       orientation="0,-256"
       id="guide3355" />
    <sodipodi:guide
       position="5.2916667,70.379167"
       orientation="-256,0"
       id="guide3357" />
    <sodipodi:guide
       position="0,67.733334"
       orientation="0,256"
       id="guide3359" />
    <sodipodi:guide
       position="67.733334,67.733334"
       orientation="256,0"
       id="guide3361" />
    <sodipodi:guide
       position="67.733334,0"
       orientation="0,-256"
       id="guide3363" />
    <sodipodi:guide
       position="0,0"
       orientation="-256,0"
       id="guide3365" />
    <sodipodi:guide
       position="0,67.733334"
       orientation="0,256"
       id="guide3367" />
    <sodipodi:guide
       position="67.733334,67.733334"
       orientation="256,0"
       id="guide3369" />
    <sodipodi:guide
       position="67.733334,0"
       orientation="0,-256"
       id="guide3371" />
    <sodipodi:guide
       position="0,0"
       orientation="-256,0"
       id="guide3373" />
    <sodipodi:guide
       position="0,67.733334"
       orientation="0,256"
       id="guide3375" />
    <sodipodi:guide
       position="67.733334,67.733334"
       orientation="256,0"
       id="guide3377" />
    <sodipodi:guide
       position="67.733334,0"
       orientation="0,-256"
       id="guide3379" />
    <sodipodi:guide
       position="0,0"
       orientation="-256,0"
       id="guide3381" />
    <sodipodi:guide
       position="33.866667,50.535418"
       orientation="-1,0"
       id="guide882"
       inkscape:label=""
       inkscape:locked="false"
       inkscape:color="rgb(0,0,255)" />
  </sodipodi:namedview>
  <metadata
     id="metadata5">
    <rdf:RDF>
      <cc:Work
         rdf:about="">
        <dc:format>image/svg+xml</dc:format>
        <dc:type
           rdf:resource="http://purl.org/dc/dcmitype/StillImage" />
        <dc:title />
      </cc:Work>
    </rdf:RDF>
  </metadata>
  <g
     inkscape:groupmode="layer"
     id="layer2"
     inkscape:label="Icon">
    <path
       id="path1322"
       style="color:#000000;font-style:normal;font-variant:normal;font-weight:normal;font-stretch:normal;font-size:medium;line-height:normal;font-family:sans-serif;font-variant-ligatures:normal;font-variant-position:normal;font-variant-caps:normal;font-variant-numeric:normal;font-variant-alternates:normal;font-variant-east-asian:normal;font-feature-settings:normal;font-variation-settings:normal;text-indent:0;text-align:start;text-decoration:none;text-decoration-line:none;text-decoration-style:solid;text-decoration-color:#000000;letter-spacing:normal;word-spacing:normal;text-transform:none;writing-mode:lr-tb;direction:ltr;text-orientation:mixed;dominant-baseline:auto;baseline-shift:baseline;text-anchor:start;white-space:normal;shape-padding:0;shape-margin:0;inline-size:0;clip-rule:nonzero;display:inline;overflow:visible;visibility:visible;isolation:auto;mix-blend-mode:normal;color-interpolation:sRGB;color-interpolation-filters:linearRGB;solid-color:#000000;solid-opacity:1;vector-effect:none;fill:#808080;fill-opacity:1;fill-rule:nonzero;stroke:none;stroke-width:0.503243;stroke-linecap:square;stroke-linejoin:miter;stroke-miterlimit:4;stroke-dasharray:none;stroke-dashoffset:6.00002;stroke-opacity:1;paint-order:markers fill stroke;color-rendering:auto;image-rendering:auto;shape-rendering:auto;text-rendering:auto;enable-background:accumulate;stop-color:#000000"
       d="m 33.422717,18.913966 -6.235513,8.324282 0.06224,0.08232 6.173278,8.241115 v -3.924098 c -0.138723,0.179225 -0.278082,0.359068 -0.371427,0.47863 -0.06142,0.07868 -0.11074,0.142014 -0.148513,0.18953 -0.03777,0.04753 -0.0329,0.04786 -0.0942,0.112585 a 0.57939423,0.45880787 0 0 1 -1.033643,-0.357278 l 0.901259,-3.912217 -1.478611,0.192358 a 0.57939423,0.45880787 0 0 1 -0.589243,-0.690225 c 0,0 1.007596,-1.314705 2.030516,-2.645768 0.281746,-0.366617 0.520244,-0.675381 0.783857,-1.017516 z m 1.044384,0 v 3.720425 c 0.02319,-0.02985 0.06158,-0.0798 0.08232,-0.106363 0.06142,-0.07869 0.111871,-0.142015 0.149643,-0.189529 0.03777,-0.04754 0.03261,-0.04871 0.09391,-0.113435 a 0.57939423,0.45880787 0 0 1 0.436196,-0.183023 0.57939423,0.45880787 0 0 1 0.596601,0.541148 l -0.90013,3.912218 1.477482,-0.192075 a 0.57939423,0.45880787 0 0 1 0.589243,0.689942 c 0,0 -1.007596,1.314705 -2.030516,2.645768 -0.177958,0.231574 -0.321112,0.4169 -0.494753,0.642701 v 5.279938 l 6.236353,-8.323433 -0.06195,-0.08317 z m 0.78923,3.586623 c -0.123327,0.130227 -4.152379,5.387997 -4.152379,5.387997 l 2.289914,-0.297872 -1.048643,4.55294 c 0.123341,-0.130228 4.152379,-5.388282 4.152379,-5.388282 l -2.289899,0.298156 z" />
    <path
       id="path1108"
       style="color:#000000;font-style:normal;font-variant:normal;font-weight:normal;font-stretch:normal;font-size:medium;line-height:normal;font-family:sans-serif;font-variant-ligatures:normal;font-variant-position:normal;font-variant-caps:normal;font-variant-numeric:normal;font-variant-alternates:normal;font-variant-east-asian:normal;font-feature-settings:normal;font-variation-settings:normal;text-indent:0;text-align:start;text-decoration:none;text-decoration-line:none;text-decoration-style:solid;text-decoration-color:#000000;letter-spacing:normal;word-spacing:normal;text-transform:none;writing-mode:lr-tb;direction:ltr;text-orientation:mixed;dominant-baseline:auto;baseline-shift:baseline;text-anchor:start;white-space:normal;shape-padding:0;shape-margin:0;inline-size:0;clip-rule:nonzero;display:inline;overflow:visible;visibility:visible;isolation:auto;mix-blend-mode:normal;color-interpolation:sRGB;color-interpolation-filters:linearRGB;solid-color:#000000;solid-opacity:1;vector-effect:none;fill:#808080;fill-opacity:1;fill-rule:nonzero;stroke:none;stroke-width:8.00001;stroke-linecap:round;stroke-linejoin:miter;stroke-miterlimit:4;stroke-dasharray:none;stroke-dashoffset:6.00002;stroke-opacity:1;paint-order:markers fill stroke;color-rendering:auto;image-rendering:auto;shape-rendering:auto;text-rendering:auto;enable-background:accumulate;stop-color:#000000"
       d="M 22.533203,51.234375 A 2.2224457,2.2224457 0 0 0 20.3125,53.457031 V 146.3457 a 2.2224457,2.2224457 0 0 0 2.220703,2.22266 h 95.554687 a 2.2224457,2.2224457 0 0 0 2.22461,-2.22266 v -12.52343 c -1.48241,-1.97265 -2.96482,-3.94535 -4.44727,-5.91797 v 16.21875 H 24.755859 V 55.677734 h 91.109371 v 22.273438 c 1.48231,-1.976028 2.96463,-3.951954 4.44727,-5.927734 V 53.457031 a 2.2224457,2.2224457 0 0 0 -2.22461,-2.222656 z m 114.195317,0 a 2.2224458,2.2224458 0 0 0 -2.22266,2.220703 v 16.28711 c 1.48122,1.968656 2.96244,3.937365 4.44336,5.90625 V 55.677734 h 91.11133 v 88.445316 h -91.11133 v -13.79883 c -1.48103,1.97458 -2.9623,3.94927 -4.44336,5.92383 v 10.0957 a 2.2224458,2.2224458 0 0 0 2.22266,2.22266 h 95.55468 a 2.2224458,2.2224458 0 0 0 2.22266,-2.22266 V 53.455078 A 2.2224458,2.2224458 0 0 0 232.2832,51.234375 Z M 80.476562,65.345703 v 0.888672 2.667969 7.777344 h 7.111329 v -4.220704 h 3.890625 v -7.113281 z m 13.222657,0 v 0.888672 6.224609 h 3.445312 v 4.220704 h 7.111329 V 65.345703 Z m 77.085941,1 v 7.035156 h -12.0586 V 101.9375 c 0.24936,0.33137 0.49868,0.66278 0.74805,0.99414 h 24.87695 V 101.625 h 0.16992 v -0.54883 h -0.16992 V 66.345703 Z m 16.98242,0 v 36.585937 h 25.625 V 73.380859 H 201.33594 V 66.345703 Z M 80.476562,78.902344 v 0.888672 10.445312 H 91.478516 V 83.125 h -3.890625 v -4.222656 z m 16.667969,0 V 79.791016 83.125 h -3.445312 v 7.111328 H 104.25586 V 78.902344 Z m -20.839843,12 c -0.92069,0.01701 -1.802011,0.391696 -2.453126,1.042968 L 58.296875,107.5 h -0.002 c -1.379981,1.3809 -1.379981,3.64643 0,5.02734 h 0.002 c 1.381092,1.38111 3.648182,1.38111 5.029297,0 L 78.880859,96.972656 c 1.381112,-1.381096 1.381112,-3.646251 0,-5.027344 -0.658911,-0.659129 -1.55044,-1.034744 -2.482421,-1.042968 h -0.002 c -0.0291,-1.82e-4 -0.06067,0 -0.08984,0 z m 82.421872,18.562496 v 22.21289 h 14.23633 v -22.21289 z m 40.43164,0 v 22.21289 h 14.23633 V 109.46484 Z M 54.083984,113.125 c -0.921671,0.0162 -1.801364,0.39108 -2.453125,1.04297 l -15.55664,15.55469 c -1.381112,1.38108 -1.381112,3.64625 0,5.02734 h 0.002 c 1.380885,1.37998 3.646448,1.37998 5.027344,0 l 15.554687,-15.55664 c 1.379959,-1.38091 1.379959,-3.6445 0,-5.02539 -0.681332,-0.68145 -1.610726,-1.05931 -2.574219,-1.04297 z"
       transform="scale(0.26458333)" />
  </g>
</svg>
