<?xml version="1.0" encoding="UTF-8" standalone="no"?>
<svg
   xmlns:dc="http://purl.org/dc/elements/1.1/"
   xmlns:cc="http://creativecommons.org/ns#"
   xmlns:rdf="http://www.w3.org/1999/02/22-rdf-syntax-ns#"
   xmlns:svg="http://www.w3.org/2000/svg"
   xmlns="http://www.w3.org/2000/svg"
   xmlns:sodipodi="http://sodipodi.sourceforge.net/DTD/sodipodi-0.dtd"
   xmlns:inkscape="http://www.inkscape.org/namespaces/inkscape"
   width="256"
   height="256"
   viewBox="0 0 67.733332 67.733335"
   version="1.1"
   id="svg8"
   inkscape:version="1.0.1 (3bc2e813f5, 2020-09-07)"
   sodipodi:docname="convert-power-balance.svg"
   inkscape:export-filename="C:\Users\keath\Workspace\KMX\elite-streamdeck-icons\chaff.png"
   inkscape:export-xdpi="96"
   inkscape:export-ydpi="96">
  <defs
     id="defs2" />
  <sodipodi:namedview
     id="base"
     pagecolor="#000000"
     bordercolor="#666666"
     borderopacity="1.0"
     inkscape:pageopacity="0"
     inkscape:pageshadow="2"
     inkscape:zoom="5.6"
     inkscape:cx="123.97233"
     inkscape:cy="126.07519"
     inkscape:document-units="px"
     inkscape:current-layer="layer2"
     showgrid="true"
     units="px"
     inkscape:snap-grids="true"
     objecttolerance="10000"
     guidetolerance="10000"
     inkscape:window-width="3840"
     inkscape:window-height="2066"
     inkscape:window-x="3829"
     inkscape:window-y="-11"
     inkscape:window-maximized="1"
     inkscape:document-rotation="0"
     showguides="true"
     inkscape:snap-to-guides="false"
     inkscape:snap-others="false"
     inkscape:snap-nodes="false"
     inkscape:snap-global="true">
    <inkscape:grid
       type="xygrid"
       id="grid4623" />
    <sodipodi:guide
       position="-3.96875,62.441667"
       orientation="0,256"
       id="guide3351" />
    <sodipodi:guide
       position="62.177083,70.379167"
       orientation="256,0"
       id="guide3353" />
    <sodipodi:guide
       position="-2.6458333,22.754167"
       orientation="0,-256"
       id="guide3355" />
    <sodipodi:guide
       position="5.2916667,70.379167"
       orientation="-256,0"
       id="guide3357" />
    <sodipodi:guide
       position="0,67.733334"
       orientation="0,256"
       id="guide3359" />
    <sodipodi:guide
       position="67.733334,67.733334"
       orientation="256,0"
       id="guide3361" />
    <sodipodi:guide
       position="67.733334,0"
       orientation="0,-256"
       id="guide3363" />
    <sodipodi:guide
       position="0,0"
       orientation="-256,0"
       id="guide3365" />
    <sodipodi:guide
       position="0,67.733334"
       orientation="0,256"
       id="guide3367" />
    <sodipodi:guide
       position="67.733334,67.733334"
       orientation="256,0"
       id="guide3369" />
    <sodipodi:guide
       position="67.733334,0"
       orientation="0,-256"
       id="guide3371" />
    <sodipodi:guide
       position="0,0"
       orientation="-256,0"
       id="guide3373" />
    <sodipodi:guide
       position="0,67.733334"
       orientation="0,256"
       id="guide3375" />
    <sodipodi:guide
       position="67.733334,67.733334"
       orientation="256,0"
       id="guide3377" />
    <sodipodi:guide
       position="67.733334,0"
       orientation="0,-256"
       id="guide3379" />
    <sodipodi:guide
       position="0,0"
       orientation="-256,0"
       id="guide3381" />
  </sodipodi:namedview>
  <metadata
     id="metadata5">
    <rdf:RDF>
      <cc:Work
         rdf:about="">
        <dc:format>image/svg+xml</dc:format>
        <dc:type
           rdf:resource="http://purl.org/dc/dcmitype/StillImage" />
        <dc:title />
      </cc:Work>
    </rdf:RDF>
  </metadata>
  <g
     inkscape:groupmode="layer"
     id="layer2"
     inkscape:label="Icon">
    <g
       id="g1059"
       transform="matrix(0.15141487,0,0,0.36807914,-9.0541687,47.017808)">
      <path
         id="rect962"
         style="fill:#808080;fill-opacity:1;stroke:none;stroke-width:10.2696;stroke-linecap:square;stroke-miterlimit:4;stroke-dasharray:none;stroke-dashoffset:6.00002;stroke-opacity:1;paint-order:markers fill stroke"
         d="m 383.65601,-105.83333 v 45.243747 h 74.73851 v -45.243747 z m 2.97153,5.22655 h 23.69347 v 33.39538 h -23.69347 z m 25.36732,0 h 18.23258 v 33.39538 h -18.23258 z m 19.90593,0 h 23.69347 v 33.39538 h -23.69347 z" />
      <rect
         style="fill:#808080;fill-opacity:1;stroke:none;stroke-width:8.37427;stroke-linecap:square;stroke-miterlimit:4;stroke-dasharray:none;stroke-dashoffset:6.00002;stroke-opacity:1;paint-order:markers fill stroke"
         id="rect964"
         width="71.226105"
         height="9.7813215"
         x="385.40985"
         y="-56.890923" />
      <path
         id="path993"
         style="fill:#808080;fill-opacity:1;stroke:none;stroke-width:0.999999px;stroke-linecap:butt;stroke-linejoin:miter;stroke-opacity:1"
         d="m 1444.6191,-166.52344 -20.5058,129.753909 h 78.3359 l 7.6914,-129.753909 z m 75.5371,0 -7.6914,129.753909 h 75.0332 V -166.52344 Z m 77.3438,0 v 129.753909 h 72.3965 l -7.6817,-129.753909 z m 74.7285,0 7.6895,129.753909 h 74.7675 l -17.1484,-129.753909 z"
         transform="scale(0.26458333)" />
    </g>
    <path
       id="path947-0"
       style="color:#000000;font-style:normal;font-variant:normal;font-weight:normal;font-stretch:normal;font-size:medium;line-height:normal;font-family:sans-serif;font-variant-ligatures:normal;font-variant-position:normal;font-variant-caps:normal;font-variant-numeric:normal;font-variant-alternates:normal;font-variant-east-asian:normal;font-feature-settings:normal;font-variation-settings:normal;text-indent:0;text-align:start;text-decoration:none;text-decoration-line:none;text-decoration-style:solid;text-decoration-color:#000000;letter-spacing:normal;word-spacing:normal;text-transform:none;writing-mode:lr-tb;direction:ltr;text-orientation:mixed;dominant-baseline:auto;baseline-shift:baseline;text-anchor:start;white-space:normal;shape-padding:0;shape-margin:0;inline-size:0;clip-rule:nonzero;display:inline;overflow:visible;visibility:visible;opacity:1;isolation:auto;mix-blend-mode:normal;color-interpolation:sRGB;color-interpolation-filters:linearRGB;solid-color:#000000;solid-opacity:1;vector-effect:none;fill:#808080;fill-opacity:1;fill-rule:nonzero;stroke:none;stroke-width:1.66852;stroke-linecap:square;stroke-linejoin:miter;stroke-miterlimit:4;stroke-dasharray:none;stroke-dashoffset:6.00002;stroke-opacity:1;paint-order:markers fill stroke;color-rendering:auto;image-rendering:auto;shape-rendering:auto;text-rendering:auto;enable-background:accumulate;stop-color:#000000;stop-opacity:1"
       d="m 13.550634,7.3400973 -0.47188,11.0648007 2.33016,0.0776 -0.64892,-11.1423607 z m -6.0747603,7.4209907 -1.56791,0.57062 0.28514,0.784 c 1.18348,3.25158 4.2806003,5.42038 7.7408503,5.42038 3.46026,0 6.55745,-2.1688 7.74092,-5.42038 l 0.2854,-0.784 -1.56792,-0.57062 -0.28515,0.784 c -0.94552,2.59781 -3.40871,4.3223 -6.17325,4.3223 -2.76454,0 -5.2274003,-1.72449 -6.1729303,-4.3223 z m 3.9940603,7.87119 v 0.83443 15.68593 h 5.75416 v -16.52036 z m 1.66837,1.66862 h 2.41751 V 37.48403 h -2.41751 z m -4.0852202,3.4798 v 15.95723 h 1.5623802 v -15.95723 z m 8.9959902,0 v 15.95723 h 1.56238 v -15.95723 z" />
    <path
       id="path1322"
       style="color:#000000;font-style:normal;font-variant:normal;font-weight:normal;font-stretch:normal;font-size:medium;line-height:normal;font-family:sans-serif;font-variant-ligatures:normal;font-variant-position:normal;font-variant-caps:normal;font-variant-numeric:normal;font-variant-alternates:normal;font-variant-east-asian:normal;font-feature-settings:normal;font-variation-settings:normal;text-indent:0;text-align:start;text-decoration:none;text-decoration-line:none;text-decoration-style:solid;text-decoration-color:#000000;letter-spacing:normal;word-spacing:normal;text-transform:none;writing-mode:lr-tb;direction:ltr;text-orientation:mixed;dominant-baseline:auto;baseline-shift:baseline;text-anchor:start;white-space:normal;shape-padding:0;shape-margin:0;inline-size:0;clip-rule:nonzero;display:inline;overflow:visible;visibility:visible;isolation:auto;mix-blend-mode:normal;color-interpolation:sRGB;color-interpolation-filters:linearRGB;solid-color:#000000;solid-opacity:1;vector-effect:none;fill:#808080;fill-opacity:1;fill-rule:nonzero;stroke:none;stroke-width:0.503243;stroke-linecap:square;stroke-linejoin:miter;stroke-miterlimit:4;stroke-dasharray:none;stroke-dashoffset:6.00002;stroke-opacity:1;paint-order:markers fill stroke;color-rendering:auto;image-rendering:auto;shape-rendering:auto;text-rendering:auto;enable-background:accumulate;stop-color:#000000"
       d="m 33.138994,10.071371 -11.391053,15.206824 0.113692,0.150379 11.277361,15.054894 v -7.168554 c -0.253418,0.327408 -0.508,0.655947 -0.678524,0.874363 -0.112209,0.14374 -0.2023,0.259432 -0.271303,0.346234 -0.069,0.08683 -0.06011,0.08744 -0.172085,0.205671 A 1.0584391,0.83815158 0 0 1 30.12883,34.088508 l 1.646422,-7.146849 -2.701131,0.351399 a 1.0584391,0.83815158 0 0 1 -1.07643,-1.260904 c 0,0 1.840679,-2.401707 3.709352,-4.833297 0.514694,-0.669737 0.950383,-1.233789 1.431951,-1.858801 z m 1.907884,0 v 6.796484 c 0.04236,-0.05452 0.112501,-0.145774 0.150389,-0.194304 0.11221,-0.143751 0.204365,-0.259432 0.273368,-0.346231 0.069,-0.08684 0.05958,-0.08899 0.171556,-0.207225 a 1.0584391,0.83815158 0 0 1 0.796845,-0.334346 1.0584391,0.83815158 0 0 1 1.089872,0.988571 l -1.644359,7.146851 2.699068,-0.350883 a 1.0584391,0.83815158 0 0 1 1.076431,1.260388 c 0,0 -1.84068,2.401708 -3.709353,4.833297 -0.325094,0.42304 -0.586608,0.761595 -0.903817,1.174089 v 9.645406 L 46.439466,25.278195 46.326304,25.126266 Z m 1.441768,6.552054 c -0.225293,0.237901 -7.585578,9.84281 -7.585578,9.84281 l 4.183221,-0.544153 -1.915662,8.317323 c 0.225319,-0.2379 7.585577,-9.843328 7.585577,-9.843328 l -4.183194,0.544671 z" />
    <rect
       style="fill:#808080;fill-opacity:1;stroke:none;stroke-width:2.17673;stroke-linecap:round;stroke-linejoin:round;paint-order:markers fill stroke"
       id="rect853"
       width="2.8348215"
       height="13.890625"
       x="12.803943"
       y="23.954241" />
  </g>
</svg>
