<?xml version="1.0" encoding="UTF-8" standalone="no"?>
<svg
   xmlns:dc="http://purl.org/dc/elements/1.1/"
   xmlns:cc="http://creativecommons.org/ns#"
   xmlns:rdf="http://www.w3.org/1999/02/22-rdf-syntax-ns#"
   xmlns:svg="http://www.w3.org/2000/svg"
   xmlns="http://www.w3.org/2000/svg"
   xmlns:sodipodi="http://sodipodi.sourceforge.net/DTD/sodipodi-0.dtd"
   xmlns:inkscape="http://www.inkscape.org/namespaces/inkscape"
   width="256"
   height="256"
   viewBox="0 0 67.733332 67.733335"
   version="1.1"
   id="svg8"
   inkscape:version="1.0.1 (3bc2e813f5, 2020-09-07)"
   sodipodi:docname="empire.svg"
   inkscape:export-filename="C:\Users\keath\Workspace\KMX\elite-streamdeck-icons\chaff.png"
   inkscape:export-xdpi="96"
   inkscape:export-ydpi="96">
  <defs
     id="defs2" />
  <sodipodi:namedview
     id="base"
     pagecolor="#000000"
     bordercolor="#666666"
     borderopacity="1.0"
     inkscape:pageopacity="0"
     inkscape:pageshadow="2"
     inkscape:zoom="3.959798"
     inkscape:cx="112.95337"
     inkscape:cy="158.52006"
     inkscape:document-units="px"
     inkscape:current-layer="layer2"
     showgrid="true"
     units="px"
     inkscape:snap-grids="true"
     objecttolerance="10000"
     guidetolerance="10000"
     inkscape:window-width="2321"
     inkscape:window-height="1879"
     inkscape:window-x="4802"
     inkscape:window-y="103"
     inkscape:window-maximized="0"
     inkscape:document-rotation="0"
     showguides="true"
     inkscape:snap-to-guides="false"
     inkscape:snap-others="false"
     inkscape:snap-nodes="false"
     inkscape:snap-global="true">
    <inkscape:grid
       type="xygrid"
       id="grid4623" />
    <sodipodi:guide
       position="-3.96875,62.441667"
       orientation="0,256"
       id="guide3351" />
    <sodipodi:guide
       position="62.177083,70.379167"
       orientation="256,0"
       id="guide3353" />
    <sodipodi:guide
       position="-2.6458333,22.754167"
       orientation="0,-256"
       id="guide3355" />
    <sodipodi:guide
       position="5.2916667,70.379167"
       orientation="-256,0"
       id="guide3357" />
    <sodipodi:guide
       position="0,67.733334"
       orientation="0,256"
       id="guide3359" />
    <sodipodi:guide
       position="67.733334,67.733334"
       orientation="256,0"
       id="guide3361" />
    <sodipodi:guide
       position="67.733334,0"
       orientation="0,-256"
       id="guide3363" />
    <sodipodi:guide
       position="0,0"
       orientation="-256,0"
       id="guide3365" />
    <sodipodi:guide
       position="0,67.733334"
       orientation="0,256"
       id="guide3367" />
    <sodipodi:guide
       position="67.733334,67.733334"
       orientation="256,0"
       id="guide3369" />
    <sodipodi:guide
       position="67.733334,0"
       orientation="0,-256"
       id="guide3371" />
    <sodipodi:guide
       position="0,0"
       orientation="-256,0"
       id="guide3373" />
    <sodipodi:guide
       position="0,67.733334"
       orientation="0,256"
       id="guide3375" />
    <sodipodi:guide
       position="67.733334,67.733334"
       orientation="256,0"
       id="guide3377" />
    <sodipodi:guide
       position="67.733334,0"
       orientation="0,-256"
       id="guide3379" />
    <sodipodi:guide
       position="0,0"
       orientation="-256,0"
       id="guide3381" />
  </sodipodi:namedview>
  <metadata
     id="metadata5">
    <rdf:RDF>
      <cc:Work
         rdf:about="">
        <dc:format>image/svg+xml</dc:format>
        <dc:type
           rdf:resource="http://purl.org/dc/dcmitype/StillImage" />
        <dc:title />
      </cc:Work>
    </rdf:RDF>
  </metadata>
  <g
     inkscape:groupmode="layer"
     id="layer2"
     inkscape:label="Icon">
    <path
       id="path3391-6"
       style="color:#000000;font-style:normal;font-variant:normal;font-weight:normal;font-stretch:normal;font-size:medium;line-height:normal;font-family:sans-serif;font-variant-ligatures:normal;font-variant-position:normal;font-variant-caps:normal;font-variant-numeric:normal;font-variant-alternates:normal;font-variant-east-asian:normal;font-feature-settings:normal;font-variation-settings:normal;text-indent:0;text-align:start;text-decoration:none;text-decoration-line:none;text-decoration-style:solid;text-decoration-color:#000000;letter-spacing:normal;word-spacing:normal;text-transform:none;writing-mode:lr-tb;direction:ltr;text-orientation:mixed;dominant-baseline:auto;baseline-shift:baseline;text-anchor:start;white-space:normal;shape-padding:0;shape-margin:0;inline-size:0;clip-rule:nonzero;display:inline;overflow:visible;visibility:visible;isolation:auto;mix-blend-mode:normal;color-interpolation:sRGB;color-interpolation-filters:linearRGB;solid-color:#000000;solid-opacity:1;vector-effect:none;fill:#808080;fill-opacity:1;fill-rule:nonzero;stroke:none;stroke-width:22.8949;stroke-linecap:round;stroke-linejoin:miter;stroke-miterlimit:4;stroke-dasharray:none;stroke-dashoffset:6.00002;stroke-opacity:1;paint-order:markers fill stroke;color-rendering:auto;image-rendering:auto;shape-rendering:auto;text-rendering:auto;enable-background:accumulate;stop-color:#000000"
       d="m 33.689859,5.6349087 c -10.74247,0 -19.47382,8.7313003 -19.47382,19.4737693 0,10.742473 8.73135,19.473825 19.47382,19.473825 10.742477,0 19.473774,-8.731352 19.473774,-19.473824 0,-10.74247 -8.731297,-19.4737703 -19.473774,-19.4737703 z m -0.799142,2.1494625 v 2.0269286 c -1.107368,0.05666 -2.183368,0.2302502 -3.21579,0.5089682 l 0.331124,1.986815 c -2.113041,0.609106 -4.012049,1.728564 -5.55449,3.21558 L 22.88969,14.236865 c -0.77059,0.765526 -1.459896,1.612721 -2.054192,2.527569 L 19.079499,15.75061 c 2.946318,-4.59576 8.002939,-7.7038374 13.811218,-7.9662388 z m 1.598344,0 C 40.297319,8.0467921 45.353927,11.15485 48.300218,15.75061 l -1.755999,1.013824 C 45.949923,15.849598 45.260618,15.00243 44.490027,14.236918 l -1.561817,1.285797 c -1.542436,-1.48701 -3.44141,-2.606454 -5.554433,-3.215579 l 0.331125,-1.986815 C 36.672467,10.041583 35.596435,9.8679662 34.489061,9.8112998 Z M 31.425515,13.60016 h 4.528799 l -1.009457,6.056845 a 5.6052009,5.6052009 0 0 1 2.841368,1.636954 l 4.738116,-3.900574 2.264398,3.922068 -5.74294,2.151488 a 5.6052009,5.6052009 0 0 1 0.249277,1.652978 5.6052009,5.6052009 0 0 1 -0.243089,1.632791 l 5.736752,2.149201 -2.264398,3.922059 -4.726254,-3.890788 a 5.6052009,5.6052009 0 0 1 -2.849642,1.648768 l 1.005869,6.035253 h -4.528799 l 1.00587,-6.035205 a 5.6052009,5.6052009 0 0 1 -2.849702,-1.648867 l -4.726254,3.89084 -2.264397,-3.922059 5.736751,-2.149202 a 5.6052009,5.6052009 0 0 1 -0.24309,-1.63279 5.6052009,5.6052009 0 0 1 0.249286,-1.652926 l -5.742947,-2.15154 2.264397,-3.922068 4.738122,3.900574 a 5.6052009,5.6052009 0 0 1 2.841421,-1.636954 z m -13.145427,3.534532 1.756261,1.013987 c -0.489414,0.960064 -0.880976,1.978671 -1.16076,3.043143 l 1.885662,0.706433 c -0.255565,1.028613 -0.391379,2.103959 -0.391379,3.210424 0,1.10651 0.135846,2.181882 0.391432,3.210536 l -1.885663,0.706427 c 0.279791,1.064452 0.671301,2.083052 1.160708,3.043097 l -1.756261,1.013935 c -1.235254,-2.386253 -1.932905,-5.097343 -1.932905,-7.973995 0,-2.876652 0.697651,-5.587742 1.932905,-7.973987 z m 30.819495,5.8e-5 c 1.23523,2.38624 1.9329,5.097308 1.9329,7.973942 0,2.876639 -0.69767,5.587697 -1.9329,7.973935 l -1.756162,-1.013875 c 0.489408,-0.960019 0.880919,-1.978625 1.160709,-3.043045 l -1.885716,-0.70648 c 0.255591,-1.028651 0.391484,-2.104022 0.391484,-3.210535 0,-1.106478 -0.135906,-2.181811 -0.391484,-3.210431 l 1.885775,-0.70648 C 48.224391,20.12733 47.832842,19.108736 47.343421,18.148685 Z m -2.555414,16.31824 1.755998,1.013827 c -2.946292,4.595712 -8.002874,7.703754 -13.811106,7.966172 v -2.026978 c 1.107374,-0.05667 2.183406,-0.230234 3.215841,-0.508966 l -0.331184,-1.986869 c 2.113055,-0.609125 4.012043,-1.728602 5.554492,-3.21563 l 1.56187,1.285794 c 0.770538,-0.76547 1.459817,-1.612592 2.054089,-2.527363 z m -25.708566,5.8e-5 c 0.594243,0.914757 1.283471,1.761855 2.053983,2.527312 l 1.561876,-1.285743 c 1.542442,1.487042 3.441516,2.606465 5.554589,3.215576 l -0.331175,1.986919 c 1.032435,0.278727 2.108453,0.452275 3.215841,0.508917 v 2.026978 C 27.082477,42.17059 22.025876,39.062561 19.079551,34.466856 Z" />
  </g>
</svg>
