<?xml version="1.0" encoding="UTF-8" standalone="no"?>
<svg
   xmlns:dc="http://purl.org/dc/elements/1.1/"
   xmlns:cc="http://creativecommons.org/ns#"
   xmlns:rdf="http://www.w3.org/1999/02/22-rdf-syntax-ns#"
   xmlns:svg="http://www.w3.org/2000/svg"
   xmlns="http://www.w3.org/2000/svg"
   xmlns:sodipodi="http://sodipodi.sourceforge.net/DTD/sodipodi-0.dtd"
   xmlns:inkscape="http://www.inkscape.org/namespaces/inkscape"
   width="256"
   height="256"
   viewBox="0 0 67.733332 67.733335"
   version="1.1"
   id="svg8"
   inkscape:version="1.0.1 (3bc2e813f5, 2020-09-07)"
   sodipodi:docname="engine-power.svg"
   inkscape:export-filename="C:\Users\keath\Workspace\KMX\elite-streamdeck-icons\chaff.png"
   inkscape:export-xdpi="96"
   inkscape:export-ydpi="96">
  <defs
     id="defs2" />
  <sodipodi:namedview
     id="base"
     pagecolor="#000000"
     bordercolor="#666666"
     borderopacity="1.0"
     inkscape:pageopacity="0"
     inkscape:pageshadow="2"
     inkscape:zoom="3.959798"
     inkscape:cx="81.785341"
     inkscape:cy="138.89873"
     inkscape:document-units="px"
     inkscape:current-layer="layer2"
     showgrid="true"
     units="px"
     inkscape:snap-grids="true"
     objecttolerance="10000"
     guidetolerance="10000"
     inkscape:window-width="3840"
     inkscape:window-height="2066"
     inkscape:window-x="3829"
     inkscape:window-y="-11"
     inkscape:window-maximized="1"
     inkscape:document-rotation="0"
     showguides="true"
     inkscape:snap-to-guides="false"
     inkscape:snap-others="false"
     inkscape:snap-nodes="false"
     inkscape:snap-global="true"
     inkscape:guide-bbox="true">
    <inkscape:grid
       type="xygrid"
       id="grid4623" />
    <sodipodi:guide
       position="-3.96875,62.441667"
       orientation="0,256"
       id="guide3351" />
    <sodipodi:guide
       position="61.471991,74.615524"
       orientation="256,0"
       id="guide3353" />
    <sodipodi:guide
       position="-2.6458333,22.754167"
       orientation="0,-256"
       id="guide3355" />
    <sodipodi:guide
       position="5.2916667,70.379167"
       orientation="-256,0"
       id="guide3357" />
    <sodipodi:guide
       position="0,67.733334"
       orientation="0,256"
       id="guide3359" />
    <sodipodi:guide
       position="67.733334,67.733334"
       orientation="256,0"
       id="guide3361" />
    <sodipodi:guide
       position="67.733334,0"
       orientation="0,-256"
       id="guide3363" />
    <sodipodi:guide
       position="0,0"
       orientation="-256,0"
       id="guide3365" />
    <sodipodi:guide
       position="0,67.733334"
       orientation="0,256"
       id="guide3367" />
    <sodipodi:guide
       position="67.733334,67.733334"
       orientation="256,0"
       id="guide3369" />
    <sodipodi:guide
       position="67.733334,0"
       orientation="0,-256"
       id="guide3371" />
    <sodipodi:guide
       position="0,0"
       orientation="-256,0"
       id="guide3373" />
    <sodipodi:guide
       position="0,67.733334"
       orientation="0,256"
       id="guide3375" />
    <sodipodi:guide
       position="67.733334,67.733334"
       orientation="256,0"
       id="guide3377" />
    <sodipodi:guide
       position="67.733334,0"
       orientation="0,-256"
       id="guide3379" />
    <sodipodi:guide
       position="0,0"
       orientation="-256,0"
       id="guide3381" />
    <sodipodi:guide
       position="21.381562,52.365337"
       orientation="1,0"
       id="guide895" />
  </sodipodi:namedview>
  <metadata
     id="metadata5">
    <rdf:RDF>
      <cc:Work
         rdf:about="">
        <dc:format>image/svg+xml</dc:format>
        <dc:type
           rdf:resource="http://purl.org/dc/dcmitype/StillImage" />
        <dc:title></dc:title>
      </cc:Work>
    </rdf:RDF>
  </metadata>
  <g
     inkscape:groupmode="layer"
     id="layer2"
     inkscape:label="Icon">
    <g
       id="g1059"
       transform="matrix(0.2967745,0,0,0.36485824,-103.67182,46.416359)">
      <g
         id="g1563">
        <path
           id="rect962"
           style="fill:#808080;fill-opacity:1;stroke:none;stroke-width:10.2696;stroke-linecap:square;stroke-miterlimit:4;stroke-dasharray:none;stroke-dashoffset:6.00002;stroke-opacity:1;paint-order:markers fill stroke"
           d="m 383.65601,-105.83333 v 45.243747 h 74.73851 v -45.243747 z m 2.97153,5.22655 h 23.69347 v 33.39538 h -23.69347 z m 25.36732,0 h 18.23258 v 33.39538 h -18.23258 z m 19.90593,0 h 23.69347 v 33.39538 h -23.69347 z" />
        <rect
           style="fill:#808080;fill-opacity:1;stroke:none;stroke-width:8.37427;stroke-linecap:square;stroke-miterlimit:4;stroke-dasharray:none;stroke-dashoffset:6.00002;stroke-opacity:1;paint-order:markers fill stroke"
           id="rect964"
           width="71.226105"
           height="9.7813215"
           x="385.40985"
           y="-56.890923" />
        <path
           id="path993"
           style="fill:#808080;fill-opacity:1;stroke:none;stroke-width:0.999999px;stroke-linecap:butt;stroke-linejoin:miter;stroke-opacity:1"
           d="m 1444.6191,-166.52344 -20.5058,129.753909 h 78.3359 l 7.6914,-129.753909 z m 75.5371,0 -7.6914,129.753909 h 75.0332 V -166.52344 Z m 77.3438,0 v 129.753909 h 72.3965 l -7.6817,-129.753909 z m 74.7285,0 7.6895,129.753909 h 74.7675 l -17.1484,-129.753909 z"
           transform="scale(0.26458333)" />
      </g>
    </g>
    <path
       id="path2785"
       style="color:#000000;font-style:normal;font-variant:normal;font-weight:normal;font-stretch:normal;font-size:medium;line-height:normal;font-family:sans-serif;font-variant-ligatures:normal;font-variant-position:normal;font-variant-caps:normal;font-variant-numeric:normal;font-variant-alternates:normal;font-variant-east-asian:normal;font-feature-settings:normal;font-variation-settings:normal;text-indent:0;text-align:start;text-decoration:none;text-decoration-line:none;text-decoration-style:solid;text-decoration-color:#000000;letter-spacing:normal;word-spacing:normal;text-transform:none;writing-mode:lr-tb;direction:ltr;text-orientation:mixed;dominant-baseline:auto;baseline-shift:baseline;text-anchor:start;white-space:normal;shape-padding:0;shape-margin:0;inline-size:0;clip-rule:nonzero;display:inline;overflow:visible;visibility:visible;opacity:1;isolation:auto;mix-blend-mode:normal;color-interpolation:sRGB;color-interpolation-filters:linearRGB;solid-color:#000000;solid-opacity:1;vector-effect:none;fill:#808080;fill-opacity:1;fill-rule:nonzero;stroke:none;stroke-width:0.548349;stroke-linecap:square;stroke-linejoin:miter;stroke-miterlimit:4;stroke-dasharray:none;stroke-dashoffset:6.00002;stroke-opacity:1;paint-order:markers fill stroke;color-rendering:auto;image-rendering:auto;shape-rendering:auto;text-rendering:auto;enable-background:accumulate;stop-color:#000000;stop-opacity:1"
       d="m 43.9825,5.6379623 c -1.177855,0 -2.138461,0.9606058 -2.138461,2.138453 0,1.1778471 0.960606,2.1384533 2.138461,2.1384533 1.177775,0 2.138379,-0.9606062 2.138379,-2.1384533 0,-1.1778472 -0.960604,-2.138453 -2.138379,-2.138453 z m 7.457263,0 c -1.177856,0 -2.13846,0.9606058 -2.13846,2.138453 0,1.1778471 0.960604,2.1384533 2.13846,2.1384533 1.177856,0 2.138954,-0.9606062 2.138954,-2.1384533 0,-1.1778472 -0.961098,-2.138453 -2.138954,-2.138453 z m 7.457756,0 c -1.177856,0 -2.13838,0.9606058 -2.13838,2.138453 0,1.1778471 0.960524,2.1384533 2.13838,2.1384533 1.177855,0 2.138625,-0.9606062 2.138625,-2.1384533 0,-1.1778472 -0.96077,-2.138453 -2.138625,-2.138453 z M 43.9825,6.1864171 c 0.881464,0 1.590375,0.7085011 1.590375,1.5899982 0,0.8814972 -0.708911,1.5904247 -1.590375,1.5904247 -0.881546,0 -1.590458,-0.7089275 -1.590458,-1.5904247 0,-0.027556 6.56e-4,-0.054948 0,-0.082143 0.03937,-0.7885858 0.647895,-1.4213488 1.425286,-1.4997112 0.02707,-0.00246 0.05331,-0.00492 0.08119,-0.00574 0.02707,-0.00164 0.05495,-0.00164 0.08217,-0.00164 z m 7.457263,0 c 0.881547,0 1.590458,0.7085011 1.590458,1.5899982 0,0.8814972 -0.708911,1.5904247 -1.590458,1.5904247 -0.881464,0 -1.589964,-0.7089275 -1.589964,-1.5904247 0,-0.8814971 0.7085,-1.5899982 1.589964,-1.5899982 z m 7.457756,0 c 0.881545,0 1.590047,0.7085011 1.590047,1.5899982 0,0.8814972 -0.708502,1.5904247 -1.590047,1.5904247 -0.881465,0 -1.590376,-0.7089275 -1.590376,-1.5904247 0,-0.8814971 0.708911,-1.5899982 1.590376,-1.5899982 z M 43.9825,10.671847 c -1.177855,0 -2.138461,0.960606 -2.138461,2.138453 0,1.177847 0.960606,2.138453 2.138461,2.138453 1.177775,0 2.138379,-0.960606 2.138379,-2.138453 0,-1.177847 -0.960604,-2.138453 -2.138379,-2.138453 z m 7.457263,0 c -1.177856,0 -2.13846,0.960606 -2.13846,2.138453 0,1.177847 0.960604,2.138453 2.13846,2.138453 1.177856,0 2.138954,-0.960606 2.138954,-2.138453 0,-1.177847 -0.961098,-2.138453 -2.138954,-2.138453 z m 7.457756,0 c -1.177856,0 -2.13838,0.960606 -2.13838,2.138453 0,1.177847 0.960524,2.138453 2.13838,2.138453 1.177855,0 2.138625,-0.960606 2.138625,-2.138453 0,-1.177847 -0.96077,-2.138453 -2.138625,-2.138453 z M 43.9825,11.219875 c 0.881464,0 1.590375,0.708928 1.590375,1.590425 0,0.881497 -0.708911,1.590425 -1.590375,1.590425 -0.881546,0 -1.590458,-0.708928 -1.590458,-1.590425 0,-0.881497 0.708912,-1.590425 1.590458,-1.590425 z m 7.457263,0 c 0.881547,0 1.590458,0.708928 1.590458,1.590425 0,0.881497 -0.708911,1.590425 -1.590458,1.590425 -0.881464,0 -1.589964,-0.708928 -1.589964,-1.590425 0,-0.881497 0.7085,-1.590425 1.589964,-1.590425 z m 7.457756,0 c 0.881545,0 1.590047,0.708928 1.590047,1.590425 0,0.881497 -0.708502,1.590425 -1.590047,1.590425 -0.881465,0 -1.590376,-0.708928 -1.590376,-1.590425 0,-0.881497 0.708911,-1.590425 1.590376,-1.590425 z m -7.457756,4.485857 c -1.177856,0 -2.13846,0.960605 -2.13846,2.138453 0,1.177847 0.960604,2.138453 2.13846,2.138453 1.177856,0 2.138954,-0.960606 2.138954,-2.138453 0,-1.177848 -0.961098,-2.138453 -2.138954,-2.138453 z m 7.457756,0 c -1.177856,0 -2.13838,0.960605 -2.13838,2.138453 0,1.177847 0.960524,2.138453 2.13838,2.138453 1.177855,0 2.138625,-0.960606 2.138625,-2.138453 0,-1.177848 -0.96077,-2.138453 -2.138625,-2.138453 z M 43.9825,15.979799 A 1.8643858,1.8643858 0 0 0 42.118041,17.844185 1.8643858,1.8643858 0 0 0 43.9825,19.70857 1.8643858,1.8643858 0 0 0 45.846877,17.844185 1.8643858,1.8643858 0 0 0 43.9825,15.979799 Z m 7.457263,0.273961 c 0.881547,0 1.590458,0.708927 1.590458,1.590425 0,0.881497 -0.708911,1.589998 -1.590458,1.589998 -0.881464,0 -1.589964,-0.708501 -1.589964,-1.589998 0,-0.881498 0.7085,-1.590425 1.589964,-1.590425 z m 7.457756,0 c 0.881545,0 1.590047,0.708927 1.590047,1.590425 0,0.881497 -0.708502,1.589998 -1.590047,1.589998 -0.881465,0 -1.590376,-0.708501 -1.590376,-1.589998 0,-0.881498 0.708911,-1.590425 1.590376,-1.590425 z m -7.457756,4.485429 c -1.177856,0 -2.13846,0.961032 -2.13846,2.138879 0,1.177848 0.960604,2.13856 2.13846,2.13856 1.177856,0 2.138954,-0.960712 2.138954,-2.13856 0,-1.177847 -0.961098,-2.138879 -2.138954,-2.138879 z m 7.457756,0 c -1.177856,0 -2.13838,0.961032 -2.13838,2.138879 0,1.177848 0.960524,2.13856 2.13838,2.13856 1.177855,0 2.138625,-0.960712 2.138625,-2.13856 0,-1.177847 -0.96077,-2.138879 -2.138625,-2.138879 z M 43.9825,21.013577 a 1.8643858,1.8643858 0 0 0 -1.864459,1.864385 1.8643858,1.8643858 0 0 0 1.864459,1.864386 1.8643858,1.8643858 0 0 0 1.864377,-1.864386 1.8643858,1.8643858 0 0 0 -1.864377,-1.864385 z m 7.457263,0.274173 c 0.881547,0 1.590458,0.708822 1.590458,1.590318 0,0.881497 -0.708911,1.589998 -1.590458,1.589998 -0.881464,0 -1.589964,-0.708501 -1.589964,-1.589998 0,-0.881496 0.7085,-1.590318 1.589964,-1.590318 z m 7.457756,0 c 0.881545,0 1.590047,0.708822 1.590047,1.590318 0,0.881497 -0.708502,1.589998 -1.590047,1.589998 -0.881465,0 -1.590376,-0.708501 -1.590376,-1.589998 0,-0.881496 0.708911,-1.590318 1.590376,-1.590318 z m -7.457756,4.48543 c -1.177856,0 -2.13846,0.961033 -2.13846,2.13888 0,1.177847 0.960604,2.138453 2.13846,2.138453 1.177856,0 2.138954,-0.960606 2.138954,-2.138453 0,-1.177847 -0.961098,-2.13888 -2.138954,-2.13888 z m 7.457756,0 c -1.177856,0 -2.13838,0.961033 -2.13838,2.13888 0,1.177847 0.960524,2.138453 2.13838,2.138453 1.177855,0 2.138625,-0.960606 2.138625,-2.138453 0,-1.177847 -0.96077,-2.13888 -2.138625,-2.13888 z M 43.9825,26.04746 A 1.8643858,1.8643858 0 0 0 42.118041,27.911847 1.8643858,1.8643858 0 0 0 43.9825,29.776233 1.8643858,1.8643858 0 0 0 45.846877,27.911847 1.8643858,1.8643858 0 0 0 43.9825,26.04746 Z m 7.457263,0.274175 c 0.881547,0 1.590458,0.708927 1.590458,1.590425 0,0.881497 -0.708911,1.589997 -1.590458,1.589997 -0.881464,0 -1.589964,-0.7085 -1.589964,-1.589997 0,-0.881498 0.7085,-1.590425 1.589964,-1.590425 z m 7.457756,0 c 0.881545,0 1.590047,0.708927 1.590047,1.590425 0,0.881497 -0.708502,1.589997 -1.590047,1.589997 -0.881465,0 -1.590376,-0.7085 -1.590376,-1.589997 0,-0.881498 0.708911,-1.590425 1.590376,-1.590425 z M 43.9825,31.081239 a 1.8643858,1.8643858 0 0 0 -1.864459,1.864386 1.8643858,1.8643858 0 0 0 1.864459,1.864386 1.8643858,1.8643858 0 0 0 1.864377,-1.864386 1.8643858,1.8643858 0 0 0 -1.864377,-1.864386 z m 7.45751,0 a 1.8643858,1.8643858 0 0 0 -1.864378,1.864386 1.8643858,1.8643858 0 0 0 1.864378,1.864386 1.8643858,1.8643858 0 0 0 1.864376,-1.864386 1.8643858,1.8643858 0 0 0 -1.864376,-1.864386 z m 7.457509,0 a 1.8643858,1.8643858 0 0 0 -1.864378,1.864386 1.8643858,1.8643858 0 0 0 1.864378,1.864386 1.8643858,1.8643858 0 0 0 1.864377,-1.864386 1.8643858,1.8643858 0 0 0 -1.864377,-1.864386 z M 43.9825,36.115125 a 1.8643858,1.8643858 0 0 0 -1.864459,1.864384 1.8643858,1.8643858 0 0 0 1.864459,1.864385 1.8643858,1.8643858 0 0 0 1.864377,-1.864385 1.8643858,1.8643858 0 0 0 -1.864377,-1.864384 z m 7.45751,0 a 1.8643858,1.8643858 0 0 0 -1.864378,1.864384 1.8643858,1.8643858 0 0 0 1.864378,1.864385 1.8643858,1.8643858 0 0 0 1.864376,-1.864385 1.8643858,1.8643858 0 0 0 -1.864376,-1.864384 z m 7.457509,0 a 1.8643858,1.8643858 0 0 0 -1.864378,1.864384 1.8643858,1.8643858 0 0 0 1.864378,1.864385 1.8643858,1.8643858 0 0 0 1.864377,-1.864385 1.8643858,1.8643858 0 0 0 -1.864377,-1.864384 z M 43.9825,41.149008 a 1.8643858,1.8643858 0 0 0 -1.864459,1.864387 1.8643858,1.8643858 0 0 0 1.864459,1.864383 1.8643858,1.8643858 0 0 0 1.864377,-1.864383 1.8643858,1.8643858 0 0 0 -1.864377,-1.864387 z m 7.45751,0 a 1.8643858,1.8643858 0 0 0 -1.864378,1.864387 1.8643858,1.8643858 0 0 0 1.864378,1.864383 1.8643858,1.8643858 0 0 0 1.864376,-1.864383 1.8643858,1.8643858 0 0 0 -1.864376,-1.864387 z m 7.457509,0 a 1.8643858,1.8643858 0 0 0 -1.864378,1.864387 1.8643858,1.8643858 0 0 0 1.864378,1.864383 1.8643858,1.8643858 0 0 0 1.864377,-1.864383 1.8643858,1.8643858 0 0 0 -1.864377,-1.864387 z" />
  </g>
</svg>
