<?xml version="1.0" encoding="UTF-8" standalone="no"?>
<svg
   xmlns:dc="http://purl.org/dc/elements/1.1/"
   xmlns:cc="http://creativecommons.org/ns#"
   xmlns:rdf="http://www.w3.org/1999/02/22-rdf-syntax-ns#"
   xmlns:svg="http://www.w3.org/2000/svg"
   xmlns="http://www.w3.org/2000/svg"
   xmlns:sodipodi="http://sodipodi.sourceforge.net/DTD/sodipodi-0.dtd"
   xmlns:inkscape="http://www.inkscape.org/namespaces/inkscape"
   width="256"
   height="256"
   viewBox="0 0 67.733332 67.733335"
   version="1.1"
   id="svg8"
   inkscape:version="1.0.1 (3bc2e813f5, 2020-09-07)"
   sodipodi:docname="engine-power-max.svg"
   inkscape:export-filename="C:\Users\keath\Workspace\KMX\elite-streamdeck-icons\chaff.png"
   inkscape:export-xdpi="96"
   inkscape:export-ydpi="96">
  <defs
     id="defs2" />
  <sodipodi:namedview
     id="base"
     pagecolor="#000000"
     bordercolor="#666666"
     borderopacity="1.0"
     inkscape:pageopacity="0"
     inkscape:pageshadow="2"
     inkscape:zoom="7.919596"
     inkscape:cx="153.92423"
     inkscape:cy="125.6477"
     inkscape:document-units="px"
     inkscape:current-layer="layer2"
     showgrid="true"
     units="px"
     inkscape:snap-grids="true"
     objecttolerance="10000"
     guidetolerance="10000"
     inkscape:window-width="3840"
     inkscape:window-height="2066"
     inkscape:window-x="3829"
     inkscape:window-y="-11"
     inkscape:window-maximized="1"
     inkscape:document-rotation="0"
     showguides="true"
     inkscape:snap-to-guides="true"
     inkscape:snap-others="false"
     inkscape:snap-nodes="false"
     inkscape:snap-global="true"
     inkscape:guide-bbox="true">
    <inkscape:grid
       type="xygrid"
       id="grid4623" />
    <sodipodi:guide
       position="-3.96875,62.441667"
       orientation="0,256"
       id="guide3351" />
    <sodipodi:guide
       position="61.471991,74.615524"
       orientation="256,0"
       id="guide3353" />
    <sodipodi:guide
       position="-2.6458333,22.754167"
       orientation="0,-256"
       id="guide3355" />
    <sodipodi:guide
       position="5.2916667,70.379167"
       orientation="-256,0"
       id="guide3357" />
    <sodipodi:guide
       position="0,67.733334"
       orientation="0,256"
       id="guide3359" />
    <sodipodi:guide
       position="67.733334,67.733334"
       orientation="256,0"
       id="guide3361" />
    <sodipodi:guide
       position="67.733334,0"
       orientation="0,-256"
       id="guide3363" />
    <sodipodi:guide
       position="0,0"
       orientation="-256,0"
       id="guide3365" />
    <sodipodi:guide
       position="0,67.733334"
       orientation="0,256"
       id="guide3367" />
    <sodipodi:guide
       position="67.733334,67.733334"
       orientation="256,0"
       id="guide3369" />
    <sodipodi:guide
       position="67.733334,0"
       orientation="0,-256"
       id="guide3371" />
    <sodipodi:guide
       position="0,0"
       orientation="-256,0"
       id="guide3373" />
    <sodipodi:guide
       position="0,67.733334"
       orientation="0,256"
       id="guide3375" />
    <sodipodi:guide
       position="67.733334,67.733334"
       orientation="256,0"
       id="guide3377" />
    <sodipodi:guide
       position="67.733334,0"
       orientation="0,-256"
       id="guide3379" />
    <sodipodi:guide
       position="0,0"
       orientation="-256,0"
       id="guide3381" />
    <sodipodi:guide
       position="21.381562,52.365337"
       orientation="1,0"
       id="guide895" />
  </sodipodi:namedview>
  <metadata
     id="metadata5">
    <rdf:RDF>
      <cc:Work
         rdf:about="">
        <dc:format>image/svg+xml</dc:format>
        <dc:type
           rdf:resource="http://purl.org/dc/dcmitype/StillImage" />
        <dc:title></dc:title>
      </cc:Work>
    </rdf:RDF>
  </metadata>
  <g
     inkscape:groupmode="layer"
     id="layer2"
     inkscape:label="Icon">
    <g
       id="g1059"
       transform="matrix(0.2967745,0,0,0.36485824,-103.67182,46.416359)">
      <g
         id="g1563">
        <path
           id="rect962"
           style="fill:#808080;fill-opacity:1;stroke:none;stroke-width:10.2696;stroke-linecap:square;stroke-miterlimit:4;stroke-dasharray:none;stroke-dashoffset:6.00002;stroke-opacity:1;paint-order:markers fill stroke"
           d="m 383.65601,-105.83333 v 45.243747 h 74.73851 v -45.243747 z m 2.97153,5.22655 h 23.69347 v 33.39538 h -23.69347 z m 25.36732,0 h 18.23258 v 33.39538 h -18.23258 z m 19.90593,0 h 23.69347 v 33.39538 h -23.69347 z" />
        <rect
           style="fill:#808080;fill-opacity:1;stroke:none;stroke-width:8.37427;stroke-linecap:square;stroke-miterlimit:4;stroke-dasharray:none;stroke-dashoffset:6.00002;stroke-opacity:1;paint-order:markers fill stroke"
           id="rect964"
           width="71.226105"
           height="9.7813215"
           x="385.40985"
           y="-56.890923" />
        <path
           id="path993"
           style="fill:#808080;fill-opacity:1;stroke:none;stroke-width:0.999999px;stroke-linecap:butt;stroke-linejoin:miter;stroke-opacity:1"
           d="m 1444.6191,-166.52344 -20.5058,129.753909 h 78.3359 l 7.6914,-129.753909 z m 75.5371,0 -7.6914,129.753909 h 75.0332 V -166.52344 Z m 77.3438,0 v 129.753909 h 72.3965 l -7.6817,-129.753909 z m 74.7285,0 7.6895,129.753909 h 74.7675 l -17.1484,-129.753909 z"
           transform="scale(0.26458333)" />
      </g>
    </g>
    <path
       id="path2075-3"
       style="fill:#817f7f;fill-opacity:1;stroke:none;stroke-width:0.551449;stroke-linecap:square;stroke-linejoin:miter;stroke-miterlimit:4;stroke-dasharray:none;stroke-dashoffset:6.00002;stroke-opacity:1;paint-order:markers fill stroke"
       d="m 51.839113,5.4194948 c -1.184515,0 -2.150635,0.9660453 -2.150635,2.1505438 0,1.1845068 0.96612,2.1505365 2.150635,2.1505448 1.184515,8.2e-6 2.150552,-0.9660297 2.150552,-2.1505448 0,-1.184515 -0.966037,-2.1505603 -2.150552,-2.1505438 z m 7.499921,0 c -1.184515,0 -2.151047,0.9660453 -2.151047,2.1505438 0,1.1845068 0.966532,2.1505365 2.151047,2.1505448 1.184515,8.2e-6 2.150552,-0.9660297 2.150552,-2.1505448 0,-1.184515 -0.966037,-2.1505603 -2.150552,-2.1505438 z M 44.339439,5.6950046 a 1.8749271,1.8749271 0 0 0 -1.875001,1.8749268 1.8749271,1.8749271 0 0 0 1.875001,1.8749277 1.8749271,1.8749271 0 0 0 1.874918,-1.8749277 1.8749271,1.8749271 0 0 0 -1.874918,-1.8749268 z m 7.499674,0.2756171 c 0.886448,-8.2e-6 1.599284,0.7129276 1.599284,1.5994169 0,0.8864811 -0.712836,1.5989969 -1.599284,1.5989887 -0.886449,-8.3e-6 -1.598955,-0.7125076 -1.598955,-1.5989887 0,-0.8864811 0.712506,-1.5994169 1.598955,-1.5994169 z m 7.499921,0 c 0.88653,-8.2e-6 1.598873,0.7129276 1.598873,1.5994169 0,0.8864811 -0.712343,1.5989969 -1.598873,1.5989887 -0.886448,-8.3e-6 -1.59945,-0.7125076 -1.59945,-1.5989887 0,-0.8864811 0.713002,-1.5994169 1.59945,-1.5994169 z m -7.499921,4.5112203 c -1.184515,8e-6 -2.150635,0.966037 -2.150635,2.150544 0,1.184506 0.96612,2.150535 2.150635,2.150543 1.184515,9e-6 2.150552,-0.966037 2.150552,-2.150543 0,-1.184507 -0.966037,-2.150553 -2.150552,-2.150544 z m 7.499921,0 c -1.184515,8e-6 -2.151047,0.966037 -2.151047,2.150544 0,1.184506 0.966532,2.150535 2.151047,2.150543 1.184515,9e-6 2.150552,-0.966037 2.150552,-2.150543 0,-1.184507 -0.966037,-2.150553 -2.150552,-2.150544 z m -14.999595,0.27551 a 1.8749271,1.8749271 0 0 0 -1.875001,1.874926 1.8749271,1.8749271 0 0 0 1.875001,1.874927 1.8749271,1.8749271 0 0 0 1.874918,-1.874927 1.8749271,1.8749271 0 0 0 -1.874918,-1.874926 z m 7.499674,0.275617 c 0.886448,-9e-6 1.599284,0.712935 1.599284,1.599417 0,0.886481 -0.712836,1.598996 -1.599284,1.598988 -0.886449,0 -1.598955,-0.712507 -1.598955,-1.598988 0,-0.886482 0.712506,-1.599417 1.598955,-1.599417 z m 7.499921,0 c 0.88653,-9e-6 1.598873,0.712935 1.598873,1.599417 0,0.886481 -0.712343,1.598996 -1.598873,1.598988 -0.886448,0 -1.59945,-0.712507 -1.59945,-1.598988 0,-0.886482 0.713002,-1.599417 1.59945,-1.599417 z m -7.499921,4.51079 c -1.184515,8e-6 -2.150635,0.966466 -2.150635,2.150972 0,1.184499 0.96612,2.150544 2.150635,2.150544 1.184515,8e-6 2.150552,-0.966029 2.150552,-2.150544 0,-1.184515 -0.966037,-2.15098 -2.150552,-2.150972 z m 7.499921,0 c -1.184515,8e-6 -2.151047,0.966466 -2.151047,2.150972 0,1.184499 0.966532,2.150544 2.151047,2.150544 1.184515,8e-6 2.150552,-0.966029 2.150552,-2.150544 0,-1.184515 -0.966037,-2.15098 -2.150552,-2.150972 z m -14.999595,0.275938 a 1.8749271,1.8749271 0 0 0 -1.875001,1.874927 1.8749271,1.8749271 0 0 0 1.875001,1.874927 1.8749271,1.8749271 0 0 0 1.874918,-1.874927 1.8749271,1.8749271 0 0 0 -1.874918,-1.874927 z m 7.499674,0.275618 c 0.886448,-9e-6 1.599284,0.712935 1.599284,1.599416 0,0.886481 -0.712836,1.598997 -1.599284,1.598988 -0.886449,0 -1.598955,-0.712507 -1.598955,-1.598988 0,-0.886481 0.712506,-1.599416 1.598955,-1.599416 z m 7.499921,0 c 0.88653,-9e-6 1.598873,0.712935 1.598873,1.599416 0,0.886481 -0.712343,1.598997 -1.598873,1.598988 -0.886448,0 -1.59945,-0.712507 -1.59945,-1.598988 0,-0.886481 0.713002,-1.599416 1.59945,-1.599416 z m -7.499921,4.51079 c -1.184515,0 -2.150635,0.966144 -2.150635,2.150651 0,1.184506 0.96612,2.150964 2.150635,2.150972 1.184515,9e-6 2.150552,-0.966457 2.150552,-2.150972 0,-1.184507 -0.966037,-2.15066 -2.150552,-2.150651 z m 7.499921,0 c -1.184515,0 -2.151047,0.966144 -2.151047,2.150651 0,1.184506 0.966532,2.150964 2.151047,2.150972 1.184515,9e-6 2.150552,-0.966457 2.150552,-2.150972 0,-1.184507 -0.966037,-2.15066 -2.150552,-2.150651 z m -14.999595,0.275831 a 1.8749271,1.8749271 0 0 0 -1.875001,1.874927 1.8749271,1.8749271 0 0 0 1.875001,1.874927 1.8749271,1.8749271 0 0 0 1.874918,-1.874927 1.8749271,1.8749271 0 0 0 -1.874918,-1.874927 z m 7.499674,0.275832 c 0.886448,-9e-6 1.599284,0.712498 1.599284,1.598988 0,0.886481 -0.712836,1.599318 -1.599284,1.599309 -0.886449,-8e-6 -1.598955,-0.712828 -1.598955,-1.599309 0,-0.886481 0.712506,-1.598988 1.598955,-1.598988 z m 7.499921,0 c 0.88653,-9e-6 1.598873,0.712498 1.598873,1.598988 0,0.886481 -0.712343,1.599318 -1.598873,1.599309 -0.886448,-8e-6 -1.59945,-0.712828 -1.59945,-1.599309 0,-0.886481 0.713002,-1.598988 1.59945,-1.598988 z m -7.499921,4.51079 c -1.184515,8e-6 -2.150635,0.966037 -2.150635,2.150544 0,1.184499 0.96612,2.150536 2.150635,2.150542 1.184515,9e-6 2.150552,-0.966036 2.150552,-2.150542 0,-1.184507 -0.966037,-2.150552 -2.150552,-2.150544 z m 7.499921,0 c -1.184515,8e-6 -2.151047,0.966037 -2.151047,2.150544 0,1.184499 0.966532,2.150536 2.151047,2.150542 1.184515,9e-6 2.150552,-0.966036 2.150552,-2.150542 0,-1.184507 -0.966037,-2.150552 -2.150552,-2.150544 z m -14.999595,0.275724 a 1.8749271,1.8749271 0 0 0 -1.875001,1.874928 1.8749271,1.8749271 0 0 0 1.875001,1.874925 1.8749271,1.8749271 0 0 0 1.874918,-1.874925 1.8749271,1.8749271 0 0 0 -1.874918,-1.874928 z m 7.499674,0.275832 c 0.886448,-9e-6 1.599284,0.712507 1.599284,1.598988 0,0.886489 -0.712836,1.599425 -1.599284,1.599416 -0.886449,0 -1.598955,-0.712936 -1.598955,-1.599416 0,-0.886481 0.712506,-1.598988 1.598955,-1.598988 z m 7.499921,0 c 0.88653,-9e-6 1.598873,0.712507 1.598873,1.598988 0,0.886489 -0.712343,1.599425 -1.598873,1.599416 -0.886448,0 -1.59945,-0.712936 -1.59945,-1.599416 0,-0.886481 0.713002,-1.598988 1.59945,-1.598988 z m -7.499921,4.510791 c -1.184515,6e-6 -2.150635,0.966042 -2.150635,2.150543 0,1.184507 0.96612,2.150535 2.150635,2.150544 1.184515,6e-6 2.150552,-0.96603 2.150552,-2.150544 0,-1.184515 -0.966037,-2.150553 -2.150552,-2.150543 z m 7.499921,0 c -1.184515,6e-6 -2.151047,0.966042 -2.151047,2.150543 0,1.184507 0.966532,2.150535 2.151047,2.150544 1.184515,6e-6 2.150552,-0.96603 2.150552,-2.150544 0,-1.184515 -0.966037,-2.150553 -2.150552,-2.150543 z m -14.999595,0.275616 a 1.8749271,1.8749271 0 0 0 -1.875001,1.874927 1.8749271,1.8749271 0 0 0 1.875001,1.874925 1.8749271,1.8749271 0 0 0 1.874918,-1.874925 1.8749271,1.8749271 0 0 0 -1.874918,-1.874927 z m 7.499674,0.275937 c 0.886448,-7e-6 1.599284,0.712499 1.599284,1.59899 0,0.886488 -0.712836,1.599424 -1.599284,1.599416 -0.886449,0 -1.598955,-0.712936 -1.598955,-1.599416 0,-0.886482 0.712506,-1.59899 1.598955,-1.59899 z m 7.499921,0 c 0.88653,-7e-6 1.598873,0.712499 1.598873,1.59899 0,0.886488 -0.712343,1.599424 -1.598873,1.599416 -0.886448,0 -1.59945,-0.712936 -1.59945,-1.599416 0,-0.886482 0.713002,-1.59899 1.59945,-1.59899 z m -14.999595,4.786408 a 1.8749271,1.8749271 0 0 0 -1.875001,1.874927 1.8749271,1.8749271 0 0 0 1.875001,1.874928 1.8749271,1.8749271 0 0 0 1.874918,-1.874928 1.8749271,1.8749271 0 0 0 -1.874918,-1.874927 z m 7.499674,0 a 1.8749271,1.8749271 0 0 0 -1.874919,1.874927 1.8749271,1.8749271 0 0 0 1.874919,1.874928 1.8749271,1.8749271 0 0 0 1.874918,-1.874928 1.8749271,1.8749271 0 0 0 -1.874918,-1.874927 z m 7.499674,0 a 1.8749271,1.8749271 0 0 0 -1.874919,1.874927 1.8749271,1.8749271 0 0 0 1.874919,1.874928 1.8749271,1.8749271 0 0 0 1.875,-1.874928 1.8749271,1.8749271 0 0 0 -1.875,-1.874927 z m -14.999348,5.062346 a 1.8749271,1.8749271 0 0 0 -1.875001,1.874927 1.8749271,1.8749271 0 0 0 1.875001,1.874927 1.8749271,1.8749271 0 0 0 1.874918,-1.874927 1.8749271,1.8749271 0 0 0 -1.874918,-1.874927 z m 7.499674,0 a 1.8749271,1.8749271 0 0 0 -1.874919,1.874927 1.8749271,1.8749271 0 0 0 1.874919,1.874927 1.8749271,1.8749271 0 0 0 1.874918,-1.874927 1.8749271,1.8749271 0 0 0 -1.874918,-1.874927 z m 7.499674,0 a 1.8749271,1.8749271 0 0 0 -1.874919,1.874927 1.8749271,1.8749271 0 0 0 1.874919,1.874927 1.8749271,1.8749271 0 0 0 1.875,-1.874927 1.8749271,1.8749271 0 0 0 -1.875,-1.874927 z" />
  </g>
</svg>
