<?xml version="1.0" encoding="UTF-8" standalone="no"?>
<svg
   xmlns:dc="http://purl.org/dc/elements/1.1/"
   xmlns:cc="http://creativecommons.org/ns#"
   xmlns:rdf="http://www.w3.org/1999/02/22-rdf-syntax-ns#"
   xmlns:svg="http://www.w3.org/2000/svg"
   xmlns="http://www.w3.org/2000/svg"
   xmlns:sodipodi="http://sodipodi.sourceforge.net/DTD/sodipodi-0.dtd"
   xmlns:inkscape="http://www.inkscape.org/namespaces/inkscape"
   width="256"
   height="256"
   viewBox="0 0 67.733332 67.733335"
   version="1.1"
   id="svg8"
   inkscape:version="1.0.1 (3bc2e813f5, 2020-09-07)"
   sodipodi:docname="globe.svg"
   inkscape:export-filename="C:\Users\keath\Workspace\KMX\elite-streamdeck-icons\ship-lights.png"
   inkscape:export-xdpi="96"
   inkscape:export-ydpi="96">
  <defs
     id="defs2" />
  <sodipodi:namedview
     id="base"
     pagecolor="#000000"
     bordercolor="#666666"
     borderopacity="1.0"
     inkscape:pageopacity="0"
     inkscape:pageshadow="2"
     inkscape:zoom="5.6"
     inkscape:cx="124.06008"
     inkscape:cy="127.22874"
     inkscape:document-units="px"
     inkscape:current-layer="layer2"
     showgrid="true"
     units="px"
     inkscape:snap-grids="true"
     objecttolerance="10000"
     guidetolerance="10000"
     inkscape:window-width="2321"
     inkscape:window-height="1879"
     inkscape:window-x="4802"
     inkscape:window-y="103"
     inkscape:window-maximized="0"
     inkscape:document-rotation="0"
     showguides="true">
    <inkscape:grid
       type="xygrid"
       id="grid4623" />
    <sodipodi:guide
       position="-3.96875,62.441667"
       orientation="0,256"
       id="guide3351" />
    <sodipodi:guide
       position="62.177083,70.379167"
       orientation="256,0"
       id="guide3353" />
    <sodipodi:guide
       position="-2.6458333,22.754167"
       orientation="0,-256"
       id="guide3355" />
    <sodipodi:guide
       position="5.2916667,70.379167"
       orientation="-256,0"
       id="guide3357" />
    <sodipodi:guide
       position="0,67.733334"
       orientation="0,256"
       id="guide3359" />
    <sodipodi:guide
       position="67.733334,67.733334"
       orientation="256,0"
       id="guide3361" />
    <sodipodi:guide
       position="67.733334,0"
       orientation="0,-256"
       id="guide3363" />
    <sodipodi:guide
       position="0,0"
       orientation="-256,0"
       id="guide3365" />
    <sodipodi:guide
       position="0,67.733334"
       orientation="0,256"
       id="guide3367" />
    <sodipodi:guide
       position="67.733334,67.733334"
       orientation="256,0"
       id="guide3369" />
    <sodipodi:guide
       position="67.733334,0"
       orientation="0,-256"
       id="guide3371" />
    <sodipodi:guide
       position="0,0"
       orientation="-256,0"
       id="guide3373" />
    <sodipodi:guide
       position="0,67.733334"
       orientation="0,256"
       id="guide3375" />
    <sodipodi:guide
       position="67.733334,67.733334"
       orientation="256,0"
       id="guide3377" />
    <sodipodi:guide
       position="67.733334,0"
       orientation="0,-256"
       id="guide3379" />
    <sodipodi:guide
       position="0,0"
       orientation="-256,0"
       id="guide3381" />
  </sodipodi:namedview>
  <metadata
     id="metadata5">
    <rdf:RDF>
      <cc:Work
         rdf:about="">
        <dc:format>image/svg+xml</dc:format>
        <dc:type
           rdf:resource="http://purl.org/dc/dcmitype/StillImage" />
        <dc:title />
      </cc:Work>
    </rdf:RDF>
  </metadata>
  <g
     inkscape:groupmode="layer"
     id="layer2"
     inkscape:label="Icon">
    <path
       id="path859"
       style="color:#000000;font-style:normal;font-variant:normal;font-weight:normal;font-stretch:normal;font-size:medium;line-height:normal;font-family:sans-serif;font-variant-ligatures:normal;font-variant-position:normal;font-variant-caps:normal;font-variant-numeric:normal;font-variant-alternates:normal;font-variant-east-asian:normal;font-feature-settings:normal;font-variation-settings:normal;text-indent:0;text-align:start;text-decoration:none;text-decoration-line:none;text-decoration-style:solid;text-decoration-color:#000000;letter-spacing:normal;word-spacing:normal;text-transform:none;writing-mode:lr-tb;direction:ltr;text-orientation:mixed;dominant-baseline:auto;baseline-shift:baseline;text-anchor:start;white-space:normal;shape-padding:0;shape-margin:0;inline-size:0;clip-rule:nonzero;display:inline;overflow:visible;visibility:visible;opacity:1;isolation:auto;mix-blend-mode:normal;color-interpolation:sRGB;color-interpolation-filters:linearRGB;solid-color:#000000;solid-opacity:1;vector-effect:none;fill:#808080;fill-opacity:1;fill-rule:nonzero;stroke:none;stroke-width:1.118;stroke-linecap:butt;stroke-linejoin:round;stroke-miterlimit:4;stroke-dasharray:none;stroke-dashoffset:6.00002;stroke-opacity:1;paint-order:markers fill stroke;color-rendering:auto;image-rendering:auto;shape-rendering:auto;text-rendering:auto;enable-background:accumulate;stop-color:#000000;stop-opacity:1"
       d="m 33.846665,5.1790127 c -11.011083,0 -19.949321,8.9382383 -19.949321,19.9493223 0,11.011084 8.938238,19.949322 19.949321,19.949322 11.011084,0 19.94987,-8.938238 19.94987,-19.949322 -3e-6,-11.011084 -8.938786,-19.9493217 -19.94987,-19.9493223 z m 0,1.1180005 c 0.429745,3e-7 0.970358,0.359167 1.539437,1.2626638 0.569076,0.9034967 1.116066,2.2805855 1.574371,4.000892 0.08423,0.316179 0.164064,0.647755 0.242379,0.986439 -1.091844,-0.117431 -2.212067,-0.181785 -3.356187,-0.181785 -1.14362,0 -2.262752,0.06445 -3.354002,0.181785 0.07835,-0.338684 0.158693,-0.67026 0.242925,-0.986439 0.458308,-1.7203065 1.005295,-3.0973956 1.574375,-4.000892 0.569075,-0.9034966 1.106957,-1.2626638 1.536702,-1.2626638 z m -2.261656,0.3373654 c -0.07572,0.1061888 -0.15008,0.2147065 -0.222184,0.3291771 -0.666967,1.0589105 -1.232148,2.5212187 -1.708662,4.3098703 -0.120965,0.454063 -0.235451,0.929749 -0.343916,1.42425 -1.823462,0.269494 -3.551111,0.697866 -5.146732,1.263755 0.377128,-0.796951 0.79098,-1.54768 1.240827,-2.239822 1.685033,-2.5926137 3.821312,-4.3820219 6.180667,-5.0872304 z m 4.523861,0 c 2.359196,0.7052926 4.495728,2.4947648 6.180664,5.0872304 0.449736,0.691968 0.863231,1.442549 1.240282,2.239276 -1.595437,-0.565541 -3.323145,-0.993837 -5.146187,-1.263209 -0.108522,-0.494501 -0.223494,-0.970187 -0.344462,-1.42425 C 37.562656,9.4847744 36.998018,8.0224662 36.331053,6.9635557 36.25895,6.8490851 36.184586,6.7405674 36.10887,6.6343786 Z m -8.069474,0.5781069 c -1.342135,0.9978284 -2.548278,2.3256186 -3.571816,3.9004465 -0.67476,1.038195 -1.270759,2.188659 -1.781812,3.42606 -1.017935,0.439137 -1.971583,0.935974 -2.846316,1.486482 -1.631827,1.026979 -2.997016,2.24632 -4.007989,3.605661 1.789125,-5.878238 6.373518,-10.5309218 12.207933,-12.4186495 z m 11.613993,0 C 45.487016,9.0996002 50.070732,13.750542 51.860779,19.627314 50.85054,18.269496 49.486375,17.0515 47.856065,16.025474 46.980818,15.474642 46.026904,14.977226 45.008112,14.5379 44.497141,13.300855 43.900889,12.150866 43.226298,11.112932 42.202672,9.5379658 40.995666,8.2103435 39.653389,7.2124855 Z m -5.806724,6.2707385 c 1.233445,0 2.437727,0.07718 3.604571,0.218359 0.37069,1.879493 0.648457,4.040526 0.817756,6.373913 -1.4234,-0.07848 -2.899241,-0.123918 -4.422327,-0.123918 -1.522887,0 -2.998002,0.04546 -4.421233,0.123918 0.169734,-2.333387 0.447851,-4.49442 0.818848,-6.373913 1.166343,-0.141056 2.369508,-0.218359 3.602385,-0.218359 z m -4.772247,0.381037 c -0.353827,1.881526 -0.614802,4.003841 -0.774083,6.280019 -2.257461,0.158949 -4.338157,0.414681 -6.183941,0.745698 0.291739,-1.968766 0.77927,-3.819175 1.430255,-5.495563 1.674838,-0.681062 3.534852,-1.20564 5.527769,-1.530154 z m 9.545042,0 c 1.992914,0.324514 3.852931,0.849092 5.527769,1.530154 0.650987,1.676388 1.138516,3.526797 1.430256,5.495563 -1.845347,-0.330937 -3.925457,-0.586741 -6.182303,-0.745698 -0.159693,-2.276208 -0.421559,-4.398473 -0.775722,-6.280019 z m -16.492693,2.167764 c -0.53455,1.583778 -0.935118,3.286734 -1.17532,5.078496 -0.322928,0.06753 -0.640527,0.136597 -0.944951,0.209078 -1.785642,0.425154 -3.242434,0.929654 -4.299497,1.524696 -0.136659,0.07693 -0.268087,0.156253 -0.393593,0.238011 0.67352,-2.329959 2.476477,-4.445681 5.120529,-6.109698 0.531161,-0.334283 1.098886,-0.647035 1.692832,-0.940583 z m 23.440345,0 c 0.593946,0.293548 1.16167,0.6063 1.692832,0.940583 2.6434,1.663608 4.445522,3.778781 5.119436,6.108061 -0.124626,-0.08113 -0.254647,-0.160003 -0.390316,-0.236374 C 50.932,22.249253 49.472478,21.744753 47.686836,21.319599 47.382412,21.247121 47.065359,21.178053 46.742433,21.110521 46.50223,19.318759 46.101662,17.615803 45.567112,16.032025 Z m -11.720447,5.038099 c 1.552546,0 3.054369,0.04829 4.499844,0.131015 0.07022,1.267768 0.107542,2.580927 0.107542,3.927196 0,1.346268 -0.03732,2.659427 -0.107542,3.927195 -1.445475,0.08272 -2.947298,0.131016 -4.499844,0.131016 -1.552346,0 -3.053689,-0.04831 -4.49875,-0.131016 -0.07042,-1.267768 -0.108088,-2.580927 -0.108088,-3.927195 0,-1.346269 0.03767,-2.659428 0.108088,-3.927196 1.445061,-0.0827 2.946404,-0.131015 4.49875,-0.131015 z m -5.621117,0.199799 c -0.06634,1.248089 -0.102088,2.537243 -0.102088,3.858412 0,1.321169 0.03574,2.610322 0.102088,3.858413 -2.307925,-0.167809 -4.419656,-0.437513 -6.258183,-0.782274 -0.106059,-1.001239 -0.163771,-2.02798 -0.163771,-3.076139 1e-6,-1.048159 0.05771,-2.074898 0.163771,-3.076139 1.838527,-0.344762 3.950258,-0.614465 6.258183,-0.782273 z m 11.244419,0 c 2.306945,0.167756 4.418638,0.437767 6.256547,0.782273 0.106059,1.001241 0.163223,2.02798 0.163223,3.076139 0,1.048159 -0.05716,2.0749 -0.163223,3.076139 -1.837909,0.344506 -3.949602,0.614518 -6.256547,0.782274 0.06653,-1.248091 0.102627,-2.537244 0.102627,-3.858413 0,-1.321169 -0.0361,-2.610322 -0.102627,-3.858412 z m 7.404571,1.01701 c 0.183428,0.04037 0.378267,0.07811 0.554635,0.120097 1.723316,0.410314 3.105372,0.90151 4.010718,1.411149 0.905343,0.509636 1.238096,0.989928 1.238096,1.310156 0,0.32023 -0.332753,0.800519 -1.238096,1.310157 -0.905346,0.509635 -2.287402,1.000834 -4.010718,1.411149 -0.176368,0.04199 -0.371207,0.07973 -0.554635,0.120098 0.08676,-0.928499 0.133747,-1.876578 0.133747,-2.841404 0,-0.964826 -0.04699,-1.912905 -0.133747,-2.841402 z m -26.055199,5.46e-4 c -0.08672,0.928325 -0.133745,1.876217 -0.133745,2.840856 0,0.964639 0.04702,1.91253 0.133745,2.840856 -0.182661,-0.04022 -0.376783,-0.07773 -0.552449,-0.11955 -1.723317,-0.410315 -3.105919,-0.901514 -4.011263,-1.411149 -0.905344,-0.509638 -1.239737,-0.989927 -1.239737,-1.310157 0,-0.320228 0.334393,-0.80052 1.239737,-1.310156 0.905344,-0.509639 2.287946,-1.000835 4.011263,-1.411149 0.175666,-0.04182 0.369788,-0.07933 0.552449,-0.119551 z m -5.505933,4.886884 c 0.125506,0.08176 0.256934,0.161084 0.393593,0.238013 1.057063,0.595043 2.513855,1.09954 4.299497,1.524694 0.304424,0.07248 0.622023,0.141547 0.944951,0.209079 0.240202,1.791762 0.64077,3.494717 1.17532,5.078495 -0.593946,-0.293547 -1.161671,-0.6063 -1.692832,-0.940582 -2.644052,-1.664018 -4.447009,-3.779738 -5.120529,-6.109699 z m 37.065974,0.0017 c -0.673914,2.329282 -2.476036,4.444455 -5.119436,6.108062 -0.531162,0.334282 -1.098886,0.647035 -1.692832,0.940582 0.53455,-1.583779 0.935118,-3.286734 1.175321,-5.078495 0.322926,-0.06753 0.639979,-0.136597 0.944403,-0.20908 1.785642,-0.425153 3.245164,-0.929651 4.302228,-1.524693 0.135669,-0.07638 0.26569,-0.155245 0.390316,-0.236376 z m -30.262986,2.190691 c 1.845784,0.331018 3.92648,0.58675 6.183941,0.745699 0.159281,2.276176 0.420256,4.398494 0.774083,6.280018 -1.992917,-0.324513 -3.852931,-0.849091 -5.527769,-1.530154 -0.650985,-1.676389 -1.138517,-3.526797 -1.430255,-5.495563 z m 23.461091,0 c -0.29174,1.968766 -0.779269,3.819174 -1.430256,5.495563 -1.674838,0.681063 -3.534855,1.205641 -5.527769,1.530154 0.354163,-1.881544 0.616029,-4.003811 0.775722,-6.280018 2.256846,-0.158958 4.336956,-0.414762 6.182303,-0.745699 z m -16.152053,0.814481 c 1.423231,0.07846 2.898346,0.123919 4.421233,0.123919 1.523086,0 2.998927,-0.04544 4.422327,-0.123919 -0.169299,2.33339 -0.447066,4.494421 -0.817756,6.373914 -1.166844,0.141184 -2.371126,0.21836 -3.604571,0.21836 -1.232877,0 -2.436042,-0.07731 -3.602385,-0.21836 -0.370997,-1.879493 -0.649114,-4.040524 -0.818848,-6.373914 z m -13.593969,0.44431 c 1.010973,1.359341 2.376162,2.578683 4.007989,3.605661 0.874733,0.550509 1.828381,1.047345 2.846316,1.486482 0.511053,1.2374 1.107052,2.387865 1.781812,3.42606 1.023538,1.574827 2.229681,2.902617 3.571816,3.900446 C 22.204981,41.156457 17.620588,36.503772 15.831463,30.625535 Z m 36.029316,0.0038 c -1.790047,5.876773 -6.373763,10.527714 -12.20739,12.414829 1.342277,-0.997858 2.549283,-2.32548 3.572909,-3.900447 0.674591,-1.037932 1.270843,-2.187924 1.781814,-3.42497 1.018792,-0.439323 1.972706,-0.936741 2.847953,-1.487572 1.63031,-1.026026 2.994475,-2.244023 4.004714,-3.60184 z m -27.697264,5.665881 c 1.595621,0.56589 3.32327,0.994263 5.146732,1.263757 0.108465,0.4945 0.222951,0.970188 0.343916,1.42425 0.476514,1.788652 1.041695,3.25096 1.708662,4.309869 0.0721,0.114472 0.146467,0.222989 0.222184,0.329179 -2.359355,-0.70521 -4.495634,-2.494618 -6.180667,-5.087229 -0.449847,-0.692144 -0.863699,-1.442873 -1.240827,-2.239826 z m 19.366301,5.48e-4 c -0.377051,0.796726 -0.790546,1.547307 -1.240282,2.239278 -1.684936,2.592463 -3.821468,4.381936 -6.180664,5.087229 0.07571,-0.106188 0.15008,-0.214707 0.222183,-0.329179 0.666965,-1.058911 1.231603,-2.521217 1.708114,-4.309869 0.120968,-0.454062 0.23594,-0.92975 0.344462,-1.42425 1.823042,-0.269373 3.55075,-0.697668 5.146187,-1.263209 z m -13.037153,1.413877 c 1.09125,0.117331 2.210382,0.181784 3.354002,0.181784 1.14412,0 2.264343,-0.06435 3.356187,-0.181784 -0.07832,0.338684 -0.158146,0.670261 -0.242379,0.98644 -0.458305,1.720306 -1.005295,3.097395 -1.574371,4.00089 -0.569079,0.903496 -1.109692,1.262665 -1.539437,1.262665 -0.429745,0 -0.967627,-0.359169 -1.536702,-1.262665 -0.56908,-0.903495 -1.116067,-2.280584 -1.574375,-4.00089 -0.08424,-0.316179 -0.164575,-0.647756 -0.242925,-0.98644 z" />
  </g>
</svg>
