<?xml version="1.0" encoding="UTF-8" standalone="no"?>
<svg
   xmlns:dc="http://purl.org/dc/elements/1.1/"
   xmlns:cc="http://creativecommons.org/ns#"
   xmlns:rdf="http://www.w3.org/1999/02/22-rdf-syntax-ns#"
   xmlns:svg="http://www.w3.org/2000/svg"
   xmlns="http://www.w3.org/2000/svg"
   xmlns:sodipodi="http://sodipodi.sourceforge.net/DTD/sodipodi-0.dtd"
   xmlns:inkscape="http://www.inkscape.org/namespaces/inkscape"
   width="256"
   height="256"
   viewBox="0 0 67.733332 67.733335"
   version="1.1"
   id="svg8"
   inkscape:version="1.0.1 (3bc2e813f5, 2020-09-07)"
   sodipodi:docname="loadout.svg"
   inkscape:export-filename="C:\Users\keath\Workspace\KMX\elite-streamdeck-icons\chaff.png"
   inkscape:export-xdpi="96"
   inkscape:export-ydpi="96">
  <defs
     id="defs2" />
  <sodipodi:namedview
     id="base"
     pagecolor="#000000"
     bordercolor="#666666"
     borderopacity="1.0"
     inkscape:pageopacity="0"
     inkscape:pageshadow="2"
     inkscape:zoom="3.959798"
     inkscape:cx="81.785341"
     inkscape:cy="138.89873"
     inkscape:document-units="px"
     inkscape:current-layer="layer2"
     showgrid="true"
     units="px"
     inkscape:snap-grids="false"
     objecttolerance="10000"
     guidetolerance="10000"
     inkscape:window-width="2321"
     inkscape:window-height="1879"
     inkscape:window-x="4802"
     inkscape:window-y="103"
     inkscape:window-maximized="0"
     inkscape:document-rotation="0"
     showguides="true"
     inkscape:snap-to-guides="false"
     inkscape:snap-others="false"
     inkscape:snap-nodes="false"
     inkscape:snap-global="false">
    <inkscape:grid
       type="xygrid"
       id="grid4623" />
    <sodipodi:guide
       position="-3.96875,62.441667"
       orientation="0,256"
       id="guide3351" />
    <sodipodi:guide
       position="62.177083,70.379167"
       orientation="256,0"
       id="guide3353" />
    <sodipodi:guide
       position="-2.6458333,22.754167"
       orientation="0,-256"
       id="guide3355" />
    <sodipodi:guide
       position="5.2916667,70.379167"
       orientation="-256,0"
       id="guide3357" />
    <sodipodi:guide
       position="0,67.733334"
       orientation="0,256"
       id="guide3359" />
    <sodipodi:guide
       position="67.733334,67.733334"
       orientation="256,0"
       id="guide3361" />
    <sodipodi:guide
       position="67.733334,0"
       orientation="0,-256"
       id="guide3363" />
    <sodipodi:guide
       position="0,0"
       orientation="-256,0"
       id="guide3365" />
    <sodipodi:guide
       position="0,67.733334"
       orientation="0,256"
       id="guide3367" />
    <sodipodi:guide
       position="67.733334,67.733334"
       orientation="256,0"
       id="guide3369" />
    <sodipodi:guide
       position="67.733334,0"
       orientation="0,-256"
       id="guide3371" />
    <sodipodi:guide
       position="0,0"
       orientation="-256,0"
       id="guide3373" />
    <sodipodi:guide
       position="0,67.733334"
       orientation="0,256"
       id="guide3375" />
    <sodipodi:guide
       position="67.733334,67.733334"
       orientation="256,0"
       id="guide3377" />
    <sodipodi:guide
       position="67.733334,0"
       orientation="0,-256"
       id="guide3379" />
    <sodipodi:guide
       position="0,0"
       orientation="-256,0"
       id="guide3381" />
  </sodipodi:namedview>
  <metadata
     id="metadata5">
    <rdf:RDF>
      <cc:Work
         rdf:about="">
        <dc:format>image/svg+xml</dc:format>
        <dc:type
           rdf:resource="http://purl.org/dc/dcmitype/StillImage" />
        <dc:title />
      </cc:Work>
    </rdf:RDF>
  </metadata>
  <g
     inkscape:groupmode="layer"
     id="layer2"
     inkscape:label="Icon">
    <path
       style="fill:none;stroke:#808080;stroke-width:0.79375;stroke-linecap:round;stroke-linejoin:round;stroke-dashoffset:6.00002;paint-order:markers fill stroke"
       d="M 33.072916,6.6145832 V 43.656249"
       id="path875" />
    <path
       style="fill:none;stroke:#808080;stroke-width:0.79375;stroke-linecap:round;stroke-linejoin:round;stroke-dashoffset:6.00002;paint-order:markers fill stroke"
       d="M 6.6145832,23.8125 H 60.854166"
       id="path877" />
    <path
       id="path1516"
       style="color:#000000;font-style:normal;font-variant:normal;font-weight:normal;font-stretch:normal;font-size:medium;line-height:normal;font-family:sans-serif;font-variant-ligatures:normal;font-variant-position:normal;font-variant-caps:normal;font-variant-numeric:normal;font-variant-alternates:normal;font-variant-east-asian:normal;font-feature-settings:normal;font-variation-settings:normal;text-indent:0;text-align:start;text-decoration:none;text-decoration-line:none;text-decoration-style:solid;text-decoration-color:#000000;letter-spacing:normal;word-spacing:normal;text-transform:none;writing-mode:lr-tb;direction:ltr;text-orientation:mixed;dominant-baseline:auto;baseline-shift:baseline;text-anchor:start;white-space:normal;shape-padding:0;shape-margin:0;inline-size:0;clip-rule:nonzero;display:inline;overflow:visible;visibility:visible;isolation:auto;mix-blend-mode:normal;color-interpolation:sRGB;color-interpolation-filters:linearRGB;solid-color:#000000;solid-opacity:1;vector-effect:none;fill:#808080;fill-opacity:1;fill-rule:nonzero;stroke:none;stroke-width:7.83547;stroke-linecap:round;stroke-linejoin:miter;stroke-miterlimit:4;stroke-dasharray:none;stroke-dashoffset:6.00002;stroke-opacity:1;paint-order:markers fill stroke;color-rendering:auto;image-rendering:auto;shape-rendering:auto;text-rendering:auto;enable-background:accumulate;stop-color:#000000"
       d="M 49.469516,6.9299437 V 7.5187343 9.0390917 H 50.8605 V 8.1075249 h 1.014451 V 6.9299437 Z m 3.448644,0 v 1.1775812 h 0.898529 v 0.9315668 h 1.390982 V 6.9299437 Z M 49.469516,9.9222785 V 12.03133 h 2.405435 V 10.854228 H 50.8605 V 9.9222785 Z m 4.347173,0 V 10.854228 H 52.91816 v 1.177102 h 2.289511 V 9.9222785 Z m -5.64521,2.6487935 a 0.69554763,0.58859937 0 0 0 -0.01778,9.8e-5 0.69554763,0.58859937 0 0 0 -0.480114,0.172345 l -4.057474,3.433592 a 0.69554763,0.58859937 0 0 0 0,0.832125 0.69554763,0.58859937 0 0 0 0.983662,0 l 4.057474,-3.433305 a 0.69554763,0.58859937 0 0 0 0,-0.832412 0.69554763,0.58859937 0 0 0 -0.48577,-0.172443 z m -5.814233,4.905186 a 0.69554763,0.58859937 0 0 0 -0.479999,0.172345 l -4.057134,3.433304 a 0.69554763,0.58859937 0 0 0 0,0.832413 0.69554763,0.58859937 0 0 0 0.983321,0 l 4.057474,-3.433592 a 0.69554763,0.58859937 0 0 0 0,-0.832125 0.69554763,0.58859937 0 0 0 -0.503662,-0.172345 z" />
    <path
       id="rect2111"
       style="fill:#808080;fill-opacity:1;stroke:none;stroke-width:13.5756;stroke-linecap:round;stroke-linejoin:miter;stroke-miterlimit:4;stroke-dasharray:none;stroke-dashoffset:6.00002;stroke-opacity:1;paint-order:markers fill stroke"
       d="m 14.114997,26.136652 v 1.823809 h -3.712943 v 7.659734 h 7.889898 v -0.338698 h 0.05188 V 35.13927 h -0.05188 v -9.002618 z m 5.228941,0 v 9.483543 h 7.889899 v -7.659734 h -3.712773 v -1.823809 z m -8.941884,11.177032 v 5.757865 h 4.383277 v -5.757865 z m 12.448677,0 v 5.757865 h 4.383277 v -5.757865 z" />
    <g
       id="g2217"
       transform="matrix(0.24109154,0,0,0.23444737,48.524062,-5.6742819)"
       style="stroke-width:5.07879">
      <rect
         style="fill:#808080;fill-opacity:1;stroke:none;stroke-width:53.7503;stroke-linecap:round;stroke-linejoin:miter;stroke-miterlimit:4;stroke-dasharray:none;stroke-dashoffset:6.00002;stroke-opacity:1;paint-order:markers fill stroke"
         id="rect2196"
         width="74.083336"
         height="10.583333"
         x="-39.687504"
         y="137.58334" />
      <path
         id="rect2196-6"
         style="fill:#808080;fill-opacity:1;stroke:none;stroke-width:203.151;stroke-linecap:round;stroke-linejoin:miter;stroke-miterlimit:4;stroke-dasharray:none;stroke-dashoffset:6.00002;stroke-opacity:1;paint-order:markers fill stroke"
         d="M -150,580 V 775.56445 H 130 V 580 Z m 83.732422,62.25 a 32.375,32.375 0 0 1 0.136719,0 32.375,32.375 0 0 1 28.882812,17.75 h 56.855469 a 32.375,32.375 0 0 1 28.882812,-17.75 32.375,32.375 0 0 1 0.136719,0 32.375,32.375 0 0 1 28.486328,17.25 H 46.115234 v 30 H 77.244141 A 32.375,32.375 0 0 1 48.490234,707 32.375,32.375 0 0 1 20,690 h -57.640625 a 32.375,32.375 0 0 1 -28.490234,17 32.375,32.375 0 0 1 -28.753907,-17.5 h 31.128907 v -30 h -30.998047 a 32.375,32.375 0 0 1 28.486328,-17.25 z"
         transform="scale(0.26458333)" />
    </g>
    <path
       id="path2107"
       style="color:#000000;font-style:normal;font-variant:normal;font-weight:normal;font-stretch:normal;font-size:medium;line-height:normal;font-family:sans-serif;font-variant-ligatures:normal;font-variant-position:normal;font-variant-caps:normal;font-variant-numeric:normal;font-variant-alternates:normal;font-variant-east-asian:normal;font-feature-settings:normal;font-variation-settings:normal;text-indent:0;text-align:start;text-decoration:none;text-decoration-line:none;text-decoration-style:solid;text-decoration-color:#000000;letter-spacing:normal;word-spacing:normal;text-transform:none;writing-mode:lr-tb;direction:ltr;text-orientation:mixed;dominant-baseline:auto;baseline-shift:baseline;text-anchor:start;white-space:normal;shape-padding:0;shape-margin:0;inline-size:0;clip-rule:nonzero;display:inline;overflow:visible;visibility:visible;opacity:1;isolation:auto;mix-blend-mode:normal;color-interpolation:sRGB;color-interpolation-filters:linearRGB;solid-color:#000000;solid-opacity:1;vector-effect:none;fill:#808080;fill-opacity:1;fill-rule:nonzero;stroke:none;stroke-width:13.8868;stroke-linecap:round;stroke-linejoin:miter;stroke-miterlimit:4;stroke-dasharray:none;stroke-dashoffset:6.00002;stroke-opacity:1;paint-order:markers fill stroke;color-rendering:auto;image-rendering:auto;shape-rendering:auto;text-rendering:auto;enable-background:accumulate;stop-color:#000000;stop-opacity:1"
       d="m 19.831887,6.5549494 v 4.9845596 l 1.642902,2.845626 2.139546,-1.278663 z m -1.168285,0.081048 -0.471576,0.8169483 -3.236268,5.6054563 2.13942,1.278662 1.568424,-2.716627 z m -4.292115,7.4344316 -4.019991,6.962738 4.393843,-2.625966 1.765578,-3.058109 z m 9.826993,0.04782 -2.139431,1.278785 1.680875,2.911467 4.39385,2.626086 z m -9.022457,5.39249 -4.170412,2.492463 h 7.657991 v -2.49246 z m 4.655864,0 v 2.492463 h 7.812788 l -4.170415,-2.49246 z" />
  </g>
</svg>
