<?xml version="1.0" encoding="UTF-8" standalone="no"?>
<svg
   xmlns:dc="http://purl.org/dc/elements/1.1/"
   xmlns:cc="http://creativecommons.org/ns#"
   xmlns:rdf="http://www.w3.org/1999/02/22-rdf-syntax-ns#"
   xmlns:svg="http://www.w3.org/2000/svg"
   xmlns="http://www.w3.org/2000/svg"
   xmlns:sodipodi="http://sodipodi.sourceforge.net/DTD/sodipodi-0.dtd"
   xmlns:inkscape="http://www.inkscape.org/namespaces/inkscape"
   width="256"
   height="256"
   viewBox="0 0 67.733332 67.733335"
   version="1.1"
   id="svg8"
   inkscape:version="1.0.1 (3bc2e813f5, 2020-09-07)"
   sodipodi:docname="mc75.svg"
   inkscape:export-filename="C:\Users\keath\Workspace\KMX\elite-streamdeck-icons\chaff.png"
   inkscape:export-xdpi="96"
   inkscape:export-ydpi="96">
  <defs
     id="defs2" />
  <sodipodi:namedview
     id="base"
     pagecolor="#000000"
     bordercolor="#666666"
     borderopacity="1.0"
     inkscape:pageopacity="0"
     inkscape:pageshadow="2"
     inkscape:zoom="7.9195959"
     inkscape:cx="105.84267"
     inkscape:cy="117.46089"
     inkscape:document-units="px"
     inkscape:current-layer="layer2"
     showgrid="true"
     units="px"
     inkscape:snap-grids="true"
     objecttolerance="10000"
     guidetolerance="10000"
     inkscape:window-width="3840"
     inkscape:window-height="2066"
     inkscape:window-x="3829"
     inkscape:window-y="-11"
     inkscape:window-maximized="1"
     inkscape:document-rotation="0"
     showguides="true"
     inkscape:snap-to-guides="false"
     inkscape:snap-others="false"
     inkscape:snap-nodes="false"
     inkscape:snap-global="true">
    <inkscape:grid
       type="xygrid"
       id="grid4623" />
    <sodipodi:guide
       position="-3.96875,62.441667"
       orientation="0,256"
       id="guide3351" />
    <sodipodi:guide
       position="62.177083,70.379167"
       orientation="256,0"
       id="guide3353" />
    <sodipodi:guide
       position="-2.6458333,22.754167"
       orientation="0,-256"
       id="guide3355" />
    <sodipodi:guide
       position="5.2916667,70.379167"
       orientation="-256,0"
       id="guide3357" />
    <sodipodi:guide
       position="0,67.733334"
       orientation="0,256"
       id="guide3359" />
    <sodipodi:guide
       position="67.733334,67.733334"
       orientation="256,0"
       id="guide3361" />
    <sodipodi:guide
       position="67.733334,0"
       orientation="0,-256"
       id="guide3363" />
    <sodipodi:guide
       position="0,0"
       orientation="-256,0"
       id="guide3365" />
    <sodipodi:guide
       position="0,67.733334"
       orientation="0,256"
       id="guide3367" />
    <sodipodi:guide
       position="67.733334,67.733334"
       orientation="256,0"
       id="guide3369" />
    <sodipodi:guide
       position="67.733334,0"
       orientation="0,-256"
       id="guide3371" />
    <sodipodi:guide
       position="0,0"
       orientation="-256,0"
       id="guide3373" />
    <sodipodi:guide
       position="0,67.733334"
       orientation="0,256"
       id="guide3375" />
    <sodipodi:guide
       position="67.733334,67.733334"
       orientation="256,0"
       id="guide3377" />
    <sodipodi:guide
       position="67.733334,0"
       orientation="0,-256"
       id="guide3379" />
    <sodipodi:guide
       position="0,0"
       orientation="-256,0"
       id="guide3381" />
  </sodipodi:namedview>
  <metadata
     id="metadata5">
    <rdf:RDF>
      <cc:Work
         rdf:about="">
        <dc:format>image/svg+xml</dc:format>
        <dc:type
           rdf:resource="http://purl.org/dc/dcmitype/StillImage" />
        <dc:title></dc:title>
      </cc:Work>
    </rdf:RDF>
  </metadata>
  <g
     inkscape:groupmode="layer"
     id="layer2"
     inkscape:label="Icon">
    <path
       id="path4931"
       style="color:#000000;font-style:normal;font-variant:normal;font-weight:normal;font-stretch:normal;font-size:medium;line-height:normal;font-family:sans-serif;font-variant-ligatures:normal;font-variant-position:normal;font-variant-caps:normal;font-variant-numeric:normal;font-variant-alternates:normal;font-variant-east-asian:normal;font-feature-settings:normal;font-variation-settings:normal;text-indent:0;text-align:start;text-decoration:none;text-decoration-line:none;text-decoration-style:solid;text-decoration-color:#000000;letter-spacing:normal;word-spacing:normal;text-transform:none;writing-mode:lr-tb;direction:ltr;text-orientation:mixed;dominant-baseline:auto;baseline-shift:baseline;text-anchor:start;white-space:normal;shape-padding:0;shape-margin:0;inline-size:0;clip-rule:nonzero;display:inline;overflow:visible;visibility:visible;opacity:1;isolation:auto;mix-blend-mode:normal;color-interpolation:sRGB;color-interpolation-filters:linearRGB;solid-color:#000000;solid-opacity:1;vector-effect:none;fill:#808080;fill-opacity:1;fill-rule:nonzero;stroke:#808080;stroke-width:0.52916667;stroke-linecap:square;stroke-linejoin:miter;stroke-miterlimit:4;stroke-dasharray:none;stroke-dashoffset:6.00002;stroke-opacity:1;paint-order:markers fill stroke;color-rendering:auto;image-rendering:auto;shape-rendering:auto;text-rendering:auto;enable-background:accumulate;stop-color:#000000;stop-opacity:1"
       d="m 37.094748,7.3181879 -3.379181,0.391683 0.0056,0.5606435 1.595934,0.1075805 V 11.025795 H 34.88821 l -0.746585,0.312417 0.420988,0.331561 c 0.174579,0.137485 0.276233,0.3002 0.333295,0.507991 H 25.85995 l 0.100522,0.47106 C 18.581625,12.491401 12.44693,13.183074 6.0109922,13.510699 l -0.3710251,0.01886 0.2394109,0.443083 c 0.1271098,0.235177 0.2174331,0.69995 0.2256339,1.205442 0.00822,0.505489 -0.06117,1.04696 -0.1926767,1.429813 l -0.1252605,0.364474 3.3099009,0.593829 0.045152,-0.23945 c 5.0644714,0.948647 10.1226024,1.304915 15.1758084,1.80071 l -0.196652,0.648302 5.519191,0.245926 -0.110878,0.142422 -0.351912,-0.01722 -0.06441,0.287126 h -0.866108 l 0.03465,0.758459 h 0.909405 l 0.140082,0.191344 0.411358,0.03206 c 0.459894,0.12577 0.823124,0.132822 1.117506,0.03344 0.296869,-0.100219 0.523893,-0.318575 0.678424,-0.612481 l 0.10185,-0.193647 -0.111792,-0.179993 c -0.0481,-0.07745 -0.134281,-0.227634 -0.277425,-0.319482 -0.126316,-0.08107 -0.296987,-0.102245 -0.511114,-0.06426 l -0.05579,-0.05805 0.905009,0.04148 0.03719,0.188664 h 2.840596 l 0.0089,5.89479 0.134392,0.09785 -0.01833,12.692703 c -0.02897,0.603446 -0.168424,0.851346 -0.388839,1.035221 -0.218172,0.182007 -0.533815,0.258853 -0.861688,0.348562 l -0.788253,0.02114 -0.208912,0.285529 -0.955428,0.133908 -0.02058,0.01084 c -0.156311,0.08334 -0.27806,0.173441 -0.373031,0.29794 -0.09498,0.124496 -0.165741,0.317736 -0.154841,0.518122 0.01097,0.200388 0.08354,0.355253 0.173958,0.488893 0.09041,0.133648 0.206932,0.255122 0.350717,0.378794 l 0.0091,0.0074 0.0096,0.0058 c 0.617546,0.396305 1.602676,0.59328 2.714953,0.668226 1.112276,0.07493 2.344453,0.01755 3.419976,-0.141596 0.991411,-0.146718 1.898515,-0.0018 2.538474,-0.08607 0.03197,-0.004 0.03843,0.0033 0.09097,-0.02263 0.01312,-0.0065 0.03056,0.004 0.08006,-0.07689 0.02478,-0.04066 0.0587,-0.14332 0.04689,-0.244884 -0.0117,-0.101574 -0.04856,-0.150989 -0.06879,-0.174939 -0.04042,-0.04787 -0.0531,-0.04427 -0.0644,-0.04919 -0.01121,-0.0049 -0.01853,-0.0065 -0.02521,-0.0087 -0.05374,-0.01433 -0.101825,-0.01543 -0.184317,-0.021 -0.164985,-0.01095 -0.41808,-0.02089 -0.67101,-0.03174 -0.02436,-8.21e-4 -0.03948,-0.0025 -0.06377,-0.0033 0.04138,-0.22348 0.06269,-0.405742 0.05844,-0.568549 -0.0043,-0.16744 -0.04168,-0.331519 -0.114997,-0.440181 -0.0869,-0.128839 -0.178704,-0.159266 -0.26625,-0.166487 l -0.01937,-0.30353 -1.280954,-0.350383 -0.03372,-0.100997 c 0.304592,-0.02681 0.613953,-0.05361 0.765168,-0.06993 0.103092,-0.01095 0.171475,-0.01966 0.219245,-0.02942 0.02389,-0.0049 0.02194,0.0139 0.08896,-0.03549 0.01674,-0.01231 0.05061,-0.01869 0.08645,-0.131649 0.01791,-0.05649 0.02389,-0.150241 0.0089,-0.217897 -0.01502,-0.06763 -0.03917,-0.104094 -0.0558,-0.125639 -0.06655,-0.08606 -0.07322,-0.05888 -0.08683,-0.06327 -0.0544,-0.01773 -0.08873,-0.01681 -0.158841,-0.02264 -0.07012,-0.0058 -0.161736,-0.01154 -0.273004,-0.01828 -0.178931,-0.01084 -0.437169,-0.02721 -0.70263,-0.04558 V 23.809154 c 0.0209,-0.737659 0.09747,-1.419288 0.280344,-2.015749 1.167052,-0.515198 2.432059,-0.704526 3.678499,-1.03478 l 0.0805,-0.0214 0.09174,-0.232817 h 1.923785 v -0.357535 h 0.903149 v -0.319108 l 7.851027,-0.05747 0.05844,0.319541 0.161089,-0.0473 c 2.490859,-0.729912 7.147967,-1.894069 9.438991,-5.234416 l 0.203569,-0.297092 -0.257221,-0.167539 c -0.938674,-0.611273 -3.00246,-0.973846 -5.758726,-1.25871 -2.707284,-0.279781 -6.066691,-0.460401 -9.56365,-0.62016 l 0.01293,-0.38691 h -3.282276 l -0.0078,0.08002 -4.224711,0.03903 C 38.672163,12.071741 38.275716,12.002665 37.945808,11.895087 37.610469,11.785751 37.371386,11.612083 37.30986,11.450145 L 37.21455,11.086432 37.14414,8.3183156 37.350631,8.1570284 Z m -0.228657,0.5896669 -0.09068,0.070904 0.08217,3.2296292 0.130806,0.498883 0.0056,0.01561 c 0.165396,0.457582 0.513502,0.60379 0.878305,0.722738 0.364804,0.118965 0.77243,0.187656 1.09421,0.306222 l 0.02084,0.0074 4.139991,-0.03837 v 0.247745 l 0.01281,-0.0033 v 6.620113 h -0.01281 v 0.357407 h -1.513004 l -0.177356,-0.01908 C 39.277515,19.691638 37.068997,19.616758 34.830918,19.637398 V 12.73916 h 0.497446 l -0.02137,-0.31082 c -0.02207,-0.320143 -0.110172,-0.603212 -0.243045,-0.841235 H 35.67681 V 8.0454657 Z m 6.697196,4.7322392 h 2.594407 l -0.0124,0.368874 0.184035,0.0086 c 3.56418,0.161811 6.987691,0.34474 9.734479,0.628612 2.470648,0.255338 4.402938,0.612431 5.353704,1.062818 -2.184286,2.835043 -6.42213,4.021759 -8.862258,4.733722 l -0.04306,-0.235334 -8.481814,0.06198 v 0.316381 h -0.530646 v -6.713706 l 0.04168,-0.01084 z m -15.009552,0.09936 h 5.917414 v 6.950309 h -2.578984 l -0.03481,-0.176479 -1.53723,-0.07066 v 0.874932 l 0.327741,0.3411 0.06957,-0.01744 c 0.215243,-0.05404 0.329398,-0.02107 0.396926,0.02223 0.0021,0.0018 0.0032,0.0049 0.0054,0.0065 -0.08715,0.09817 -0.189491,0.181572 -0.335296,0.2308 -0.231986,0.07829 -0.554861,0.07992 -0.990244,-0.04066 l -0.01121,-0.0033 -0.30859,-0.02404 -0.05288,-0.07222 0.0088,-0.0392 0.223634,0.01095 0.167558,-0.215595 0.435996,-0.110325 v -0.919353 l -4.192738,-0.186574 0.03181,-0.004 c 2.104196,-0.149539 3.295268,-0.298768 4.042463,-0.450007 0.747726,-0.151349 1.059361,-0.310541 1.360992,-0.459216 l 0.125781,-0.06205 v -1.131478 l -0.108186,-0.159034 v -0.690213 l 0.114851,-0.189098 -0.0073,-2.794891 -0.144088,-0.04484 c -0.669848,-0.208578 -1.718799,-0.395159 -2.927142,-0.575741 z m -5.080139,0.445886 c 0.882519,-0.0025 1.781407,0.0058 2.699673,0.02747 h -9.99e-4 l 2.10954,0.07196 5.26e-4,-0.021 c 1.233925,0.180869 2.293665,0.369892 2.983946,0.569205 l 0.0055,2.099294 -0.114193,0.188213 v 1.15673 l 0.108076,0.158873 v 0.471676 c -0.264068,0.128926 -0.537401,0.252636 -1.173103,0.38131 -0.728058,0.147373 -1.911152,0.296603 -4.007086,0.445663 -5.691188,-0.609289 -11.374987,-0.914786 -17.0518274,-1.99176 l -0.1512555,-0.02861 -0.045309,0.240325 -2.5047443,-0.449335 c 0.096954,-0.419259 0.1395046,-0.887589 0.1321437,-1.34105 -0.00643,-0.397371 -0.052624,-0.779771 -0.1438472,-1.110265 5.600021,-0.295112 10.975261,-0.85029 17.152896,-0.868399 z M 35.5109,20.192087 c 1.696177,8.2e-5 3.372201,0.06123 5.020516,0.206486 -1.004248,0.232253 -2.024174,0.442253 -2.998709,0.886606 l -0.07357,0.03344 -0.03544,0.10592 c -0.243339,0.726453 -0.327823,1.535763 -0.351105,2.36218 l -2.05e-4,0.0058 V 39.82584 l -0.108734,0.0095 0.373801,1.117506 1.186793,0.324706 0.0251,0.392286 0.167207,-0.0074 c 0.103921,-0.004 0.167474,0.01886 0.176273,0.01578 0.0011,0.0074 0.0026,0.02165 0.0037,0.05222 0.0011,0.04967 -0.01633,0.170939 -0.03223,0.283832 l -0.173952,0.117179 -0.241451,0.05763 c -0.03213,0.0058 -0.04179,-0.0049 -0.103433,0.03945 -0.01577,0.01143 -0.04111,0.01983 -0.0762,0.09885 -0.0043,0.0093 -0.0037,0.02953 -0.0074,0.04148 -0.249786,0.0088 -0.50947,0.02795 -0.776981,0.06756 -1.057834,0.156538 -2.277698,0.213192 -3.37057,0.139555 -1.087053,-0.07329 -2.05389,-0.285987 -2.583622,-0.621594 -0.121625,-0.105873 -0.214985,-0.206396 -0.268642,-0.285701 -0.05529,-0.08174 -0.0632,-0.132939 -0.06294,-0.128754 2.04e-4,0.004 -0.01121,0.01084 0.02778,-0.04027 0.03707,-0.04854 0.123901,-0.119356 0.244858,-0.186573 l 1.021589,-0.143075 0.198021,-0.270559 0.686118,-0.01854 0.01396,-0.004 c 0.323282,-0.08871 0.676633,-0.155685 0.98164,-0.410117 0.305004,-0.254434 0.543302,-0.740569 0.578571,-1.494495 l 4.04e-4,-0.01001 0.01884,-13.076267 -0.135445,-0.09869 -0.0084,-5.59257 c 0.22837,-0.0025 0.456488,-0.0033 0.684153,-0.0033 z" />
  </g>
</svg>
