<?xml version="1.0" encoding="UTF-8" standalone="no"?>
<svg
   xmlns:dc="http://purl.org/dc/elements/1.1/"
   xmlns:cc="http://creativecommons.org/ns#"
   xmlns:rdf="http://www.w3.org/1999/02/22-rdf-syntax-ns#"
   xmlns:svg="http://www.w3.org/2000/svg"
   xmlns="http://www.w3.org/2000/svg"
   xmlns:sodipodi="http://sodipodi.sourceforge.net/DTD/sodipodi-0.dtd"
   xmlns:inkscape="http://www.inkscape.org/namespaces/inkscape"
   width="256"
   height="256"
   viewBox="0 0 67.733332 67.733335"
   version="1.1"
   id="svg8"
   inkscape:version="1.0.1 (3bc2e813f5, 2020-09-07)"
   sodipodi:docname="new-republic.svg"
   inkscape:export-filename="C:\Users\keath\Workspace\KMX\elite-streamdeck-icons\chaff.png"
   inkscape:export-xdpi="96"
   inkscape:export-ydpi="96">
  <defs
     id="defs2" />
  <sodipodi:namedview
     id="base"
     pagecolor="#000000"
     bordercolor="#666666"
     borderopacity="1.0"
     inkscape:pageopacity="0"
     inkscape:pageshadow="2"
     inkscape:zoom="3.959798"
     inkscape:cx="115.47876"
     inkscape:cy="154.47945"
     inkscape:document-units="px"
     inkscape:current-layer="layer2"
     showgrid="true"
     units="px"
     inkscape:snap-grids="true"
     objecttolerance="10000"
     guidetolerance="10000"
     inkscape:window-width="2321"
     inkscape:window-height="1879"
     inkscape:window-x="4802"
     inkscape:window-y="103"
     inkscape:window-maximized="0"
     inkscape:document-rotation="0"
     showguides="true"
     inkscape:snap-to-guides="false"
     inkscape:snap-others="false"
     inkscape:snap-nodes="false"
     inkscape:snap-global="true">
    <inkscape:grid
       type="xygrid"
       id="grid4623" />
    <sodipodi:guide
       position="-3.96875,62.441667"
       orientation="0,256"
       id="guide3351" />
    <sodipodi:guide
       position="62.177083,70.379167"
       orientation="256,0"
       id="guide3353" />
    <sodipodi:guide
       position="-2.6458333,22.754167"
       orientation="0,-256"
       id="guide3355" />
    <sodipodi:guide
       position="5.2916667,70.379167"
       orientation="-256,0"
       id="guide3357" />
    <sodipodi:guide
       position="0,67.733334"
       orientation="0,256"
       id="guide3359" />
    <sodipodi:guide
       position="67.733334,67.733334"
       orientation="256,0"
       id="guide3361" />
    <sodipodi:guide
       position="67.733334,0"
       orientation="0,-256"
       id="guide3363" />
    <sodipodi:guide
       position="0,0"
       orientation="-256,0"
       id="guide3365" />
    <sodipodi:guide
       position="0,67.733334"
       orientation="0,256"
       id="guide3367" />
    <sodipodi:guide
       position="67.733334,67.733334"
       orientation="256,0"
       id="guide3369" />
    <sodipodi:guide
       position="67.733334,0"
       orientation="0,-256"
       id="guide3371" />
    <sodipodi:guide
       position="0,0"
       orientation="-256,0"
       id="guide3373" />
    <sodipodi:guide
       position="0,67.733334"
       orientation="0,256"
       id="guide3375" />
    <sodipodi:guide
       position="67.733334,67.733334"
       orientation="256,0"
       id="guide3377" />
    <sodipodi:guide
       position="67.733334,0"
       orientation="0,-256"
       id="guide3379" />
    <sodipodi:guide
       position="0,0"
       orientation="-256,0"
       id="guide3381" />
  </sodipodi:namedview>
  <metadata
     id="metadata5">
    <rdf:RDF>
      <cc:Work
         rdf:about="">
        <dc:format>image/svg+xml</dc:format>
        <dc:type
           rdf:resource="http://purl.org/dc/dcmitype/StillImage" />
        <dc:title />
      </cc:Work>
    </rdf:RDF>
  </metadata>
  <g
     inkscape:groupmode="layer"
     id="layer2"
     inkscape:label="Icon">
    <path
       id="path3595"
       style="fill:#808080;fill-opacity:1;stroke:none;stroke-width:23.0461;stroke-linecap:round;stroke-linejoin:miter;stroke-miterlimit:4;stroke-dasharray:none;stroke-dashoffset:6.00002;stroke-opacity:1;paint-order:markers fill stroke"
       d="m 34.358099,5.5113126 c -10.85545,0 -19.664302,8.8088154 -19.664302,19.6642614 0,10.855446 8.808852,19.664159 19.664302,19.664159 10.855438,0 19.664142,-8.808713 19.664142,-19.664159 0,-10.855442 -8.808704,-19.664257 -19.664142,-19.6642614 z m 0,0.8153225 c 10.414799,4.4e-6 18.848839,8.4341259 18.848839,18.8489389 0,10.414814 -8.43404,18.84883 -18.848839,18.84883 -10.414815,0 -18.848974,-8.434016 -18.848974,-18.84883 0,-10.414815 8.434159,-18.8489389 18.848974,-18.8489389 z M 31.063783,7.5278197 30.763355,8.8851325 30.227731,8.3002156 v 6.86e-5 l 0.0066,0.020676 -0.0028,-0.00294 0.232914,0.7379628 -1.32362,-0.4178508 v 1.231e-4 -2.94e-5 l 0.02736,0.025053 -0.02365,-0.0074 1.00903,0.9239969 -0.761777,0.16862 v 3.05e-5 2.83e-5 l 0.04158,0.00915 -0.03791,0.00838 0.755871,0.1672753 -1.010513,0.9253051 v -2.9e-5 1.23e-4 l 0.03501,-0.01104 -0.03129,0.02867 1.315419,-0.415234 -0.232145,0.735349 v 5.9e-5 l 0.01417,-0.01546 -0.01045,0.03309 0.535581,-0.584916 0.300437,1.357348 0.300441,-1.357348 0.535613,0.584916 -0.0066,-0.02073 0.0028,0.003 v -5.9e-5 l -0.232925,-0.73793 1.32362,0.417817 -0.02742,-0.02513 0.02371,0.0075 v -1.23e-4 3e-5 l -1.00903,-0.9239936 0.761786,-0.1685872 -0.04158,-0.00915 0.0379,-0.00838 v -2.94e-5 -2.94e-5 l -0.755837,-0.1673101 1.010479,-0.9253068 -0.03497,0.011051 0.03126,-0.028624 v 3.05e-5 -1.219e-4 l -1.315408,0.4152692 0.232124,-0.7353832 -0.01415,0.015461 0.01045,-0.033088 v -7.04e-5 l -0.535648,0.5849108 z m 6.580095,0 -0.300439,1.3573128 -0.535592,-0.5849169 v 6.86e-5 l 0.01045,0.033121 -0.0142,-0.015417 v -6.86e-5 l 0.232116,0.7353821 -1.315352,-0.4152692 v 1.219e-4 l 0.03122,0.028592 -0.03501,-0.011051 1.010413,0.9253068 -0.755771,0.1673112 v 2.94e-5 2.83e-5 l 0.03784,0.00838 -0.04158,0.00915 0.297741,0.065894 0.464079,0.1027274 -1.009041,0.9239585 v -5.8e-5 1.22e-4 l 0.02357,-0.0074 -0.02727,0.02505 1.323609,-0.417853 -0.232915,0.737966 v 5.9e-5 l 0.0028,-0.0029 -0.0066,0.02056 0.535582,-0.584881 0.300437,1.357314 3.1e-5,-5.9e-5 0.300438,-1.357243 0.535603,0.584881 -0.01045,-0.0332 0.01422,0.0155 -0.23209,-0.735312 1.315299,0.415199 -0.03128,-0.0287 0.0351,0.01107 v -1.22e-4 l -1.010402,-0.9252698 0.755758,-0.1672743 -0.03778,-0.00838 0.04157,-0.00915 v -2.94e-5 -2.94e-5 l -0.761819,-0.1686581 1.008964,-0.9239588 -0.0235,0.0074 0.02733,-0.025009 v 5.98e-5 -1.23e-4 l -1.3237,0.4178878 0.232971,-0.7380007 -0.0028,0.00294 0.0066,-0.020556 v 1.121e-4 l 3.1e-5,-2.232e-4 -0.535581,0.5849145 z m -12.589263,2.6778583 -0.300471,1.357382 -0.535515,-0.584844 -5.9e-5,-5.9e-5 0.23872,0.756296 -1.325715,-0.41849 v 5.9e-5 l 0.01864,0.01709 -0.0082,-0.0026 1.010446,0.925235 -0.770066,0.170461 0.03818,0.0085 -0.02763,0.0061 0.753073,0.166674 -1.014558,0.928984 v -5.9e-5 1.23e-4 l 0.04017,-0.01266 -0.02969,0.02718 1.3089,-0.41318 -0.232457,0.73641 v -1.23e-4 l -5.9e-5,2.34e-4 0.02296,-0.02509 -0.01249,0.03959 0.529676,-0.578439 0.295837,1.336293 v 2.9e-5 l 5.9e-5,5.9e-5 0.0036,-0.01645 0.0069,0.03097 0.300395,-1.357348 0.535625,0.584878 -0.238752,-0.756294 1.325747,0.418489 -0.01865,-0.01709 0.0082,0.0026 -0.412511,-0.377722 -0.598013,-0.547583 0.770021,-0.170424 -0.03807,-0.0085 0.0276,-0.0061 v -2.8e-5 l -0.753007,-0.16671 1.014525,-0.928985 -0.04017,0.01266 0.0297,-0.02718 v 5.9e-5 -1.23e-4 l -1.308933,0.413182 0.232489,-0.736409 -0.02296,0.02508 0.01249,-0.0396 v 1.22e-4 l 5.9e-5,-2.34e-4 -0.529708,0.578476 -0.29577,-1.336363 -0.0036,0.01649 -0.0069,-0.03097 z m 18.598398,0 -0.0069,0.03111 -0.0036,-0.01645 -3.1e-5,-1.22e-4 -0.295791,1.336362 -0.529653,-0.57844 v 5.9e-5 l 0.01253,0.03966 -0.0231,-0.02523 v 5.9e-5 l 0.0863,0.273331 0.146159,0.463077 -1.308868,-0.413181 v 1.22e-4 -2.9e-5 l 0.02962,0.02714 -0.0402,-0.0127 v 1.22e-4 -2.8e-5 l 1.014557,0.928983 -0.75304,0.166711 0.02745,0.0061 -0.03804,0.0085 v 3.1e-5 2.8e-5 l 0.770033,0.170425 -1.010413,0.925235 v -3e-5 1.23e-4 l 0.0079,-0.0025 -0.01848,0.01692 v -3e-5 1.23e-4 l 1.325682,-0.418455 -0.238687,0.75619 v 5.9e-5 l 0.535615,-0.584879 0.300408,1.357241 v 3e-5 l 2.8e-5,5.8e-5 0.0069,-0.0311 0.0037,0.0165 v 2.8e-5 l 3e-5,5.9e-5 0.29577,-1.336364 0.529633,0.578333 -0.01253,-0.03971 0.0231,0.02521 -0.232422,-0.736411 1.308868,0.413184 v -1.22e-4 2.9e-5 l -0.02965,-0.02714 0.04024,0.0127 v -1.23e-4 3e-5 l -1.014557,-0.928987 0.753042,-0.166673 v -3e-5 -2.9e-5 l -0.02737,-0.0061 0.03794,-0.0085 v -3e-5 l -0.769955,-0.170461 1.010412,-0.925235 v 3e-5 -1.22e-4 l -0.0079,0.0025 0.01852,-0.01695 v 3e-5 -1.23e-4 l -1.32567,0.418455 0.238688,-0.756192 v 1.23e-4 -2.34e-4 l -0.535591,0.584915 z m -9.408513,1.613481 -2.445961,2.536556 1.449453,2.989513 -2.35537,-1.993008 -1.630644,1.811825 c 6.755121,4.91 2.627162,10.508596 0.18119,10.146228 -5.232718,-0.640489 -6.146747,-9.616295 -1.449466,-13.316925 0.0011,-0.0034 0.0011,-0.0069 0.0016,-0.01023 -4.104382,2.295802 -6.646882,6.631168 -6.646894,11.334001 0,3.44427 1.368203,6.747482 3.803667,9.182954 2.435475,2.435471 5.738659,3.803703 9.182921,3.803703 3.444272,0 6.747488,-1.368232 9.182953,-3.803703 2.435463,-2.435472 3.803698,-5.738684 3.803698,-9.182954 -9e-6,-4.702842 -2.542521,-9.03821 -6.646926,-11.334001 0.0011,0.0034 0.0012,0.0069 0.0016,0.01023 4.697282,3.70063 3.783275,12.676436 -1.449466,13.316925 -2.445959,0.362368 -6.573943,-5.236228 0.18119,-10.146228 l -1.630603,-1.811825 -2.35536,1.993008 1.449444,-2.989513 z m -13.594295,3.274947 -0.299012,1.350799 -0.52143,-0.56938 0.0038,0.01222 -0.01937,-0.02115 3e-5,1.2e-4 v -1.2e-4 l 0.238755,0.756293 -1.325673,-0.418524 h -8.7e-5 l 1.025309,0.938894 -0.7743,0.17138 0.02798,0.0062 -0.01241,0.0028 0.753842,0.166885 -1.020428,0.934437 h 8.6e-5 l 0.03861,-0.01222 -0.02307,0.02116 1.305258,-0.412014 -0.233874,0.740868 v -1.11e-4 l -2.8e-5,1.11e-4 0.02801,-0.03062 -0.01248,0.03957 0.524616,-0.572884 0.295826,1.336364 5.9e-5,-2.23e-4 2.9e-5,2.23e-4 0.0069,-0.03057 0.0088,0.03956 0.298978,-1.350835 0.521441,0.569416 -2.9e-5,-1.11e-4 v 1.12e-4 l -0.0039,-0.01221 0.01939,0.02116 -0.238719,-0.756299 1.325715,0.418494 -1.025309,-0.93886 0.774366,-0.171415 -0.02801,-0.0062 0.01238,-0.0028 -0.753887,-0.166852 1.020463,-0.934434 -0.03867,0.01221 0.02314,-0.0212 v 0 l -1.305223,0.412051 0.233838,-0.740869 -0.02802,0.03057 0.01249,-0.03953 v 1.22e-4 l 2.9e-5,-1.22e-4 -0.524628,0.572882 -0.295792,-1.336396 -0.0069,0.03057 -0.0087,-0.03952 -3e-5,2.34e-4 z m 27.407205,0 -0.0088,0.03966 -0.0069,-0.0307 v 6e-5 l -0.285999,1.292092 -0.0098,0.04424 -0.52465,-0.572884 0.0125,0.0396 -0.02803,-0.03057 v -5.8e-5 l 0.233915,0.740903 -1.30522,-0.412083 0.0231,0.02123 -0.03872,-0.01225 1.02042,0.934435 -0.753923,0.166851 0.01239,0.0028 -0.02797,0.0062 0.774345,0.171414 -1.025234,0.93886 1.325672,-0.418492 -0.238767,0.756298 v -5.9e-5 l 0.01945,-0.02116 -0.0039,0.01227 0.455469,-0.497369 0.066,-0.07209 0.299026,1.350871 0.0088,-0.03967 0.0069,0.03068 0.295802,-1.3364 0.52465,0.57292 -0.0125,-0.03959 0.02802,0.03057 v 5.9e-5 l -0.233874,-0.740867 1.305191,0.412014 -0.02305,-0.02116 0.03864,0.01221 -1.020398,-0.934438 0.75389,-0.166884 -0.01239,-0.0028 0.02797,-0.0062 -0.774348,-0.17138 1.025248,-0.938895 -1.325685,0.418527 0.238765,-0.756298 v 5.9e-5 l -0.01944,0.02116 0.0039,-0.01227 v 5.9e-5 l -0.455395,0.497299 -0.066,0.07209 z m -29.438961,6.257345 -0.297273,1.343053 -0.52084,-0.568742 0.0086,0.027 -0.0264,-0.02884 5.8e-5,1.12e-4 v -1.12e-4 l 0.237416,0.752049 -1.306471,-0.412403 0.0064,0.0058 -0.02422,-0.0076 h -6.9e-5 l 1.02531,0.938859 -0.7743,0.171381 0.7743,0.171382 -1.02531,0.938893 h 6.9e-5 l 0.03029,-0.0096 -0.01242,0.0114 1.305191,-0.411979 -0.236134,0.747942 v -1.11e-4 l -5.9e-5,1.11e-4 0.02817,-0.03078 -0.01023,0.03263 0.521497,-0.569452 0.296615,1.340043 3.1e-5,-2.23e-4 2.8e-5,2.23e-4 0.0088,-0.03941 0.0091,0.0413 0.297262,-1.343086 0.520819,0.568778 -3e-5,-1.11e-4 v 1.11e-4 l -0.0085,-0.02697 0.02639,0.02881 -0.237371,-0.752049 1.306415,0.412402 v 0 l -0.0064,-0.0058 0.0242,0.0076 -1.025313,-0.93886 0.774345,-0.171416 -0.774345,-0.17138 1.02531,-0.938861 -0.03036,0.0096 0.01249,-0.01143 h -5.9e-5 l -1.305124,0.411978 0.236068,-0.747942 -0.02812,0.0307 0.01024,-0.03256 v 1.11e-4 l 2.8e-5,-1.11e-4 -0.521497,0.569486 -0.296582,-1.340114 -0.0087,0.03943 -0.0091,-0.04127 -2.9e-5,2.23e-4 z m 31.470764,0 v 6e-5 l -0.0091,0.04137 -0.0088,-0.0396 v 5.9e-5 l -0.296605,1.339973 -0.521432,-0.569415 0.01034,0.03273 -0.02832,-0.0309 0.236057,0.747909 -1.30507,-0.411945 0.01253,0.01148 -0.03051,-0.0096 1.025309,0.93886 -0.774334,0.17138 0.774334,0.171415 -1.025309,0.93886 0.02434,-0.0076 -0.0064,0.0059 1.306384,-0.412401 -0.237383,0.752048 0.02657,-0.02897 -0.0086,0.02714 0.52076,-0.568741 0.297294,1.342979 v 5.9e-5 l 0.0091,-0.04148 0.0088,0.03952 v 6e-5 l 0.296583,-1.340045 0.521464,0.569453 -0.01034,-0.0327 0.02823,0.03078 v 6e-5 l -0.236111,-0.747945 1.305122,0.411979 -0.01253,-0.01148 0.03051,0.0096 -1.025311,-0.938892 0.774345,-0.171381 -0.774345,-0.171382 1.025311,-0.938859 -0.02435,0.0076 0.0064,-0.0059 -1.306413,0.412401 0.0248,-0.07862 0.212611,-0.673418 v 5.9e-5 l -0.02645,0.02887 0.0086,-0.02711 -0.520783,0.568744 -0.08631,-0.389933 z m -0.702755,6.538396 -0.29813,1.346731 -0.520776,-0.568707 v 5.9e-5 l 0.0064,0.02003 -0.02347,-0.02565 0.238754,0.756295 -1.325751,-0.418489 1.025312,0.938859 -0.774345,0.171378 0.02111,0.0047 -0.004,8.93e-4 v 3.1e-5 2.8e-5 l 0.755583,0.167241 -1.023672,0.937406 0.03534,-0.01115 -0.0182,0.0167 v -3.1e-5 5.9e-5 l 1.304722,-0.41187 -0.234897,0.744086 0.02888,-0.03152 -0.01173,0.03708 v 6e-5 l 0.522745,-0.570903 0.296159,1.33771 0.0079,-0.03584 0.0091,0.0414 0.298101,-1.346731 0.520793,0.568743 -0.0064,-0.01999 0.02342,0.02555 -0.128606,-0.407413 -0.11011,-0.348846 1.325737,0.418489 v -3e-5 l -1.025211,-0.938823 0.774279,-0.171383 v -2.9e-5 -3e-5 l -0.02111,-0.0047 0.004,-8.92e-4 -0.226362,-0.05012 -0.529186,-0.117131 1.023683,-0.937406 v 5.9e-5 -1.12e-4 l -0.03531,0.01115 0.01818,-0.01667 -1.304733,0.41187 0.234909,-0.74405 v 1.12e-4 -2.23e-4 l -0.02881,0.03147 0.01169,-0.03701 -0.522766,0.570899 -0.296141,-1.337743 -0.0079,0.03581 z m -30.065277,5.9e-5 -0.0091,0.04141 -0.0081,-0.03584 -0.296114,1.337743 -0.522812,-0.5709 v 6e-5 l 0.01165,0.03688 -0.02874,-0.03139 v 5.9e-5 l 0.234864,0.74405 -1.304756,-0.411871 6.8e-5,6e-5 0.01804,0.01657 -0.03524,-0.01111 v 1.12e-4 -3e-5 l 1.023683,0.93741 -0.755591,0.16724 v 2.8e-5 2.9e-5 l 0.0039,8.93e-4 -0.02095,0.0047 v 2.8e-5 3e-5 l 0.774278,0.17138 -1.025177,0.938787 v 5.9e-5 l 1.32576,-0.418497 -0.23873,0.75626 v 5.9e-5 l 0.0234,-0.02552 -0.003,0.0099 -0.003,0.0099 v 6e-5 l 0.520828,-0.568779 0.298098,1.346694 0.0091,-0.0414 0.0079,0.03584 0.210339,-0.950184 0.08579,-0.38756 0.522766,0.570938 v -6e-5 l -0.01165,-0.03691 0.02877,0.03142 v -5.8e-5 l -0.234859,-0.744011 1.304724,0.411872 v -5.9e-5 l -0.01804,-0.01656 0.03524,0.01111 v -1.11e-4 2.9e-5 l -1.023683,-0.937407 0.755612,-0.167241 v -2.9e-5 -2.9e-5 l -0.0038,-8.93e-4 0.02095,-0.0047 v -2.9e-5 -2.9e-5 l -0.77431,-0.171379 1.025176,-0.938788 v -5.9e-5 l -1.325684,0.418487 0.238688,-0.756222 v -6.1e-5 l -0.02344,0.02559 0.0064,-0.01996 v -5.9e-5 l -0.520784,0.568743 z m 3.288888,5.689524 -0.0081,0.03602 -0.0053,-0.02403 -0.295704,1.335975 -0.527056,-0.575503 0.01274,0.04037 -0.026,-0.02837 0.233059,0.738322 -1.306784,-0.412545 0.027,0.02475 -0.04027,-0.01271 1.017309,0.931569 -0.753074,0.166672 0.02045,0.0046 -0.03366,0.0074 v 0 l 0.774345,0.171379 -1.025276,0.93886 1.325715,-0.418491 -0.238731,0.756297 0.01444,-0.01575 -0.0012,0.0037 0.522766,-0.570797 0.299983,1.35533 0.0081,-0.03602 0.0053,0.024 0.295692,-1.335975 0.527057,0.575542 -0.01274,-0.04042 0.026,0.02832 -0.233025,-0.738209 1.30675,0.412474 -0.02696,-0.02472 0.04024,0.01271 -0.97089,-0.889031 -0.04643,-0.04254 0.753074,-0.166709 -0.02045,-0.0046 0.03372,-0.0074 -0.774345,-0.171382 1.025321,-0.938894 -1.325715,0.418522 0.238719,-0.756294 -0.01447,0.01579 0.0012,-0.0038 -0.522769,0.5709 z m 23.4875,0 -0.299981,1.355259 -0.522711,-0.570793 0.0012,0.0039 -0.01455,-0.01588 v 1.09e-4 -5.8e-5 l 0.238755,0.75626 -1.325671,-0.418491 1.02521,0.93886 L 44.425512,35.8 v 0 l 0.0337,0.0074 -0.02043,0.0046 v 0 l 0.449952,0.09958 0.302987,0.06709 -1.017239,0.93153 0.04033,-0.01273 -0.02702,0.02477 1.306683,-0.412473 -0.23307,0.738249 0.02385,-0.02598 0.0026,-0.0026 -0.01285,0.04062 0.526977,-0.575504 0.295704,1.33594 0.0053,-0.02414 0.0081,0.03617 0.299981,-1.355294 0.522665,0.570728 v 0 l -0.0012,-0.0037 0.01449,0.01573 v 0 l -0.23876,-0.756297 1.325747,0.418491 -1.025311,-0.93886 0.774346,-0.171379 v 0 l -0.0337,-0.0074 0.02034,-0.0046 v 0 l -0.752996,-0.166675 1.017308,-0.931534 -0.04042,0.01276 0.02699,-0.0248 -0.361021,0.11398 -0.945617,0.298496 0.05542,-0.175559 0.177645,-0.562691 v 6e-5 l -0.0261,0.02846 0.01282,-0.04056 v 2.8e-5 l -0.106374,0.116179 -0.420626,0.459324 -0.29569,-1.335973 -0.0053,0.02413 z m -5.314883,3.865879 h -2.9e-5 l -0.300438,1.357241 -0.535582,-0.584806 0.238719,0.756222 -1.325715,-0.418491 0.02357,0.02158 -0.01628,-0.0051 h 5.9e-5 l 1.009343,0.924276 -0.76571,0.169505 0.04081,0.0089 -0.03351,0.0074 0.753965,0.166886 -1.012217,0.926935 0.03851,-0.01215 -0.03123,0.02855 v 0 0 l 1.311809,-0.4141 -0.232134,0.735382 0.01903,-0.02071 -0.01176,0.03719 v 0 h -5.8e-5 l 0.532627,-0.581663 0.296082,1.337568 h 3e-5 l 0.0019,-0.0083 0.0054,0.02468 0.300427,-1.35735 0.535593,0.584846 -0.23872,-0.756225 1.325738,0.418488 -0.02355,-0.02158 0.01623,0.0051 -0.884144,-0.809623 -0.125276,-0.114729 0.765777,-0.169466 -0.04079,-0.0089 0.03347,-0.0074 -0.753953,-0.166885 1.012239,-0.926895 v 0 0 l -0.03853,0.01218 0.03126,-0.02864 -1.311843,0.4141 0.232133,-0.735379 -0.01908,0.02074 0.01179,-0.03727 h -5.8e-5 l -0.532606,0.581625 -0.296083,-1.337634 -0.0016,0.0078 v 5.75e-4 z m -12.857666,0 -0.0054,0.02477 -0.002,-0.0084 -0.296092,1.337638 -0.112986,-0.123394 -0.419666,-0.458197 0.01176,0.03723 -0.01907,-0.02077 0.196901,0.623665 0.03528,0.111718 -1.311843,-0.414101 0.03125,0.02864 -0.03857,-0.01218 1.01225,0.926936 -0.753965,0.166885 0.03348,0.0074 -0.04081,0.0089 0.765777,0.169472 -1.00942,0.924349 0.01617,-0.005 -0.02342,0.02149 h -5.8e-5 l 1.325747,-0.418485 -0.238763,0.756219 0.535627,-0.58484 0.300437,1.357353 0.0054,-0.02477 0.0019,0.0084 0.296082,-1.337636 0.110969,0.121202 0.421647,0.460389 -0.01176,-0.03723 0.01908,0.02078 -0.232145,-0.735384 1.311809,0.414101 v 0 l -0.03114,-0.02855 0.03853,0.01218 -1.012239,-0.926932 0.753986,-0.166885 -0.03347,-0.0074 0.04081,-0.0089 -0.765786,-0.169504 1.00932,-0.924246 v 0 l -0.01625,0.0051 0.02357,-0.0216 -1.325704,0.41849 0.23872,-0.756225 -0.535593,0.584846 z m 6.428832,1.363259 -0.300437,1.357347 -0.535615,-0.58488 0.0087,0.02751 -0.0087,-0.0095 0.232413,0.736233 -0.434796,-0.137232 -0.884612,-0.279278 v 0 l 0.02997,0.02748 -0.03006,-0.0095 1.009409,0.924315 -0.758445,0.167873 0.04076,0.0089 -0.04076,0.009 v 0 l 0.551827,0.122156 0.206518,0.04572 -1.009388,0.924312 0.03006,-0.0095 -0.03006,0.02754 1.319409,-0.416469 -0.232412,0.736227 0.0087,-0.0095 -0.0087,0.02748 0.535613,-0.584877 0.300451,1.357347 0.300393,-1.357347 0.535614,0.584877 -0.0087,-0.02748 0.0087,0.0095 -0.23239,-0.736227 1.319387,0.416469 -0.03004,-0.02754 0.03004,0.0095 -1.009388,-0.924312 0.206517,-0.04572 0.551905,-0.122194 -0.04077,-0.0089 0.04077,-0.0089 -0.758455,-0.167877 1.009421,-0.924314 -0.03004,0.0095 0.02998,-0.02751 v 0 l -0.885472,0.279525 -0.433915,0.136983 0.232391,-0.736232 -0.0087,0.0095 0.0087,-0.02751 -0.535626,0.584881 z" />
  </g>
</svg>
