<?xml version="1.0" encoding="UTF-8" standalone="no"?>
<svg
   xmlns:dc="http://purl.org/dc/elements/1.1/"
   xmlns:cc="http://creativecommons.org/ns#"
   xmlns:rdf="http://www.w3.org/1999/02/22-rdf-syntax-ns#"
   xmlns:svg="http://www.w3.org/2000/svg"
   xmlns="http://www.w3.org/2000/svg"
   xmlns:sodipodi="http://sodipodi.sourceforge.net/DTD/sodipodi-0.dtd"
   xmlns:inkscape="http://www.inkscape.org/namespaces/inkscape"
   width="256"
   height="256"
   viewBox="0 0 67.733332 67.733335"
   version="1.1"
   id="svg8"
   inkscape:version="1.0.1 (3bc2e813f5, 2020-09-07)"
   sodipodi:docname="shield-power-max.svg"
   inkscape:export-filename="C:\Users\keath\Workspace\KMX\elite-streamdeck-icons\chaff.png"
   inkscape:export-xdpi="96"
   inkscape:export-ydpi="96">
  <defs
     id="defs2" />
  <sodipodi:namedview
     id="base"
     pagecolor="#000000"
     bordercolor="#666666"
     borderopacity="1.0"
     inkscape:pageopacity="0"
     inkscape:pageshadow="2"
     inkscape:zoom="5.6"
     inkscape:cx="175.11504"
     inkscape:cy="113.32932"
     inkscape:document-units="px"
     inkscape:current-layer="layer2"
     showgrid="true"
     units="px"
     inkscape:snap-grids="true"
     objecttolerance="10000"
     guidetolerance="10000"
     inkscape:window-width="3840"
     inkscape:window-height="2066"
     inkscape:window-x="3829"
     inkscape:window-y="-11"
     inkscape:window-maximized="1"
     inkscape:document-rotation="0"
     showguides="true"
     inkscape:snap-to-guides="true"
     inkscape:snap-others="false"
     inkscape:snap-nodes="false"
     inkscape:snap-global="true"
     inkscape:guide-bbox="true">
    <inkscape:grid
       type="xygrid"
       id="grid4623" />
    <sodipodi:guide
       position="-3.96875,62.441667"
       orientation="0,256"
       id="guide3351" />
    <sodipodi:guide
       position="61.471991,74.615524"
       orientation="256,0"
       id="guide3353" />
    <sodipodi:guide
       position="-2.6458333,22.754167"
       orientation="0,-256"
       id="guide3355" />
    <sodipodi:guide
       position="5.2916667,70.379167"
       orientation="-256,0"
       id="guide3357" />
    <sodipodi:guide
       position="0,67.733334"
       orientation="0,256"
       id="guide3359" />
    <sodipodi:guide
       position="67.733334,67.733334"
       orientation="256,0"
       id="guide3361" />
    <sodipodi:guide
       position="67.733334,0"
       orientation="0,-256"
       id="guide3363" />
    <sodipodi:guide
       position="0,0"
       orientation="-256,0"
       id="guide3365" />
    <sodipodi:guide
       position="0,67.733334"
       orientation="0,256"
       id="guide3367" />
    <sodipodi:guide
       position="67.733334,67.733334"
       orientation="256,0"
       id="guide3369" />
    <sodipodi:guide
       position="67.733334,0"
       orientation="0,-256"
       id="guide3371" />
    <sodipodi:guide
       position="0,0"
       orientation="-256,0"
       id="guide3373" />
    <sodipodi:guide
       position="0,67.733334"
       orientation="0,256"
       id="guide3375" />
    <sodipodi:guide
       position="67.733334,67.733334"
       orientation="256,0"
       id="guide3377" />
    <sodipodi:guide
       position="67.733334,0"
       orientation="0,-256"
       id="guide3379" />
    <sodipodi:guide
       position="0,0"
       orientation="-256,0"
       id="guide3381" />
    <sodipodi:guide
       position="21.381562,52.365337"
       orientation="1,0"
       id="guide895" />
  </sodipodi:namedview>
  <metadata
     id="metadata5">
    <rdf:RDF>
      <cc:Work
         rdf:about="">
        <dc:format>image/svg+xml</dc:format>
        <dc:type
           rdf:resource="http://purl.org/dc/dcmitype/StillImage" />
        <dc:title />
      </cc:Work>
    </rdf:RDF>
  </metadata>
  <g
     inkscape:groupmode="layer"
     id="layer2"
     inkscape:label="Icon">
    <path
       id="path2075-3-1"
       style="fill:#817f7f;fill-opacity:1;stroke:none;stroke-width:0.550847;stroke-linecap:square;stroke-linejoin:miter;stroke-miterlimit:4;stroke-dasharray:none;stroke-dashoffset:6.00002;stroke-opacity:1;paint-order:markers fill stroke"
       d="m 51.977187,5.3699845 c 1.18322,0 2.148284,0.9649895 2.148284,2.1481935 0,1.1832122 -0.965064,2.1481857 -2.148284,2.1481947 -1.183221,8.3e-6 -2.148202,-0.9649742 -2.148202,-2.1481947 0,-1.1832205 0.964981,-2.14821 2.148202,-2.1481935 z m -7.491725,0 c 1.18322,0 2.148696,0.9649895 2.148696,2.1481935 0,1.1832122 -0.965476,2.1481857 -2.148696,2.1481947 -1.183221,8.3e-6 -2.148202,-0.9649742 -2.148202,-2.1481947 0,-1.1832205 0.964981,-2.14821 2.148202,-2.1481935 z m 14.983202,0.2752087 a 1.872878,1.872878 0 0 1 1.872952,1.8728777 1.872878,1.872878 0 0 1 -1.872952,1.872878 1.872878,1.872878 0 0 1 -1.872869,-1.872878 1.872878,1.872878 0 0 1 1.872869,-1.8728777 z m -7.491477,0.2753159 c -0.88548,-8.3e-6 -1.597538,0.7121484 -1.597538,1.5976689 0,0.8855131 0.712058,1.5972496 1.597538,1.5972415 0.885479,-9.2e-6 1.597207,-0.7117284 1.597207,-1.5972415 0,-0.8855122 -0.711728,-1.5976689 -1.597207,-1.5976689 z m -7.491725,0 c -0.885562,-8.3e-6 -1.597125,0.7121484 -1.597125,1.5976689 0,0.8855131 0.711563,1.5972496 1.597125,1.5972415 0.885479,-9.2e-6 1.597702,-0.7117284 1.597702,-1.5972415 0,-0.8855122 -0.712223,-1.5976689 -1.597702,-1.5976689 z m 7.491725,4.5062899 c 1.18322,7e-6 2.148284,0.964981 2.148284,2.148194 0,1.183211 -0.965064,2.148184 -2.148284,2.148192 -1.183221,8e-6 -2.148202,-0.964981 -2.148202,-2.148192 0,-1.183213 0.964981,-2.148202 2.148202,-2.148194 z m -7.491725,0 c 1.18322,7e-6 2.148696,0.964981 2.148696,2.148194 0,1.183211 -0.965476,2.148184 -2.148696,2.148192 -1.183221,8e-6 -2.148202,-0.964981 -2.148202,-2.148192 0,-1.183213 0.964981,-2.148202 2.148202,-2.148194 z m 14.983202,0.275209 a 1.872878,1.872878 0 0 1 1.872952,1.872877 1.872878,1.872878 0 0 1 -1.872952,1.872877 1.872878,1.872878 0 0 1 -1.872869,-1.872877 1.872878,1.872878 0 0 1 1.872869,-1.872877 z m -7.491477,0.275315 c -0.88548,-8e-6 -1.597538,0.712157 -1.597538,1.59767 0,0.885511 0.712058,1.597247 1.597538,1.597239 0.885479,0 1.597207,-0.711728 1.597207,-1.597239 0,-0.885513 -0.711728,-1.59767 -1.597207,-1.59767 z m -7.491725,0 c -0.885562,-8e-6 -1.597125,0.712157 -1.597125,1.59767 0,0.885511 0.711563,1.597247 1.597125,1.597239 0.885479,0 1.597702,-0.711728 1.597702,-1.597239 0,-0.885513 -0.712223,-1.59767 -1.597702,-1.59767 z m 7.491725,4.50586 c 1.18322,8e-6 2.148284,0.96541 2.148284,2.148622 0,1.183204 -0.965064,2.148194 -2.148284,2.148194 -1.183221,8e-6 -2.148202,-0.964974 -2.148202,-2.148194 0,-1.18322 0.964981,-2.14863 2.148202,-2.148622 z m -7.491725,0 c 1.18322,8e-6 2.148696,0.96541 2.148696,2.148622 0,1.183204 -0.965476,2.148194 -2.148696,2.148194 -1.183221,8e-6 -2.148202,-0.964974 -2.148202,-2.148194 0,-1.18322 0.964981,-2.14863 2.148202,-2.148622 z m 14.983202,0.275637 a 1.872878,1.872878 0 0 1 1.872952,1.872878 1.872878,1.872878 0 0 1 -1.872952,1.872878 1.872878,1.872878 0 0 1 -1.872869,-1.872878 1.872878,1.872878 0 0 1 1.872869,-1.872878 z m -7.491477,0.275316 c -0.88548,-8e-6 -1.597538,0.712157 -1.597538,1.597669 0,0.885512 0.712058,1.597249 1.597538,1.597241 0.885479,0 1.597207,-0.711729 1.597207,-1.597241 0,-0.885512 -0.711728,-1.597669 -1.597207,-1.597669 z m -7.491725,0 c -0.885562,-8e-6 -1.597125,0.712157 -1.597125,1.597669 0,0.885512 0.711563,1.597249 1.597125,1.597241 0.885479,0 1.597702,-0.711729 1.597702,-1.597241 0,-0.885512 -0.712223,-1.597669 -1.597702,-1.597669 z m 7.491725,4.50586 c 1.18322,0 2.148284,0.965089 2.148284,2.148301 0,1.183212 -0.965064,2.148614 -2.148284,2.148622 -1.183221,8e-6 -2.148202,-0.965401 -2.148202,-2.148622 0,-1.183212 0.964981,-2.148309 2.148202,-2.148301 z m -7.491725,0 c 1.18322,0 2.148696,0.965089 2.148696,2.148301 0,1.183212 -0.965476,2.148614 -2.148696,2.148622 -1.183221,8e-6 -2.148202,-0.965401 -2.148202,-2.148622 0,-1.183212 0.964981,-2.148309 2.148202,-2.148301 z m 14.983202,0.275531 a 1.872878,1.872878 0 0 1 1.872952,1.872877 1.872878,1.872878 0 0 1 -1.872952,1.872878 1.872878,1.872878 0 0 1 -1.872869,-1.872878 1.872878,1.872878 0 0 1 1.872869,-1.872877 z m -7.491477,0.27553 c -0.88548,-9e-6 -1.597538,0.71172 -1.597538,1.59724 0,0.885512 0.712058,1.59757 1.597538,1.597562 0.885479,-8e-6 1.597207,-0.71205 1.597207,-1.597562 0,-0.885512 -0.711728,-1.59724 -1.597207,-1.59724 z m -7.491725,0 c -0.885562,-9e-6 -1.597125,0.71172 -1.597125,1.59724 0,0.885512 0.711563,1.59757 1.597125,1.597562 0.885479,-8e-6 1.597702,-0.71205 1.597702,-1.597562 0,-0.885512 -0.712223,-1.59724 -1.597702,-1.59724 z m 7.491725,4.50586 c 1.18322,8e-6 2.148284,0.964981 2.148284,2.148194 0,1.183204 -0.965064,2.148185 -2.148284,2.148191 -1.183221,9e-6 -2.148202,-0.96498 -2.148202,-2.148191 0,-1.183213 0.964981,-2.148202 2.148202,-2.148194 z m -7.491725,0 c 1.18322,8e-6 2.148696,0.964981 2.148696,2.148194 0,1.183204 -0.965476,2.148185 -2.148696,2.148191 -1.183221,9e-6 -2.148202,-0.96498 -2.148202,-2.148191 0,-1.183213 0.964981,-2.148202 2.148202,-2.148194 z m 14.983202,0.275423 a 1.872878,1.872878 0 0 1 1.872952,1.872878 1.872878,1.872878 0 0 1 -1.872952,1.872876 1.872878,1.872878 0 0 1 -1.872869,-1.872876 1.872878,1.872878 0 0 1 1.872869,-1.872878 z m -7.491477,0.27553 c -0.88548,-8e-6 -1.597538,0.711728 -1.597538,1.597241 0,0.88552 0.712058,1.597677 1.597538,1.597667 0.885479,0 1.597207,-0.712156 1.597207,-1.597667 0,-0.885513 -0.711728,-1.597241 -1.597207,-1.597241 z m -7.491725,0 c -0.885562,-8e-6 -1.597125,0.711728 -1.597125,1.597241 0,0.88552 0.711563,1.597677 1.597125,1.597667 0.885479,0 1.597702,-0.712156 1.597702,-1.597667 0,-0.885513 -0.712223,-1.597241 -1.597702,-1.597241 z m 7.491725,4.505861 c 1.18322,7e-6 2.148284,0.964987 2.148284,2.148194 0,1.183212 -0.965064,2.148184 -2.148284,2.148193 -1.183221,6e-6 -2.148202,-0.964975 -2.148202,-2.148193 0,-1.183222 0.964981,-2.148203 2.148202,-2.148194 z m -7.491725,0 c 1.18322,7e-6 2.148696,0.964987 2.148696,2.148194 0,1.183212 -0.965476,2.148184 -2.148696,2.148193 -1.183221,6e-6 -2.148202,-0.964975 -2.148202,-2.148193 0,-1.183222 0.964981,-2.148203 2.148202,-2.148194 z m 14.983202,0.275315 a 1.872878,1.872878 0 0 1 1.872952,1.872879 1.872878,1.872878 0 0 1 -1.872952,1.872876 1.872878,1.872878 0 0 1 -1.872869,-1.872876 1.872878,1.872878 0 0 1 1.872869,-1.872879 z m -7.491477,0.275636 c -0.88548,-7e-6 -1.597538,0.71172 -1.597538,1.597243 0,0.885518 0.712058,1.597675 1.597538,1.597667 0.885479,0 1.597207,-0.712157 1.597207,-1.597667 0,-0.885514 -0.711728,-1.597243 -1.597207,-1.597243 z m -7.491725,0 c -0.885562,-7e-6 -1.597125,0.71172 -1.597125,1.597243 0,0.885518 0.711563,1.597675 1.597125,1.597667 0.885479,0 1.597702,-0.712157 1.597702,-1.597667 0,-0.885514 -0.712223,-1.597243 -1.597702,-1.597243 z m 14.983202,4.781177 a 1.872878,1.872878 0 0 1 1.872952,1.872878 1.872878,1.872878 0 0 1 -1.872952,1.872878 1.872878,1.872878 0 0 1 -1.872869,-1.872878 1.872878,1.872878 0 0 1 1.872869,-1.872878 z m -7.491477,0 a 1.872878,1.872878 0 0 1 1.872869,1.872878 1.872878,1.872878 0 0 1 -1.872869,1.872878 1.872878,1.872878 0 0 1 -1.87287,-1.872878 1.872878,1.872878 0 0 1 1.87287,-1.872878 z m -7.491478,0 a 1.872878,1.872878 0 0 1 1.872869,1.872878 1.872878,1.872878 0 0 1 -1.872869,1.872878 1.872878,1.872878 0 0 1 -1.872952,-1.872878 1.872878,1.872878 0 0 1 1.872952,-1.872878 z m 14.982955,5.056813 a 1.872878,1.872878 0 0 1 1.872952,1.872877 1.872878,1.872878 0 0 1 -1.872952,1.872879 1.872878,1.872878 0 0 1 -1.872869,-1.872879 1.872878,1.872878 0 0 1 1.872869,-1.872877 z m -7.491477,0 a 1.872878,1.872878 0 0 1 1.872869,1.872877 1.872878,1.872878 0 0 1 -1.872869,1.872879 1.872878,1.872878 0 0 1 -1.87287,-1.872879 1.872878,1.872878 0 0 1 1.87287,-1.872877 z m -7.491478,0 a 1.872878,1.872878 0 0 1 1.872869,1.872877 1.872878,1.872878 0 0 1 -1.872869,1.872879 1.872878,1.872878 0 0 1 -1.872952,-1.872879 1.872878,1.872878 0 0 1 1.872952,-1.872877 z" />
    <path
       id="path1126"
       style="color:#000000;font-style:normal;font-variant:normal;font-weight:normal;font-stretch:normal;font-size:medium;line-height:normal;font-family:sans-serif;font-variant-ligatures:normal;font-variant-position:normal;font-variant-caps:normal;font-variant-numeric:normal;font-variant-alternates:normal;font-variant-east-asian:normal;font-feature-settings:normal;font-variation-settings:normal;text-indent:0;text-align:start;text-decoration:none;text-decoration-line:none;text-decoration-style:solid;text-decoration-color:#000000;letter-spacing:normal;word-spacing:normal;text-transform:none;writing-mode:lr-tb;direction:ltr;text-orientation:mixed;dominant-baseline:auto;baseline-shift:baseline;text-anchor:start;white-space:normal;shape-padding:0;shape-margin:0;inline-size:0;clip-rule:nonzero;display:inline;overflow:visible;visibility:visible;isolation:auto;mix-blend-mode:normal;color-interpolation:sRGB;color-interpolation-filters:linearRGB;solid-color:#000000;solid-opacity:1;vector-effect:none;fill:#808080;fill-opacity:1;fill-rule:nonzero;stroke:none;stroke-width:5.29167;stroke-linecap:round;stroke-linejoin:round;stroke-miterlimit:4;stroke-dasharray:none;stroke-dashoffset:0;stroke-opacity:1;paint-order:markers stroke fill;color-rendering:auto;image-rendering:auto;shape-rendering:auto;text-rendering:auto;enable-background:accumulate;stop-color:#000000"
       d="m 6.2843788,9.6885023 a 0.69509778,0.69508521 0 0 0 -0.695299,0.6951547 v 29.05164 a 0.69509778,0.69508521 0 0 0 0.695299,0.695155 H 36.170717 a 0.69509778,0.69508521 0 0 0 0.694619,-0.695155 V 10.383657 A 0.69509778,0.69508521 0 0 0 36.170717,9.6885023 Z M 6.9795456,11.078944 H 35.475551 V 38.740141 H 6.9795456 Z m 10.8331994,3.613809 c -3.42188,0 -6.176652,2.639925 -6.176652,5.919167 v 1.885771 h 3.529575 V 20.61192 c 0,-1.405383 1.180554,-2.536805 2.647077,-2.536805 h 7.941514 c 1.466514,0 2.647076,1.131422 2.647076,2.536805 v 1.885771 h 3.529574 V 20.61192 c 0,-3.279242 -2.754771,-5.919167 -6.17665,-5.919167 z m -6.176652,11.691596 v 1.837987 c 0,3.279251 2.754772,5.919308 6.176652,5.919308 h 7.941514 c 3.421879,0 6.17665,-2.640057 6.17665,-5.919308 v -1.837987 h -3.529574 v 1.837987 c 0,1.405399 -1.180562,2.536807 -2.647076,2.536807 h -7.941514 c -1.466523,0 -2.647077,-1.131408 -2.647077,-2.536807 v -1.837987 z" />
  </g>
</svg>
