<?xml version="1.0" encoding="UTF-8" standalone="no"?>
<svg
   xmlns:dc="http://purl.org/dc/elements/1.1/"
   xmlns:cc="http://creativecommons.org/ns#"
   xmlns:rdf="http://www.w3.org/1999/02/22-rdf-syntax-ns#"
   xmlns:svg="http://www.w3.org/2000/svg"
   xmlns="http://www.w3.org/2000/svg"
   xmlns:sodipodi="http://sodipodi.sourceforge.net/DTD/sodipodi-0.dtd"
   xmlns:inkscape="http://www.inkscape.org/namespaces/inkscape"
   width="256"
   height="256"
   viewBox="0 0 67.733332 67.733335"
   version="1.1"
   id="svg8"
   inkscape:version="1.0.1 (3bc2e813f5, 2020-09-07)"
   sodipodi:docname="shield-power-max.svg"
   inkscape:export-filename="C:\Users\keath\Workspace\KMX\elite-streamdeck-icons\chaff.png"
   inkscape:export-xdpi="96"
   inkscape:export-ydpi="96">
  <defs
     id="defs2" />
  <sodipodi:namedview
     id="base"
     pagecolor="#000000"
     bordercolor="#666666"
     borderopacity="1.0"
     inkscape:pageopacity="0"
     inkscape:pageshadow="2"
     inkscape:zoom="5.6"
     inkscape:cx="175.11504"
     inkscape:cy="113.32932"
     inkscape:document-units="px"
     inkscape:current-layer="layer2"
     showgrid="true"
     units="px"
     inkscape:snap-grids="true"
     objecttolerance="10000"
     guidetolerance="10000"
     inkscape:window-width="3840"
     inkscape:window-height="2066"
     inkscape:window-x="3829"
     inkscape:window-y="-11"
     inkscape:window-maximized="1"
     inkscape:document-rotation="0"
     showguides="true"
     inkscape:snap-to-guides="true"
     inkscape:snap-others="false"
     inkscape:snap-nodes="false"
     inkscape:snap-global="true"
     inkscape:guide-bbox="true">
    <inkscape:grid
       type="xygrid"
       id="grid4623" />
    <sodipodi:guide
       position="-3.96875,62.441667"
       orientation="0,256"
       id="guide3351" />
    <sodipodi:guide
       position="61.471991,74.615524"
       orientation="256,0"
       id="guide3353" />
    <sodipodi:guide
       position="-2.6458333,22.754167"
       orientation="0,-256"
       id="guide3355" />
    <sodipodi:guide
       position="5.2916667,70.379167"
       orientation="-256,0"
       id="guide3357" />
    <sodipodi:guide
       position="0,67.733334"
       orientation="0,256"
       id="guide3359" />
    <sodipodi:guide
       position="67.733334,67.733334"
       orientation="256,0"
       id="guide3361" />
    <sodipodi:guide
       position="67.733334,0"
       orientation="0,-256"
       id="guide3363" />
    <sodipodi:guide
       position="0,0"
       orientation="-256,0"
       id="guide3365" />
    <sodipodi:guide
       position="0,67.733334"
       orientation="0,256"
       id="guide3367" />
    <sodipodi:guide
       position="67.733334,67.733334"
       orientation="256,0"
       id="guide3369" />
    <sodipodi:guide
       position="67.733334,0"
       orientation="0,-256"
       id="guide3371" />
    <sodipodi:guide
       position="0,0"
       orientation="-256,0"
       id="guide3373" />
    <sodipodi:guide
       position="0,67.733334"
       orientation="0,256"
       id="guide3375" />
    <sodipodi:guide
       position="67.733334,67.733334"
       orientation="256,0"
       id="guide3377" />
    <sodipodi:guide
       position="67.733334,0"
       orientation="0,-256"
       id="guide3379" />
    <sodipodi:guide
       position="0,0"
       orientation="-256,0"
       id="guide3381" />
    <sodipodi:guide
       position="21.381562,52.365337"
       orientation="1,0"
       id="guide895" />
  </sodipodi:namedview>
  <metadata
     id="metadata5">
    <rdf:RDF>
      <cc:Work
         rdf:about="">
        <dc:format>image/svg+xml</dc:format>
        <dc:type
           rdf:resource="http://purl.org/dc/dcmitype/StillImage" />
        <dc:title></dc:title>
      </cc:Work>
    </rdf:RDF>
  </metadata>
  <g
     inkscape:groupmode="layer"
     id="layer2"
     inkscape:label="Icon">
    <g
       id="g857"
       transform="matrix(0.76070254,0,0,0.8424037,-5.7984591,3.5434817)"
       style="stroke:#808080;stroke-width:0.482509;stroke-miterlimit:4;stroke-dasharray:none;stroke-opacity:1">
      <path
         style="fill:#808080;fill-opacity:1;stroke:#808080;stroke-width:0.482509;stroke-linecap:round;stroke-linejoin:round;stroke-miterlimit:4;stroke-dasharray:none;stroke-dashoffset:6.00002;stroke-opacity:1;paint-order:markers fill stroke"
         d="m 16.416986,21.436086 v -3.330463 c 0,-5.94191 4.991539,-10.725471 11.1918,-10.725471 h 14.389449 c 6.200254,0 11.191799,4.783561 11.191799,10.725471 v 3.330463 h -6.395313 v -3.330463 c 0,-2.546537 -2.139237,-4.596631 -4.796486,-4.596631 H 27.608786 c -2.657261,0 -4.796486,2.050094 -4.796486,4.596631 v 3.330463 z"
         id="path1062" />
      <path
         style="fill:#808080;fill-opacity:1;stroke:#808080;stroke-width:0.482509;stroke-linecap:round;stroke-linejoin:round;stroke-miterlimit:4;stroke-dasharray:none;stroke-dashoffset:6.00002;stroke-opacity:1;paint-order:markers fill stroke"
         d="m 27.608786,42.620982 c -6.200261,0 -11.1918,-4.783555 -11.1918,-10.725466 V 28.47857 H 22.8123 v 3.416946 c 0,2.546531 2.139225,4.596631 4.796486,4.596631 h 14.389449 c 2.657249,0 4.796486,-2.0501 4.796486,-4.596631 V 28.47857 h 6.395313 v 3.416946 c 0,5.941911 -4.991545,10.725466 -11.191799,10.725466 z"
         id="rect2033-1" />
    </g>
    <path
       id="path2075-3-1"
       style="fill:#817f7f;fill-opacity:1;stroke:none;stroke-width:0.550847;stroke-linecap:square;stroke-linejoin:miter;stroke-miterlimit:4;stroke-dasharray:none;stroke-dashoffset:6.00002;stroke-opacity:1;paint-order:markers fill stroke"
       d="m 51.977187,5.3699845 c 1.18322,0 2.148284,0.9649895 2.148284,2.1481935 0,1.1832122 -0.965064,2.1481857 -2.148284,2.1481947 -1.183221,8.3e-6 -2.148202,-0.9649742 -2.148202,-2.1481947 0,-1.1832205 0.964981,-2.14821 2.148202,-2.1481935 z m -7.491725,0 c 1.18322,0 2.148696,0.9649895 2.148696,2.1481935 0,1.1832122 -0.965476,2.1481857 -2.148696,2.1481947 -1.183221,8.3e-6 -2.148202,-0.9649742 -2.148202,-2.1481947 0,-1.1832205 0.964981,-2.14821 2.148202,-2.1481935 z m 14.983202,0.2752087 a 1.872878,1.872878 0 0 1 1.872952,1.8728777 1.872878,1.872878 0 0 1 -1.872952,1.872878 1.872878,1.872878 0 0 1 -1.872869,-1.872878 1.872878,1.872878 0 0 1 1.872869,-1.8728777 z m -7.491477,0.2753159 c -0.88548,-8.3e-6 -1.597538,0.7121484 -1.597538,1.5976689 0,0.8855131 0.712058,1.5972496 1.597538,1.5972415 0.885479,-9.2e-6 1.597207,-0.7117284 1.597207,-1.5972415 0,-0.8855122 -0.711728,-1.5976689 -1.597207,-1.5976689 z m -7.491725,0 c -0.885562,-8.3e-6 -1.597125,0.7121484 -1.597125,1.5976689 0,0.8855131 0.711563,1.5972496 1.597125,1.5972415 0.885479,-9.2e-6 1.597702,-0.7117284 1.597702,-1.5972415 0,-0.8855122 -0.712223,-1.5976689 -1.597702,-1.5976689 z m 7.491725,4.5062899 c 1.18322,7e-6 2.148284,0.964981 2.148284,2.148194 0,1.183211 -0.965064,2.148184 -2.148284,2.148192 -1.183221,8e-6 -2.148202,-0.964981 -2.148202,-2.148192 0,-1.183213 0.964981,-2.148202 2.148202,-2.148194 z m -7.491725,0 c 1.18322,7e-6 2.148696,0.964981 2.148696,2.148194 0,1.183211 -0.965476,2.148184 -2.148696,2.148192 -1.183221,8e-6 -2.148202,-0.964981 -2.148202,-2.148192 0,-1.183213 0.964981,-2.148202 2.148202,-2.148194 z m 14.983202,0.275209 a 1.872878,1.872878 0 0 1 1.872952,1.872877 1.872878,1.872878 0 0 1 -1.872952,1.872877 1.872878,1.872878 0 0 1 -1.872869,-1.872877 1.872878,1.872878 0 0 1 1.872869,-1.872877 z m -7.491477,0.275315 c -0.88548,-8e-6 -1.597538,0.712157 -1.597538,1.59767 0,0.885511 0.712058,1.597247 1.597538,1.597239 0.885479,0 1.597207,-0.711728 1.597207,-1.597239 0,-0.885513 -0.711728,-1.59767 -1.597207,-1.59767 z m -7.491725,0 c -0.885562,-8e-6 -1.597125,0.712157 -1.597125,1.59767 0,0.885511 0.711563,1.597247 1.597125,1.597239 0.885479,0 1.597702,-0.711728 1.597702,-1.597239 0,-0.885513 -0.712223,-1.59767 -1.597702,-1.59767 z m 7.491725,4.50586 c 1.18322,8e-6 2.148284,0.96541 2.148284,2.148622 0,1.183204 -0.965064,2.148194 -2.148284,2.148194 -1.183221,8e-6 -2.148202,-0.964974 -2.148202,-2.148194 0,-1.18322 0.964981,-2.14863 2.148202,-2.148622 z m -7.491725,0 c 1.18322,8e-6 2.148696,0.96541 2.148696,2.148622 0,1.183204 -0.965476,2.148194 -2.148696,2.148194 -1.183221,8e-6 -2.148202,-0.964974 -2.148202,-2.148194 0,-1.18322 0.964981,-2.14863 2.148202,-2.148622 z m 14.983202,0.275637 a 1.872878,1.872878 0 0 1 1.872952,1.872878 1.872878,1.872878 0 0 1 -1.872952,1.872878 1.872878,1.872878 0 0 1 -1.872869,-1.872878 1.872878,1.872878 0 0 1 1.872869,-1.872878 z m -7.491477,0.275316 c -0.88548,-8e-6 -1.597538,0.712157 -1.597538,1.597669 0,0.885512 0.712058,1.597249 1.597538,1.597241 0.885479,0 1.597207,-0.711729 1.597207,-1.597241 0,-0.885512 -0.711728,-1.597669 -1.597207,-1.597669 z m -7.491725,0 c -0.885562,-8e-6 -1.597125,0.712157 -1.597125,1.597669 0,0.885512 0.711563,1.597249 1.597125,1.597241 0.885479,0 1.597702,-0.711729 1.597702,-1.597241 0,-0.885512 -0.712223,-1.597669 -1.597702,-1.597669 z m 7.491725,4.50586 c 1.18322,0 2.148284,0.965089 2.148284,2.148301 0,1.183212 -0.965064,2.148614 -2.148284,2.148622 -1.183221,8e-6 -2.148202,-0.965401 -2.148202,-2.148622 0,-1.183212 0.964981,-2.148309 2.148202,-2.148301 z m -7.491725,0 c 1.18322,0 2.148696,0.965089 2.148696,2.148301 0,1.183212 -0.965476,2.148614 -2.148696,2.148622 -1.183221,8e-6 -2.148202,-0.965401 -2.148202,-2.148622 0,-1.183212 0.964981,-2.148309 2.148202,-2.148301 z m 14.983202,0.275531 a 1.872878,1.872878 0 0 1 1.872952,1.872877 1.872878,1.872878 0 0 1 -1.872952,1.872878 1.872878,1.872878 0 0 1 -1.872869,-1.872878 1.872878,1.872878 0 0 1 1.872869,-1.872877 z m -7.491477,0.27553 c -0.88548,-9e-6 -1.597538,0.71172 -1.597538,1.59724 0,0.885512 0.712058,1.59757 1.597538,1.597562 0.885479,-8e-6 1.597207,-0.71205 1.597207,-1.597562 0,-0.885512 -0.711728,-1.59724 -1.597207,-1.59724 z m -7.491725,0 c -0.885562,-9e-6 -1.597125,0.71172 -1.597125,1.59724 0,0.885512 0.711563,1.59757 1.597125,1.597562 0.885479,-8e-6 1.597702,-0.71205 1.597702,-1.597562 0,-0.885512 -0.712223,-1.59724 -1.597702,-1.59724 z m 7.491725,4.50586 c 1.18322,8e-6 2.148284,0.964981 2.148284,2.148194 0,1.183204 -0.965064,2.148185 -2.148284,2.148191 -1.183221,9e-6 -2.148202,-0.96498 -2.148202,-2.148191 0,-1.183213 0.964981,-2.148202 2.148202,-2.148194 z m -7.491725,0 c 1.18322,8e-6 2.148696,0.964981 2.148696,2.148194 0,1.183204 -0.965476,2.148185 -2.148696,2.148191 -1.183221,9e-6 -2.148202,-0.96498 -2.148202,-2.148191 0,-1.183213 0.964981,-2.148202 2.148202,-2.148194 z m 14.983202,0.275423 a 1.872878,1.872878 0 0 1 1.872952,1.872878 1.872878,1.872878 0 0 1 -1.872952,1.872876 1.872878,1.872878 0 0 1 -1.872869,-1.872876 1.872878,1.872878 0 0 1 1.872869,-1.872878 z m -7.491477,0.27553 c -0.88548,-8e-6 -1.597538,0.711728 -1.597538,1.597241 0,0.88552 0.712058,1.597677 1.597538,1.597667 0.885479,0 1.597207,-0.712156 1.597207,-1.597667 0,-0.885513 -0.711728,-1.597241 -1.597207,-1.597241 z m -7.491725,0 c -0.885562,-8e-6 -1.597125,0.711728 -1.597125,1.597241 0,0.88552 0.711563,1.597677 1.597125,1.597667 0.885479,0 1.597702,-0.712156 1.597702,-1.597667 0,-0.885513 -0.712223,-1.597241 -1.597702,-1.597241 z m 7.491725,4.505861 c 1.18322,7e-6 2.148284,0.964987 2.148284,2.148194 0,1.183212 -0.965064,2.148184 -2.148284,2.148193 -1.183221,6e-6 -2.148202,-0.964975 -2.148202,-2.148193 0,-1.183222 0.964981,-2.148203 2.148202,-2.148194 z m -7.491725,0 c 1.18322,7e-6 2.148696,0.964987 2.148696,2.148194 0,1.183212 -0.965476,2.148184 -2.148696,2.148193 -1.183221,6e-6 -2.148202,-0.964975 -2.148202,-2.148193 0,-1.183222 0.964981,-2.148203 2.148202,-2.148194 z m 14.983202,0.275315 a 1.872878,1.872878 0 0 1 1.872952,1.872879 1.872878,1.872878 0 0 1 -1.872952,1.872876 1.872878,1.872878 0 0 1 -1.872869,-1.872876 1.872878,1.872878 0 0 1 1.872869,-1.872879 z m -7.491477,0.275636 c -0.88548,-7e-6 -1.597538,0.71172 -1.597538,1.597243 0,0.885518 0.712058,1.597675 1.597538,1.597667 0.885479,0 1.597207,-0.712157 1.597207,-1.597667 0,-0.885514 -0.711728,-1.597243 -1.597207,-1.597243 z m -7.491725,0 c -0.885562,-7e-6 -1.597125,0.71172 -1.597125,1.597243 0,0.885518 0.711563,1.597675 1.597125,1.597667 0.885479,0 1.597702,-0.712157 1.597702,-1.597667 0,-0.885514 -0.712223,-1.597243 -1.597702,-1.597243 z m 14.983202,4.781177 a 1.872878,1.872878 0 0 1 1.872952,1.872878 1.872878,1.872878 0 0 1 -1.872952,1.872878 1.872878,1.872878 0 0 1 -1.872869,-1.872878 1.872878,1.872878 0 0 1 1.872869,-1.872878 z m -7.491477,0 a 1.872878,1.872878 0 0 1 1.872869,1.872878 1.872878,1.872878 0 0 1 -1.872869,1.872878 1.872878,1.872878 0 0 1 -1.87287,-1.872878 1.872878,1.872878 0 0 1 1.87287,-1.872878 z m -7.491478,0 a 1.872878,1.872878 0 0 1 1.872869,1.872878 1.872878,1.872878 0 0 1 -1.872869,1.872878 1.872878,1.872878 0 0 1 -1.872952,-1.872878 1.872878,1.872878 0 0 1 1.872952,-1.872878 z m 14.982955,5.056813 a 1.872878,1.872878 0 0 1 1.872952,1.872877 1.872878,1.872878 0 0 1 -1.872952,1.872879 1.872878,1.872878 0 0 1 -1.872869,-1.872879 1.872878,1.872878 0 0 1 1.872869,-1.872877 z m -7.491477,0 a 1.872878,1.872878 0 0 1 1.872869,1.872877 1.872878,1.872878 0 0 1 -1.872869,1.872879 1.872878,1.872878 0 0 1 -1.87287,-1.872879 1.872878,1.872878 0 0 1 1.87287,-1.872877 z m -7.491478,0 a 1.872878,1.872878 0 0 1 1.872869,1.872877 1.872878,1.872878 0 0 1 -1.872869,1.872879 1.872878,1.872878 0 0 1 -1.872952,-1.872879 1.872878,1.872878 0 0 1 1.872952,-1.872877 z" />
  </g>
</svg>
