<?xml version="1.0" encoding="UTF-8" standalone="no"?>
<svg
   xmlns:dc="http://purl.org/dc/elements/1.1/"
   xmlns:cc="http://creativecommons.org/ns#"
   xmlns:rdf="http://www.w3.org/1999/02/22-rdf-syntax-ns#"
   xmlns:svg="http://www.w3.org/2000/svg"
   xmlns="http://www.w3.org/2000/svg"
   xmlns:sodipodi="http://sodipodi.sourceforge.net/DTD/sodipodi-0.dtd"
   xmlns:inkscape="http://www.inkscape.org/namespaces/inkscape"
   width="256"
   height="256"
   viewBox="0 0 67.733332 67.733335"
   version="1.1"
   id="svg8"
   inkscape:version="1.0.1 (3bc2e813f5, 2020-09-07)"
   sodipodi:docname="shield-power.svg"
   inkscape:export-filename="C:\Users\keath\Workspace\KMX\elite-streamdeck-icons\chaff.png"
   inkscape:export-xdpi="96"
   inkscape:export-ydpi="96">
  <defs
     id="defs2" />
  <sodipodi:namedview
     id="base"
     pagecolor="#000000"
     bordercolor="#666666"
     borderopacity="1.0"
     inkscape:pageopacity="0"
     inkscape:pageshadow="2"
     inkscape:zoom="7.9195959"
     inkscape:cx="116.01984"
     inkscape:cy="81.977787"
     inkscape:document-units="px"
     inkscape:current-layer="layer2"
     showgrid="true"
     units="px"
     inkscape:snap-grids="true"
     objecttolerance="10000"
     guidetolerance="10000"
     inkscape:window-width="3840"
     inkscape:window-height="2066"
     inkscape:window-x="3829"
     inkscape:window-y="-11"
     inkscape:window-maximized="1"
     inkscape:document-rotation="0"
     showguides="true"
     inkscape:snap-to-guides="true"
     inkscape:snap-others="false"
     inkscape:snap-nodes="false"
     inkscape:snap-global="true"
     inkscape:guide-bbox="true">
    <inkscape:grid
       type="xygrid"
       id="grid4623" />
    <sodipodi:guide
       position="-3.96875,62.441667"
       orientation="0,256"
       id="guide3351" />
    <sodipodi:guide
       position="61.471991,74.615524"
       orientation="256,0"
       id="guide3353" />
    <sodipodi:guide
       position="-2.6458333,22.754167"
       orientation="0,-256"
       id="guide3355" />
    <sodipodi:guide
       position="5.2916667,70.379167"
       orientation="-256,0"
       id="guide3357" />
    <sodipodi:guide
       position="0,67.733334"
       orientation="0,256"
       id="guide3359" />
    <sodipodi:guide
       position="67.733334,67.733334"
       orientation="256,0"
       id="guide3361" />
    <sodipodi:guide
       position="67.733334,0"
       orientation="0,-256"
       id="guide3363" />
    <sodipodi:guide
       position="0,0"
       orientation="-256,0"
       id="guide3365" />
    <sodipodi:guide
       position="0,67.733334"
       orientation="0,256"
       id="guide3367" />
    <sodipodi:guide
       position="67.733334,67.733334"
       orientation="256,0"
       id="guide3369" />
    <sodipodi:guide
       position="67.733334,0"
       orientation="0,-256"
       id="guide3371" />
    <sodipodi:guide
       position="0,0"
       orientation="-256,0"
       id="guide3373" />
    <sodipodi:guide
       position="0,67.733334"
       orientation="0,256"
       id="guide3375" />
    <sodipodi:guide
       position="67.733334,67.733334"
       orientation="256,0"
       id="guide3377" />
    <sodipodi:guide
       position="67.733334,0"
       orientation="0,-256"
       id="guide3379" />
    <sodipodi:guide
       position="0,0"
       orientation="-256,0"
       id="guide3381" />
    <sodipodi:guide
       position="21.381562,52.365337"
       orientation="1,0"
       id="guide895" />
  </sodipodi:namedview>
  <metadata
     id="metadata5">
    <rdf:RDF>
      <cc:Work
         rdf:about="">
        <dc:format>image/svg+xml</dc:format>
        <dc:type
           rdf:resource="http://purl.org/dc/dcmitype/StillImage" />
        <dc:title />
      </cc:Work>
    </rdf:RDF>
  </metadata>
  <g
     inkscape:groupmode="layer"
     id="layer2"
     inkscape:label="Icon">
    <path
       id="path2785-1"
       style="color:#000000;font-style:normal;font-variant:normal;font-weight:normal;font-stretch:normal;font-size:medium;line-height:normal;font-family:sans-serif;font-variant-ligatures:normal;font-variant-position:normal;font-variant-caps:normal;font-variant-numeric:normal;font-variant-alternates:normal;font-variant-east-asian:normal;font-feature-settings:normal;font-variation-settings:normal;text-indent:0;text-align:start;text-decoration:none;text-decoration-line:none;text-decoration-style:solid;text-decoration-color:#000000;letter-spacing:normal;word-spacing:normal;text-transform:none;writing-mode:lr-tb;direction:ltr;text-orientation:mixed;dominant-baseline:auto;baseline-shift:baseline;text-anchor:start;white-space:normal;shape-padding:0;shape-margin:0;inline-size:0;clip-rule:nonzero;display:inline;overflow:visible;visibility:visible;opacity:1;isolation:auto;mix-blend-mode:normal;color-interpolation:sRGB;color-interpolation-filters:linearRGB;solid-color:#000000;solid-opacity:1;vector-effect:none;fill:#808080;fill-opacity:1;fill-rule:nonzero;stroke:none;stroke-width:0.551178;stroke-linecap:square;stroke-linejoin:miter;stroke-miterlimit:4;stroke-dasharray:none;stroke-dashoffset:6.00002;stroke-opacity:1;paint-order:markers fill stroke;color-rendering:auto;image-rendering:auto;shape-rendering:auto;text-rendering:auto;enable-background:accumulate;stop-color:#000000;stop-opacity:1"
       d="m 59.212172,5.4203558 c 1.183932,0 2.149493,0.9655612 2.149493,2.1494842 0,1.1839232 -0.965561,2.1494847 -2.149493,2.1494847 -1.183931,0 -2.14941,-0.9655615 -2.14941,-2.1494847 0,-1.183923 0.965479,-2.1494842 2.14941,-2.1494842 z m -7.495732,0 c 1.183849,0 2.14941,0.9655612 2.14941,2.1494842 0,1.1839232 -0.965561,2.1494847 -2.14941,2.1494847 -1.183931,0 -2.149987,-0.9655615 -2.149987,-2.1494847 0,-1.183923 0.966056,-2.1494842 2.149987,-2.1494842 z m -7.496309,0 c 1.183932,0 2.149493,0.9655612 2.149493,2.1494842 0,1.1839232 -0.965561,2.1494847 -2.149493,2.1494847 -1.183849,0 -2.149575,-0.9655615 -2.149575,-2.1494847 0,-1.183923 0.965726,-2.1494842 2.149575,-2.1494842 z m 14.992041,0.5512841 c -0.886011,0 -1.598579,0.7121559 -1.598579,1.5982001 0,0.8860444 0.712568,1.598629 1.598579,1.598629 0.886094,0 1.598662,-0.7125846 1.598662,-1.598629 0,-0.027698 0,-0.055231 0,-0.082567 -0.03957,-0.7926536 -0.651236,-1.4286807 -1.432638,-1.5074474 -0.0272,-0.00247 -0.05441,-0.00495 -0.08161,-0.00577 -0.0272,-0.00165 -0.05441,-0.00247 -0.08252,-0.00247 z m -7.495732,0 c -0.886094,0 -1.598662,0.7121559 -1.598662,1.5982001 0,0.8860444 0.712568,1.598629 1.598662,1.598629 0.886012,0 1.598168,-0.7125846 1.598168,-1.598629 0,-0.8860442 -0.712156,-1.5982001 -1.598168,-1.5982001 z m -7.496309,0 c -0.886011,0 -1.598167,0.7121559 -1.598167,1.5982001 0,0.8860444 0.712156,1.598629 1.598167,1.598629 0.886094,0 1.598662,-0.7125846 1.598662,-1.598629 0,-0.8860442 -0.712568,-1.5982001 -1.598662,-1.5982001 z m 14.992041,4.5085681 c 1.183932,0 2.149493,0.965569 2.149493,2.149484 0,1.183924 -0.965561,2.149485 -2.149493,2.149485 -1.183931,0 -2.14941,-0.965561 -2.14941,-2.149485 0,-1.183915 0.965479,-2.149484 2.14941,-2.149484 z m -7.495732,0 c 1.183849,0 2.14941,0.965561 2.14941,2.149484 0,1.183924 -0.965561,2.149485 -2.14941,2.149485 -1.183931,0 -2.149987,-0.965561 -2.149987,-2.149485 0,-1.183915 0.966056,-2.149484 2.149987,-2.149484 z m -7.496309,0 c 1.183932,0 2.149493,0.965569 2.149493,2.149484 0,1.183924 -0.965561,2.149485 -2.149493,2.149485 -1.183849,0 -2.149575,-0.965561 -2.149575,-2.149485 0,-1.183923 0.965726,-2.149484 2.149575,-2.149484 z m 14.992041,0.550855 c -0.886011,0 -1.598579,0.712585 -1.598579,1.598629 0,0.886045 0.712568,1.598629 1.598579,1.598629 0.886094,0 1.598662,-0.712584 1.598662,-1.598629 0,-0.886044 -0.712568,-1.598629 -1.598662,-1.598629 z m -7.495732,0 c -0.886094,0 -1.598662,0.712585 -1.598662,1.598629 0,0.886045 0.712568,1.598629 1.598662,1.598629 0.886012,0 1.598168,-0.712584 1.598168,-1.598629 0,-0.886044 -0.712156,-1.598629 -1.598168,-1.598629 z m -7.496309,0 c -0.886011,0 -1.598167,0.712585 -1.598167,1.598629 0,0.886045 0.712156,1.598629 1.598167,1.598629 0.886094,0 1.598662,-0.712584 1.598662,-1.598629 0,-0.886044 -0.712568,-1.598629 -1.598662,-1.598629 z m 7.496309,4.508997 c 1.183849,0 2.14941,0.965561 2.14941,2.149484 0,1.183924 -0.965561,2.149485 -2.14941,2.149485 -1.183931,0 -2.149987,-0.965561 -2.149987,-2.149485 0,-1.183923 0.966056,-2.149484 2.149987,-2.149484 z m -7.496309,0 c 1.183932,0 2.149493,0.965561 2.149493,2.149484 0,1.183924 -0.965561,2.149485 -2.149493,2.149485 -1.183849,0 -2.149575,-0.965561 -2.149575,-2.149485 0,-1.183923 0.965726,-2.149484 2.149575,-2.149484 z m 14.992041,0.275481 a 1.8740034,1.8740034 0 0 1 1.873995,1.874003 1.8740034,1.8740034 0 0 1 -1.873995,1.874004 1.8740034,1.8740034 0 0 1 -1.873994,-1.874004 1.8740034,1.8740034 0 0 1 1.873994,-1.874003 z m -7.495732,0.275374 c -0.886094,0 -1.598662,0.712585 -1.598662,1.598629 0,0.886045 0.712568,1.598201 1.598662,1.598201 0.886012,0 1.598168,-0.712156 1.598168,-1.598201 0,-0.886044 -0.712156,-1.598629 -1.598168,-1.598629 z m -7.496309,0 c -0.886011,0 -1.598167,0.712585 -1.598167,1.598629 0,0.886045 0.712156,1.598201 1.598167,1.598201 0.886094,0 1.598662,-0.712156 1.598662,-1.598201 0,-0.886044 -0.712568,-1.598629 -1.598662,-1.598629 z m 7.496309,4.508568 c 1.183849,0 2.14941,0.96599 2.14941,2.149914 0,1.183923 -0.965561,2.149599 -2.14941,2.149591 -1.183931,0 -2.149987,-0.965668 -2.149987,-2.149591 0,-1.183924 0.966056,-2.149914 2.149987,-2.149914 z m -7.496309,0 c 1.183932,0 2.149493,0.96599 2.149493,2.149914 0,1.183923 -0.965561,2.149591 -2.149493,2.149591 -1.183849,8e-6 -2.149575,-0.965668 -2.149575,-2.149591 0,-1.183924 0.965726,-2.149914 2.149575,-2.149914 z m 14.992041,0.275803 a 1.8740034,1.8740034 0 0 1 1.873995,1.874003 1.8740034,1.8740034 0 0 1 -1.873995,1.874003 1.8740034,1.8740034 0 0 1 -1.873994,-1.874003 1.8740034,1.8740034 0 0 1 1.873994,-1.874003 z m -7.495732,0.275589 c -0.886094,0 -1.598662,0.712477 -1.598662,1.598522 0,0.886044 0.712568,1.5982 1.598662,1.5982 0.886012,0 1.598168,-0.712156 1.598168,-1.5982 0,-0.886045 -0.712156,-1.598522 -1.598168,-1.598522 z m -7.496309,0 c -0.886011,0 -1.598167,0.712477 -1.598167,1.598522 0,0.886044 0.712156,1.5982 1.598167,1.5982 0.886094,0 1.598662,-0.712156 1.598662,-1.5982 0,-0.886045 -0.712568,-1.598522 -1.598662,-1.598522 z m 7.496309,4.508568 c 1.183849,0 2.14941,0.965998 2.14941,2.149921 0,1.183923 -0.965561,2.149476 -2.14941,2.149476 -1.183931,0 -2.149987,-0.965561 -2.149987,-2.149476 0,-1.183923 0.966056,-2.149921 2.149987,-2.149921 z m -7.496309,0 c 1.183932,0 2.149493,0.965998 2.149493,2.149921 0,1.183915 -0.965561,2.149476 -2.149493,2.149476 -1.183849,0 -2.149575,-0.965553 -2.149575,-2.149476 0,-1.183923 0.965726,-2.149921 2.149575,-2.149921 z m 14.992041,0.275695 a 1.8740034,1.8740034 0 0 1 1.873995,1.874003 1.8740034,1.8740034 0 0 1 -1.873995,1.874004 1.8740034,1.8740034 0 0 1 -1.873994,-1.874004 1.8740034,1.8740034 0 0 1 1.873994,-1.874003 z m -7.495732,0.275589 c -0.886094,0 -1.598662,0.712584 -1.598662,1.598637 0,0.886036 0.712568,1.598191 1.598662,1.598191 0.886012,9e-6 1.598168,-0.712155 1.598168,-1.598191 0,-0.886053 -0.712156,-1.598637 -1.598168,-1.598637 z m -7.496309,0 c -0.886011,0 -1.598167,0.712584 -1.598167,1.598637 0,0.886036 0.712156,1.5982 1.598167,1.598191 0.886094,0 1.598662,-0.712155 1.598662,-1.598191 0,-0.886053 -0.712568,-1.598637 -1.598662,-1.598637 z m 14.992041,4.784156 a 1.8740034,1.8740034 0 0 1 1.873995,1.874003 1.8740034,1.8740034 0 0 1 -1.873995,1.874004 1.8740034,1.8740034 0 0 1 -1.873994,-1.874004 1.8740034,1.8740034 0 0 1 1.873994,-1.874003 z m -7.495979,0 a 1.8740034,1.8740034 0 0 1 1.873995,1.874003 1.8740034,1.8740034 0 0 1 -1.873995,1.874004 1.8740034,1.8740034 0 0 1 -1.873995,-1.874004 1.8740034,1.8740034 0 0 1 1.873995,-1.874003 z m -7.496062,0 a 1.8740034,1.8740034 0 0 1 1.873995,1.874003 1.8740034,1.8740034 0 0 1 -1.873995,1.874004 1.8740034,1.8740034 0 0 1 -1.873995,-1.874004 1.8740034,1.8740034 0 0 1 1.873995,-1.874003 z m 14.992041,5.059854 a 1.8740034,1.8740034 0 0 1 1.873995,1.874001 1.8740034,1.8740034 0 0 1 -1.873995,1.874003 1.8740034,1.8740034 0 0 1 -1.873994,-1.874003 1.8740034,1.8740034 0 0 1 1.873994,-1.874001 z m -7.495979,0 a 1.8740034,1.8740034 0 0 1 1.873995,1.874001 1.8740034,1.8740034 0 0 1 -1.873995,1.874003 1.8740034,1.8740034 0 0 1 -1.873995,-1.874003 1.8740034,1.8740034 0 0 1 1.873995,-1.874001 z m -7.496062,0 a 1.8740034,1.8740034 0 0 1 1.873995,1.874001 1.8740034,1.8740034 0 0 1 -1.873995,1.874003 1.8740034,1.8740034 0 0 1 -1.873995,-1.874003 1.8740034,1.8740034 0 0 1 1.873995,-1.874001 z m 14.992041,5.059851 a 1.8740034,1.8740034 0 0 1 1.873995,1.874004 1.8740034,1.8740034 0 0 1 -1.873995,1.874001 1.8740034,1.8740034 0 0 1 -1.873994,-1.874001 1.8740034,1.8740034 0 0 1 1.873994,-1.874004 z m -7.495979,0 a 1.8740034,1.8740034 0 0 1 1.873995,1.874004 1.8740034,1.8740034 0 0 1 -1.873995,1.874001 1.8740034,1.8740034 0 0 1 -1.873995,-1.874001 1.8740034,1.8740034 0 0 1 1.873995,-1.874004 z m -7.496062,0 a 1.8740034,1.8740034 0 0 1 1.873995,1.874004 1.8740034,1.8740034 0 0 1 -1.873995,1.874001 1.8740034,1.8740034 0 0 1 -1.873995,-1.874001 1.8740034,1.8740034 0 0 1 1.873995,-1.874004 z" />
    <path
       id="path1126"
       style="color:#000000;font-style:normal;font-variant:normal;font-weight:normal;font-stretch:normal;font-size:medium;line-height:normal;font-family:sans-serif;font-variant-ligatures:normal;font-variant-position:normal;font-variant-caps:normal;font-variant-numeric:normal;font-variant-alternates:normal;font-variant-east-asian:normal;font-feature-settings:normal;font-variation-settings:normal;text-indent:0;text-align:start;text-decoration:none;text-decoration-line:none;text-decoration-style:solid;text-decoration-color:#000000;letter-spacing:normal;word-spacing:normal;text-transform:none;writing-mode:lr-tb;direction:ltr;text-orientation:mixed;dominant-baseline:auto;baseline-shift:baseline;text-anchor:start;white-space:normal;shape-padding:0;shape-margin:0;inline-size:0;clip-rule:nonzero;display:inline;overflow:visible;visibility:visible;isolation:auto;mix-blend-mode:normal;color-interpolation:sRGB;color-interpolation-filters:linearRGB;solid-color:#000000;solid-opacity:1;vector-effect:none;fill:#808080;fill-opacity:1;fill-rule:nonzero;stroke:none;stroke-width:5.29168;stroke-linecap:round;stroke-linejoin:round;stroke-miterlimit:4;stroke-dasharray:none;stroke-dashoffset:0;stroke-opacity:1;paint-order:markers stroke fill;color-rendering:auto;image-rendering:auto;shape-rendering:auto;text-rendering:auto;enable-background:accumulate;stop-color:#000000"
       d="m 6.2843788,9.6885003 a 0.69509778,0.69508521 0 0 0 -0.695299,0.6951547 v 29.051641 a 0.69509778,0.69508521 0 0 0 0.695299,0.695155 H 36.170718 a 0.69509778,0.69508521 0 0 0 0.694617,-0.695155 V 10.383655 A 0.69509778,0.69508521 0 0 0 36.170718,9.6885003 Z M 6.9795456,11.078942 H 35.475552 V 38.74014 H 6.9795456 Z m 10.8331994,3.613809 c -3.42188,0 -6.176652,2.639925 -6.176652,5.919167 v 1.885771 h 3.529575 v -1.885771 c 0,-1.405383 1.180554,-2.536805 2.647077,-2.536805 h 7.941514 c 1.466514,0 2.647076,1.131422 2.647076,2.536805 v 1.885771 h 3.529574 v -1.885771 c 0,-3.279242 -2.754771,-5.919167 -6.17665,-5.919167 z m -6.176652,11.691596 v 1.837988 c 0,3.27925 2.754772,5.919307 6.176652,5.919307 h 7.941514 c 3.421879,0 6.17665,-2.640057 6.17665,-5.919307 v -1.837988 h -3.529574 v 1.837988 c 0,1.405399 -1.180562,2.536807 -2.647076,2.536807 h -7.941514 c -1.466523,0 -2.647077,-1.131408 -2.647077,-2.536807 v -1.837988 z" />
  </g>
</svg>
