<?xml version="1.0" encoding="UTF-8" standalone="no"?>
<svg
   xmlns:osb="http://www.openswatchbook.org/uri/2009/osb"
   xmlns:dc="http://purl.org/dc/elements/1.1/"
   xmlns:cc="http://creativecommons.org/ns#"
   xmlns:rdf="http://www.w3.org/1999/02/22-rdf-syntax-ns#"
   xmlns:svg="http://www.w3.org/2000/svg"
   xmlns="http://www.w3.org/2000/svg"
   xmlns:sodipodi="http://sodipodi.sourceforge.net/DTD/sodipodi-0.dtd"
   xmlns:inkscape="http://www.inkscape.org/namespaces/inkscape"
   width="256"
   height="256"
   viewBox="0 0 67.733332 67.733335"
   version="1.1"
   id="svg8"
   inkscape:version="1.0.1 (3bc2e813f5, 2020-09-07)"
   sodipodi:docname="target-attacker-tie.svg"
   inkscape:export-filename="C:\Users\keath\Workspace\KMX\elite-streamdeck-icons\srv.png"
   inkscape:export-xdpi="96"
   inkscape:export-ydpi="96">
  <defs
     id="defs2">
    <linearGradient
       id="linearGradient1429"
       osb:paint="solid">
      <stop
         style="stop-color:#000000;stop-opacity:1;"
         offset="0"
         id="stop1427" />
    </linearGradient>
  </defs>
  <sodipodi:namedview
     id="base"
     pagecolor="#000000"
     bordercolor="#666666"
     borderopacity="1"
     inkscape:pageopacity="0"
     inkscape:pageshadow="2"
     inkscape:zoom="7.9195959"
     inkscape:cx="123.49553"
     inkscape:cy="74.843839"
     inkscape:document-units="px"
     inkscape:current-layer="layer2"
     showgrid="true"
     units="px"
     inkscape:snap-grids="true"
     objecttolerance="10000"
     guidetolerance="10000"
     inkscape:window-width="2321"
     inkscape:window-height="1879"
     inkscape:window-x="5253"
     inkscape:window-y="109"
     inkscape:window-maximized="0"
     inkscape:document-rotation="0"
     showguides="true"
     showborder="true"
     borderlayer="false"
     inkscape:snap-to-guides="true"
     inkscape:guide-bbox="true"
     inkscape:object-nodes="false">
    <inkscape:grid
       type="xygrid"
       id="grid4623" />
    <sodipodi:guide
       position="-3.96875,62.441667"
       orientation="0,256"
       id="guide3351" />
    <sodipodi:guide
       position="62.177083,70.379167"
       orientation="256,0"
       id="guide3353" />
    <sodipodi:guide
       position="-2.6458333,22.754167"
       orientation="0,-256"
       id="guide3355" />
    <sodipodi:guide
       position="5.2916667,70.379167"
       orientation="-256,0"
       id="guide3357" />
    <sodipodi:guide
       position="0,67.733334"
       orientation="0,256"
       id="guide3359" />
    <sodipodi:guide
       position="67.733334,67.733334"
       orientation="256,0"
       id="guide3361" />
    <sodipodi:guide
       position="67.733334,0"
       orientation="0,-256"
       id="guide3363" />
    <sodipodi:guide
       position="0,0"
       orientation="-256,0"
       id="guide3365" />
    <sodipodi:guide
       position="0,67.733334"
       orientation="0,256"
       id="guide3367" />
    <sodipodi:guide
       position="67.733334,67.733334"
       orientation="256,0"
       id="guide3369" />
    <sodipodi:guide
       position="67.733334,0"
       orientation="0,-256"
       id="guide3371" />
    <sodipodi:guide
       position="0,0"
       orientation="-256,0"
       id="guide3373" />
    <sodipodi:guide
       position="0,67.733334"
       orientation="0,256"
       id="guide3375" />
    <sodipodi:guide
       position="67.733334,67.733334"
       orientation="256,0"
       id="guide3377" />
    <sodipodi:guide
       position="67.733334,0"
       orientation="0,-256"
       id="guide3379" />
    <sodipodi:guide
       position="0,0"
       orientation="-256,0"
       id="guide3381" />
    <sodipodi:guide
       position="33.602083,56.885417"
       orientation="1,0"
       id="guide878" />
  </sodipodi:namedview>
  <metadata
     id="metadata5">
    <rdf:RDF>
      <cc:Work
         rdf:about="">
        <dc:format>image/svg+xml</dc:format>
        <dc:type
           rdf:resource="http://purl.org/dc/dcmitype/StillImage" />
        <dc:title></dc:title>
      </cc:Work>
    </rdf:RDF>
  </metadata>
  <g
     inkscape:groupmode="layer"
     id="layer2"
     inkscape:label="Icon">
    <path
       id="rect859"
       style="fill:#808080;stroke:none;stroke-width:2.66615;stroke-linecap:round;stroke-linejoin:round;paint-order:markers fill stroke"
       d="M 5.2916667,5.2916667 V 18.110351 H 8.5735816 V 8.2075425 H 21.395403 V 5.2916667 Z m 40.7816783,0 v 2.9158758 h 12.821821 v 9.9028085 h 3.281917 V 5.2916667 Z M 5.2916667,32.160485 V 44.979166 H 21.395403 V 42.063144 H 8.5735816 v -9.902659 z m 53.6034993,0 v 9.902659 H 46.073345 v 2.916022 H 62.177083 V 32.160485 Z" />
    <path
       style="fill:none;stroke:#808080;stroke-width:1.32291667;stroke-linecap:round;stroke-linejoin:miter;stroke-miterlimit:4;stroke-dasharray:none;stroke-opacity:1"
       d="m 27.360706,24.072547 -6.800914,5.925512"
       id="path921-5"
       sodipodi:nodetypes="cc" />
    <path
       id="path1797-8"
       style="fill:#808080;fill-opacity:1;stroke:none;stroke-width:0.141332;stroke-linecap:round;stroke-miterlimit:4;stroke-dasharray:none;stroke-dashoffset:6.00002;stroke-opacity:1;paint-order:markers fill stroke"
       d="m 24.983284,10.110799 -0.06494,1.432363 -0.27601,0.257368 v 5.325961 c 0,0 -0.194828,-0.07344 -0.243538,0.202046 -0.0487,0.275492 -0.178594,0.532777 -0.178594,0.532777 l -0.01623,0.422132 0.129886,0.183405 -0.211066,0.092 -0.19483,0.386053 v 0.69754 l 0.373425,0.312089 0.09741,1.046912 0.178594,0.275408 0.01083,3.578503 0.558636,-0.487076 V 10.926801 h 0.21768 v 13.252064 l 0.544202,-0.474448 v -1.894784 l 0.292243,-0.220086 0.129888,-0.349372 0.19543,-0.275408 0.04811,-0.422132 V 20.39531 l 0.860503,-0.07336 0.24414,-0.202047 0.11365,0.01864 0.19423,0.275408 0.406496,0.128684 h 0.50331 l 0.04871,0.238727 h 0.633198 l 0.389659,0.34877 0.303671,0.0914 c -0.311975,-0.588539 -0.476266,-1.254989 -0.47625,-1.933269 4.6e-5,-0.826981 0.244478,-1.631956 0.696938,-2.298877 l -0.621772,0.137103 -0.340956,0.256767 -0.568254,0.092 -0.292245,0.257368 -0.698143,0.07336 -0.146723,0.367411 -0.242936,0.01804 -0.09802,-0.202047 H 26.590637 V 17.43858 l -0.146123,-0.05532 -0.162357,-0.532175 -0.340956,-0.440774 v -4.573098 l -0.357186,-0.276009 -0.04871,-1.450403 z m 16.425873,0 -0.04871,1.450403 -0.35719,0.276009 v 4.573099 l -0.340952,0.440773 -0.162361,0.532175 -0.146123,0.05532 v 0.550817 h -0.892972 l -0.09741,0.202046 -0.243539,-0.01804 -0.146123,-0.367411 -0.698142,-0.07336 -0.292246,-0.257368 -0.568254,-0.092 -0.340952,-0.256768 -0.621773,-0.137103 c 0.452461,0.666917 0.696292,1.471894 0.696338,2.298877 1.6e-5,0.67828 -0.163672,1.345327 -0.475649,1.93387 l 0.303668,-0.092 0.389662,-0.34877 h 0.633198 l 0.04871,-0.238727 h 0.503313 l 0.405897,-0.128684 0.194829,-0.275408 0.113651,-0.01864 0.243539,0.202046 0.8605,0.07336 v 0.147325 l 0.04871,0.422132 0.19483,0.275408 0.129888,0.349372 0.292246,0.220086 v 1.84788 l 0.544202,0.473847 V 10.926801 h 0.218281 v 13.394578 l 0.558032,0.486475 0.01084,-3.530998 0.179195,-0.275408 0.09681,-1.046912 0.373424,-0.312089 v -0.69754 l -0.194229,-0.386053 -0.211064,-0.092 0.129285,-0.183405 -0.01564,-0.422132 c 0,0 -0.129889,-0.257286 -0.178595,-0.532777 -0.04871,-0.275489 -0.24414,-0.202046 -0.24414,-0.202046 V 11.80053 L 42.02613,11.543162 41.96119,10.110799 Z m -7.932719,5.390303 c -1.926272,0 -3.492512,1.692104 -3.492512,3.773934 3e-6,2.081825 1.566243,3.774535 3.492512,3.774535 1.926272,0 3.491912,-1.69271 3.491912,-3.774535 0,-2.08183 -1.565637,-3.773934 -3.491912,-3.773934 z m -0.600125,0.583288 h 1.093817 v 0.493089 h -1.093817 z m 2.479276,0.547208 c 0.05178,0.04302 0.102438,0.08767 0.151536,0.134097 l -0.659658,0.746247 c -0.324271,-0.295073 -0.730358,-0.48769 -1.176196,-0.531574 h 1.320515 z m -3.832264,0.06194 0.247748,0.247747 1.511136,0.03909 c -0.472478,0.04626 -0.900733,0.259241 -1.233924,0.584491 l -0.666871,-0.737228 c 0.04607,-0.04606 0.09329,-0.09112 0.141911,-0.134096 z m 4.175021,0.269395 c 0.325401,0.365108 0.574458,0.809739 0.719189,1.305483 l -0.924844,0.258571 c -0.09775,-0.307088 -0.2532,-0.585226 -0.453402,-0.818407 z m -9.920105,0.003 h 0.21828 v 4.454036 h -0.21828 z m 15.170297,0 h 0.218284 v 4.454036 h -0.218284 z m -9.754139,0.06434 0.668678,0.739032 c -0.194371,0.242876 -0.342541,0.529575 -0.429951,0.844866 L 30.51069,18.356818 c 0.13209,-0.500391 0.368495,-0.952612 0.683709,-1.326529 z m 2.379456,0.236322 c 0.412485,0.02291 0.788982,0.190342 1.0872,0.456408 l -0.662662,0.749254 c -0.122952,-0.09386 -0.267584,-0.155521 -0.424538,-0.173783 z m -0.264586,0.006 v 1.03729 c -0.151123,0.03059 -0.288982,0.101097 -0.404093,0.202047 l -0.668074,-0.73783 c 0.289924,-0.279601 0.661674,-0.462222 1.072167,-0.501507 z m 1.543008,0.64763 c 0.279302,0.331254 0.457315,0.763855 0.481665,1.241742 h -0.954911 c -0.01977,-0.184673 -0.08738,-0.353261 -0.188816,-0.492487 z m -2.79918,0.05893 0.672284,0.743241 c -0.08119,0.128232 -0.134849,0.278013 -0.152136,0.439571 h -0.954308 c 0.02294,-0.450226 0.182238,-0.859831 0.43416,-1.182812 z m 4.416152,0.489481 c 0.05918,0.258199 0.0914,0.528147 0.0914,0.806381 0,0.318105 -0.04178,0.62522 -0.11846,0.916424 l -0.888763,-0.396877 c 0.0357,-0.167024 0.05531,-0.340956 0.05532,-0.519547 0,-0.189072 -0.02143,-0.372477 -0.06133,-0.548411 z m -6.005461,0.0896 0.922435,0.25797 c -0.02786,0.148423 -0.04269,0.301617 -0.04269,0.458813 0,0.20573 0.02518,0.405383 0.07216,0.595315 l -0.885755,0.395673 c -0.0898,-0.312994 -0.138305,-0.645728 -0.138305,-0.990988 0,-0.246323 0.02546,-0.485817 0.07216,-0.716783 z m 3.01265,0.02826 c 0.353563,0 0.63681,0.30641 0.636807,0.688521 0,0.382111 -0.283244,0.689121 -0.636807,0.689121 -0.353557,0 -0.637406,-0.30701 -0.637406,-0.689121 -4e-6,-0.382111 0.283846,-0.688521 0.637406,-0.688521 z m -1.858704,0.783531 h 0.953707 c 0.01696,0.189298 0.08441,0.362917 0.187012,0.505716 l -0.662662,0.749255 C 31.815442,20.290157 31.63838,19.852642 31.617734,19.370057 Z m 2.763101,0 h 0.953708 c -0.02112,0.493705 -0.206264,0.940111 -0.497901,1.277821 l -0.668074,-0.73843 c 0.116896,-0.148752 0.193958,-0.334897 0.212267,-0.539391 z m 1.120877,0.625982 0.882147,0.394471 c -0.149106,0.45511 -0.387322,0.864323 -0.691526,1.203858 l -0.666874,-0.737829 c 0.212529,-0.24318 0.377113,-0.535771 0.476253,-0.8605 z m -4.027694,0.07276 c 0.09765,0.286963 0.246492,0.547269 0.434761,0.767895 l -0.659057,0.746248 c -0.283197,-0.319197 -0.508375,-0.699111 -0.65665,-1.120274 z m 1.475056,0.0048 c 0.105704,0.08181 0.227834,0.139779 0.360195,0.166568 v 1.037892 c -0.387353,-0.03709 -0.7401,-0.201714 -1.022257,-0.455206 z m 1.021056,0.02465 0.672887,0.743842 c -0.295353,0.257087 -0.664815,0.418916 -1.069162,0.441375 v -1.031879 c 0.144989,-0.01685 0.27961,-0.07121 0.396275,-0.153338 z M 32.1,21.033933 c 0.179802,0.164621 0.385157,0.297955 0.608543,0.391464 v 1.079384 c -0.477297,-0.131744 -0.909059,-0.384179 -1.2676,-0.7246 z m 2.733034,0.01864 0.667474,0.737829 c -0.376657,0.354199 -0.833464,0.611286 -1.337953,0.734823 v -1.067958 c 0.246741,-0.0909 0.473581,-0.228765 0.670479,-0.404694 z m -1.812403,0.474448 c 0.094,0.02219 0.190492,0.03745 0.288638,0.0457 v 0.511128 h -0.288638 z m 0.841261,0.01503 v 0.541796 h -0.288037 v -0.506318 c 0.09802,-0.0048 0.193865,-0.0168 0.288037,-0.03548 z m 7.506976,5.670522 0.06494,1.273011 0.487076,0.009 0.04871,-0.758876 -0.171378,-0.149129 v 0.09321 h -0.218281 v -0.283225 z m -15.795682,0.05111 -0.208659,0.181601 v 0.234517 h -0.21768 v -0.0445 l -0.168373,0.146724 0.0457,0.712574 0.487076,-0.009 z" />
    <path
       style="fill:none;stroke:#808080;stroke-width:1.32291667;stroke-linecap:round;stroke-linejoin:miter;stroke-miterlimit:4;stroke-dasharray:none;stroke-opacity:1"
       d="m 39.638987,24.072547 6.800914,5.925511"
       id="path921-5-0"
       sodipodi:nodetypes="cc" />
    <path
       style="fill:none;stroke:#808080;stroke-width:1.32291667;stroke-linecap:round;stroke-linejoin:miter;stroke-miterlimit:4;stroke-dasharray:none;stroke-opacity:1"
       d="m 18.234679,32.12256 -6.800915,5.925512"
       id="path921-5-9"
       sodipodi:nodetypes="cc" />
    <path
       style="fill:none;stroke:#808080;stroke-width:1.32291667;stroke-linecap:round;stroke-linejoin:miter;stroke-miterlimit:4;stroke-dasharray:none;stroke-opacity:1"
       d="m 48.609517,32.12256 6.800915,5.925511"
       id="path921-5-0-0"
       sodipodi:nodetypes="cc" />
  </g>
</svg>
