<?xml version="1.0" encoding="UTF-8" standalone="no"?>
<svg
   xmlns:osb="http://www.openswatchbook.org/uri/2009/osb"
   xmlns:dc="http://purl.org/dc/elements/1.1/"
   xmlns:cc="http://creativecommons.org/ns#"
   xmlns:rdf="http://www.w3.org/1999/02/22-rdf-syntax-ns#"
   xmlns:svg="http://www.w3.org/2000/svg"
   xmlns="http://www.w3.org/2000/svg"
   xmlns:sodipodi="http://sodipodi.sourceforge.net/DTD/sodipodi-0.dtd"
   xmlns:inkscape="http://www.inkscape.org/namespaces/inkscape"
   width="256"
   height="256"
   viewBox="0 0 67.733332 67.733335"
   version="1.1"
   id="svg8"
   inkscape:version="1.0.1 (3bc2e813f5, 2020-09-07)"
   sodipodi:docname="target-flagship-sys-mc75.svg"
   inkscape:export-filename="C:\Users\keath\Workspace\KMX\elite-streamdeck-icons\srv.png"
   inkscape:export-xdpi="96"
   inkscape:export-ydpi="96">
  <defs
     id="defs2">
    <linearGradient
       id="linearGradient1429"
       osb:paint="solid">
      <stop
         style="stop-color:#000000;stop-opacity:1;"
         offset="0"
         id="stop1427" />
    </linearGradient>
  </defs>
  <sodipodi:namedview
     id="base"
     pagecolor="#000000"
     bordercolor="#666666"
     borderopacity="1"
     inkscape:pageopacity="0"
     inkscape:pageshadow="2"
     inkscape:zoom="3.959798"
     inkscape:cx="160.72425"
     inkscape:cy="67.137753"
     inkscape:document-units="px"
     inkscape:current-layer="layer2"
     showgrid="true"
     units="px"
     inkscape:snap-grids="true"
     objecttolerance="10000"
     guidetolerance="10000"
     inkscape:window-width="2321"
     inkscape:window-height="1879"
     inkscape:window-x="5125"
     inkscape:window-y="0"
     inkscape:window-maximized="0"
     inkscape:document-rotation="0"
     showguides="true"
     showborder="true"
     borderlayer="false"
     inkscape:snap-to-guides="true"
     inkscape:guide-bbox="true"
     inkscape:object-nodes="true">
    <inkscape:grid
       type="xygrid"
       id="grid4623" />
    <sodipodi:guide
       position="-3.96875,62.441667"
       orientation="0,256"
       id="guide3351" />
    <sodipodi:guide
       position="62.177083,70.379167"
       orientation="256,0"
       id="guide3353" />
    <sodipodi:guide
       position="-2.6458333,22.754167"
       orientation="0,-256"
       id="guide3355" />
    <sodipodi:guide
       position="5.2916667,70.379167"
       orientation="-256,0"
       id="guide3357" />
    <sodipodi:guide
       position="0,67.733334"
       orientation="0,256"
       id="guide3359" />
    <sodipodi:guide
       position="67.733334,67.733334"
       orientation="256,0"
       id="guide3361" />
    <sodipodi:guide
       position="67.733334,0"
       orientation="0,-256"
       id="guide3363" />
    <sodipodi:guide
       position="0,0"
       orientation="-256,0"
       id="guide3365" />
    <sodipodi:guide
       position="0,67.733334"
       orientation="0,256"
       id="guide3367" />
    <sodipodi:guide
       position="67.733334,67.733334"
       orientation="256,0"
       id="guide3369" />
    <sodipodi:guide
       position="67.733334,0"
       orientation="0,-256"
       id="guide3371" />
    <sodipodi:guide
       position="0,0"
       orientation="-256,0"
       id="guide3373" />
    <sodipodi:guide
       position="0,67.733334"
       orientation="0,256"
       id="guide3375" />
    <sodipodi:guide
       position="67.733334,67.733334"
       orientation="256,0"
       id="guide3377" />
    <sodipodi:guide
       position="67.733334,0"
       orientation="0,-256"
       id="guide3379" />
    <sodipodi:guide
       position="0,0"
       orientation="-256,0"
       id="guide3381" />
    <sodipodi:guide
       position="33.602083,56.885417"
       orientation="1,0"
       id="guide878" />
  </sodipodi:namedview>
  <metadata
     id="metadata5">
    <rdf:RDF>
      <cc:Work
         rdf:about="">
        <dc:format>image/svg+xml</dc:format>
        <dc:type
           rdf:resource="http://purl.org/dc/dcmitype/StillImage" />
        <dc:title></dc:title>
      </cc:Work>
    </rdf:RDF>
  </metadata>
  <g
     inkscape:groupmode="layer"
     id="layer2"
     inkscape:label="Icon">
    <path
       id="rect859"
       style="fill:#808080;stroke:none;stroke-width:2.66615;stroke-linecap:round;stroke-linejoin:round;paint-order:markers fill stroke"
       d="M 5.2916667,5.2916667 V 18.110351 H 8.5735816 V 8.2075425 H 21.395403 V 5.2916667 Z m 40.7816783,0 v 2.9158758 h 12.821821 v 9.9028085 h 3.281917 V 5.2916667 Z M 5.2916667,32.160485 V 44.979166 H 21.395403 V 42.063144 H 8.5735816 v -9.902659 z m 53.6034993,0 v 9.902659 H 46.073345 v 2.916022 H 62.177083 V 32.160485 Z" />
    <path
       id="path4931-8"
       style="color:#000000;font-style:normal;font-variant:normal;font-weight:normal;font-stretch:normal;font-size:medium;line-height:normal;font-family:sans-serif;font-variant-ligatures:normal;font-variant-position:normal;font-variant-caps:normal;font-variant-numeric:normal;font-variant-alternates:normal;font-variant-east-asian:normal;font-feature-settings:normal;font-variation-settings:normal;text-indent:0;text-align:start;text-decoration:none;text-decoration-line:none;text-decoration-style:solid;text-decoration-color:#000000;letter-spacing:normal;word-spacing:normal;text-transform:none;writing-mode:lr-tb;direction:ltr;text-orientation:mixed;dominant-baseline:auto;baseline-shift:baseline;text-anchor:start;white-space:normal;shape-padding:0;shape-margin:0;inline-size:0;clip-rule:nonzero;display:inline;overflow:visible;visibility:visible;opacity:1;isolation:auto;mix-blend-mode:normal;color-interpolation:sRGB;color-interpolation-filters:linearRGB;solid-color:#000000;solid-opacity:1;vector-effect:none;fill:#808080;fill-opacity:1;fill-rule:nonzero;stroke:#808080;stroke-width:0.404987;stroke-linecap:square;stroke-linejoin:miter;stroke-miterlimit:4;stroke-dasharray:none;stroke-dashoffset:6.00002;stroke-opacity:1;paint-order:markers fill stroke;color-rendering:auto;image-rendering:auto;shape-rendering:auto;text-rendering:auto;enable-background:accumulate;stop-color:#000000;stop-opacity:1"
       d="m 36.266641,12.397833 -2.586195,0.299765 0.0046,0.429085 1.221417,0.08233 v 2.02637 H 34.57822 l -0.571383,0.239098 0.322191,0.253753 c 0.133612,0.105225 0.211416,0.229751 0.255084,0.388788 h -6.915507 l 0.07693,0.360516 c -5.647259,-0.120485 -10.34234,0.408879 -15.26796,0.659618 l -0.283963,0.01447 0.18323,0.339105 c 0.09728,0.17999 0.166406,0.535692 0.172688,0.922569 0.0061,0.38686 -0.04684,0.801272 -0.147463,1.09428 l -0.09586,0.278939 2.533171,0.454476 0.03452,-0.183258 c 3.876001,0.726032 7.747149,0.998697 11.614533,1.378141 l -0.150505,0.496164 4.224012,0.188218 -0.08486,0.108998 -0.269329,-0.01317 -0.04929,0.219749 h -0.662861 l 0.02656,0.580475 h 0.695993 l 0.107216,0.146438 0.31482,0.02457 c 0.351974,0.09626 0.629966,0.101653 0.855266,0.02556 0.227202,-0.0767 0.400949,-0.243822 0.519216,-0.468751 l 0.07794,-0.148207 -0.08556,-0.137752 c -0.03681,-0.05923 -0.102768,-0.174214 -0.212319,-0.244509 -0.09668,-0.06207 -0.227294,-0.07825 -0.391176,-0.04921 l -0.04271,-0.04439 0.692633,0.03176 0.02847,0.144389 h 2.174005 l 0.0069,4.511469 0.102854,0.07485 -0.01399,9.71413 c -0.02219,0.461838 -0.128897,0.651564 -0.297594,0.792285 -0.16697,0.139298 -0.408541,0.198114 -0.65948,0.266772 l -0.603271,0.01615 -0.159886,0.218525 -0.731219,0.102484 -0.01577,0.0083 c -0.119628,0.06375 -0.212808,0.132739 -0.285492,0.228023 -0.0727,0.09528 -0.126845,0.243169 -0.118503,0.396533 0.0084,0.153365 0.0639,0.271885 0.133137,0.374163 0.06919,0.102287 0.15837,0.195252 0.268409,0.289901 l 0.0069,0.0053 0.0076,0.0046 c 0.472631,0.303309 1.22658,0.454055 2.077844,0.511418 0.851258,0.05732 1.794283,0.01339 2.617413,-0.108372 0.758757,-0.112282 1.452998,-0.0015 1.942778,-0.06589 0.02449,-0.003 0.02939,0.0023 0.06964,-0.0173 0.01002,-0.0053 0.02342,0.003 0.0613,-0.05885 0.01898,-0.03115 0.04492,-0.109689 0.0359,-0.187415 -0.009,-0.07774 -0.0372,-0.115557 -0.05266,-0.133888 -0.03092,-0.03666 -0.04064,-0.0339 -0.04929,-0.03765 -0.0086,-0.0038 -0.01417,-0.0053 -0.01929,-0.0069 -0.0411,-0.01095 -0.07793,-0.01179 -0.141064,-0.01607 -0.126273,-0.0083 -0.319971,-0.016 -0.51355,-0.02426 -0.01868,-6.48e-4 -0.03023,-0.0015 -0.04882,-0.0023 0.03168,-0.171036 0.04799,-0.310526 0.04469,-0.435129 -0.003,-0.128148 -0.03192,-0.253723 -0.08801,-0.336883 -0.06651,-0.09861 -0.136766,-0.121896 -0.20377,-0.12742 l -0.01486,-0.232302 -0.980353,-0.268158 -0.02579,-0.0773 c 0.23311,-0.02052 0.469875,-0.04102 0.585609,-0.0535 0.0789,-0.0083 0.131232,-0.01507 0.167793,-0.0225 0.01829,-0.0038 0.01676,0.01065 0.06812,-0.02717 0.01285,-0.0094 0.03872,-0.01432 0.0662,-0.100754 0.0137,-0.04324 0.01829,-0.114985 0.0069,-0.166758 -0.01149,-0.05173 -0.03,-0.07967 -0.04271,-0.09616 -0.05098,-0.0659 -0.05602,-0.04508 -0.06643,-0.04844 -0.04164,-0.01354 -0.06789,-0.01285 -0.121565,-0.0173 -0.05365,-0.0046 -0.123776,-0.0088 -0.208936,-0.01402 -0.13695,-0.0083 -0.33458,-0.02082 -0.537744,-0.0349 V 25.018804 c 0.016,-0.564555 0.07462,-1.086228 0.214549,-1.542718 0.893182,-0.394299 1.861336,-0.539199 2.815276,-0.79195 l 0.06161,-0.01637 0.07018,-0.178183 h 1.472327 v -0.273637 h 0.69121 v -0.24422 l 6.008643,-0.044 0.04469,0.244554 0.123289,-0.0362 c 1.906334,-0.558624 5.470568,-1.449592 7.223958,-4.006068 l 0.155792,-0.227373 -0.19686,-0.128223 C 54.492058,17.306594 52.91258,17.0291 50.80312,16.811087 48.731153,16.596963 46.160091,16.458727 43.483754,16.336458 l 0.0099,-0.296115 h -2.512008 l -0.0062,0.06123 -3.233308,0.02985 c -0.267863,-0.09568 -0.571279,-0.148543 -0.823763,-0.230878 -0.256645,-0.08368 -0.439628,-0.216596 -0.486711,-0.340526 l -0.07294,-0.278367 -0.05388,-2.118523 0.158035,-0.123439 z m -0.174999,0.451293 -0.06942,0.05426 0.06291,2.471737 0.100111,0.38181 0.0046,0.01194 c 0.126586,0.350201 0.393006,0.462099 0.672198,0.553135 0.279193,0.09105 0.591165,0.143622 0.837432,0.23436 l 0.01592,0.0053 3.168467,-0.02939 v 0.189609 l 0.0098,-0.0023 v 5.066584 h -0.0098 v 0.273566 h -1.157988 l -0.135741,-0.01462 C 37.93748,21.867508 36.24723,21.810202 34.534356,21.825997 v -5.279443 h 0.380715 l -0.01637,-0.23788 c -0.01691,-0.245013 -0.08432,-0.461655 -0.186013,-0.64382 h 0.469049 v -2.710527 z m 5.125578,3.621736 h 1.985586 l -0.0095,0.282305 0.140844,0.0069 c 2.72778,0.123838 5.347901,0.263842 7.450107,0.481095 1.890866,0.195421 3.369709,0.468713 4.097363,0.813412 -1.671705,2.169745 -4.915059,3.077981 -6.782567,3.622865 l -0.03299,-0.180105 -6.491407,0.04745 v 0.242137 h -0.406115 v -5.138216 l 0.03191,-0.0083 z m -11.487286,0.07607 h 4.528785 v 5.319285 h -1.973777 l -0.02663,-0.135058 -1.176491,-0.05411 v 0.66961 l 0.250829,0.261055 0.05326,-0.01332 c 0.16473,-0.04132 0.252102,-0.01615 0.303784,0.017 0.0015,0.0015 0.0023,0.0039 0.0038,0.0053 -0.06674,0.07516 -0.14503,0.138961 -0.256615,0.176639 -0.17755,0.05993 -0.424654,0.06115 -0.757863,-0.03115 l -0.0086,-0.0023 -0.236173,-0.01836 -0.04049,-0.05526 0.0069,-0.03 0.17115,0.0083 0.128239,-0.165006 0.333678,-0.08443 v -0.703613 l -3.208831,-0.142788 0.02434,-0.003 c 1.610406,-0.114452 2.52197,-0.228663 3.093825,-0.344412 0.572254,-0.115831 0.810762,-0.237666 1.041609,-0.351447 l 0.09626,-0.04745 v -0.865959 l -0.0828,-0.12171 V 19.3065 l 0.08791,-0.144717 -0.0053,-2.139027 -0.110276,-0.03429 c -0.51266,-0.159625 -1.315454,-0.302428 -2.240235,-0.440631 z m -3.887993,0.341246 c 0.675422,-0.0015 1.36337,0.0046 2.066144,0.02103 h -8.36e-4 l 1.614498,0.0551 4.54e-4,-0.01607 c 0.944366,0.138425 1.75542,0.283088 2.283713,0.435633 l 0.0038,1.606654 -0.0874,0.144042 v 0.885284 l 0.08274,0.121595 v 0.360985 c -0.2021,0.09867 -0.411288,0.193354 -0.89781,0.291828 -0.557207,0.112795 -1.462671,0.227006 -3.066753,0.341086 -4.35568,-0.466296 -8.705672,-0.700106 -13.050337,-1.524346 l -0.115758,-0.02189 -0.03467,0.183925 -1.916964,-0.343887 c 0.07424,-0.320874 0.106771,-0.679302 0.101137,-1.026347 -0.0046,-0.304128 -0.04028,-0.596792 -0.11012,-0.849726 4.285874,-0.225858 8.399717,-0.650755 13.127653,-0.664613 z m 9.212529,5.362488 c 1.298143,5.8e-5 2.580855,0.04684 3.842364,0.158027 -0.768583,0.177755 -1.549167,0.338475 -2.295008,0.678549 l -0.05633,0.02556 -0.0271,0.08107 c -0.186236,0.555975 -0.250894,1.175365 -0.268715,1.807851 l -1.73e-4,0.0046 v 12.270809 l -0.08321,0.0076 0.286082,0.855266 0.908287,0.248503 0.0192,0.300233 0.12797,-0.0053 c 0.07953,-0.003 0.128172,0.01447 0.134905,0.01209 8.37e-4,0.0053 0.0023,0.01652 0.003,0.03996 8.37e-4,0.03804 -0.01248,0.130824 -0.02464,0.217221 l -0.13313,0.08968 -0.184789,0.04408 c -0.02457,0.0046 -0.03199,-0.0039 -0.07916,0.03015 -0.01209,0.0087 -0.03145,0.01516 -0.05832,0.07569 -0.003,0.0069 -0.003,0.02258 -0.0053,0.03177 -0.191173,0.0069 -0.389921,0.02136 -0.594655,0.05174 -0.809591,0.119807 -1.743198,0.16317 -2.579605,0.10681 -0.831956,-0.0561 -1.571908,-0.218875 -1.977327,-0.47573 -0.09308,-0.08103 -0.164531,-0.157957 -0.2056,-0.218654 -0.04232,-0.06253 -0.04837,-0.101744 -0.04814,-0.09854 1.72e-4,0.003 -0.0086,0.0083 0.02127,-0.03084 0.0284,-0.03712 0.09482,-0.09135 0.187398,-0.142799 l 0.781857,-0.109495 0.151549,-0.20707 0.52511,-0.01423 0.01072,-0.003 c 0.247418,-0.06789 0.517848,-0.119152 0.751284,-0.313876 0.233424,-0.194723 0.415802,-0.566783 0.442796,-1.143781 l 4.32e-4,-0.0076 0.01438,-10.007687 -0.103664,-0.07554 -0.0061,-4.280172 c 0.174786,-0.0015 0.349366,-0.0023 0.523609,-0.0023 z" />
  </g>
</svg>
