<?xml version="1.0" encoding="UTF-8" standalone="no"?>
<svg
   xmlns:osb="http://www.openswatchbook.org/uri/2009/osb"
   xmlns:dc="http://purl.org/dc/elements/1.1/"
   xmlns:cc="http://creativecommons.org/ns#"
   xmlns:rdf="http://www.w3.org/1999/02/22-rdf-syntax-ns#"
   xmlns:svg="http://www.w3.org/2000/svg"
   xmlns="http://www.w3.org/2000/svg"
   xmlns:sodipodi="http://sodipodi.sourceforge.net/DTD/sodipodi-0.dtd"
   xmlns:inkscape="http://www.inkscape.org/namespaces/inkscape"
   width="256"
   height="256"
   viewBox="0 0 67.733332 67.733335"
   version="1.1"
   id="svg8"
   inkscape:version="1.0.1 (3bc2e813f5, 2020-09-07)"
   sodipodi:docname="target-enemy-ai-tie.svg"
   inkscape:export-filename="C:\Users\keath\Workspace\KMX\elite-streamdeck-icons\srv.png"
   inkscape:export-xdpi="96"
   inkscape:export-ydpi="96">
  <defs
     id="defs2">
    <linearGradient
       id="linearGradient1429"
       osb:paint="solid">
      <stop
         style="stop-color:#000000;stop-opacity:1;"
         offset="0"
         id="stop1427" />
    </linearGradient>
  </defs>
  <sodipodi:namedview
     id="base"
     pagecolor="#000000"
     bordercolor="#666666"
     borderopacity="1"
     inkscape:pageopacity="0"
     inkscape:pageshadow="2"
     inkscape:zoom="3.959798"
     inkscape:cx="160.72425"
     inkscape:cy="67.137753"
     inkscape:document-units="px"
     inkscape:current-layer="layer2"
     showgrid="true"
     units="px"
     inkscape:snap-grids="true"
     objecttolerance="10000"
     guidetolerance="10000"
     inkscape:window-width="2321"
     inkscape:window-height="1879"
     inkscape:window-x="5125"
     inkscape:window-y="0"
     inkscape:window-maximized="0"
     inkscape:document-rotation="0"
     showguides="true"
     showborder="true"
     borderlayer="false"
     inkscape:snap-to-guides="true"
     inkscape:guide-bbox="true"
     inkscape:object-nodes="true">
    <inkscape:grid
       type="xygrid"
       id="grid4623" />
    <sodipodi:guide
       position="-3.96875,62.441667"
       orientation="0,256"
       id="guide3351" />
    <sodipodi:guide
       position="62.177083,70.379167"
       orientation="256,0"
       id="guide3353" />
    <sodipodi:guide
       position="-2.6458333,22.754167"
       orientation="0,-256"
       id="guide3355" />
    <sodipodi:guide
       position="5.2916667,70.379167"
       orientation="-256,0"
       id="guide3357" />
    <sodipodi:guide
       position="0,67.733334"
       orientation="0,256"
       id="guide3359" />
    <sodipodi:guide
       position="67.733334,67.733334"
       orientation="256,0"
       id="guide3361" />
    <sodipodi:guide
       position="67.733334,0"
       orientation="0,-256"
       id="guide3363" />
    <sodipodi:guide
       position="0,0"
       orientation="-256,0"
       id="guide3365" />
    <sodipodi:guide
       position="0,67.733334"
       orientation="0,256"
       id="guide3367" />
    <sodipodi:guide
       position="67.733334,67.733334"
       orientation="256,0"
       id="guide3369" />
    <sodipodi:guide
       position="67.733334,0"
       orientation="0,-256"
       id="guide3371" />
    <sodipodi:guide
       position="0,0"
       orientation="-256,0"
       id="guide3373" />
    <sodipodi:guide
       position="0,67.733334"
       orientation="0,256"
       id="guide3375" />
    <sodipodi:guide
       position="67.733334,67.733334"
       orientation="256,0"
       id="guide3377" />
    <sodipodi:guide
       position="67.733334,0"
       orientation="0,-256"
       id="guide3379" />
    <sodipodi:guide
       position="0,0"
       orientation="-256,0"
       id="guide3381" />
    <sodipodi:guide
       position="33.602083,56.885417"
       orientation="1,0"
       id="guide878" />
  </sodipodi:namedview>
  <metadata
     id="metadata5">
    <rdf:RDF>
      <cc:Work
         rdf:about="">
        <dc:format>image/svg+xml</dc:format>
        <dc:type
           rdf:resource="http://purl.org/dc/dcmitype/StillImage" />
        <dc:title></dc:title>
      </cc:Work>
    </rdf:RDF>
  </metadata>
  <g
     inkscape:groupmode="layer"
     id="layer2"
     inkscape:label="Icon">
    <path
       id="rect859"
       style="fill:#808080;stroke:none;stroke-width:2.66615;stroke-linecap:round;stroke-linejoin:round;paint-order:markers fill stroke"
       d="M 5.2916667,5.2916667 V 18.110351 H 8.5735816 V 8.2075425 H 21.395403 V 5.2916667 Z m 40.7816783,0 v 2.9158758 h 12.821821 v 9.9028085 h 3.281917 V 5.2916667 Z M 5.2916667,32.160485 V 44.979166 H 21.395403 V 42.063144 H 8.5735816 v -9.902659 z m 53.6034993,0 v 9.902659 H 46.073345 v 2.916022 H 62.177083 V 32.160485 Z" />
    <path
       id="path1797-8"
       style="fill:#808080;fill-opacity:1;stroke:none;stroke-width:0.164627;stroke-linecap:round;stroke-miterlimit:4;stroke-dasharray:none;stroke-dashoffset:6.00002;stroke-opacity:1;paint-order:markers fill stroke"
       d="m 23.757581,14.132955 -0.07613,1.657595 -0.323653,0.297517 v 6.162852 c 0,0 -0.228553,-0.085 -0.285671,0.233763 -0.05712,0.318772 -0.209388,0.616285 -0.209388,0.616285 l -0.019,0.488779 0.152254,0.212509 -0.24753,0.106264 -0.228378,0.446277 v 0.807548 l 0.437923,0.361269 0.114107,1.211318 0.209541,0.318768 0.01898,6.162852 0.390284,0.425027 0.114274,1.763666 0.571179,-0.01062 0.08563,-1.657417 0.380791,-0.563153 v -5.504068 l 0.3428,-0.255014 0.152254,-0.403774 0.228535,-0.318765 0.05698,-0.48878 v -0.170005 l 1.009102,-0.08501 0.28567,-0.233758 0.133257,0.02124 0.228381,0.318769 0.47606,0.148758 h 0.590177 l 0.05713,0.276267 h 0.74258 l 0.456916,0.403773 0.356345,0.106084 c -0.365824,-0.681003 -0.55828,-1.452193 -0.558263,-2.237027 5.8e-5,-0.956898 0.286136,-1.888862 0.816688,-2.660553 l -0.72904,0.158721 -0.399781,0.297517 -0.666454,0.106249 -0.342647,0.297517 -0.818711,0.085 -0.171402,0.425026 -0.285512,0.02127 -0.114273,-0.233766 h -1.047085 v -0.637537 l -0.171403,-0.06376 -0.190393,-0.616285 -0.39978,-0.510029 v -5.291548 l -0.418932,-0.318773 -0.05713,-1.678846 z m 19.261077,0 -0.05713,1.678848 -0.418928,0.318767 v 5.291551 l -0.39978,0.510029 -0.190397,0.616286 -0.171398,0.06376 v 0.637541 h -1.04709 l -0.11426,0.233761 -0.285515,-0.02127 -0.171402,-0.425024 -0.818709,-0.08501 -0.342647,-0.297516 -0.666456,-0.106263 -0.399781,-0.297516 -0.72904,-0.15872 c 0.530556,0.771685 0.816633,1.703657 0.816688,2.660555 1.6e-5,0.784836 -0.192436,1.556021 -0.558262,2.237022 l 0.356348,-0.106084 0.456913,-0.403776 h 0.742585 l 0.05713,-0.276264 h 0.590174 l 0.476064,-0.148758 0.228378,-0.318772 0.133256,-0.02124 0.285668,0.233764 1.009105,0.085 v 0.17001 l 0.05698,0.488782 0.228535,0.318762 0.152254,0.403776 0.342801,0.255016 v 5.504063 l 0.380789,0.563155 0.08563,1.65741 0.571183,0.01062 0.114259,-1.763667 0.390284,-0.42502 0.01901,-6.16285 0.209541,-0.318769 0.114107,-1.211318 0.437923,-0.361271 V 24.35478 l -0.228381,-0.446278 -0.247527,-0.106264 0.152256,-0.212509 -0.019,-0.488779 c 0,0 -0.152271,-0.297517 -0.209387,-0.616285 -0.05712,-0.31877 -0.285668,-0.233762 -0.285668,-0.233762 v -6.162862 l -0.323656,-0.297517 -0.07613,-1.657597 z M 23.94891,15.077311 h 0.255778 V 34.462067 H 23.94891 Z m 19.26995,0 h 0.255778 V 34.462067 H 43.21886 Z m -9.502727,5.292875 c -2.258746,0 -4.095259,1.958084 -4.095259,4.366962 3e-6,2.408871 1.836516,4.367124 4.095259,4.367124 2.258743,0 4.095259,-1.958253 4.095259,-4.367124 0,-2.408878 -1.836513,-4.366962 -4.095259,-4.366962 z m -0.703041,0.674725 h 1.282165 v 0.571127 h -1.282165 z m 2.907128,0.633221 c 0.06071,0.04978 0.119746,0.101687 0.177318,0.155399 l -0.773099,0.863167 c -0.38024,-0.341428 -0.856826,-0.564016 -1.379614,-0.614794 h 1.548214 z m -4.494262,0.07223 0.290807,0.286394 1.771923,0.045 c -0.554028,0.05352 -1.056482,0.300038 -1.447179,0.676384 l -0.781815,-0.853204 c 0.05401,-0.05328 0.109255,-0.104843 0.166264,-0.15457 z m 4.895909,0.311291 c 0.381567,0.422466 0.673751,0.937205 0.843462,1.510827 l -1.08445,0.299016 c -0.114618,-0.355332 -0.297351,-0.676864 -0.532107,-0.946677 z m -11.632553,0.0033 h 0.255934 v 5.154086 h -0.255934 z m 17.788986,0 h 0.255934 v 5.154086 H 42.4783 Z m -11.437489,0.07438 0.78415,0.855362 c -0.22792,0.281032 -0.401901,0.613066 -0.504398,0.977888 l -1.081646,-0.298177 c 0.154887,-0.579003 0.432273,-1.102413 0.801894,-1.535072 z m 2.789591,0.273943 c 0.483679,0.02651 0.925307,0.220263 1.275,0.528128 l -0.776832,0.866979 c -0.144172,-0.108564 -0.314122,-0.180386 -0.498168,-0.201517 z m -0.309955,0.0068 v 1.200195 c -0.17721,0.03539 -0.339218,0.117293 -0.474194,0.234098 L 32.26335,23.00022 c 0.339967,-0.323527 0.775751,-0.534639 1.257097,-0.580095 z m 1.809131,0.749441 c 0.32751,0.383289 0.536093,0.883983 0.564642,1.436944 h -1.119635 c -0.02316,-0.213592 -0.102265,-0.409195 -0.221216,-0.570294 z m -3.282311,0.0679 0.788508,0.860178 c -0.09519,0.148377 -0.157822,0.321928 -0.178096,0.508866 h -1.119633 c 0.0269,-0.520957 0.213821,-0.995323 0.509221,-1.369044 z m 5.178777,0.566645 c 0.0694,0.298759 0.106953,0.611117 0.106953,0.93306 0,0.368078 -0.04926,0.723453 -0.139176,1.060404 l -1.041796,-0.45956 c 0.04187,-0.193262 0.06475,-0.394199 0.06477,-0.600844 0,-0.218775 -0.0253,-0.4313 -0.07209,-0.634874 z m -7.042239,0.103437 1.081651,0.29835 c -0.03266,0.171739 -0.04997,0.349387 -0.04997,0.531278 0,0.23805 0.02976,0.468739 0.08484,0.688509 l -1.038991,0.45823 c -0.105298,-0.362164 -0.162061,-0.747239 -0.162061,-1.146739 0,-0.285018 0.02976,-0.562375 0.08454,-0.829628 z m 3.532328,0.03272 c 0.414587,0 0.747257,0.354777 0.747253,0.796917 0,0.442139 -0.332666,0.79692 -0.747253,0.79692 -0.414584,0 -0.74725,-0.354781 -0.74725,-0.79692 -4e-6,-0.44214 0.332663,-0.796917 0.74725,-0.796917 z m -2.179175,0.906663 h 1.11823 c 0.01988,0.219037 0.09904,0.419673 0.219351,0.584905 l -0.776831,0.86748 c -0.328737,-0.387478 -0.536542,-0.893988 -0.56075,-1.452385 z m 3.24012,0 h 1.118233 c -0.02476,0.571263 -0.241974,1.087854 -0.583947,1.478619 l -0.783059,-0.854367 c 0.137075,-0.172117 0.227301,-0.387631 0.248773,-0.624252 z m 1.31392,0.724367 1.034478,0.456401 c -0.174841,0.526606 -0.453746,0.99991 -0.810457,1.392785 l -0.78197,-0.853248 c 0.24921,-0.281384 0.441697,-0.620241 0.557949,-0.995986 z m -4.72264,0.0845 c 0.114494,0.332044 0.289394,0.63295 0.510156,0.888238 l -0.773253,0.863162 c -0.332074,-0.369296 -0.595648,-0.808717 -0.769515,-1.296042 z m 1.729737,0.0051 c 0.123937,0.09467 0.267143,0.161924 0.422352,0.192922 v 1.200693 c -0.454212,-0.04292 -0.868017,-0.233315 -1.198875,-0.526631 z m 1.197162,0.02872 0.788974,0.860838 c -0.346329,0.297478 -0.77969,0.484706 -1.253829,0.510696 V 25.86716 c 0.170016,-0.01949 0.328054,-0.08245 0.464855,-0.177479 z m -2.19288,1.082816 c 0.210836,0.190483 0.45153,0.344219 0.71347,0.452418 v 1.249171 c -0.559676,-0.152324 -1.06614,-0.444412 -1.486566,-0.838312 z m 3.204629,0.02108 0.782904,0.854199 c -0.44167,0.409841 -0.977515,0.706773 -1.569077,0.849715 v -1.235558 c 0.289329,-0.105188 0.55529,-0.264791 0.786173,-0.468356 z m -2.124848,0.549209 c 0.110234,0.02567 0.223202,0.04325 0.338289,0.0528 v 0.591708 h -0.338289 z m 0.986376,0.01745 v 0.627245 h -0.338132 v -0.5859 c 0.114949,-0.0055 0.227707,-0.01973 0.338132,-0.04134 z"
       sodipodi:nodetypes="ccccscccccccccccccccccccccccccccccccccccccccccccccccccccccccccccccccccccccccccccccccccccccccccccccccccccscccccccccccccccsssssccccccccccccccccccccccccccccccccccccccccccccccccccccccccccsccsccccsccscssssscccccccccccccccccccccccccccccccccccccccccccccccccc" />
    <rect
       style="fill:#808080;stroke:none;stroke-width:1.08016;stroke-linecap:round;stroke-linejoin:round;stroke-miterlimit:4;stroke-dasharray:none;stroke-opacity:1;paint-order:markers fill stroke"
       id="rect1085"
       width="2.6458344"
       height="18.520834"
       x="14.552083"
       y="15.875" />
    <rect
       style="fill:#808080;stroke:none;stroke-width:1.32292;stroke-linecap:round;stroke-linejoin:round;stroke-miterlimit:4;stroke-dasharray:none;stroke-opacity:1;paint-order:markers fill stroke"
       id="rect1087"
       width="3.96875"
       height="2.6458333"
       x="11.90625"
       y="19.84375" />
    <rect
       style="fill:#808080;stroke:none;stroke-width:1.32292;stroke-linecap:round;stroke-linejoin:round;stroke-miterlimit:4;stroke-dasharray:none;stroke-opacity:1;paint-order:markers fill stroke"
       id="rect1089"
       width="3.96875"
       height="2.6458333"
       x="11.90625"
       y="27.78125" />
    <rect
       style="fill:#808080;stroke:none;stroke-width:1.08016;stroke-linecap:round;stroke-linejoin:round;stroke-miterlimit:4;stroke-dasharray:none;stroke-opacity:1;paint-order:markers fill stroke"
       id="rect1085-8"
       width="2.6458344"
       height="18.520834"
       x="-52.916668"
       y="15.875"
       transform="scale(-1,1)" />
    <rect
       style="fill:#808080;stroke:none;stroke-width:1.32292;stroke-linecap:round;stroke-linejoin:round;stroke-miterlimit:4;stroke-dasharray:none;stroke-opacity:1;paint-order:markers fill stroke"
       id="rect1087-0"
       width="3.96875"
       height="2.6458333"
       x="-55.5625"
       y="19.84375"
       transform="scale(-1,1)" />
    <rect
       style="fill:#808080;stroke:none;stroke-width:1.32292;stroke-linecap:round;stroke-linejoin:round;stroke-miterlimit:4;stroke-dasharray:none;stroke-opacity:1;paint-order:markers fill stroke"
       id="rect1089-5"
       width="3.96875"
       height="2.6458333"
       x="-55.5625"
       y="27.78125"
       transform="scale(-1,1)" />
  </g>
</svg>
