<?xml version="1.0" encoding="UTF-8" standalone="no"?>
<svg
   xmlns:osb="http://www.openswatchbook.org/uri/2009/osb"
   xmlns:dc="http://purl.org/dc/elements/1.1/"
   xmlns:cc="http://creativecommons.org/ns#"
   xmlns:rdf="http://www.w3.org/1999/02/22-rdf-syntax-ns#"
   xmlns:svg="http://www.w3.org/2000/svg"
   xmlns="http://www.w3.org/2000/svg"
   xmlns:sodipodi="http://sodipodi.sourceforge.net/DTD/sodipodi-0.dtd"
   xmlns:inkscape="http://www.inkscape.org/namespaces/inkscape"
   width="256"
   height="256"
   viewBox="0 0 67.733332 67.733335"
   version="1.1"
   id="svg8"
   inkscape:version="1.0.1 (3bc2e813f5, 2020-09-07)"
   sodipodi:docname="target-new-republic.svg"
   inkscape:export-filename="C:\Users\keath\Workspace\KMX\elite-streamdeck-icons\srv.png"
   inkscape:export-xdpi="96"
   inkscape:export-ydpi="96">
  <defs
     id="defs2">
    <linearGradient
       id="linearGradient1429"
       osb:paint="solid">
      <stop
         style="stop-color:#000000;stop-opacity:1;"
         offset="0"
         id="stop1427" />
    </linearGradient>
  </defs>
  <sodipodi:namedview
     id="base"
     pagecolor="#000000"
     bordercolor="#666666"
     borderopacity="1"
     inkscape:pageopacity="0"
     inkscape:pageshadow="2"
     inkscape:zoom="3.959798"
     inkscape:cx="168.55293"
     inkscape:cy="111.33193"
     inkscape:document-units="px"
     inkscape:current-layer="layer2"
     showgrid="true"
     units="px"
     inkscape:snap-grids="true"
     objecttolerance="10000"
     guidetolerance="10000"
     inkscape:window-width="2321"
     inkscape:window-height="1879"
     inkscape:window-x="5125"
     inkscape:window-y="0"
     inkscape:window-maximized="0"
     inkscape:document-rotation="0"
     showguides="true"
     showborder="true"
     borderlayer="false"
     inkscape:snap-to-guides="true"
     inkscape:guide-bbox="true"
     inkscape:object-nodes="true">
    <inkscape:grid
       type="xygrid"
       id="grid4623" />
    <sodipodi:guide
       position="-3.96875,62.441667"
       orientation="0,256"
       id="guide3351" />
    <sodipodi:guide
       position="62.177083,70.379167"
       orientation="256,0"
       id="guide3353" />
    <sodipodi:guide
       position="-2.6458333,22.754167"
       orientation="0,-256"
       id="guide3355" />
    <sodipodi:guide
       position="5.2916667,70.379167"
       orientation="-256,0"
       id="guide3357" />
    <sodipodi:guide
       position="0,67.733334"
       orientation="0,256"
       id="guide3359" />
    <sodipodi:guide
       position="67.733334,67.733334"
       orientation="256,0"
       id="guide3361" />
    <sodipodi:guide
       position="67.733334,0"
       orientation="0,-256"
       id="guide3363" />
    <sodipodi:guide
       position="0,0"
       orientation="-256,0"
       id="guide3365" />
    <sodipodi:guide
       position="0,67.733334"
       orientation="0,256"
       id="guide3367" />
    <sodipodi:guide
       position="67.733334,67.733334"
       orientation="256,0"
       id="guide3369" />
    <sodipodi:guide
       position="67.733334,0"
       orientation="0,-256"
       id="guide3371" />
    <sodipodi:guide
       position="0,0"
       orientation="-256,0"
       id="guide3373" />
    <sodipodi:guide
       position="0,67.733334"
       orientation="0,256"
       id="guide3375" />
    <sodipodi:guide
       position="67.733334,67.733334"
       orientation="256,0"
       id="guide3377" />
    <sodipodi:guide
       position="67.733334,0"
       orientation="0,-256"
       id="guide3379" />
    <sodipodi:guide
       position="0,0"
       orientation="-256,0"
       id="guide3381" />
    <sodipodi:guide
       position="33.602083,56.885417"
       orientation="1,0"
       id="guide878" />
  </sodipodi:namedview>
  <metadata
     id="metadata5">
    <rdf:RDF>
      <cc:Work
         rdf:about="">
        <dc:format>image/svg+xml</dc:format>
        <dc:type
           rdf:resource="http://purl.org/dc/dcmitype/StillImage" />
        <dc:title></dc:title>
      </cc:Work>
    </rdf:RDF>
  </metadata>
  <g
     inkscape:groupmode="layer"
     id="layer2"
     inkscape:label="Icon">
    <path
       id="rect859"
       style="fill:#808080;stroke:none;stroke-width:2.66615;stroke-linecap:round;stroke-linejoin:round;paint-order:markers fill stroke"
       d="M 5.2916667,5.2916667 V 18.110351 H 8.5735816 V 8.2075425 H 21.395403 V 5.2916667 Z m 40.7816783,0 v 2.9158758 h 12.821821 v 9.9028085 h 3.281917 V 5.2916667 Z M 5.2916667,32.160485 V 44.979166 H 21.395403 V 42.063144 H 8.5735816 v -9.902659 z m 53.6034993,0 v 9.902659 H 46.073345 v 2.916022 H 62.177083 V 32.160485 Z" />
    <path
       id="path3595"
       style="fill:#808080;fill-opacity:1;stroke:none;stroke-width:1.98915;stroke-linecap:round;stroke-linejoin:miter;stroke-miterlimit:4;stroke-dasharray:none;stroke-dashoffset:6.00002;stroke-opacity:1;paint-order:markers fill stroke"
       d="m 33.470192,8.8420658 c -9.155343,0 -16.584614,7.4292412 -16.584614,16.5845812 0,9.155343 7.429271,16.584495 16.584614,16.584495 9.155335,0 16.584486,-7.429154 16.584486,-16.584494 0,-9.155339 -7.429151,-16.5845802 -16.584486,-16.5845822 z m 0,0.687631 c 8.783711,4e-6 15.896866,7.1132342 15.896866,15.8969512 0,8.783717 -7.113155,15.896859 -15.896866,15.896859 -8.783718,0 -15.896978,-7.113139 -15.896978,-15.896859 0,-8.783719 7.11326,-15.8969512 15.896978,-15.8969512 z m -2.77838,1.0130632 -0.253377,1.144741 -0.451739,-0.493312 v 5.9e-5 l 0.0055,0.01744 -0.0023,-0.0025 0.196437,0.622392 -1.116324,-0.352413 v 9.2e-5 -3e-5 l 0.02308,0.02114 -0.01993,-0.0063 0.851003,0.779285 -0.642472,0.142213 v 2.8e-5 2.9e-5 l 0.03507,0.0077 -0.03197,0.0071 0.637492,0.141078 -0.852254,0.780391 v -2.9e-5 9.1e-5 l 0.02952,-0.0093 -0.02638,0.02418 1.109406,-0.350204 -0.195788,0.620181 v 6e-5 l 0.01193,-0.01304 -0.0088,0.02791 0.451702,-0.493312 0.253385,1.144771 0.253387,-1.144771 0.451729,0.493312 -0.0055,-0.01748 0.0023,0.0026 v -5.8e-5 l -0.196448,-0.622359 1.116325,0.35238 -0.02312,-0.02118 0.02,0.0064 v -9.2e-5 3e-5 l -0.850997,-0.779284 0.642482,-0.14218 -0.03507,-0.0077 0.03196,-0.0071 v -2.9e-5 -3.1e-5 l -0.637465,-0.141107 0.852226,-0.780392 -0.02949,0.0093 0.02636,-0.02415 v 3e-5 -9.1e-5 l -1.109396,0.350231 0.19577,-0.62021 -0.01193,0.01304 0.0088,-0.0279 v -5.6e-5 l -0.45172,0.493309 z m 5.549564,0 -0.253385,1.144741 -0.451712,-0.493312 v 5.9e-5 l 0.0088,0.02794 -0.01198,-0.01302 v -5.8e-5 l 0.19576,0.620211 -1.10935,-0.350231 v 9.1e-5 l 0.02632,0.02412 -0.02952,-0.0093 0.852168,0.780392 -0.637406,0.141107 v 3e-5 3e-5 l 0.03191,0.0071 -0.03507,0.0077 0.251111,0.05557 0.391399,0.08664 -0.851012,0.779257 v -5.8e-5 9.2e-5 l 0.01989,-0.0063 -0.02301,0.02114 1.116314,-0.352409 -0.196436,0.622388 v 5.9e-5 l 0.0023,-0.0024 -0.0055,0.01734 0.451703,-0.493281 0.253385,1.14474 2.8e-5,-5.8e-5 0.253386,-1.14468 0.451721,0.493281 -0.0088,-0.02799 0.01201,0.01306 -0.195743,-0.620153 1.109306,0.350175 -0.02637,-0.0242 0.0296,0.0093 v -9.3e-5 l -0.852159,-0.780362 0.637397,-0.141077 -0.03187,-0.0071 0.03506,-0.0077 v -3e-5 -2.7e-5 l -0.642507,-0.142244 0.850945,-0.779256 -0.01982,0.0063 0.02303,-0.02108 v 5.8e-5 -9.2e-5 l -1.11639,0.35244 0.196484,-0.622419 -0.0023,0.0024 0.0055,-0.01735 v 9.4e-5 l 2.8e-5,-1.89e-4 -0.451704,0.493309 z m -10.617619,2.258472 -0.253415,1.144799 -0.451646,-0.493252 -5.7e-5,-5.6e-5 0.201334,0.637851 -1.118092,-0.352951 v 6e-5 l 0.01572,0.01441 -0.0069,-0.0021 0.852197,0.780332 -0.649464,0.143765 0.03221,0.0071 -0.02331,0.0052 0.635134,0.140571 -0.855667,0.783493 v -5.6e-5 1.23e-4 l 0.03387,-0.01068 -0.02505,0.02292 1.103912,-0.348471 -0.196052,0.621078 v -1.22e-4 l -5.8e-5,1.83e-4 0.01938,-0.02116 -0.0106,0.0334 0.446723,-0.487847 0.249503,1.12701 v 3.1e-5 l 3.8e-5,5.8e-5 0.0031,-0.01388 0.0058,0.02612 0.253348,-1.144771 0.45174,0.493279 -0.201361,-0.637851 1.118119,0.352952 -0.01572,-0.01441 0.0069,0.0021 -0.347907,-0.318564 -0.504356,-0.461825 0.649427,-0.143734 -0.03212,-0.0071 0.02328,-0.0052 v -2.9e-5 l -0.635077,-0.140601 0.855638,-0.783496 -0.03387,0.01068 0.02505,-0.02292 v 5.6e-5 -9.2e-5 l -1.103939,0.348472 0.19608,-0.621078 -0.01936,0.02116 0.01049,-0.0334 v 9.7e-5 l 5.9e-5,-1.9e-4 -0.446751,0.48788 -0.249448,-1.127074 -0.0031,0.01392 -0.0058,-0.02611 z m 15.685645,0 -0.0058,0.02623 -0.0031,-0.01387 -3e-5,-9.2e-5 -0.249465,1.127072 -0.446704,-0.487849 v 5.9e-5 l 0.0106,0.03346 -0.0195,-0.02128 v 5.8e-5 l 0.07279,0.230524 0.123267,0.390554 -1.103882,-0.348472 v 9.2e-5 -2.9e-5 l 0.02498,0.0229 -0.0339,-0.0107 v 9.1e-5 -3e-5 l 0.855664,0.783492 -0.635104,0.140602 0.02316,0.0051 -0.03208,0.0071 v 3.1e-5 3.1e-5 l 0.649371,0.143781 -0.852169,0.78033 v -3e-5 1.22e-4 l 0.0067,-0.0021 -0.01559,0.01427 v -3.2e-5 1.22e-4 l 1.118061,-0.35292 -0.201304,0.637762 v 5.7e-5 l 0.451731,-0.493281 0.253355,1.144681 v 3e-5 l 3.3e-5,5.8e-5 0.0058,-0.02623 0.0031,0.01392 v 2.8e-5 l 2.8e-5,5.9e-5 0.249449,-1.127072 0.446682,0.487758 -0.0106,-0.03348 0.0195,0.02125 -0.196025,-0.621078 1.103885,0.348475 v -1.22e-4 3e-5 l -0.02501,-0.0229 0.03394,0.0107 v -1.22e-4 2.7e-5 l -0.855665,-0.783492 0.635105,-0.140571 v -3e-5 -3e-5 l -0.02308,-0.0051 0.032,-0.0071 v -3e-5 l -0.649371,-0.143761 0.852168,-0.780331 v 3e-5 -9.2e-5 l -0.0067,0.0021 0.01563,-0.01429 v 3e-5 -9.1e-5 l -1.118053,0.352919 0.201303,-0.637763 -5.5e-5,9.2e-5 2.8e-5,-1.9e-4 -0.451713,0.493309 z m -7.935016,1.360788 -2.06289,2.139298 1.222448,2.521319 -1.986489,-1.680879 -1.375265,1.52807 c 5.697185,4.141031 2.215716,8.862812 0.152816,8.557198 -4.413208,-0.540181 -5.184088,-8.110259 -1.222461,-11.231322 9.25e-4,-0.0029 9.25e-4,-0.0057 0.0014,-0.0086 -3.461582,1.936248 -5.605895,5.59264 -5.605904,9.558949 0,2.904852 1.153923,5.690739 3.207962,7.744783 2.054049,2.054043 4.839912,3.207992 7.744757,3.207992 2.904853,0 5.690745,-1.153949 7.744783,-3.207992 2.054039,-2.054044 3.20799,-4.839931 3.20799,-7.744783 -8e-6,-3.966316 -2.14433,-7.62271 -5.60593,-9.558949 9.25e-4,0.003 9.25e-4,0.0057 0.0014,0.0086 3.961625,3.121063 3.190766,10.691141 -1.222459,11.231322 -2.062891,0.305614 -5.544378,-4.416167 0.152814,-8.557198 l -1.375274,-1.52807 -1.98648,1.680879 1.222441,-2.521319 z m -11.46525,2.762048 -0.252185,1.139247 -0.439767,-0.480207 0.0032,0.01028 -0.01635,-0.01785 2.8e-5,1.22e-4 v -1.22e-4 l 0.201361,0.637851 -1.118055,-0.352979 h -6.7e-5 l 0.864731,0.791852 -0.653033,0.144538 0.02361,0.0052 -0.01049,0.0023 0.635781,0.140748 -0.860617,0.788092 h 6.8e-5 l 0.03256,-0.01028 -0.01947,0.01785 1.100838,-0.347489 -0.197245,0.624838 v -1.22e-4 l -2.9e-5,1.22e-4 0.02363,-0.02581 -0.01049,0.03336 0.442453,-0.483161 0.249495,1.12707 3.9e-5,-1.83e-4 2.7e-5,1.83e-4 0.0057,-0.02579 0.0074,0.03336 0.252154,-1.139276 0.439778,0.480237 -2.8e-5,-1.22e-4 v 1.22e-4 l -0.0033,-0.01028 0.01635,0.01785 -0.20133,-0.637849 1.118089,0.35295 -0.864732,-0.791824 0.653089,-0.144569 -0.02363,-0.0052 0.01049,-0.0023 -0.63582,-0.140721 0.860646,-0.788089 -0.03261,0.01028 0.01952,-0.01787 v 0 l -1.100809,0.347516 0.197218,-0.624838 -0.02363,0.02579 0.0106,-0.03333 v 1.22e-4 l 2.7e-5,-1.22e-4 -0.442465,0.483162 -0.249467,-1.127099 -0.0057,0.02579 -0.0073,-0.03333 -3e-5,1.83e-4 z m 23.114878,0 -0.0074,0.03346 -0.0057,-0.02591 -3.1e-5,5.9e-5 -0.241205,1.089733 -0.0083,0.03731 -0.442484,-0.483162 0.01049,0.0334 -0.02364,-0.02579 v -5.7e-5 l 0.197282,0.624869 -1.100809,-0.347548 0.01949,0.0179 -0.03264,-0.01038 0.860609,0.78809 -0.635848,0.140721 0.01049,0.0023 -0.02361,0.0052 0.653072,0.14457 -0.864667,0.791821 1.118055,-0.352948 -0.201371,0.637849 v -5.7e-5 l 0.01639,-0.01785 -0.0033,0.01038 0.384134,-0.419474 0.05566,-0.0608 0.252197,1.139308 0.0074,-0.03346 0.0057,0.02587 0.249477,-1.127103 0.442484,0.483194 -0.0106,-0.0334 0.02364,0.02579 v 5.7e-5 l -0.197244,-0.624838 1.100782,0.347487 -0.01942,-0.01785 0.0326,0.01028 -0.860593,-0.788092 0.635821,-0.140749 -0.01049,-0.0023 0.02364,-0.0052 -0.653078,-0.144538 0.864679,-0.791853 -1.118063,0.352979 0.20137,-0.637851 v 5.9e-5 l -0.01639,0.01785 0.0033,-0.01038 -5.7e-5,5.9e-5 -0.384077,0.419415 -0.05566,0.0608 z m -24.828435,5.277363 -0.250717,1.132713 -0.439271,-0.479669 0.0072,0.02278 -0.02227,-0.02433 4e-5,1.23e-4 v -1.23e-4 l 0.200231,0.634269 -1.101861,-0.347814 0.0054,0.0049 -0.02042,-0.0065 h -5.5e-5 l 0.864732,0.791821 -0.653034,0.144542 0.653034,0.144539 -0.864732,0.791851 h 5.5e-5 l 0.02556,-0.0081 -0.01049,0.0096 1.100784,-0.347458 -0.199153,0.630806 v -1.22e-4 l -4e-5,1.22e-4 0.02375,-0.02597 -0.0087,0.02752 0.439823,-0.480267 0.250162,1.130174 3e-5,-1.84e-4 2.8e-5,1.84e-4 0.0074,-0.03325 0.0077,0.03483 0.250707,-1.132742 0.439251,0.4797 -3e-5,-1.22e-4 v 1.22e-4 l -0.0071,-0.02273 0.02227,0.0243 -0.200195,-0.634268 1.101814,0.347815 v 0 l -0.0054,-0.0049 0.02042,0.0065 -0.864735,-0.791822 0.653073,-0.144569 -0.653073,-0.144542 0.864735,-0.791822 -0.02561,0.0081 0.01049,-0.0096 h -5.5e-5 l -1.100725,0.347458 0.199097,-0.630807 -0.02372,0.02591 0.0087,-0.02746 v 1.23e-4 l 2.8e-5,-1.23e-4 -0.439822,0.480298 -0.250136,-1.130236 -0.0073,0.03325 -0.0077,-0.0348 -2.9e-5,1.84e-4 z m 26.542031,0 -3.6e-5,6e-5 -0.0076,0.03489 -0.0074,-0.0334 -2.7e-5,5.5e-5 -0.250165,1.130118 -0.439768,-0.480237 0.0088,0.0276 -0.02387,-0.02605 0.19909,0.630777 -1.100681,-0.347428 0.01059,0.0096 -0.02573,-0.0082 0.864733,0.791824 -0.653064,0.14454 0.653064,0.144568 -0.864733,0.791822 0.02053,-0.0065 -0.0054,0.0049 1.101791,-0.347814 -0.20021,0.634269 0.02239,-0.02444 -0.0072,0.0229 0.439204,-0.47967 0.250733,1.132652 2.8e-5,5.9e-5 0.0076,-0.03497 0.0074,0.03333 2.8e-5,5.7e-5 0.250136,-1.130173 0.439796,0.480266 -0.0088,-0.02758 0.02382,0.02596 v 5.9e-5 l -0.199136,-0.630807 1.100725,0.347456 -0.0106,-0.0096 0.02571,0.0082 -0.864737,-0.79185 0.653076,-0.144541 -0.653076,-0.144539 0.864737,-0.791823 -0.02053,0.0065 0.0054,-0.0049 -1.101816,0.347816 0.02095,-0.06632 0.179313,-0.567953 v 5.7e-5 l -0.02234,0.02436 0.0073,-0.02288 -0.439217,0.479673 -0.07279,-0.328865 z m -0.592692,5.514399 -0.251443,1.135817 -0.439213,-0.479642 v 5.8e-5 l 0.0054,0.01688 -0.01981,-0.02165 0.201362,0.637848 -1.11812,-0.352949 0.864732,0.791822 -0.65307,0.14454 0.01778,0.0039 -0.0034,6.94e-4 v 2.8e-5 3.2e-5 l 0.637246,0.141047 -0.863351,0.790597 0.02981,-0.0094 -0.01535,0.01408 v -3.3e-5 l -5.8e-5,5.9e-5 1.100387,-0.347367 -0.198109,0.627553 0.02435,-0.02659 -0.0099,0.03128 v 5.8e-5 l 0.440875,-0.481492 0.249783,1.128208 0.0067,-0.03023 0.0076,0.03492 0.251413,-1.135817 0.439231,0.479673 -0.0054,-0.01686 0.01975,0.02155 -0.10847,-0.343604 -0.09287,-0.294213 1.11811,0.352946 -2.7e-5,-2.7e-5 -0.86465,-0.791793 0.653016,-0.144541 v -3.1e-5 -2.7e-5 l -0.01781,-0.0039 0.0033,-6.94e-4 -0.190908,-0.04225 -0.446309,-0.09879 0.863364,-0.790598 v 5.7e-5 -1.23e-4 l -0.02978,0.0094 0.01531,-0.01406 -1.100397,0.347366 0.198119,-0.627521 v 1.22e-4 l 2.8e-5,-1.83e-4 -0.02428,0.02653 0.0099,-0.03121 -0.440893,0.481489 -0.249761,-1.128237 -0.0067,0.03021 z m -25.356665,5.8e-5 -0.0077,0.03492 -0.0068,-0.03023 -0.24974,1.128235 -0.440932,-0.481488 v 5.6e-5 l 0.0099,0.0311 -0.02423,-0.02647 v 5.7e-5 l 0.19808,0.627523 -1.100413,-0.347369 5.6e-5,5.8e-5 0.01521,0.01396 -0.02972,-0.0093 v 1.22e-4 -3e-5 l 0.86336,0.790598 -0.637256,0.141048 v 3e-5 2.8e-5 l 0.0033,6.94e-4 -0.01767,0.0039 v 2.8e-5 3.3e-5 l 0.653015,0.144538 -0.864618,0.79176 v 6e-5 l 1.118127,-0.352949 -0.201341,0.637819 v 6e-5 l 0.01973,-0.02153 -0.0026,0.0084 -0.0026,0.0084 v 5.8e-5 l 0.43926,-0.479701 0.251413,1.135784 0.0077,-0.03492 0.0067,0.03024 0.177396,-0.801373 0.07236,-0.326862 0.440894,0.481521 v -5.9e-5 l -0.0099,-0.03113 0.02426,0.0265 v -5.7e-5 l -0.198072,-0.627554 1.100385,0.347367 v -5.8e-5 l -0.01522,-0.01396 0.02972,0.0093 v -1.21e-4 2.9e-5 l -0.863361,-0.790596 0.637275,-0.141049 v -3.1e-5 -3e-5 l -0.0032,-6.94e-4 0.01766,-0.0039 v -3.1e-5 -2.9e-5 l -0.653043,-0.144539 0.864621,-0.791763 v -5.7e-5 l -1.118064,0.352947 0.201306,-0.637789 v -5.7e-5 l -0.01977,0.02157 0.0054,-0.01684 v -5.7e-5 l -0.439223,0.479669 z m 2.773806,4.79847 -0.0068,0.03038 -0.0046,-0.02026 -0.249391,1.126743 -0.444514,-0.48537 0.01073,0.03405 -0.02194,-0.02393 0.196559,0.62269 -1.102125,-0.347935 0.02278,0.02086 -0.03397,-0.01071 0.857986,0.785673 -0.635133,0.140571 0.01725,0.0038 -0.02841,0.0063 v 3e-5 l 0.653073,0.144541 -0.864704,0.79182 1.118089,-0.352946 -0.201342,0.637848 0.01218,-0.01328 -9.25e-4,0.0031 0.440895,-0.481402 0.253001,1.143069 0.0068,-0.03038 0.0044,0.02024 0.249382,-1.126743 0.444514,0.4854 -0.01075,-0.03408 0.02194,0.0239 -0.196533,-0.622597 1.102096,0.347873 -0.02273,-0.02083 0.03394,0.01071 -0.818836,-0.749798 -0.03916,-0.03588 0.635133,-0.1406 -0.01725,-0.0038 0.02844,-0.0063 -0.653072,-0.144539 0.864743,-0.791853 -1.118092,0.352979 0.201334,-0.63785 -0.01221,0.01332 9.25e-4,-0.0032 -0.440895,0.481492 z m 19.80905,0 -0.253001,1.143009 -0.440846,-0.481403 9.25e-4,0.0033 -0.01228,-0.01341 3.9e-5,1.23e-4 v -5.8e-5 l 0.20136,0.63782 -1.118053,-0.352949 0.864649,0.791822 -0.653043,0.14454 5.5e-5,3e-5 0.02842,0.0063 -0.01723,0.0038 5.6e-5,3e-5 0.379482,0.08399 0.255537,0.05658 -0.857928,0.785646 0.03402,-0.01075 -0.0228,0.0209 1.102041,-0.347875 -0.196567,0.622629 0.02012,-0.02194 0.0021,-0.0021 -0.01085,0.03426 0.444446,-0.485373 0.249393,1.126715 0.0044,-0.02035 0.0068,0.0305 0.253002,-1.143038 0.440808,0.481344 v 5.5e-5 l -9.24e-4,-0.0032 0.0122,0.01326 v 5.5e-5 l -0.201371,-0.63785 1.11812,0.352949 -0.864735,-0.79182 0.653074,-0.144542 -5.5e-5,-2.9e-5 -0.02842,-0.0063 0.01715,-0.0038 v -2.7e-5 l -0.635066,-0.140571 0.857987,-0.785644 -0.03409,0.01078 0.02278,-0.02093 -0.304481,0.09613 -0.797523,0.251746 0.04674,-0.148064 0.149825,-0.474565 v 5.7e-5 l -0.022,0.024 0.0108,-0.0342 -3.1e-5,3.2e-5 -0.08972,0.09799 -0.354747,0.387388 -0.249383,-1.126742 -0.0044,0.02035 z m -4.482502,3.260433 -2.8e-5,1.21e-4 -0.253387,1.144681 -0.451701,-0.493218 0.201332,0.637788 -1.11809,-0.352949 0.01989,0.0182 -0.01374,-0.0043 3.7e-5,3.1e-5 0.851267,0.779524 -0.645789,0.142958 0.03441,0.0076 -0.02827,0.0063 0.635884,0.140754 -0.853689,0.781759 0.03247,-0.01028 -0.02633,0.02408 v -3e-5 5.7e-5 l 1.106361,-0.349245 -0.19578,0.62021 0.01605,-0.01746 -0.01,0.03136 v -6.1e-5 l -3.6e-5,1.23e-4 0.449212,-0.490566 0.24971,1.128088 2.8e-5,5.6e-5 0.0016,-0.007 0.0047,0.02083 0.253378,-1.144769 0.451711,0.49325 -0.201334,-0.637788 1.11811,0.352945 -0.01987,-0.0182 0.01369,0.0043 -0.745674,-0.682826 -0.105657,-0.09676 0.645846,-0.142924 -0.0344,-0.0076 0.02823,-0.0063 -0.635874,-0.140749 0.853709,-0.781733 v 3.1e-5 -5.9e-5 l -0.0325,0.01028 0.02636,-0.02415 -1.106393,0.349248 0.195779,-0.62021 -0.01609,0.01748 0.01,-0.03143 -4e-5,2.8e-5 -0.449191,0.490537 -0.249713,-1.128147 -0.0014,0.0066 v 4.62e-4 z m -10.84399,2.9e-5 -0.0047,0.02088 -0.0016,-0.007 -0.24972,1.128145 -0.0953,-0.104068 -0.353938,-0.386436 0.01,0.03139 -0.01609,-0.0175 0.166064,0.525992 0.02975,0.09423 -1.106391,-0.34925 0.02635,0.02415 -0.03253,-0.01028 0.85372,0.781765 -0.635885,0.140749 0.02824,0.0063 -0.03441,0.0076 0.645847,0.142929 -0.851333,0.779586 0.01365,-0.0043 -0.01975,0.01811 -5.8e-5,5.8e-5 1.118119,-0.352949 -0.201371,0.637791 0.45174,-0.493251 0.253386,1.144775 0.0046,-0.0209 0.0016,0.0071 0.249712,-1.128142 0.09359,0.102224 0.355611,0.388283 -0.01,-0.03139 0.01609,0.01752 -0.195788,-0.62021 1.106363,0.349245 v -5.7e-5 l -0.02627,-0.02408 0.0325,0.01028 -0.85371,-0.781763 0.635903,-0.140752 -0.02823,-0.0063 0.03441,-0.0076 -0.645856,-0.142958 0.851248,-0.779496 v -5.7e-5 l -0.01371,0.0043 0.01987,-0.0182 -1.11808,0.35295 0.201331,-0.63779 -0.45171,0.493249 z m 5.421995,1.149754 -0.253385,1.144769 -0.451731,-0.493281 0.0073,0.02319 -0.0073,-0.0079 0.196015,0.62093 -0.366703,-0.115739 -0.74607,-0.23554 v 5.8e-5 l 0.02528,0.02319 -0.02534,-0.0081 0.851321,0.779555 -0.639661,0.141587 0.03438,0.0076 -0.03438,0.0076 v 3e-5 l 0.465402,0.103018 0.174174,0.03857 -0.851303,0.779553 0.02534,-0.0081 -0.02534,0.02323 1.112772,-0.351246 -0.196014,0.620928 0.0073,-0.0079 -0.0073,0.02318 0.45173,-0.493278 0.253394,1.144772 0.253349,-1.144772 0.45173,0.493278 -0.0073,-0.02318 0.0073,0.0079 -0.195993,-0.620928 1.112752,0.351246 -0.02533,-0.02323 0.02533,0.0081 -0.851304,-0.779553 0.174173,-0.03857 0.465469,-0.10305 -0.03438,-0.0076 0.03438,-0.0076 -0.63967,-0.141586 0.851332,-0.779555 -0.02533,0.0081 0.02528,-0.02319 v -5.8e-5 l -0.746796,0.235748 -0.365959,0.115531 0.195995,-0.62093 -0.0073,0.0079 0.0073,-0.02319 -0.451739,0.493281 z" />
  </g>
</svg>
