<?xml version="1.0" encoding="UTF-8" standalone="no"?>
<svg
   xmlns:osb="http://www.openswatchbook.org/uri/2009/osb"
   xmlns:dc="http://purl.org/dc/elements/1.1/"
   xmlns:cc="http://creativecommons.org/ns#"
   xmlns:rdf="http://www.w3.org/1999/02/22-rdf-syntax-ns#"
   xmlns:svg="http://www.w3.org/2000/svg"
   xmlns="http://www.w3.org/2000/svg"
   xmlns:sodipodi="http://sodipodi.sourceforge.net/DTD/sodipodi-0.dtd"
   xmlns:inkscape="http://www.inkscape.org/namespaces/inkscape"
   width="256"
   height="256"
   viewBox="0 0 67.733332 67.733335"
   version="1.1"
   id="svg8"
   inkscape:version="1.0.1 (3bc2e813f5, 2020-09-07)"
   sodipodi:docname="target-xwing.svg"
   inkscape:export-filename="C:\Users\keath\Workspace\KMX\elite-streamdeck-icons\srv.png"
   inkscape:export-xdpi="96"
   inkscape:export-ydpi="96">
  <defs
     id="defs2">
    <linearGradient
       id="linearGradient1429"
       osb:paint="solid">
      <stop
         style="stop-color:#000000;stop-opacity:1;"
         offset="0"
         id="stop1427" />
    </linearGradient>
  </defs>
  <sodipodi:namedview
     id="base"
     pagecolor="#000000"
     bordercolor="#666666"
     borderopacity="1"
     inkscape:pageopacity="0"
     inkscape:pageshadow="2"
     inkscape:zoom="5.6"
     inkscape:cx="124.95392"
     inkscape:cy="97.839439"
     inkscape:document-units="px"
     inkscape:current-layer="layer2"
     showgrid="true"
     units="px"
     inkscape:snap-grids="true"
     objecttolerance="10000"
     guidetolerance="10000"
     inkscape:window-width="2321"
     inkscape:window-height="1879"
     inkscape:window-x="5253"
     inkscape:window-y="109"
     inkscape:window-maximized="0"
     inkscape:document-rotation="0"
     showguides="true"
     showborder="true"
     borderlayer="false"
     inkscape:snap-to-guides="true"
     inkscape:guide-bbox="true"
     inkscape:object-nodes="false">
    <inkscape:grid
       type="xygrid"
       id="grid4623" />
    <sodipodi:guide
       position="-3.96875,62.441667"
       orientation="0,256"
       id="guide3351" />
    <sodipodi:guide
       position="62.177083,70.379167"
       orientation="256,0"
       id="guide3353" />
    <sodipodi:guide
       position="-2.6458333,22.754167"
       orientation="0,-256"
       id="guide3355" />
    <sodipodi:guide
       position="5.2916667,70.379167"
       orientation="-256,0"
       id="guide3357" />
    <sodipodi:guide
       position="0,67.733334"
       orientation="0,256"
       id="guide3359" />
    <sodipodi:guide
       position="67.733334,67.733334"
       orientation="256,0"
       id="guide3361" />
    <sodipodi:guide
       position="67.733334,0"
       orientation="0,-256"
       id="guide3363" />
    <sodipodi:guide
       position="0,0"
       orientation="-256,0"
       id="guide3365" />
    <sodipodi:guide
       position="0,67.733334"
       orientation="0,256"
       id="guide3367" />
    <sodipodi:guide
       position="67.733334,67.733334"
       orientation="256,0"
       id="guide3369" />
    <sodipodi:guide
       position="67.733334,0"
       orientation="0,-256"
       id="guide3371" />
    <sodipodi:guide
       position="0,0"
       orientation="-256,0"
       id="guide3373" />
    <sodipodi:guide
       position="0,67.733334"
       orientation="0,256"
       id="guide3375" />
    <sodipodi:guide
       position="67.733334,67.733334"
       orientation="256,0"
       id="guide3377" />
    <sodipodi:guide
       position="67.733334,0"
       orientation="0,-256"
       id="guide3379" />
    <sodipodi:guide
       position="0,0"
       orientation="-256,0"
       id="guide3381" />
    <sodipodi:guide
       position="33.602083,56.885417"
       orientation="1,0"
       id="guide878" />
  </sodipodi:namedview>
  <metadata
     id="metadata5">
    <rdf:RDF>
      <cc:Work
         rdf:about="">
        <dc:format>image/svg+xml</dc:format>
        <dc:type
           rdf:resource="http://purl.org/dc/dcmitype/StillImage" />
        <dc:title></dc:title>
      </cc:Work>
    </rdf:RDF>
  </metadata>
  <g
     inkscape:groupmode="layer"
     id="layer2"
     inkscape:label="Icon">
    <path
       id="rect859"
       style="fill:#808080;stroke:none;stroke-width:2.66615;stroke-linecap:round;stroke-linejoin:round;paint-order:markers fill stroke"
       d="M 5.2916667,5.2916667 V 18.110351 H 8.5735816 V 8.2075425 H 21.395403 V 5.2916667 Z m 40.7816783,0 v 2.9158758 h 12.821821 v 9.9028085 h 3.281917 V 5.2916667 Z M 5.2916667,32.160485 V 44.979166 H 21.395403 V 42.063144 H 8.5735816 v -9.902659 z m 53.6034993,0 v 9.902659 H 46.073345 v 2.916022 H 62.177083 V 32.160485 Z" />
    <path
       id="path1539"
       style="fill:#808080;fill-opacity:1;stroke:none;stroke-width:5.42444;stroke-linecap:round;stroke-miterlimit:4;stroke-dasharray:none;stroke-dashoffset:6.00002;stroke-opacity:1;paint-order:markers fill stroke"
       d="m 32.46272,9.0086712 -0.653121,1.1124088 -0.226041,2.812305 0.403098,0.09038 0.796502,-0.69243 0.662561,-0.08865 a 0.13062442,0.11124084 0 0 1 0.01352,-0.0015 0.13062442,0.11124084 0 0 1 0.0048,-2.23e-4 0.13062442,0.11124084 0 0 1 0.05944,0.01151 0.13062442,0.11124084 0 0 1 0.05612,-0.0113 0.13062442,0.11124084 0 0 1 0.02117,0.0015 l 0.663576,0.08865 0.788592,0.685479 0.372484,-0.08343 -0.226042,-2.812306 -0.65312,-1.1124078 h -0.777368 -0.528876 z m 1.060558,3.4434668 a 0.13062442,0.11124084 0 0 1 -0.03623,0.0098 l -0.57837,0.078 -0.786042,0.683307 a 0.13062442,0.11124084 0 0 1 -0.120419,0.03063 l -1.296292,14.447832 0.34646,0.373478 -0.184711,1.966488 -0.369423,-0.03931 v -1.042239 h -3.255908 v 1.081555 h -8.636259 v -1.1011 l -0.415599,-0.39347 -0.128073,-8.647884 h 0.476318 a 0.26124789,0.22248087 0 0 0 0.261249,-0.22248 0.26124789,0.22248087 0 0 0 -0.261249,-0.2227 h -0.482697 l -0.02705,-1.820698 h -0.554387 l -0.03852,1.820698 h -0.41024 a 0.26124789,0.22248087 0 0 0 -0.261504,0.2227 0.26124789,0.22248087 0 0 0 0.261504,0.222481 h 0.400803 l -0.182926,8.647886 -0.484739,0.491673 v 1.258631 l -0.415855,0.176853 0.184711,2.792537 0.323501,0.23595 0.04617,1.120883 0.392384,0.353928 h 0.484994 l 0.531171,-0.275277 0.115317,-0.511231 8.543904,2.241764 0.738844,-0.432579 v 4.267126 h 2.447675 v -4.50308 l 1.016165,1.926941 h 1.948394 0.776349 1.948395 l 1.016164,-1.926941 v 4.50308 h 2.447677 v -4.267143 l 0.738844,0.432579 8.543904,-2.241765 0.115315,0.511232 0.531173,0.275278 h 0.484993 l 0.392384,-0.353929 0.04618,-1.120883 0.3235,-0.23595 0.184712,-2.792538 -0.415857,-0.176853 V 29.038767 L 49.76534,28.547095 49.582416,19.899209 h 0.400803 a 0.26124789,0.22248087 0 0 0 0.261505,-0.222481 0.26124789,0.22248087 0 0 0 -0.261505,-0.222699 h -0.41024 L 49.534449,17.63333 H 48.98006 l -0.02705,1.820699 h -0.482696 a 0.26124789,0.22248087 0 0 0 -0.261248,0.222699 0.26124789,0.22248087 0 0 0 0.261248,0.222481 h 0.476321 l -0.128071,8.647886 -0.415601,0.393472 v 1.101109 H 39.766714 V 28.960117 H 36.5108 v 1.042231 l -0.369422,0.03931 -0.184712,-1.966486 0.346461,-0.373483 -1.296038,-14.445656 a 0.13062442,0.11124084 0 0 1 -0.08317,-0.0328 l -0.785787,-0.683306 -0.577605,-0.078 a 0.13062442,0.11124084 0 0 1 -0.03724,-0.0098 z m -0.416111,9.661654 0.351054,0.0039 0.351052,-0.0039 -2.6e-4,0.0078 0.555407,0.0061 0.489842,2.92007 v 1.293174 l -0.473513,0.973359 -0.922536,-0.01173 -0.922534,0.01173 -0.473513,-0.973356 v -1.293174 l 0.489841,-2.920072 0.555409,-0.0061 z m 0.440604,5.895328 c 0.611657,0 1.111071,0.425087 1.111071,0.94598 0,0.520893 -0.499414,0.94511 -1.111071,0.94511 -0.61166,0 -1.109798,-0.424217 -1.109798,-0.94511 0,-0.520893 0.498138,-0.94598 1.109798,-0.94598 z m 0,0.222478 c -0.470471,0 -0.848294,0.322846 -0.848294,0.723502 0,0.400656 0.377823,0.722631 0.848294,0.722631 0.470468,0 0.849566,-0.321975 0.849566,-0.722631 0,-0.400656 -0.379098,-0.723502 -0.849566,-0.723502 z" />
  </g>
</svg>
