<?xml version="1.0" encoding="UTF-8" standalone="no"?>
<svg
   xmlns:osb="http://www.openswatchbook.org/uri/2009/osb"
   xmlns:dc="http://purl.org/dc/elements/1.1/"
   xmlns:cc="http://creativecommons.org/ns#"
   xmlns:rdf="http://www.w3.org/1999/02/22-rdf-syntax-ns#"
   xmlns:svg="http://www.w3.org/2000/svg"
   xmlns="http://www.w3.org/2000/svg"
   xmlns:sodipodi="http://sodipodi.sourceforge.net/DTD/sodipodi-0.dtd"
   xmlns:inkscape="http://www.inkscape.org/namespaces/inkscape"
   width="256"
   height="256"
   viewBox="0 0 67.733332 67.733335"
   version="1.1"
   id="svg8"
   inkscape:version="1.0.1 (3bc2e813f5, 2020-09-07)"
   sodipodi:docname="target-tie.svg"
   inkscape:export-filename="C:\Users\keath\Workspace\KMX\elite-streamdeck-icons\srv.png"
   inkscape:export-xdpi="96"
   inkscape:export-ydpi="96">
  <defs
     id="defs2">
    <linearGradient
       id="linearGradient1429"
       osb:paint="solid">
      <stop
         style="stop-color:#000000;stop-opacity:1;"
         offset="0"
         id="stop1427" />
    </linearGradient>
  </defs>
  <sodipodi:namedview
     id="base"
     pagecolor="#000000"
     bordercolor="#666666"
     borderopacity="1"
     inkscape:pageopacity="0"
     inkscape:pageshadow="2"
     inkscape:zoom="5.6"
     inkscape:cx="124.95392"
     inkscape:cy="97.839439"
     inkscape:document-units="px"
     inkscape:current-layer="layer2"
     showgrid="true"
     units="px"
     inkscape:snap-grids="true"
     objecttolerance="10000"
     guidetolerance="10000"
     inkscape:window-width="2321"
     inkscape:window-height="1879"
     inkscape:window-x="5253"
     inkscape:window-y="109"
     inkscape:window-maximized="0"
     inkscape:document-rotation="0"
     showguides="true"
     showborder="true"
     borderlayer="false"
     inkscape:snap-to-guides="true"
     inkscape:guide-bbox="true"
     inkscape:object-nodes="false">
    <inkscape:grid
       type="xygrid"
       id="grid4623" />
    <sodipodi:guide
       position="-3.96875,62.441667"
       orientation="0,256"
       id="guide3351" />
    <sodipodi:guide
       position="62.177083,70.379167"
       orientation="256,0"
       id="guide3353" />
    <sodipodi:guide
       position="-2.6458333,22.754167"
       orientation="0,-256"
       id="guide3355" />
    <sodipodi:guide
       position="5.2916667,70.379167"
       orientation="-256,0"
       id="guide3357" />
    <sodipodi:guide
       position="0,67.733334"
       orientation="0,256"
       id="guide3359" />
    <sodipodi:guide
       position="67.733334,67.733334"
       orientation="256,0"
       id="guide3361" />
    <sodipodi:guide
       position="67.733334,0"
       orientation="0,-256"
       id="guide3363" />
    <sodipodi:guide
       position="0,0"
       orientation="-256,0"
       id="guide3365" />
    <sodipodi:guide
       position="0,67.733334"
       orientation="0,256"
       id="guide3367" />
    <sodipodi:guide
       position="67.733334,67.733334"
       orientation="256,0"
       id="guide3369" />
    <sodipodi:guide
       position="67.733334,0"
       orientation="0,-256"
       id="guide3371" />
    <sodipodi:guide
       position="0,0"
       orientation="-256,0"
       id="guide3373" />
    <sodipodi:guide
       position="0,67.733334"
       orientation="0,256"
       id="guide3375" />
    <sodipodi:guide
       position="67.733334,67.733334"
       orientation="256,0"
       id="guide3377" />
    <sodipodi:guide
       position="67.733334,0"
       orientation="0,-256"
       id="guide3379" />
    <sodipodi:guide
       position="0,0"
       orientation="-256,0"
       id="guide3381" />
    <sodipodi:guide
       position="33.602083,56.885417"
       orientation="1,0"
       id="guide878" />
  </sodipodi:namedview>
  <metadata
     id="metadata5">
    <rdf:RDF>
      <cc:Work
         rdf:about="">
        <dc:format>image/svg+xml</dc:format>
        <dc:type
           rdf:resource="http://purl.org/dc/dcmitype/StillImage" />
        <dc:title></dc:title>
      </cc:Work>
    </rdf:RDF>
  </metadata>
  <g
     inkscape:groupmode="layer"
     id="layer2"
     inkscape:label="Icon">
    <path
       id="rect859"
       style="fill:#808080;stroke:none;stroke-width:2.66615;stroke-linecap:round;stroke-linejoin:round;paint-order:markers fill stroke"
       d="M 5.2916667,5.2916667 V 18.110351 H 8.5735816 V 8.2075425 H 21.395403 V 5.2916667 Z m 40.7816783,0 v 2.9158758 h 12.821821 v 9.9028085 h 3.281917 V 5.2916667 Z M 5.2916667,32.160485 V 44.979166 H 21.395403 V 42.063144 H 8.5735816 v -9.902659 z m 53.6034993,0 v 9.902659 H 46.073345 v 2.916022 H 62.177083 V 32.160485 Z" />
    <path
       id="path1797-8"
       style="fill:#808080;fill-opacity:1;stroke:none;stroke-width:0.208439;stroke-linecap:round;stroke-miterlimit:4;stroke-dasharray:none;stroke-dashoffset:6.00002;stroke-opacity:1;paint-order:markers fill stroke"
       d="m 20.842986,11.56995 -0.09667,2.092448 -0.411019,0.375567 v 7.779608 c 0,0 -0.290246,-0.107299 -0.362782,0.295088 -0.07253,0.402398 -0.265908,0.777962 -0.265908,0.777962 l -0.02414,0.617005 0.193353,0.268258 -0.314345,0.134132 -0.290026,0.563354 v 1.019401 l 0.556132,0.456044 0.144915,1.529094 0.266103,0.402394 0.0241,7.779611 0.495636,0.536526 0.145114,2.226345 0.72536,-0.01342 0.108733,-2.092221 0.483578,-0.710889 v -6.948008 l 0.435334,-0.321914 0.193353,-0.5097 0.290225,-0.40239 0.07236,-0.617005 v -0.214602 l 1.281492,-0.10731 0.362784,-0.295084 0.169229,0.02681 0.290027,0.402394 0.604567,0.187784 h 0.749486 l 0.07255,0.348743 h 0.94303 l 0.580254,0.509698 0.452535,0.133921 c -0.46457,-0.859649 -0.708978,-1.833152 -0.708956,-2.82388 7.4e-5,-1.207929 0.363373,-2.384385 1.037139,-3.358521 l -0.925833,0.200361 -0.507695,0.375566 -0.846353,0.134132 -0.435139,0.375568 -1.039709,0.107299 -0.21767,0.536526 -0.36258,0.02685 -0.145115,-0.29509 H 23.236704 V 22.27361 l -0.217669,-0.08047 -0.241787,-0.777961 -0.507695,-0.64383 v -6.679732 l -0.532015,-0.402398 -0.07255,-2.119273 z m 24.460305,0 -0.07255,2.119276 -0.532012,0.402391 v 6.679732 l -0.507694,0.64383 -0.241791,0.777962 -0.217666,0.08047 v 0.80479 h -1.329733 l -0.145109,0.295087 -0.362584,-0.02685 -0.217669,-0.536525 -1.039706,-0.107299 -0.435139,-0.375566 -0.846357,-0.134132 -0.507696,-0.375566 -0.925832,-0.200361 c 0.67377,0.974133 1.037069,2.150594 1.037137,3.358525 2.4e-5,0.990729 -0.244379,1.964227 -0.708954,2.82388 l 0.452539,-0.13392 0.580249,-0.509702 h 0.943035 l 0.07255,-0.34874 h 0.749482 l 0.604569,-0.187783 0.290026,-0.402398 0.169233,-0.02681 0.362779,0.295092 1.281496,0.107299 v 0.21461 l 0.07235,0.617007 0.290224,0.402385 0.193352,0.509704 0.435336,0.321915 v 6.947995 l 0.483577,0.710893 0.108734,2.092214 0.725365,0.01342 0.145111,-2.226341 0.495636,-0.53652 0.02414,-7.779608 0.266102,-0.402394 0.144915,-1.529094 0.556132,-0.456047 V 24.473375 L 47.406839,23.910022 47.092498,23.77589 47.28585,23.507631 47.26171,22.890624 c 0,0 -0.193376,-0.375566 -0.265909,-0.777962 -0.07254,-0.402394 -0.36278,-0.295085 -0.36278,-0.295085 v -7.779622 l -0.411022,-0.375567 -0.09667,-2.092448 z m -24.217328,1.192097 h 0.324819 v 24.470138 h -0.324819 z m 24.471572,0 h 0.324822 v 24.470138 h -0.324822 z m -12.06784,6.681403 c -2.86846,0 -5.20071,2.471768 -5.20071,5.512587 4e-6,3.040815 2.332253,5.512793 5.20071,5.512793 2.868455,0 5.20071,-2.471978 5.20071,-5.512793 0,-3.040819 -2.332251,-5.512587 -5.20071,-5.512587 z m -0.892816,0.851733 h 1.628265 v 0.720955 h -1.628265 z m 3.691859,0.799339 c 0.07712,0.06284 0.152067,0.128361 0.225184,0.196166 l -0.981785,1.089611 C 35.049256,21.9493 34.444025,21.668319 33.780118,21.60422 h 1.966131 z m -5.707417,0.09117 0.369307,0.361525 2.250226,0.0568 c -0.703578,0.06756 -1.341662,0.378752 -1.837822,0.853827 l -0.992853,-1.077032 c 0.0686,-0.06727 0.138745,-0.132345 0.211142,-0.195119 z m 6.217485,0.392965 c 0.484564,0.533294 0.85562,1.18307 1.071143,1.907177 l -1.377183,0.377457 c -0.145553,-0.448552 -0.377616,-0.854433 -0.675739,-1.19503 z m -14.77258,0.0042 h 0.32502 v 6.506207 h -0.32502 z m 22.590846,0 h 0.32502 v 6.50621 h -0.32502 z m -14.524861,0.09389 0.995819,1.079755 c -0.289444,0.354759 -0.510387,0.773899 -0.640552,1.234427 l -1.37362,-0.376402 c 0.196697,-0.730897 0.548959,-1.391618 1.018353,-1.93778 z m 3.542598,0.345807 c 0.61424,0.03346 1.175079,0.278049 1.619166,0.666678 l -0.986527,1.094422 c -0.183087,-0.137103 -0.398913,-0.227766 -0.632639,-0.25444 z m -0.393623,0.0086 v 1.515054 c -0.225045,0.04467 -0.430785,0.148054 -0.602194,0.295509 L 31.644755,22.76343 c 0.431734,-0.408402 0.985155,-0.674897 1.596431,-0.732276 z m 2.297479,0.946046 c 0.415915,0.483845 0.680801,1.115888 0.717059,1.813914 H 34.83386 C 34.80444,24.521498 34.703996,24.27458 34.552929,24.071219 Z m -4.168319,0.08571 1.001352,1.085837 c -0.120885,0.1873 -0.200422,0.40638 -0.22617,0.642361 h -1.421862 c 0.03417,-0.657613 0.271539,-1.256425 0.64668,-1.728186 z m 6.576707,0.715298 c 0.08813,0.377136 0.135821,0.771436 0.135821,1.177837 0,0.464641 -0.06256,0.913246 -0.176747,1.338592 l -1.323012,-0.580109 c 0.05317,-0.243964 0.08224,-0.497614 0.08225,-0.758471 0,-0.276168 -0.03214,-0.544446 -0.09154,-0.801428 z m -8.943183,0.130567 1.373624,0.376617 c -0.04148,0.216794 -0.06347,0.441045 -0.06347,0.670653 0,0.300502 0.0378,0.591708 0.107743,0.869132 l -1.319452,0.578441 c -0.133718,-0.457174 -0.205806,-0.943267 -0.205806,-1.447573 0,-0.359789 0.0378,-0.709907 0.107345,-1.04727 z m 4.485825,0.04129 c 0.526497,0 0.948966,0.447849 0.948963,1.00598 0,0.558129 -0.422466,1.005985 -0.948963,1.005985 -0.526495,0 -0.94896,-0.447856 -0.94896,-1.005985 -4e-6,-0.558131 0.422461,-1.00598 0.94896,-1.00598 z m -2.76741,1.144516 h 1.42008 c 0.02524,0.276499 0.125775,0.529769 0.27856,0.73835 L 31.4344,26.927995 c -0.417472,-0.489129 -0.681372,-1.128516 -0.712115,-1.833403 z m 4.11474,0 h 1.420084 c -0.03145,0.72114 -0.307292,1.373252 -0.741575,1.866528 L 34.521099,25.88261 c 0.174071,-0.217272 0.288659,-0.489323 0.315926,-0.788018 z m 1.668592,0.914396 1.313721,0.576134 c -0.222038,0.664767 -0.57623,1.262237 -1.029228,1.758179 l -0.99305,-1.07703 c 0.31648,-0.355201 0.560926,-0.782955 0.708557,-1.257272 z m -5.997443,0.106673 c 0.145403,0.419153 0.367511,0.798998 0.647865,1.121259 l -0.98198,1.089535 c -0.421714,-0.466068 -0.756436,-1.020768 -0.977235,-1.635935 z m 2.196651,0.0065 c 0.157403,0.119513 0.339255,0.204403 0.536361,0.243532 v 1.515693 c -0.576818,-0.05417 -1.102325,-0.294522 -1.522491,-0.664785 z m 1.520319,0.03626 1.001945,1.08667 c -0.439814,0.375518 -0.990155,0.611865 -1.59228,0.644669 V 26.38246 c 0.215908,-0.02462 0.416606,-0.104078 0.590335,-0.22404 z m -2.784813,1.366891 c 0.267747,0.240454 0.573413,0.43452 0.906061,0.571105 v 1.576879 c -0.710754,-0.192389 -1.35393,-0.561102 -1.887843,-1.058337 z m 4.069668,0.0266 0.994237,1.078288 c -0.560892,0.51736 -1.24138,0.892188 -1.992626,1.072631 v -1.559695 c 0.367429,-0.132785 0.705184,-0.334257 0.998389,-0.591224 z m -2.698418,0.693289 c 0.139981,0.0324 0.283451,0.05459 0.429605,0.06665 v 0.746937 h -0.429605 z m 1.252633,0.02202 v 0.791794 h -0.429405 v -0.739556 c 0.14597,-0.0069 0.289172,-0.0249 0.429405,-0.05218 z"
       sodipodi:nodetypes="ccccscccccccccccccccccccccccccccccccccccccccccccccccccccccccccccccccccccccccccccccccccccccccccccccccccccscccccccccccccccsssssccccccccccccccccccccccccccccccccccccccccccccccccccccccccccsccsccccsccscssssscccccccccccccccccccccccccccccccccccccccccccccccccc" />
  </g>
</svg>
