<?xml version="1.0" encoding="UTF-8" standalone="no"?>
<svg
   xmlns:osb="http://www.openswatchbook.org/uri/2009/osb"
   xmlns:dc="http://purl.org/dc/elements/1.1/"
   xmlns:cc="http://creativecommons.org/ns#"
   xmlns:rdf="http://www.w3.org/1999/02/22-rdf-syntax-ns#"
   xmlns:svg="http://www.w3.org/2000/svg"
   xmlns="http://www.w3.org/2000/svg"
   xmlns:sodipodi="http://sodipodi.sourceforge.net/DTD/sodipodi-0.dtd"
   xmlns:inkscape="http://www.inkscape.org/namespaces/inkscape"
   width="256"
   height="256"
   viewBox="0 0 67.733332 67.733335"
   version="1.1"
   id="svg8"
   inkscape:version="1.0.1 (3bc2e813f5, 2020-09-07)"
   sodipodi:docname="target-squadron-xwing.svg"
   inkscape:export-filename="C:\Users\keath\Workspace\KMX\elite-streamdeck-icons\srv.png"
   inkscape:export-xdpi="96"
   inkscape:export-ydpi="96">
  <defs
     id="defs2">
    <linearGradient
       id="linearGradient1429"
       osb:paint="solid">
      <stop
         style="stop-color:#000000;stop-opacity:1;"
         offset="0"
         id="stop1427" />
    </linearGradient>
  </defs>
  <sodipodi:namedview
     id="base"
     pagecolor="#000000"
     bordercolor="#666666"
     borderopacity="1"
     inkscape:pageopacity="0"
     inkscape:pageshadow="2"
     inkscape:zoom="3.959798"
     inkscape:cx="160.72425"
     inkscape:cy="67.137753"
     inkscape:document-units="px"
     inkscape:current-layer="layer2"
     showgrid="true"
     units="px"
     inkscape:snap-grids="true"
     objecttolerance="10000"
     guidetolerance="10000"
     inkscape:window-width="2321"
     inkscape:window-height="1879"
     inkscape:window-x="5253"
     inkscape:window-y="109"
     inkscape:window-maximized="0"
     inkscape:document-rotation="0"
     showguides="true"
     showborder="true"
     borderlayer="false"
     inkscape:snap-to-guides="true"
     inkscape:guide-bbox="true"
     inkscape:object-nodes="false">
    <inkscape:grid
       type="xygrid"
       id="grid4623" />
    <sodipodi:guide
       position="-3.96875,62.441667"
       orientation="0,256"
       id="guide3351" />
    <sodipodi:guide
       position="62.177083,70.379167"
       orientation="256,0"
       id="guide3353" />
    <sodipodi:guide
       position="-2.6458333,22.754167"
       orientation="0,-256"
       id="guide3355" />
    <sodipodi:guide
       position="5.2916667,70.379167"
       orientation="-256,0"
       id="guide3357" />
    <sodipodi:guide
       position="0,67.733334"
       orientation="0,256"
       id="guide3359" />
    <sodipodi:guide
       position="67.733334,67.733334"
       orientation="256,0"
       id="guide3361" />
    <sodipodi:guide
       position="67.733334,0"
       orientation="0,-256"
       id="guide3363" />
    <sodipodi:guide
       position="0,0"
       orientation="-256,0"
       id="guide3365" />
    <sodipodi:guide
       position="0,67.733334"
       orientation="0,256"
       id="guide3367" />
    <sodipodi:guide
       position="67.733334,67.733334"
       orientation="256,0"
       id="guide3369" />
    <sodipodi:guide
       position="67.733334,0"
       orientation="0,-256"
       id="guide3371" />
    <sodipodi:guide
       position="0,0"
       orientation="-256,0"
       id="guide3373" />
    <sodipodi:guide
       position="0,67.733334"
       orientation="0,256"
       id="guide3375" />
    <sodipodi:guide
       position="67.733334,67.733334"
       orientation="256,0"
       id="guide3377" />
    <sodipodi:guide
       position="67.733334,0"
       orientation="0,-256"
       id="guide3379" />
    <sodipodi:guide
       position="0,0"
       orientation="-256,0"
       id="guide3381" />
    <sodipodi:guide
       position="33.602083,56.885417"
       orientation="1,0"
       id="guide878" />
  </sodipodi:namedview>
  <metadata
     id="metadata5">
    <rdf:RDF>
      <cc:Work
         rdf:about="">
        <dc:format>image/svg+xml</dc:format>
        <dc:type
           rdf:resource="http://purl.org/dc/dcmitype/StillImage" />
        <dc:title></dc:title>
      </cc:Work>
    </rdf:RDF>
  </metadata>
  <g
     inkscape:groupmode="layer"
     id="layer2"
     inkscape:label="Icon">
    <path
       id="rect859"
       style="fill:#808080;stroke:none;stroke-width:2.66615;stroke-linecap:round;stroke-linejoin:round;paint-order:markers fill stroke"
       d="M 5.2916667,5.2916667 V 18.110351 H 8.5735816 V 8.2075425 H 21.395403 V 5.2916667 Z m 40.7816783,0 v 2.9158758 h 12.821821 v 9.9028085 h 3.281917 V 5.2916667 Z M 5.2916667,32.160485 V 44.979166 H 21.395403 V 42.063144 H 8.5735816 v -9.902659 z m 53.6034993,0 v 9.902659 H 46.073345 v 2.916022 H 62.177083 V 32.160485 Z" />
    <path
       id="path1539"
       style="fill:#808080;fill-opacity:1;stroke:none;stroke-width:2.36705;stroke-linecap:round;stroke-miterlimit:4;stroke-dasharray:none;stroke-dashoffset:6.00002;stroke-opacity:1;paint-order:markers fill stroke"
       d="m 27.335936,13.517058 -0.545021,0.142688 -0.938932,0.799685 0.09622,0.152097 0.459364,0.03129 0.231477,0.176673 a 0.05689859,0.04862849 45 0 1 0.0046,0.0037 0.05689859,0.04862849 45 0 1 0.0016,0.0016 0.05689859,0.04862849 45 0 1 0.01479,0.02185 0.05689859,0.04862849 45 0 1 0.02076,0.01381 0.05689859,0.04862849 45 0 1 0.0061,0.0069 l 0.176986,0.231788 0.03101,0.45478 0.140518,0.08893 0.799684,-0.938932 0.14269,-0.545023 -0.239437,-0.239435 -0.162897,-0.162898 z m -0.737745,1.391065 a 0.05689859,0.04862849 45 0 1 -0.01417,-0.0081 l -0.202252,-0.154032 -0.453324,-0.0309 a 0.05689859,0.04862849 45 0 1 -0.04657,-0.02762 l -4.865221,4.066685 -0.0087,0.222157 -0.66475,0.550966 -0.101623,-0.125943 0.322163,-0.322165 -1.002848,-1.002847 -0.334318,0.334319 -2.660038,-2.66004 0.340351,-0.340349 -0.0064,-0.249633 2.633688,-2.712588 0.14671,0.146711 a 0.11379676,0.09725662 45 0 0 0.149239,0.01171 0.11379676,0.09725662 45 0 0 -0.01158,-0.149305 l -0.148671,-0.14867 0.554467,-0.571122 -0.170756,-0.170755 -0.57466,0.550926 -0.126361,-0.126361 a 0.11379676,0.09725662 45 0 0 -0.149383,-0.01172 0.11379676,0.09725662 45 0 0 0.01171,0.149317 l 0.123447,0.123446 -2.729478,2.616796 -0.301286,0.0027 -0.389053,0.389055 -0.182752,-0.07342 -0.806304,0.920089 0.0267,0.172574 -0.332258,0.360693 0.01144,0.230261 0.149381,0.149381 0.248697,0.07851 0.193544,-0.122511 1.938643,3.32454 0.361282,0.09385 -1.319004,1.319006 0.753903,0.753904 1.391941,-1.391941 -0.282647,0.908624 0.60012,0.60012 0.239121,0.239122 0.600122,0.600121 0.908621,-0.282648 -1.391939,1.391941 0.753903,0.753904 1.319012,-1.319011 0.09385,0.361284 3.324541,1.938642 -0.122512,0.193546 0.07851,0.248696 0.149383,0.149383 0.230258,0.01144 0.360699,-0.332249 0.172576,0.0267 0.920089,-0.806306 -0.07342,-0.18275 0.389055,-0.389055 0.0027,-0.301282 2.616797,-2.72948 0.123446,0.123446 a 0.11379676,0.09725662 45 0 0 0.149315,0.01171 0.11379676,0.09725662 45 0 0 -0.01171,-0.149383 L 29.377266,22.01585 29.928193,21.441191 29.757437,21.270433 29.186315,21.8249 29.037641,21.676226 a 0.11379676,0.09725662 45 0 0 -0.149305,-0.01158 0.11379676,0.09725662 45 0 0 0.01171,0.149236 l 0.146712,0.146711 -2.712589,2.633689 -0.249633,-0.0064 -0.340362,0.340363 -2.660037,-2.660038 0.33432,-0.334319 -1.002849,-1.002847 -0.322163,0.322163 -0.125942,-0.101633 0.550964,-0.664748 0.22216,-0.0087 4.066091,-4.864472 a 0.05689859,0.04862849 45 0 1 -0.01548,-0.03576 l -0.03081,-0.453244 -0.153796,-0.202019 a 0.05689859,0.04862849 45 0 1 -0.0084,-0.01448 z m -3.114669,2.858338 0.106943,0.1093 0.109301,0.106944 -0.0025,0.0024 0.16917,0.172969 -0.751744,1.053496 -0.399731,0.399732 -0.446719,0.155026 -0.280543,-0.287752 -0.287754,-0.280544 0.155027,-0.446719 0.399734,-0.399735 1.053496,-0.751745 0.172971,0.169172 z m -1.686589,1.958006 c 0.188396,0.188396 0.21082,0.47362 0.0498,0.634631 -0.161011,0.161014 -0.445965,0.138317 -0.634361,-0.05007 -0.188395,-0.188398 -0.210696,-0.472956 -0.04968,-0.633969 0.161012,-0.161012 0.445841,-0.138988 0.634238,0.04941 z m -0.06878,0.06878 c -0.144908,-0.144907 -0.361076,-0.161485 -0.484923,-0.03764 -0.123851,0.123852 -0.106999,0.339745 0.0379,0.484654 0.144908,0.144908 0.361198,0.162148 0.485046,0.0383 0.12385,-0.123851 0.106873,-0.340406 -0.03805,-0.485316 z" />
    <path
       id="path1539-9"
       style="fill:#808080;fill-opacity:1;stroke:none;stroke-width:2.36705;stroke-linecap:round;stroke-miterlimit:4;stroke-dasharray:none;stroke-dashoffset:6.00002;stroke-opacity:1;paint-order:markers fill stroke"
       d="m 43.123697,29.87989 -0.545021,0.142688 -0.938931,0.799686 0.09622,0.152096 0.459365,0.03129 0.231476,0.176673 a 0.05689859,0.04862849 45 0 1 0.0046,0.0037 0.05689859,0.04862849 45 0 1 0.0016,0.0016 0.05689859,0.04862849 45 0 1 0.01479,0.02185 0.05689859,0.04862849 45 0 1 0.02076,0.01381 0.05689859,0.04862849 45 0 1 0.0061,0.0069 l 0.176987,0.231789 0.03101,0.45478 0.140518,0.08893 0.799673,-0.938933 0.142689,-0.545023 -0.239436,-0.239435 -0.162898,-0.162898 z m -0.737744,1.391066 a 0.05689859,0.04862849 45 0 1 -0.01417,-0.0081 l -0.202253,-0.154031 -0.453323,-0.0309 a 0.05689859,0.04862849 45 0 1 -0.04657,-0.02763 l -4.865222,4.066684 -0.0087,0.222157 -0.664751,0.550966 -0.101633,-0.125944 0.322165,-0.322162 -1.002848,-1.00285 -0.334318,0.33432 -2.66004,-2.660039 0.340351,-0.340351 -0.0064,-0.249632 2.633687,-2.712588 0.146711,0.14671 a 0.11379676,0.09725662 45 0 0 0.149237,0.01171 0.11379676,0.09725662 45 0 0 -0.01158,-0.149304 l -0.148671,-0.14867 0.554466,-0.571121 -0.170756,-0.170757 -0.574659,0.550927 -0.126363,-0.126362 a 0.11379676,0.09725662 45 0 0 -0.149383,-0.01172 0.11379676,0.09725662 45 0 0 0.01171,0.149319 l 0.123446,0.123447 -2.729479,2.616795 -0.301284,0.0027 -0.389054,0.389053 -0.182751,-0.07342 -0.806305,0.92009 0.0267,0.172575 -0.332258,0.360691 0.01143,0.230262 0.149382,0.149381 0.248696,0.07851 0.193544,-0.122512 1.938643,3.324541 0.361283,0.09385 -1.319005,1.319006 0.753903,0.753904 1.391941,-1.39194 -0.282647,0.908623 0.600121,0.60012 0.239121,0.239121 0.600121,0.600122 0.908622,-0.282647 -1.39194,1.39194 0.753903,0.753904 1.319011,-1.319011 0.09385,0.361284 3.324542,1.938642 -0.122511,0.193546 0.07851,0.248697 0.149382,0.149382 0.230259,0.01143 0.3607,-0.33225 0.172574,0.0267 0.920089,-0.806306 -0.07342,-0.18275 0.389053,-0.389054 0.0027,-0.301282 2.616798,-2.72948 0.123446,0.123446 a 0.11379676,0.09725662 45 0 0 0.149316,0.01172 0.11379676,0.09725662 45 0 0 -0.01172,-0.149383 l -0.126362,-0.126363 0.550927,-0.574659 -0.170757,-0.170758 -0.571121,0.554467 -0.148674,-0.148674 a 0.11379676,0.09725662 45 0 0 -0.149305,-0.01158 0.11379676,0.09725662 45 0 0 0.01172,0.149236 l 0.146713,0.146711 -2.712589,2.633689 -0.249633,-0.0064 -0.340363,0.340363 -2.660037,-2.660038 0.33432,-0.334319 -1.002848,-1.002847 -0.322163,0.322163 -0.125944,-0.101633 0.550965,-0.664748 0.222161,-0.0087 4.06609,-4.864472 a 0.05689859,0.04862849 45 0 1 -0.01548,-0.03574 l -0.03084,-0.453243 -0.153796,-0.202019 a 0.05689859,0.04862849 45 0 1 -0.0084,-0.01448 z m -3.11467,2.858337 0.106944,0.109301 0.1093,0.106943 -0.0025,0.0024 0.16917,0.17297 -0.751743,1.053502 -0.399731,0.39973 -0.446719,0.155028 -0.280545,-0.287754 -0.287753,-0.280543 0.155027,-0.446719 0.399735,-0.399735 1.053495,-0.751745 0.172973,0.169171 z M 37.584695,36.0873 c 0.188395,0.188396 0.21082,0.473619 0.0498,0.63463 -0.161012,0.161014 -0.445965,0.138318 -0.634361,-0.05007 -0.188395,-0.188397 -0.210696,-0.472955 -0.04968,-0.633969 0.161012,-0.161012 0.44584,-0.138987 0.634237,0.04941 z m -0.06878,0.06878 c -0.144908,-0.144908 -0.361077,-0.161486 -0.484923,-0.03764 -0.123851,0.123852 -0.107,0.339746 0.0379,0.484654 0.144908,0.144908 0.3612,0.162149 0.485046,0.0383 0.123851,-0.123851 0.106874,-0.340407 -0.03805,-0.485317 z" />
    <path
       id="path1539-4"
       style="fill:#808080;fill-opacity:1;stroke:none;stroke-width:2.36705;stroke-linecap:round;stroke-miterlimit:4;stroke-dasharray:none;stroke-dashoffset:6.00002;stroke-opacity:1;paint-order:markers fill stroke"
       d="m 46.209559,10.386299 -0.545021,0.142688 -0.938932,0.799685 0.09622,0.152098 0.459365,0.03129 0.231475,0.176672 a 0.05689859,0.04862849 45 0 1 0.0046,0.0037 0.05689859,0.04862849 45 0 1 0.0016,0.0016 0.05689859,0.04862849 45 0 1 0.01479,0.02184 0.05689859,0.04862849 45 0 1 0.02076,0.01381 0.05689859,0.04862849 45 0 1 0.0061,0.0069 l 0.176986,0.231787 0.03101,0.454783 0.140518,0.08893 0.799672,-0.938931 0.14269,-0.545023 -0.239437,-0.239436 -0.162897,-0.162897 z m -0.737745,1.391065 a 0.05689859,0.04862849 45 0 1 -0.01417,-0.0081 l -0.202254,-0.154031 -0.453324,-0.0309 a 0.05689859,0.04862849 45 0 1 -0.04657,-0.02762 l -4.865219,4.066683 -0.0087,0.222157 -0.664751,0.550968 -0.101633,-0.125944 0.322163,-0.322164 -1.002847,-1.002848 -0.334318,0.334319 -2.66004,-2.660041 0.340351,-0.340348 -0.0064,-0.249633 2.633688,-2.7125836 0.14671,0.1467107 a 0.11379676,0.09725662 45 0 0 0.149239,0.011715 0.11379676,0.09725662 45 0 0 -0.01158,-0.1493044 L 38.543466,9.1777492 39.097932,8.6066317 38.927176,8.435878 38.352516,8.9868015 38.226155,8.8604401 a 0.11379676,0.09725662 45 0 0 -0.149383,-0.011715 0.11379676,0.09725662 45 0 0 0.01171,0.1493158 l 0.123447,0.1234466 -2.729478,2.6167885 -0.301286,0.0027 -0.389053,0.389055 -0.182752,-0.07342 -0.806304,0.920089 0.0267,0.172575 -0.332258,0.360691 0.01143,0.230261 0.149381,0.149381 0.248697,0.07851 0.193544,-0.122511 1.938643,3.324538 0.361282,0.09385 -1.319004,1.319007 0.753903,0.753903 1.391941,-1.39194 -0.282647,0.908623 0.60012,0.60012 0.239121,0.239121 0.600122,0.600121 0.908621,-0.282647 -1.391939,1.391941 0.753903,0.753904 1.319012,-1.319011 0.09385,0.361285 3.324541,1.938642 -0.122512,0.193546 0.07851,0.248696 0.149383,0.149383 0.230258,0.01144 0.360699,-0.332249 0.172576,0.0267 0.920089,-0.806306 -0.07342,-0.18275 0.389055,-0.389055 0.0027,-0.301283 2.616797,-2.729479 0.123446,0.123446 a 0.11379676,0.09725662 45 0 0 0.149315,0.01171 0.11379676,0.09725662 45 0 0 -0.01171,-0.149383 l -0.126361,-0.126362 0.550927,-0.574659 -0.170756,-0.170759 -0.571122,0.554468 -0.148674,-0.148676 a 0.11379676,0.09725662 45 0 0 -0.149305,-0.01158 0.11379676,0.09725662 45 0 0 0.01171,0.149238 l 0.146713,0.14671 -2.712589,2.633689 -0.249632,-0.0064 -0.340363,0.340362 -2.660036,-2.660037 0.334319,-0.334319 -1.002848,-1.002848 -0.322163,0.322163 -0.125943,-0.101623 0.550965,-0.664747 0.22216,-0.0087 4.06609,-4.864472 a 0.05689859,0.04862849 45 0 1 -0.01548,-0.03576 l -0.03083,-0.453243 -0.153795,-0.202018 a 0.05689859,0.04862849 45 0 1 -0.0084,-0.01448 z m -3.114668,2.858337 0.106943,0.1093 0.109301,0.106944 -0.0025,0.0024 0.169169,0.172971 -0.751744,1.0535 -0.399731,0.399731 -0.446717,0.155027 -0.280545,-0.287753 -0.287752,-0.280544 0.155027,-0.446719 0.399734,-0.399735 1.053495,-0.751744 0.172971,0.169171 z m -1.68659,1.958008 c 0.188397,0.188394 0.210821,0.473618 0.0498,0.634631 -0.161012,0.161012 -0.445965,0.138317 -0.634362,-0.05007 -0.188394,-0.1884 -0.210695,-0.472958 -0.04968,-0.63397 0.161012,-0.161013 0.445842,-0.138987 0.634238,0.04941 z m -0.06878,0.06878 c -0.144907,-0.144907 -0.361076,-0.161486 -0.484922,-0.03764 -0.123852,0.123851 -0.106999,0.339743 0.0379,0.484652 0.144907,0.144907 0.361198,0.162148 0.485045,0.0383 0.123851,-0.123851 0.106873,-0.340406 -0.03805,-0.485316 z" />
  </g>
</svg>
