<?xml version="1.0" encoding="UTF-8" standalone="no"?>
<svg
   xmlns:osb="http://www.openswatchbook.org/uri/2009/osb"
   xmlns:dc="http://purl.org/dc/elements/1.1/"
   xmlns:cc="http://creativecommons.org/ns#"
   xmlns:rdf="http://www.w3.org/1999/02/22-rdf-syntax-ns#"
   xmlns:svg="http://www.w3.org/2000/svg"
   xmlns="http://www.w3.org/2000/svg"
   xmlns:sodipodi="http://sodipodi.sourceforge.net/DTD/sodipodi-0.dtd"
   xmlns:inkscape="http://www.inkscape.org/namespaces/inkscape"
   width="256"
   height="256"
   viewBox="0 0 67.733332 67.733335"
   version="1.1"
   id="svg8"
   inkscape:version="1.0.1 (3bc2e813f5, 2020-09-07)"
   sodipodi:docname="target-flagship-sys-stardestroyer.svg"
   inkscape:export-filename="C:\Users\keath\Workspace\KMX\elite-streamdeck-icons\srv.png"
   inkscape:export-xdpi="96"
   inkscape:export-ydpi="96">
  <defs
     id="defs2">
    <linearGradient
       id="linearGradient1429"
       osb:paint="solid">
      <stop
         style="stop-color:#000000;stop-opacity:1;"
         offset="0"
         id="stop1427" />
    </linearGradient>
  </defs>
  <sodipodi:namedview
     id="base"
     pagecolor="#000000"
     bordercolor="#666666"
     borderopacity="1"
     inkscape:pageopacity="0"
     inkscape:pageshadow="2"
     inkscape:zoom="3.959798"
     inkscape:cx="160.72425"
     inkscape:cy="67.137753"
     inkscape:document-units="px"
     inkscape:current-layer="layer2"
     showgrid="true"
     units="px"
     inkscape:snap-grids="true"
     objecttolerance="10000"
     guidetolerance="10000"
     inkscape:window-width="2321"
     inkscape:window-height="1879"
     inkscape:window-x="5125"
     inkscape:window-y="0"
     inkscape:window-maximized="0"
     inkscape:document-rotation="0"
     showguides="true"
     showborder="true"
     borderlayer="false"
     inkscape:snap-to-guides="true"
     inkscape:guide-bbox="true"
     inkscape:object-nodes="true">
    <inkscape:grid
       type="xygrid"
       id="grid4623" />
    <sodipodi:guide
       position="-3.96875,62.441667"
       orientation="0,256"
       id="guide3351" />
    <sodipodi:guide
       position="62.177083,70.379167"
       orientation="256,0"
       id="guide3353" />
    <sodipodi:guide
       position="-2.6458333,22.754167"
       orientation="0,-256"
       id="guide3355" />
    <sodipodi:guide
       position="5.2916667,70.379167"
       orientation="-256,0"
       id="guide3357" />
    <sodipodi:guide
       position="0,67.733334"
       orientation="0,256"
       id="guide3359" />
    <sodipodi:guide
       position="67.733334,67.733334"
       orientation="256,0"
       id="guide3361" />
    <sodipodi:guide
       position="67.733334,0"
       orientation="0,-256"
       id="guide3363" />
    <sodipodi:guide
       position="0,0"
       orientation="-256,0"
       id="guide3365" />
    <sodipodi:guide
       position="0,67.733334"
       orientation="0,256"
       id="guide3367" />
    <sodipodi:guide
       position="67.733334,67.733334"
       orientation="256,0"
       id="guide3369" />
    <sodipodi:guide
       position="67.733334,0"
       orientation="0,-256"
       id="guide3371" />
    <sodipodi:guide
       position="0,0"
       orientation="-256,0"
       id="guide3373" />
    <sodipodi:guide
       position="0,67.733334"
       orientation="0,256"
       id="guide3375" />
    <sodipodi:guide
       position="67.733334,67.733334"
       orientation="256,0"
       id="guide3377" />
    <sodipodi:guide
       position="67.733334,0"
       orientation="0,-256"
       id="guide3379" />
    <sodipodi:guide
       position="0,0"
       orientation="-256,0"
       id="guide3381" />
    <sodipodi:guide
       position="33.602083,56.885417"
       orientation="1,0"
       id="guide878" />
  </sodipodi:namedview>
  <metadata
     id="metadata5">
    <rdf:RDF>
      <cc:Work
         rdf:about="">
        <dc:format>image/svg+xml</dc:format>
        <dc:type
           rdf:resource="http://purl.org/dc/dcmitype/StillImage" />
        <dc:title></dc:title>
      </cc:Work>
    </rdf:RDF>
  </metadata>
  <g
     inkscape:groupmode="layer"
     id="layer2"
     inkscape:label="Icon">
    <path
       id="rect859"
       style="fill:#808080;stroke:none;stroke-width:2.66615;stroke-linecap:round;stroke-linejoin:round;paint-order:markers fill stroke"
       d="M 5.2916667,5.2916667 V 18.110351 H 8.5735816 V 8.2075425 H 21.395403 V 5.2916667 Z m 40.7816783,0 v 2.9158758 h 12.821821 v 9.9028085 h 3.281917 V 5.2916667 Z M 5.2916667,32.160485 V 44.979166 H 21.395403 V 42.063144 H 8.5735816 v -9.902659 z m 53.6034993,0 v 9.902659 H 46.073345 v 2.916022 H 62.177083 V 32.160485 Z" />
    <g
       id="g911"
       transform="matrix(0.79102301,0,0,0.81414302,8.2573068,2.794939)">
      <path
         id="path4973-7"
         style="color:#000000;font-style:normal;font-variant:normal;font-weight:normal;font-stretch:normal;font-size:medium;line-height:normal;font-family:sans-serif;font-variant-ligatures:normal;font-variant-position:normal;font-variant-caps:normal;font-variant-numeric:normal;font-variant-alternates:normal;font-variant-east-asian:normal;font-feature-settings:normal;font-variation-settings:normal;text-indent:0;text-align:start;text-decoration:none;text-decoration-line:none;text-decoration-style:solid;text-decoration-color:#000000;letter-spacing:normal;word-spacing:normal;text-transform:none;writing-mode:lr-tb;direction:ltr;text-orientation:mixed;dominant-baseline:auto;baseline-shift:baseline;text-anchor:start;white-space:normal;shape-padding:0;shape-margin:0;inline-size:0;clip-rule:nonzero;display:inline;overflow:visible;visibility:visible;opacity:1;isolation:auto;mix-blend-mode:normal;color-interpolation:sRGB;color-interpolation-filters:linearRGB;solid-color:#000000;solid-opacity:1;vector-effect:none;fill:#808080;fill-opacity:0.995885;fill-rule:nonzero;stroke:#808080;stroke-width:0.529167;stroke-linecap:square;stroke-linejoin:miter;stroke-miterlimit:4;stroke-dasharray:none;stroke-dashoffset:6.00002;stroke-opacity:1;paint-order:markers fill stroke;color-rendering:auto;image-rendering:auto;shape-rendering:auto;text-rendering:auto;enable-background:accumulate;stop-color:#000000;stop-opacity:1"
         d="m 11.847856,12.576272 -1.56838,6.290572 -0.9379274,-0.422197 0.00103,0.374138 h -0.344165 v 2.988448 l 0.5441527,0.0155 -1.2965615,5.200199 -0.079582,0.01964 0.037207,0.149862 -0.017053,0.06925 H 8.638229 l -0.017053,-0.06925 0.1943034,-0.780831 0.9151897,0.160713 0.1415934,0.03669 0.00827,-0.03307 h 1.5663125 l -0.05478,0.37362 -0.07028,0.01034 0.02222,0.150378 0.01189,0.08217 -0.0098,0.06925 h 0.327112 l -0.01034,-0.06925 0.135909,-0.920358 H 9.9590819 L 11.09648,21.869244 h 12.522233 l 0.486275,0.500745 h 4.017844 v 4.308781 0.58291 h 0.303855 v -0.279569 h 0.01395 V 26.67877 h -0.01395 v -3.734656 l 3.862298,0.917774 0.990637,3.330546 -0.02067,0.06925 h 0.358119 l -0.02067,-0.06925 0.03152,-0.106454 -0.06925,-0.02067 -1.028877,-3.458187 -4.103111,-0.974618 v -0.565857 h -4.193541 l -0.486275,-0.500744 h -7.378878 l 0.07596,-2.031401 h -4.877221 l -0.602031,2.031401 H 10.861869 L 9.6510902,26.250372 8.8893797,26.11653 12.13776,13.084768 l 17.86196,5.316471 0.39215,1.635633 1.154009,-1.18088 6.652305,1.934765 0.279053,1.212772 6.371703,1.943034 1.235291,-0.871043 13.718319,4.116914 -0.232026,0.06925 h 0.661974 l -0.02067,-0.06925 0.08216,-0.275436 -0.193786,-0.05788 -14.146202,-4.244555 -1.234255,0.869493 -5.969662,-1.820044 -0.280085,-1.215872 -7.10167,-2.054508 -0.732552,0.927887 -0.354425,-1.258763 z m -2.0200323,6.531384 0.3519163,0.15813 -0.4247799,1.704805 -0.0062,-1.74718 h 0.079065 z m 1.9657713,0.730188 h 4.335653 l -0.06511,1.72806 h -4.782654 z m 2.425692,3.201355 c -0.409892,0 -0.745174,0.335798 -0.745174,0.745691 0,0.409892 0.335282,0.745174 0.745174,0.745174 0.409893,0 0.745691,-0.335282 0.745691,-0.745174 0,-0.409893 -0.335798,-0.745691 -0.745691,-0.745691 z m 0,0.303341 c 0.245881,0 0.44235,0.196469 0.44235,0.44235 0,0.245882 -0.196469,0.441833 -0.44235,0.441833 -0.245881,0 -0.441833,-0.195951 -0.441833,-0.441833 0,-0.245881 0.195952,-0.44235 0.441833,-0.44235 z m 24.005252,0.538468 -0.276469,3.094385 -0.03824,0.0036 0.01344,0.150895 0.0057,0.06253 -0.0057,0.06201 -5.16e-4,0.0072 h 0.316775 l -0.0062,-0.06925 0.263033,-2.946074 6.173266,1.261939 0.34468,1.684135 -0.01395,0.06925 h 0.337963 l -0.01447,-0.06925 0.02532,-0.122474 -0.05271,-0.01085 -0.370004,-1.808159 z m -24.822256,1.098641 v 0.420129 h -0.386024 v 1.081588 l 0.50798,0.02894 0.03411,0.682129 -0.0036,0.06925 h 0.311092 l -0.0036,-0.06925 0.01499,-0.296623 0.0078,-0.151929 -0.04548,-0.0021 -0.02636,-0.518314 -0.49351,-0.02842 v -0.49196 h 0.38654 v -0.409794 l 1.026811,0.03307 v 0.302307 l 0.203088,-0.01447 0.0093,0.550871 -0.42168,0.112138 -0.01912,0.392224 -0.05064,0.0026 0.0072,0.151412 0.01809,0.36897 -0.0036,0.06925 h 0.311092 l -0.0036,-0.06925 0.03307,-0.679029 0.436666,-0.116272 -0.01912,-1.108459 -0.197404,0.01395 v -0.270268 z m 5.588289,1.064018 -0.206706,0.28577 h -0.975134 v 0.464054 0.151413 0.316776 h 0.30334 v -0.316776 -0.151413 -0.160713 h 0.826823 l 0.165882,-0.228927 1.250053,0.428915 v 0.117822 0.151929 0.159163 h 0.303857 v -0.159163 -0.151929 -0.334346 z"
         sodipodi:nodetypes="cccccccccccccccccccccccccccccccccccccccccccccccccccccccccccccccccccccccccccccccccccccccccccssssssssssccccccccccccccccccccccccccccccccccccccccccccccccccccccccccccccccccccccccccc" />
      <path
         id="path4973-7-3"
         style="color:#000000;font-style:normal;font-variant:normal;font-weight:normal;font-stretch:normal;font-size:medium;line-height:normal;font-family:sans-serif;font-variant-ligatures:normal;font-variant-position:normal;font-variant-caps:normal;font-variant-numeric:normal;font-variant-alternates:normal;font-variant-east-asian:normal;font-feature-settings:normal;font-variation-settings:normal;text-indent:0;text-align:start;text-decoration:none;text-decoration-line:none;text-decoration-style:solid;text-decoration-color:#000000;letter-spacing:normal;word-spacing:normal;text-transform:none;writing-mode:lr-tb;direction:ltr;text-orientation:mixed;dominant-baseline:auto;baseline-shift:baseline;text-anchor:start;white-space:normal;shape-padding:0;shape-margin:0;inline-size:0;clip-rule:nonzero;display:inline;overflow:visible;visibility:visible;opacity:1;isolation:auto;mix-blend-mode:normal;color-interpolation:sRGB;color-interpolation-filters:linearRGB;solid-color:#000000;solid-opacity:1;vector-effect:none;fill:#808080;fill-opacity:0.995885;fill-rule:nonzero;stroke:#808080;stroke-width:0.529167;stroke-linecap:square;stroke-linejoin:miter;stroke-miterlimit:4;stroke-dasharray:none;stroke-dashoffset:6.00002;stroke-opacity:1;paint-order:markers fill stroke;color-rendering:auto;image-rendering:auto;shape-rendering:auto;text-rendering:auto;enable-background:accumulate;stop-color:#000000;stop-opacity:1"
         d="m 11.847856,42.459272 -1.56838,-6.290571 -0.9379272,0.422196 0.00103,-0.374138 h -0.344165 v -2.988447 l 0.5441527,-0.0155 -1.2965614,-5.2002 -0.079582,-0.01964 0.037207,-0.149862 -0.017053,-0.06925 h 0.4516522 l -0.017053,0.06925 0.1943034,0.780831 0.9151897,-0.160713 0.1415934,-0.03669 0.00827,0.03307 h 1.5663122 l -0.05478,-0.37362 -0.07028,-0.01034 0.02222,-0.150378 0.01189,-0.08217 -0.0098,-0.06925 h 0.327112 l -0.01034,0.06925 0.13591,0.920358 H 9.9590821 L 11.09648,33.1663 h 12.522233 l 0.486275,-0.500745 h 4.017844 v -4.30878 -0.582911 h 0.303855 v 0.27957 h 0.01395 v 0.303341 h -0.01395 v 3.734656 l 3.862298,-0.917775 0.990636,-3.330546 -0.02067,-0.06925 h 0.358119 l -0.02067,0.06925 0.03152,0.106454 -0.06925,0.02067 -1.028878,3.458187 -4.103111,0.974618 v 0.565857 h -4.193539 l -0.486275,0.500744 h -7.378878 l 0.07596,2.031401 H 11.566728 L 10.964697,33.46964 H 10.861869 L 9.6510904,28.785173 8.88938,28.919014 l 3.24838,13.031762 17.86196,-5.31647 0.392149,-1.635633 1.15401,1.180879 6.652305,-1.934764 0.279053,-1.212773 6.371701,-1.943034 1.235292,0.871043 13.71832,-4.116914 -0.232026,-0.06925 h 0.661974 l -0.02066,0.06925 0.08216,0.275436 -0.193786,0.05788 -14.146205,4.244556 -1.234254,-0.869494 -5.969662,1.820044 -0.280085,1.215872 -7.101671,2.054508 -0.732551,-0.927887 -0.354425,1.258763 z m -2.0200321,-6.531384 0.3519161,-0.15813 -0.4247797,-1.704805 -0.0062,1.74718 h 0.079065 z M 11.793595,35.1977 h 4.335653 l -0.06511,-1.72806 h -4.782654 z m 2.425692,-3.201355 c -0.409892,0 -0.745174,-0.335798 -0.745174,-0.74569 0,-0.409893 0.335282,-0.745175 0.745174,-0.745175 0.409893,0 0.745691,0.335282 0.745691,0.745175 0,0.409892 -0.335798,0.74569 -0.745691,0.74569 z m 0,-0.30334 c 0.245881,0 0.44235,-0.196469 0.44235,-0.44235 0,-0.245883 -0.196469,-0.441833 -0.44235,-0.441833 -0.245881,0 -0.441833,0.19595 -0.441833,0.441833 0,0.245881 0.195952,0.44235 0.441833,0.44235 z m 24.005252,-0.538469 -0.276469,-3.094384 -0.03824,-0.0036 0.01344,-0.150895 0.0057,-0.06253 -0.0057,-0.06201 -5.29e-4,-0.0072 h 0.316775 l -0.0062,0.06925 0.263033,2.946074 6.173267,-1.261939 0.34468,-1.684135 -0.01394,-0.06925 h 0.337963 l -0.01447,0.06925 0.02532,0.122474 -0.05271,0.01085 -0.370004,1.808159 z M 13.402283,30.055895 v -0.420129 h -0.386024 v -1.081588 l 0.50798,-0.02894 0.03411,-0.682129 -0.0036,-0.06925 h 0.311092 l -0.0036,0.06925 0.01499,0.296622 0.0078,0.151929 -0.04548,0.0021 -0.02636,0.518314 -0.49351,0.02842 v 0.49196 h 0.386538 v 0.409786 l 1.02681,-0.03307 v -0.302307 l 0.203088,0.01447 0.0093,-0.550871 -0.421679,-0.112138 -0.01912,-0.392224 -0.05064,-0.0026 0.0072,-0.151412 0.01809,-0.36897 -0.0036,-0.06925 h 0.311091 l -0.0036,0.06925 0.03307,0.679028 0.436666,0.116273 -0.01912,1.108459 -0.197404,-0.01395 v 0.270268 z m 5.588289,-1.064017 -0.206706,-0.285771 h -0.975134 v -0.464054 -0.151412 -0.316777 h 0.30334 v 0.316777 0.151412 0.160714 h 0.826823 l 0.165882,0.228926 1.250053,-0.428915 v -0.117822 -0.151929 -0.159163 h 0.303857 v 0.159163 0.151929 0.334347 z"
         sodipodi:nodetypes="cccccccccccccccccccccccccccccccccccccccccccccccccccccccccccccccccccccccccccccccccccccccccccssssssssssccccccccccccccccccccccccccccccccccccccccccccccccccccccccccccccccccccccccccc" />
    </g>
  </g>
</svg>
