<?xml version="1.0" encoding="UTF-8" standalone="no"?>
<svg
   xmlns:osb="http://www.openswatchbook.org/uri/2009/osb"
   xmlns:dc="http://purl.org/dc/elements/1.1/"
   xmlns:cc="http://creativecommons.org/ns#"
   xmlns:rdf="http://www.w3.org/1999/02/22-rdf-syntax-ns#"
   xmlns:svg="http://www.w3.org/2000/svg"
   xmlns="http://www.w3.org/2000/svg"
   xmlns:sodipodi="http://sodipodi.sourceforge.net/DTD/sodipodi-0.dtd"
   xmlns:inkscape="http://www.inkscape.org/namespaces/inkscape"
   width="256"
   height="256"
   viewBox="0 0 67.733332 67.733335"
   version="1.1"
   id="svg8"
   inkscape:version="1.0.1 (3bc2e813f5, 2020-09-07)"
   sodipodi:docname="target-attacker-xwing.svg"
   inkscape:export-filename="C:\Users\keath\Workspace\KMX\elite-streamdeck-icons\srv.png"
   inkscape:export-xdpi="96"
   inkscape:export-ydpi="96">
  <defs
     id="defs2">
    <linearGradient
       id="linearGradient1429"
       osb:paint="solid">
      <stop
         style="stop-color:#000000;stop-opacity:1;"
         offset="0"
         id="stop1427" />
    </linearGradient>
  </defs>
  <sodipodi:namedview
     id="base"
     pagecolor="#000000"
     bordercolor="#666666"
     borderopacity="1"
     inkscape:pageopacity="0"
     inkscape:pageshadow="2"
     inkscape:zoom="5.6"
     inkscape:cx="124.95392"
     inkscape:cy="97.839439"
     inkscape:document-units="px"
     inkscape:current-layer="layer2"
     showgrid="true"
     units="px"
     inkscape:snap-grids="true"
     objecttolerance="10000"
     guidetolerance="10000"
     inkscape:window-width="2321"
     inkscape:window-height="1879"
     inkscape:window-x="5253"
     inkscape:window-y="109"
     inkscape:window-maximized="0"
     inkscape:document-rotation="0"
     showguides="true"
     showborder="true"
     borderlayer="false"
     inkscape:snap-to-guides="true"
     inkscape:guide-bbox="true"
     inkscape:object-nodes="false">
    <inkscape:grid
       type="xygrid"
       id="grid4623" />
    <sodipodi:guide
       position="-3.96875,62.441667"
       orientation="0,256"
       id="guide3351" />
    <sodipodi:guide
       position="62.177083,70.379167"
       orientation="256,0"
       id="guide3353" />
    <sodipodi:guide
       position="-2.6458333,22.754167"
       orientation="0,-256"
       id="guide3355" />
    <sodipodi:guide
       position="5.2916667,70.379167"
       orientation="-256,0"
       id="guide3357" />
    <sodipodi:guide
       position="0,67.733334"
       orientation="0,256"
       id="guide3359" />
    <sodipodi:guide
       position="67.733334,67.733334"
       orientation="256,0"
       id="guide3361" />
    <sodipodi:guide
       position="67.733334,0"
       orientation="0,-256"
       id="guide3363" />
    <sodipodi:guide
       position="0,0"
       orientation="-256,0"
       id="guide3365" />
    <sodipodi:guide
       position="0,67.733334"
       orientation="0,256"
       id="guide3367" />
    <sodipodi:guide
       position="67.733334,67.733334"
       orientation="256,0"
       id="guide3369" />
    <sodipodi:guide
       position="67.733334,0"
       orientation="0,-256"
       id="guide3371" />
    <sodipodi:guide
       position="0,0"
       orientation="-256,0"
       id="guide3373" />
    <sodipodi:guide
       position="0,67.733334"
       orientation="0,256"
       id="guide3375" />
    <sodipodi:guide
       position="67.733334,67.733334"
       orientation="256,0"
       id="guide3377" />
    <sodipodi:guide
       position="67.733334,0"
       orientation="0,-256"
       id="guide3379" />
    <sodipodi:guide
       position="0,0"
       orientation="-256,0"
       id="guide3381" />
    <sodipodi:guide
       position="33.602083,56.885417"
       orientation="1,0"
       id="guide878" />
  </sodipodi:namedview>
  <metadata
     id="metadata5">
    <rdf:RDF>
      <cc:Work
         rdf:about="">
        <dc:format>image/svg+xml</dc:format>
        <dc:type
           rdf:resource="http://purl.org/dc/dcmitype/StillImage" />
        <dc:title />
      </cc:Work>
    </rdf:RDF>
  </metadata>
  <g
     inkscape:groupmode="layer"
     id="layer2"
     inkscape:label="Icon">
    <path
       id="rect859"
       style="fill:#808080;stroke:none;stroke-width:2.66615;stroke-linecap:round;stroke-linejoin:round;paint-order:markers fill stroke"
       d="M 5.2916667,5.2916667 V 18.110351 H 8.5735816 V 8.2075425 H 21.395403 V 5.2916667 Z m 40.7816783,0 v 2.9158758 h 12.821821 v 9.9028085 h 3.281917 V 5.2916667 Z M 5.2916667,32.160485 V 44.979166 H 21.395403 V 42.063144 H 8.5735816 v -9.902659 z m 53.6034993,0 v 9.902659 H 46.073345 v 2.916022 H 62.177083 V 32.160485 Z" />
    <path
       id="path1539"
       style="fill:#808080;fill-opacity:1;stroke:none;stroke-width:4.04827;stroke-linecap:round;stroke-miterlimit:4;stroke-dasharray:none;stroke-dashoffset:6.00002;stroke-opacity:1;paint-order:markers fill stroke"
       d="m 36.810035,29.669119 -0.931694,-0.242374 -1.603379,-1.364808 0.165024,-0.260414 0.785732,-0.05493 0.396425,-0.302861 a 0.08301914,0.09748514 45 0 0 0.0079,-0.0064 0.08301914,0.09748514 45 0 0 0.0026,-0.0023 0.08301914,0.09748514 45 0 0 0.02528,-0.03743 0.08301914,0.09748514 45 0 0 0.03558,-0.02365 0.08301914,0.09748514 45 0 0 0.01048,-0.01201 l 0.303398,-0.39696 0.05441,-0.777889 0.240593,-0.152538 1.36481,1.60338 0.242372,0.931695 -0.410229,0.410228 -0.279095,0.279096 z M 35.55254,27.29228 a 0.08301914,0.09748514 45 0 0 -0.02429,0.01395 l -0.346375,0.264053 -0.775398,0.05421 a 0.08301914,0.09748514 45 0 0 -0.07972,0.04738 l -8.308403,-6.940258 -0.01427,-0.379923 -1.135219,-0.940269 -0.174205,0.215695 0.550005,0.550005 -1.71819,1.718189 -0.570753,-0.570751 -4.557479,4.557477 0.581066,0.581067 -0.01162,0.426958 4.496029,4.631201 0.25136,-0.251361 a 0.1660377,0.19496955 45 0 1 0.255271,-0.02046 0.1660377,0.19496955 45 0 1 -0.02034,0.255387 l -0.254718,0.254727 0.946534,0.975083 -0.292558,0.292557 -0.981138,-0.940481 -0.216488,0.21649 a 0.1660377,0.19496955 45 0 1 -0.255522,0.02048 0.1660377,0.19496955 45 0 1 0.02059,-0.255406 l 0.211509,-0.211509 -4.660147,-4.467082 -0.515267,-0.0037 -0.664199,-0.664198 -0.31278,0.126118 -1.376187,-1.571135 0.04621,-0.295232 -0.567141,-0.615871 0.02029,-0.39384 0.255938,-0.255939 0.425574,-0.135037 0.33064,0.208929 3.32573,-5.691754 0.618175,-0.161621 -2.251823,-2.251823 1.291674,-1.291674 2.37634,2.37634 -0.48063,-1.553119 1.028196,-1.028196 0.40969,-0.409691 1.028196,-1.028196 1.55312,0.480631 -2.37634,-2.37634 1.291675,-1.2916768 2.251832,2.2518358 0.161621,-0.618179 5.691753,-3.3257305 -0.208932,-0.3306376 0.135041,-0.4255759 0.255937,-0.2559379 0.393841,-0.020292 0.615876,0.5671366 0.295229,-0.046204 1.571138,1.3761873 -0.126131,0.3127819 0.664197,0.6641973 0.0037,0.5152678 4.467082,4.660147 0.21151,-0.211509 a 0.1660377,0.19496955 45 0 1 0.255406,-0.02059 0.1660377,0.19496955 45 0 1 -0.02048,0.255522 l -0.216489,0.216489 0.940475,0.981143 -0.292559,0.292558 -0.975083,-0.946534 -0.254726,0.254727 a 0.1660377,0.19496955 45 0 1 -0.255386,0.02033 0.1660377,0.19496955 45 0 1 0.02046,-0.255271 l 0.251361,-0.251361 -4.6312,-4.496031 -0.426959,0.01162 -0.581071,-0.581072 -4.557474,4.557475 0.570754,0.570754 -1.718193,1.718194 -0.55,-0.550001 -0.215693,0.174205 0.940267,1.135218 0.379925,0.01427 6.939245,8.30712 a 0.08301914,0.09748514 45 0 0 -0.02659,0.0612 l -0.05408,0.775255 -0.263649,0.345972 a 0.08301914,0.09748514 45 0 0 -0.01447,0.02483 z m -5.318182,-4.879007 0.183198,-0.187314 0.187313,-0.183198 -0.0042,-0.0039 0.289878,-0.296316 -1.282468,-1.799459 -0.682426,-0.682427 -0.763534,-0.263777 -0.480647,0.493027 -0.493024,0.480644 0.263774,0.763535 0.682427,0.682426 1.79946,1.282468 0.296316,-0.289878 z M 27.355822,19.06971 c 0.322779,-0.32278 0.362002,-0.810653 0.08713,-1.085535 -0.274881,-0.274883 -0.762296,-0.235202 -1.085076,0.08758 -0.322782,0.322783 -0.361791,0.809523 -0.08691,1.084406 0.274883,0.274882 0.762082,0.236332 1.084865,-0.08645 z m -0.117403,-0.117402 c -0.248275,0.248274 -0.618027,0.277286 -0.82946,0.06586 -0.211432,-0.211432 -0.18196,-0.580725 0.06632,-0.828999 0.248273,-0.248273 0.61824,-0.278419 0.829671,-0.06699 0.211433,0.211431 0.181747,0.581858 -0.06652,0.83013 z" />
    <path
       style="fill:none;stroke:#808080;stroke-width:1.32291667;stroke-linecap:round;stroke-linejoin:miter;stroke-miterlimit:4;stroke-dasharray:none;stroke-opacity:1"
       d="m 43.774195,18.952738 8.400819,8.400819"
       id="path921" />
    <path
       style="fill:none;stroke:#808080;stroke-width:1.32291667;stroke-linecap:round;stroke-linejoin:miter;stroke-miterlimit:4;stroke-dasharray:none;stroke-opacity:1"
       d="m 26.372498,34.854288 8.400819,8.400819"
       id="path921-5" />
  </g>
</svg>
