<?xml version="1.0" encoding="UTF-8" standalone="no"?>
<svg
   xmlns:osb="http://www.openswatchbook.org/uri/2009/osb"
   xmlns:dc="http://purl.org/dc/elements/1.1/"
   xmlns:cc="http://creativecommons.org/ns#"
   xmlns:rdf="http://www.w3.org/1999/02/22-rdf-syntax-ns#"
   xmlns:svg="http://www.w3.org/2000/svg"
   xmlns="http://www.w3.org/2000/svg"
   xmlns:sodipodi="http://sodipodi.sourceforge.net/DTD/sodipodi-0.dtd"
   xmlns:inkscape="http://www.inkscape.org/namespaces/inkscape"
   width="256"
   height="256"
   viewBox="0 0 67.733332 67.733335"
   version="1.1"
   id="svg8"
   inkscape:version="1.0.1 (3bc2e813f5, 2020-09-07)"
   sodipodi:docname="target-squadron-tie.svg"
   inkscape:export-filename="C:\Users\keath\Workspace\KMX\elite-streamdeck-icons\srv.png"
   inkscape:export-xdpi="96"
   inkscape:export-ydpi="96">
  <defs
     id="defs2">
    <linearGradient
       id="linearGradient1429"
       osb:paint="solid">
      <stop
         style="stop-color:#000000;stop-opacity:1;"
         offset="0"
         id="stop1427" />
    </linearGradient>
  </defs>
  <sodipodi:namedview
     id="base"
     pagecolor="#000000"
     bordercolor="#666666"
     borderopacity="1"
     inkscape:pageopacity="0"
     inkscape:pageshadow="2"
     inkscape:zoom="3.959798"
     inkscape:cx="160.72425"
     inkscape:cy="67.137753"
     inkscape:document-units="px"
     inkscape:current-layer="layer2"
     showgrid="true"
     units="px"
     inkscape:snap-grids="true"
     objecttolerance="10000"
     guidetolerance="10000"
     inkscape:window-width="2321"
     inkscape:window-height="1879"
     inkscape:window-x="5253"
     inkscape:window-y="109"
     inkscape:window-maximized="0"
     inkscape:document-rotation="0"
     showguides="true"
     showborder="true"
     borderlayer="false"
     inkscape:snap-to-guides="true"
     inkscape:guide-bbox="true"
     inkscape:object-nodes="false">
    <inkscape:grid
       type="xygrid"
       id="grid4623" />
    <sodipodi:guide
       position="-3.96875,62.441667"
       orientation="0,256"
       id="guide3351" />
    <sodipodi:guide
       position="62.177083,70.379167"
       orientation="256,0"
       id="guide3353" />
    <sodipodi:guide
       position="-2.6458333,22.754167"
       orientation="0,-256"
       id="guide3355" />
    <sodipodi:guide
       position="5.2916667,70.379167"
       orientation="-256,0"
       id="guide3357" />
    <sodipodi:guide
       position="0,67.733334"
       orientation="0,256"
       id="guide3359" />
    <sodipodi:guide
       position="67.733334,67.733334"
       orientation="256,0"
       id="guide3361" />
    <sodipodi:guide
       position="67.733334,0"
       orientation="0,-256"
       id="guide3363" />
    <sodipodi:guide
       position="0,0"
       orientation="-256,0"
       id="guide3365" />
    <sodipodi:guide
       position="0,67.733334"
       orientation="0,256"
       id="guide3367" />
    <sodipodi:guide
       position="67.733334,67.733334"
       orientation="256,0"
       id="guide3369" />
    <sodipodi:guide
       position="67.733334,0"
       orientation="0,-256"
       id="guide3371" />
    <sodipodi:guide
       position="0,0"
       orientation="-256,0"
       id="guide3373" />
    <sodipodi:guide
       position="0,67.733334"
       orientation="0,256"
       id="guide3375" />
    <sodipodi:guide
       position="67.733334,67.733334"
       orientation="256,0"
       id="guide3377" />
    <sodipodi:guide
       position="67.733334,0"
       orientation="0,-256"
       id="guide3379" />
    <sodipodi:guide
       position="0,0"
       orientation="-256,0"
       id="guide3381" />
    <sodipodi:guide
       position="33.602083,56.885417"
       orientation="1,0"
       id="guide878" />
  </sodipodi:namedview>
  <metadata
     id="metadata5">
    <rdf:RDF>
      <cc:Work
         rdf:about="">
        <dc:format>image/svg+xml</dc:format>
        <dc:type
           rdf:resource="http://purl.org/dc/dcmitype/StillImage" />
        <dc:title></dc:title>
      </cc:Work>
    </rdf:RDF>
  </metadata>
  <g
     inkscape:groupmode="layer"
     id="layer2"
     inkscape:label="Icon">
    <path
       id="rect859"
       style="fill:#808080;stroke:none;stroke-width:2.66615;stroke-linecap:round;stroke-linejoin:round;paint-order:markers fill stroke"
       d="M 5.2916667,5.2916667 V 18.110351 H 8.5735816 V 8.2075425 H 21.395403 V 5.2916667 Z m 40.7816783,0 v 2.9158758 h 12.821821 v 9.9028085 h 3.281917 V 5.2916667 Z M 5.2916667,32.160485 V 44.979166 H 21.395403 V 42.063144 H 8.5735816 v -9.902659 z m 53.6034993,0 v 9.902659 H 46.073345 v 2.916022 H 62.177083 V 32.160485 Z" />
    <path
       id="path1797-8"
       style="fill:#808080;fill-opacity:1;stroke:none;stroke-width:0.0980027;stroke-linecap:round;stroke-miterlimit:4;stroke-dasharray:none;stroke-dashoffset:6.00002;stroke-opacity:1;paint-order:markers fill stroke"
       d="m 16.516431,25.353841 -0.0442,1.011758 -0.187912,0.181597 v 3.761661 c 0,0 -0.132698,-0.05188 -0.165861,0.142683 -0.03316,0.19457 -0.12157,0.376166 -0.12157,0.376166 l -0.01103,0.298339 0.0884,0.129711 -0.143715,0.06486 -0.132596,0.272398 v 0.492908 l 0.254257,0.22051 0.06625,0.73936 0.121659,0.194569 0.01102,3.761661 0.226599,0.259425 0.06635,1.076501 0.331626,-0.0065 0.04971,-1.011648 0.221087,-0.343735 V 33.61651 l 0.199029,-0.155655 0.0884,-0.246453 0.132687,-0.194567 0.03308,-0.298339 v -0.103767 l 0.585883,-0.05189 0.16586,-0.142681 0.07737,0.01296 0.132598,0.194569 0.2764,0.0908 h 0.342656 l 0.03317,0.168627 h 0.431141 l 0.265285,0.246453 0.206894,0.06476 c -0.212397,-0.415665 -0.324137,-0.886382 -0.324126,-1.365426 3.3e-5,-0.584068 0.166129,-1.152917 0.474167,-1.623939 l -0.423279,0.09688 -0.232112,0.181597 -0.386942,0.06486 -0.198941,0.181597 -0.475343,0.05188 -0.09952,0.259426 -0.165768,0.01298 -0.06635,-0.142685 h -0.607932 v -0.389125 l -0.09952,-0.03891 -0.110542,-0.376167 -0.232112,-0.311309 v -3.22985 l -0.243231,-0.194571 -0.03317,-1.024728 z m 11.182956,0 -0.03317,1.02473 -0.24323,0.194567 v 3.22984 l -0.232111,0.311309 -0.110544,0.376167 -0.09951,0.03892 v 0.389139 h -0.607939 l -0.06634,0.142682 -0.16577,-0.01298 -0.09952,-0.259425 -0.475341,-0.05188 -0.19894,-0.181597 -0.386945,-0.06486 -0.232111,-0.181597 -0.42328,-0.09688 c 0.308039,0.471021 0.474136,1.039873 0.474167,1.623942 10e-6,0.479045 -0.111727,0.949759 -0.324126,1.365425 l 0.206895,-0.06475 0.265284,-0.246456 h 0.431143 l 0.03317,-0.168625 h 0.342654 l 0.276402,-0.0908 0.132596,-0.194571 0.07737,-0.01296 0.165858,0.142684 0.585884,0.05188 v 0.10377 l 0.03308,0.29834 0.132687,0.194565 0.0884,0.246456 0.19903,0.155655 v 3.359551 l 0.221086,0.343737 0.04971,1.011644 0.331628,0.0065 0.06634,-1.076501 0.2266,-0.259423 0.01103,-3.761658 0.12166,-0.19457 0.06625,-0.73936 0.254258,-0.22051 v -0.492908 l -0.132598,-0.272397 -0.143713,-0.06486 0.0884,-0.12971 -0.01103,-0.29834 c 0,0 -0.08841,-0.181597 -0.12157,-0.376166 -0.03317,-0.19457 -0.165858,-0.142683 -0.165858,-0.142683 v -3.761681 l -0.187911,-0.181597 -0.0442,-1.011758 z m -11.071871,0.576413 h 0.148504 v 11.832001 h -0.148504 z m 11.188109,0 h 0.148504 v 11.832001 h -0.148504 z m -5.517272,3.230647 c -1.311425,0 -2.377702,1.195169 -2.377702,2.665491 1e-6,1.470319 1.066279,2.66559 2.377702,2.66559 1.311423,0 2.377702,-1.195271 2.377702,-2.66559 0,-1.470322 -1.066277,-2.665491 -2.377702,-2.665491 z m -0.408184,0.411836 h 0.744422 v 0.348603 h -0.744422 z m 1.687874,0.386503 c 0.03525,0.03039 0.06952,0.06207 0.102951,0.09485 l -0.44886,0.526857 c -0.220767,-0.2084 -0.497472,-0.344262 -0.801002,-0.375256 h 0.898891 z m -2.609363,0.04408 0.168843,0.174808 1.028776,0.02747 c -0.321668,0.03266 -0.613392,0.183136 -0.84023,0.412849 l -0.453921,-0.520775 c 0.03137,-0.03253 0.06343,-0.064 0.09653,-0.09435 z m 2.842559,0.190009 c 0.221537,0.257863 0.391179,0.572048 0.489714,0.922174 l -0.629631,0.182511 c -0.06655,-0.216886 -0.172642,-0.413141 -0.308941,-0.577829 z m -6.753845,0.0021 h 0.148595 v 3.145934 h -0.148595 z m 10.328262,0 h 0.148595 v 3.145934 h -0.148595 z m -6.640591,0.0454 0.455276,0.522093 c -0.13233,0.171535 -0.233343,0.374201 -0.292853,0.596879 L 20.279486,31.1778 c 0.08993,-0.353409 0.250978,-0.672886 0.465579,-0.936971 z m 1.619633,0.167207 c 0.280824,0.01618 0.537232,0.134445 0.740263,0.322359 l -0.451028,0.529183 c -0.08371,-0.0663 -0.182379,-0.110136 -0.289235,-0.123034 z m -0.17996,0.0042 v 0.732571 c -0.102888,0.0216 -0.19695,0.07159 -0.275316,0.142887 L 21.454869,30.76624 c 0.197384,-0.197473 0.4504,-0.32633 0.729869,-0.354075 z m 1.05038,0.45744 c 0.190151,0.233952 0.311254,0.539563 0.32783,0.877078 h -0.650059 c -0.01345,-0.130372 -0.05938,-0.249764 -0.128438,-0.348094 z m -1.905705,0.04144 0.457806,0.525032 c -0.05527,0.09056 -0.09163,0.196497 -0.103402,0.3106 h -0.650059 c 0.01562,-0.31798 0.124145,-0.607522 0.295655,-0.835632 z m 3.006791,0.345866 c 0.04029,0.182356 0.06209,0.373011 0.06209,0.569518 0,0.224667 -0.0286,0.441579 -0.08081,0.647246 l -0.604865,-0.280505 c 0.02431,-0.117962 0.0376,-0.240609 0.0376,-0.366741 0,-0.133535 -0.01469,-0.263255 -0.04185,-0.387512 z m -4.088716,0.06313 0.628005,0.182105 c -0.01896,0.104825 -0.02901,0.213257 -0.02901,0.32428 0,0.1453 0.01728,0.286107 0.04926,0.42025 l -0.603238,0.279692 c -0.06113,-0.221056 -0.09409,-0.456097 -0.09409,-0.699942 0,-0.173969 0.01728,-0.343261 0.04908,-0.506385 z m 2.050865,0.01996 c 0.240709,0 0.433856,0.216548 0.433855,0.486419 0,0.269872 -0.193146,0.486423 -0.433855,0.486423 -0.240707,0 -0.433853,-0.216551 -0.433853,-0.486423 -1e-6,-0.269871 0.193145,-0.486419 0.433853,-0.486419 z m -1.265226,0.553405 h 0.649244 c 0.01154,0.133696 0.0575,0.256159 0.127354,0.357014 l -0.451028,0.529489 c -0.190863,-0.236532 -0.311515,-0.545694 -0.32557,-0.886527 z m 1.881209,0 h 0.649245 c -0.01438,0.348687 -0.140489,0.664001 -0.339038,0.902514 l -0.454644,-0.521543 c 0.07958,-0.105058 0.131971,-0.236602 0.144437,-0.381031 z m 0.762861,0.442137 0.600617,0.278577 c -0.101513,0.321428 -0.263445,0.610322 -0.47055,0.850124 L 23.353253,32.94354 c 0.14469,-0.171749 0.256448,-0.37858 0.323944,-0.607926 z m -2.741959,0.05158 c 0.06648,0.202672 0.168022,0.386338 0.296196,0.54216 l -0.448949,0.526853 c -0.192803,-0.22538 -0.345833,-0.493593 -0.44678,-0.791044 z m 1.004283,0.0031 c 0.07196,0.05779 0.155103,0.09883 0.245217,0.117755 v 0.732875 c -0.263714,-0.0262 -0.50397,-0.14241 -0.696065,-0.321443 z m 0.69507,0.01753 0.458078,0.525436 c -0.201078,0.181574 -0.452687,0.295854 -0.727971,0.311716 v -0.728822 c 0.09871,-0.01191 0.190468,-0.05032 0.269893,-0.10833 z m -1.273182,0.660926 c 0.122411,0.116266 0.262157,0.210102 0.41424,0.276145 v 0.762465 c -0.324948,-0.09304 -0.619,-0.271327 -0.863099,-0.511754 z m 1.860603,0.01287 0.454553,0.521382 C 23.420132,33.85316 23.109021,34.0344 22.765561,34.12165 v -0.754157 c 0.167984,-0.06421 0.322402,-0.161622 0.456451,-0.285873 z m -1.233684,0.335224 c 0.064,0.01567 0.12959,0.02639 0.19641,0.03223 v 0.361122 h -0.19641 z m 0.572688,0.01065 v 0.382854 h -0.196318 v -0.357621 c 0.06674,-0.0034 0.132206,-0.01204 0.196318,-0.02524 z"
       sodipodi:nodetypes="ccccscccccccccccccccccccccccccccccccccccccccccccccccccccccccccccccccccccccccccccccccccccccccccccccccccccscccccccccccccccsssssccccccccccccccccccccccccccccccccccccccccccccccccccccccccccsccsccccsccscssssscccccccccccccccccccccccccccccccccccccccccccccccccc" />
    <path
       id="path1797-8-1"
       style="fill:#808080;fill-opacity:1;stroke:none;stroke-width:0.0980027;stroke-linecap:round;stroke-miterlimit:4;stroke-dasharray:none;stroke-dashoffset:6.00002;stroke-opacity:1;paint-order:markers fill stroke"
       d="m 39.761996,25.353841 -0.0442,1.011758 -0.187912,0.181597 v 3.761661 c 0,0 -0.132698,-0.05188 -0.165861,0.142683 -0.03316,0.19457 -0.12157,0.376166 -0.12157,0.376166 l -0.01103,0.298339 0.0884,0.129711 -0.143715,0.06486 -0.132596,0.272398 v 0.492908 l 0.254257,0.22051 0.06625,0.73936 0.121659,0.194569 0.01102,3.761661 0.226599,0.259425 0.06635,1.076501 0.331626,-0.0065 0.04971,-1.011647 0.221087,-0.343735 V 33.61651 l 0.199029,-0.155655 0.0884,-0.246453 0.132687,-0.194567 0.03308,-0.298339 v -0.103767 l 0.585883,-0.05189 0.16586,-0.142681 0.07737,0.01296 0.132598,0.194569 0.2764,0.0908 h 0.342656 l 0.03317,0.168627 h 0.431141 l 0.265285,0.246453 0.206894,0.06476 c -0.212397,-0.415665 -0.324137,-0.886382 -0.324126,-1.365426 3.3e-5,-0.584068 0.166129,-1.152917 0.474167,-1.623939 l -0.423279,0.09688 -0.232112,0.181597 -0.386942,0.06486 -0.198941,0.181597 -0.475343,0.05188 -0.09952,0.259426 -0.165768,0.01298 -0.06635,-0.142686 h -0.607932 v -0.389124 l -0.09952,-0.03891 -0.110542,-0.376167 -0.232112,-0.311309 v -3.22985 l -0.243231,-0.194571 -0.03317,-1.024728 z m 11.182956,0 -0.03317,1.02473 -0.24323,0.194567 v 3.22984 l -0.232111,0.311309 -0.110544,0.376167 -0.09951,0.03892 v 0.389139 h -0.607939 l -0.06634,0.142682 -0.16577,-0.01298 -0.09952,-0.259425 -0.475341,-0.05188 -0.19894,-0.181596 -0.386945,-0.06486 -0.232111,-0.181597 -0.42328,-0.09688 c 0.308039,0.471021 0.474136,1.039873 0.474167,1.623941 1e-5,0.479046 -0.111727,0.94976 -0.324126,1.365426 l 0.206895,-0.06475 0.265284,-0.246456 h 0.431143 l 0.03317,-0.168625 h 0.342654 l 0.276402,-0.0908 0.132596,-0.194571 0.07737,-0.01296 0.165858,0.142684 0.585884,0.05188 v 0.10377 l 0.03308,0.29834 0.132687,0.194565 0.0884,0.246456 0.19903,0.155655 v 3.359551 l 0.221086,0.343737 0.04971,1.011644 0.331628,0.0065 0.06634,-1.076501 0.2266,-0.259423 0.01103,-3.761658 0.12166,-0.19457 0.06625,-0.73936 0.254258,-0.22051 v -0.492908 l -0.132598,-0.272397 -0.143713,-0.06486 0.0884,-0.12971 -0.01103,-0.29834 c 0,0 -0.08841,-0.181597 -0.12157,-0.376166 -0.03317,-0.194571 -0.165858,-0.142684 -0.165858,-0.142684 v -3.761681 l -0.187911,-0.181597 -0.0442,-1.011758 z m -11.071871,0.576413 h 0.148504 v 11.832001 h -0.148504 z m 11.188109,0 h 0.148504 V 37.762255 H 51.06119 Z m -5.517272,3.230647 c -1.311425,0 -2.377702,1.195169 -2.377702,2.665491 1e-6,1.470319 1.066279,2.66559 2.377702,2.66559 1.311423,0 2.377702,-1.195271 2.377702,-2.66559 0,-1.470322 -1.066277,-2.665491 -2.377702,-2.665491 z m -0.408184,0.411836 h 0.744422 v 0.348603 h -0.744422 z m 1.687874,0.386503 c 0.03525,0.03039 0.06952,0.06207 0.102951,0.09485 l -0.44886,0.526857 c -0.220767,-0.2084 -0.497472,-0.344262 -0.801002,-0.375256 h 0.898891 z m -2.609363,0.04408 0.168843,0.174808 1.028776,0.02747 c -0.321668,0.03266 -0.613392,0.183136 -0.84023,0.412849 l -0.453921,-0.520775 c 0.03137,-0.03253 0.06343,-0.064 0.09653,-0.09435 z m 2.842559,0.190009 c 0.221537,0.257863 0.391179,0.572048 0.489714,0.922174 l -0.629631,0.182511 c -0.06655,-0.216886 -0.172642,-0.413141 -0.308941,-0.577829 z m -6.753845,0.0021 h 0.148595 v 3.145934 h -0.148595 z m 10.328262,0 h 0.148595 v 3.145934 h -0.148595 z m -6.640591,0.0454 0.455276,0.522093 c -0.13233,0.171535 -0.233343,0.374201 -0.292853,0.596879 L 43.525051,31.1778 c 0.08993,-0.353409 0.250978,-0.672886 0.465579,-0.936971 z m 1.619633,0.167207 c 0.280824,0.01618 0.537232,0.134445 0.740263,0.322359 l -0.451028,0.529183 c -0.08371,-0.0663 -0.182379,-0.110136 -0.289235,-0.123034 z m -0.17996,0.0042 v 0.732571 c -0.102888,0.0216 -0.19695,0.07159 -0.275316,0.142886 l -0.454553,-0.521454 c 0.197384,-0.197473 0.4504,-0.32633 0.729869,-0.354075 z m 1.05038,0.45744 c 0.190151,0.233952 0.311254,0.539563 0.32783,0.877078 h -0.650059 c -0.01345,-0.130373 -0.05938,-0.249765 -0.128438,-0.348095 z m -1.905705,0.04144 0.457806,0.525032 c -0.05527,0.09056 -0.09163,0.196497 -0.103402,0.3106 h -0.650059 c 0.01562,-0.31798 0.124145,-0.607522 0.295655,-0.835632 z m 3.006791,0.345866 c 0.04029,0.182356 0.06209,0.373011 0.06209,0.569518 0,0.224667 -0.0286,0.441579 -0.08081,0.647246 l -0.604865,-0.280505 c 0.02431,-0.117962 0.0376,-0.240609 0.0376,-0.366741 0,-0.133535 -0.01469,-0.263255 -0.04185,-0.387512 z m -4.088716,0.06313 0.628005,0.182105 c -0.01896,0.104825 -0.02901,0.213257 -0.02901,0.32428 0,0.1453 0.01728,0.286107 0.04926,0.42025 l -0.603238,0.279691 c -0.06113,-0.221056 -0.09409,-0.456097 -0.09409,-0.699942 0,-0.173969 0.01728,-0.343261 0.04908,-0.506385 z m 2.050865,0.01996 c 0.240709,0 0.433856,0.216548 0.433855,0.486419 0,0.269872 -0.193146,0.486423 -0.433855,0.486423 -0.240707,0 -0.433853,-0.216551 -0.433853,-0.486423 -10e-7,-0.269871 0.193145,-0.486419 0.433853,-0.486419 z m -1.265226,0.553404 h 0.649244 c 0.01154,0.133696 0.0575,0.256159 0.127354,0.357014 l -0.451028,0.529489 c -0.190863,-0.236532 -0.311515,-0.545694 -0.32557,-0.886527 z m 1.881209,0 h 0.649245 c -0.01438,0.348687 -0.140489,0.664001 -0.339038,0.902514 l -0.454644,-0.521543 c 0.07958,-0.105058 0.131971,-0.236602 0.144437,-0.381031 z m 0.762861,0.442137 0.600617,0.278577 c -0.101513,0.321428 -0.263445,0.610322 -0.47055,0.850124 l -0.454011,-0.520775 c 0.14469,-0.171749 0.256448,-0.37858 0.323944,-0.607926 z m -2.741959,0.05158 c 0.06648,0.202672 0.168022,0.386338 0.296196,0.54216 l -0.448949,0.526854 c -0.192803,-0.22538 -0.345833,-0.493593 -0.44678,-0.791044 z m 1.004283,0.0031 c 0.07196,0.05779 0.155103,0.09883 0.245217,0.117755 v 0.732875 c -0.263714,-0.0262 -0.50397,-0.142409 -0.696065,-0.321442 z m 0.69507,0.01753 0.458078,0.525436 c -0.201078,0.181574 -0.452687,0.295854 -0.727971,0.311716 v -0.728822 c 0.09871,-0.01191 0.190468,-0.05032 0.269893,-0.10833 z m -1.273182,0.660926 c 0.122411,0.116266 0.262157,0.210102 0.41424,0.276145 v 0.762465 c -0.324948,-0.09304 -0.619,-0.271327 -0.863099,-0.511754 z m 1.860603,0.01287 0.454553,0.521382 C 46.665697,33.85316 46.354586,34.0344 46.011126,34.12165 v -0.754157 c 0.167984,-0.06421 0.322402,-0.161622 0.456451,-0.285874 z m -1.233684,0.335225 c 0.064,0.01567 0.12959,0.02639 0.19641,0.03223 v 0.361121 h -0.19641 z m 0.572688,0.01065 v 0.382854 h -0.196318 v -0.357621 c 0.06674,-0.0034 0.132206,-0.01204 0.196318,-0.02524 z"
       sodipodi:nodetypes="ccccscccccccccccccccccccccccccccccccccccccccccccccccccccccccccccccccccccccccccccccccccccccccccccccccccccscccccccccccccccsssssccccccccccccccccccccccccccccccccccccccccccccccccccccccccccsccsccccsccscssssscccccccccccccccccccccccccccccccccccccccccccccccccc" />
    <path
       id="path1797-8-0"
       style="fill:#808080;fill-opacity:1;stroke:none;stroke-width:0.0980027;stroke-linecap:round;stroke-miterlimit:4;stroke-dasharray:none;stroke-dashoffset:6.00002;stroke-opacity:1;paint-order:markers fill stroke"
       d="m 27.827871,7.3059304 -0.0442,1.011758 -0.187912,0.181597 v 3.7616566 c 0,0 -0.132698,-0.05188 -0.165861,0.142683 -0.03316,0.19457 -0.12157,0.376166 -0.12157,0.376166 l -0.01103,0.298339 0.0884,0.129711 -0.143715,0.06486 -0.132596,0.272398 v 0.492908 l 0.254257,0.22051 0.06625,0.73936 0.121659,0.194569 0.01102,3.761661 0.226599,0.259425 0.06635,1.076501 0.331626,-0.0065 0.04971,-1.011647 0.221087,-0.343735 v -3.359556 l 0.199029,-0.155655 0.0884,-0.246453 0.132687,-0.194567 0.03308,-0.298339 v -0.103767 l 0.585883,-0.05189 0.16586,-0.142681 0.07737,0.01296 0.132598,0.194569 0.2764,0.0908 h 0.342656 l 0.03317,0.168627 h 0.431141 l 0.265285,0.246453 0.206894,0.06476 c -0.212397,-0.415665 -0.324137,-0.886382 -0.324126,-1.365426 3.3e-5,-0.584068 0.166129,-1.152917 0.474167,-1.623939 l -0.423279,0.09688 -0.232112,0.181598 -0.386942,0.06486 -0.198941,0.181598 -0.475343,0.05188 -0.09952,0.259426 -0.165768,0.01298 -0.06635,-0.142685 h -0.607932 v -0.389125 l -0.09952,-0.03891 -0.110542,-0.376167 -0.232112,-0.311309 V 8.5252274 l -0.243231,-0.194571 -0.03317,-1.024728 z m 11.182956,0 -0.03317,1.02473 -0.24323,0.194567 v 3.2298356 l -0.232111,0.311309 -0.110544,0.376167 -0.09951,0.03892 v 0.389139 h -0.607939 l -0.06634,0.142682 -0.16577,-0.01298 -0.09952,-0.259425 -0.475341,-0.05188 -0.19894,-0.181597 -0.386945,-0.06486 -0.232111,-0.181597 -0.42328,-0.09688 c 0.308039,0.471021 0.474136,1.039873 0.474167,1.623942 1e-5,0.479045 -0.111727,0.949759 -0.324126,1.365425 l 0.206895,-0.06475 0.265284,-0.246456 h 0.431143 l 0.03317,-0.168625 h 0.342654 l 0.276402,-0.0908 0.132596,-0.194571 0.07737,-0.01296 0.165858,0.142684 0.585884,0.05188 v 0.10377 l 0.03308,0.29834 0.132687,0.194565 0.0884,0.246456 0.19903,0.155655 v 3.359551 l 0.221086,0.343737 0.04971,1.011644 0.331628,0.0065 0.06634,-1.076501 0.2266,-0.259423 0.01103,-3.761658 0.12166,-0.19457 0.06625,-0.73936 0.254258,-0.22051 v -0.492907 l -0.132598,-0.272397 -0.143713,-0.06486 0.0884,-0.129711 -0.01103,-0.29834 c 0,0 -0.08841,-0.181597 -0.12157,-0.376166 -0.03317,-0.194571 -0.165858,-0.142684 -0.165858,-0.142684 V 8.4992844 l -0.187911,-0.181597 -0.0442,-1.011758 z M 27.938956,7.8823434 H 28.08746 V 19.71434 h -0.148504 z m 11.188109,0 h 0.148504 V 19.71434 h -0.148504 z m -5.517272,3.2306426 c -1.311425,0 -2.377702,1.195169 -2.377702,2.665491 1e-6,1.470319 1.066279,2.66559 2.377702,2.66559 1.311423,0 2.377702,-1.195271 2.377702,-2.66559 0,-1.470322 -1.066277,-2.665491 -2.377702,-2.665491 z m -0.408184,0.411836 h 0.744422 v 0.348603 h -0.744422 z m 1.687874,0.386503 c 0.03525,0.03039 0.06952,0.06207 0.102951,0.09485 l -0.44886,0.526857 c -0.220767,-0.2084 -0.497472,-0.344262 -0.801002,-0.375256 h 0.898891 z m -2.609363,0.04408 0.168843,0.174808 1.028776,0.02747 c -0.321668,0.03266 -0.613392,0.183136 -0.84023,0.412849 l -0.453921,-0.520775 c 0.03137,-0.03253 0.06343,-0.064 0.09653,-0.09435 z m 2.842559,0.190009 c 0.221537,0.257863 0.391179,0.572048 0.489714,0.922174 l -0.629631,0.182511 C 34.916212,13.033213 34.81012,12.836958 34.673821,12.67227 Z m -6.753845,0.0021 h 0.148595 v 3.145934 h -0.148595 z m 10.328262,0 h 0.148595 v 3.145934 h -0.148595 z m -6.640591,0.0454 0.455276,0.522093 c -0.13233,0.171535 -0.233343,0.374201 -0.292853,0.596879 l -0.628002,-0.182001 c 0.08993,-0.353409 0.250978,-0.672886 0.465579,-0.936971 z m 1.619633,0.167207 c 0.280824,0.01618 0.537232,0.134445 0.740263,0.322359 l -0.451028,0.529183 c -0.08371,-0.0663 -0.182379,-0.110136 -0.289235,-0.123034 z m -0.17996,0.0042 v 0.732571 c -0.102888,0.0216 -0.19695,0.07159 -0.275316,0.142886 l -0.454553,-0.521454 c 0.197384,-0.197473 0.4504,-0.32633 0.729869,-0.354075 z m 1.05038,0.45744 c 0.190151,0.233952 0.311254,0.539563 0.32783,0.877078 h -0.650059 c -0.01345,-0.130373 -0.05938,-0.249765 -0.128438,-0.348095 z m -1.905705,0.04144 0.457806,0.525032 c -0.05527,0.09056 -0.09163,0.196497 -0.103402,0.3106 h -0.650059 c 0.01562,-0.31798 0.124145,-0.607522 0.295655,-0.835632 z m 3.006791,0.345866 c 0.04029,0.182356 0.06209,0.373011 0.06209,0.569518 0,0.224667 -0.0286,0.441579 -0.08081,0.647246 l -0.604865,-0.280505 c 0.02431,-0.117962 0.0376,-0.240609 0.0376,-0.366741 0,-0.133535 -0.01469,-0.263255 -0.04185,-0.387512 z m -4.088716,0.06313 0.628005,0.182105 c -0.01896,0.104825 -0.02901,0.213257 -0.02901,0.32428 0,0.1453 0.01728,0.286107 0.04926,0.42025 l -0.603238,0.279691 c -0.06113,-0.221056 -0.09409,-0.456097 -0.09409,-0.699942 0,-0.173969 0.01728,-0.343261 0.04908,-0.506385 z m 2.050865,0.01996 c 0.240709,0 0.433856,0.216548 0.433855,0.486419 0,0.269872 -0.193146,0.486423 -0.433855,0.486423 -0.240707,0 -0.433853,-0.216551 -0.433853,-0.486423 -10e-7,-0.269871 0.193145,-0.486419 0.433853,-0.486419 z m -1.265226,0.553404 h 0.649244 c 0.01154,0.133696 0.0575,0.256159 0.127354,0.357014 l -0.451028,0.529489 c -0.190863,-0.236532 -0.311515,-0.545694 -0.32557,-0.886527 z m 1.881209,0 h 0.649245 c -0.01438,0.348687 -0.140489,0.664001 -0.339038,0.902514 l -0.454644,-0.521543 c 0.07958,-0.105058 0.131971,-0.236602 0.144437,-0.381031 z m 0.762861,0.442137 0.600617,0.278577 c -0.101513,0.321428 -0.263445,0.610322 -0.47055,0.850124 l -0.454011,-0.520775 c 0.14469,-0.171749 0.256448,-0.37858 0.323944,-0.607926 z m -2.741959,0.05158 c 0.06648,0.202672 0.168022,0.386338 0.296196,0.54216 l -0.448949,0.526854 c -0.192803,-0.22538 -0.345833,-0.493593 -0.44678,-0.791044 z m 1.004283,0.0031 c 0.07196,0.05779 0.155103,0.09883 0.245217,0.117755 v 0.732875 c -0.263714,-0.0262 -0.50397,-0.142409 -0.696065,-0.321442 z m 0.69507,0.01753 0.458078,0.525436 c -0.201078,0.181575 -0.452687,0.295855 -0.727971,0.311717 v -0.728822 c 0.09871,-0.01191 0.190468,-0.05032 0.269893,-0.108331 z m -1.273182,0.660927 c 0.122411,0.116265 0.262157,0.210102 0.41424,0.276144 v 0.762466 c -0.324948,-0.09304 -0.619,-0.271327 -0.863099,-0.511754 z m 1.860603,0.01287 0.454553,0.521382 c -0.256433,0.250158 -0.567544,0.431398 -0.911004,0.518648 v -0.754157 c 0.167984,-0.06421 0.322402,-0.161622 0.456451,-0.285873 z m -1.233684,0.335224 c 0.064,0.01567 0.12959,0.02639 0.19641,0.03223 v 0.361122 h -0.19641 z m 0.572688,0.01065 v 0.382854 h -0.196318 v -0.357624 c 0.06674,-0.0034 0.132206,-0.01204 0.196318,-0.02524 z"
       sodipodi:nodetypes="ccccscccccccccccccccccccccccccccccccccccccccccccccccccccccccccccccccccccccccccccccccccccccccccccccccccccscccccccccccccccsssssccccccccccccccccccccccccccccccccccccccccccccccccccccccccccsccsccccsccscssssscccccccccccccccccccccccccccccccccccccccccccccccccc" />
  </g>
</svg>
