<?xml version="1.0" encoding="UTF-8" standalone="no"?>
<svg
   xmlns:dc="http://purl.org/dc/elements/1.1/"
   xmlns:cc="http://creativecommons.org/ns#"
   xmlns:rdf="http://www.w3.org/1999/02/22-rdf-syntax-ns#"
   xmlns:svg="http://www.w3.org/2000/svg"
   xmlns="http://www.w3.org/2000/svg"
   xmlns:sodipodi="http://sodipodi.sourceforge.net/DTD/sodipodi-0.dtd"
   xmlns:inkscape="http://www.inkscape.org/namespaces/inkscape"
   width="256"
   height="256"
   viewBox="0 0 67.733332 67.733335"
   version="1.1"
   id="svg8"
   inkscape:version="1.0.1 (3bc2e813f5, 2020-09-07)"
   sodipodi:docname="tie-fighter.svg"
   inkscape:export-filename="C:\Users\keath\Workspace\KMX\elite-streamdeck-icons\chaff.png"
   inkscape:export-xdpi="96"
   inkscape:export-ydpi="96">
  <defs
     id="defs2" />
  <sodipodi:namedview
     id="base"
     pagecolor="#000000"
     bordercolor="#666666"
     borderopacity="1.0"
     inkscape:pageopacity="0"
     inkscape:pageshadow="2"
     inkscape:zoom="3.959798"
     inkscape:cx="81.785341"
     inkscape:cy="138.89873"
     inkscape:document-units="px"
     inkscape:current-layer="layer2"
     showgrid="true"
     units="px"
     inkscape:snap-grids="true"
     objecttolerance="10000"
     guidetolerance="10000"
     inkscape:window-width="2321"
     inkscape:window-height="1879"
     inkscape:window-x="4802"
     inkscape:window-y="103"
     inkscape:window-maximized="0"
     inkscape:document-rotation="0"
     showguides="true"
     inkscape:snap-to-guides="false"
     inkscape:snap-others="false"
     inkscape:snap-nodes="false"
     inkscape:snap-global="true">
    <inkscape:grid
       type="xygrid"
       id="grid4623" />
    <sodipodi:guide
       position="-3.96875,62.441667"
       orientation="0,256"
       id="guide3351" />
    <sodipodi:guide
       position="62.177083,70.379167"
       orientation="256,0"
       id="guide3353" />
    <sodipodi:guide
       position="-2.6458333,22.754167"
       orientation="0,-256"
       id="guide3355" />
    <sodipodi:guide
       position="5.2916667,70.379167"
       orientation="-256,0"
       id="guide3357" />
    <sodipodi:guide
       position="0,67.733334"
       orientation="0,256"
       id="guide3359" />
    <sodipodi:guide
       position="67.733334,67.733334"
       orientation="256,0"
       id="guide3361" />
    <sodipodi:guide
       position="67.733334,0"
       orientation="0,-256"
       id="guide3363" />
    <sodipodi:guide
       position="0,0"
       orientation="-256,0"
       id="guide3365" />
    <sodipodi:guide
       position="0,67.733334"
       orientation="0,256"
       id="guide3367" />
    <sodipodi:guide
       position="67.733334,67.733334"
       orientation="256,0"
       id="guide3369" />
    <sodipodi:guide
       position="67.733334,0"
       orientation="0,-256"
       id="guide3371" />
    <sodipodi:guide
       position="0,0"
       orientation="-256,0"
       id="guide3373" />
    <sodipodi:guide
       position="0,67.733334"
       orientation="0,256"
       id="guide3375" />
    <sodipodi:guide
       position="67.733334,67.733334"
       orientation="256,0"
       id="guide3377" />
    <sodipodi:guide
       position="67.733334,0"
       orientation="0,-256"
       id="guide3379" />
    <sodipodi:guide
       position="0,0"
       orientation="-256,0"
       id="guide3381" />
  </sodipodi:namedview>
  <metadata
     id="metadata5">
    <rdf:RDF>
      <cc:Work
         rdf:about="">
        <dc:format>image/svg+xml</dc:format>
        <dc:type
           rdf:resource="http://purl.org/dc/dcmitype/StillImage" />
        <dc:title />
      </cc:Work>
    </rdf:RDF>
  </metadata>
  <g
     inkscape:groupmode="layer"
     id="layer2"
     inkscape:label="Icon">
    <path
       id="path1797-8"
       style="fill:#808080;fill-opacity:1;stroke:none;stroke-width:0.741378;stroke-linecap:round;stroke-miterlimit:4;stroke-dasharray:none;stroke-dashoffset:6.00002;stroke-opacity:1;paint-order:markers fill stroke"
       d="M 15.557358,6.07525 15.421742,9.0270322 14.845133,9.5568384 V 20.531404 c 0,0 -0.407183,-0.151377 -0.508943,0.416274 -0.101759,0.567657 -0.373038,1.097457 -0.373038,1.097457 l -0.03387,0.870401 0.271252,0.378428 -0.44099,0.189218 -0.406872,0.794713 v 1.438052 l 0.780188,0.643333 0.203299,2.15707 0.373311,0.567651 0.03382,10.974567 0.695318,0.756869 0.203578,3.140668 1.017594,-0.01893 0.152544,-2.951464 0.678402,-1.002839 v -9.801431 l 0.610721,-0.454121 0.271253,-0.719024 0.407151,-0.567645 0.101515,-0.8704 v -0.302738 l 1.797783,-0.151382 0.508942,-0.41627 0.237406,0.03781 0.406878,0.567652 0.848134,0.264903 h 1.051441 l 0.101787,0.491965 h 1.322959 l 0.814027,0.719023 0.634854,0.188921 c -0.651739,-1.212694 -0.994613,-2.585998 -0.994581,-3.983602 1.02e-4,-1.704006 0.509769,-3.363613 1.454983,-4.73781 l -1.298834,0.282645 -0.712236,0.529806 -1.187332,0.189216 -0.610451,0.529806 -1.45859,0.151371 -0.305365,0.756871 -0.508658,0.03788 -0.203578,-0.41628 H 18.91548 V 21.174734 L 18.610117,21.061197 18.270918,19.96374 17.558683,19.0555 V 9.6325182 L 16.812324,9.0648612 16.710538,6.0752384 Z m 34.31492,0 -0.101786,2.9896286 -0.74635,0.5676454 v 9.422989 l -0.712235,0.908239 -0.339203,1.097458 -0.30536,0.113536 v 1.135304 h -1.865457 l -0.203573,0.416271 -0.508663,-0.03788 -0.305364,-0.756867 -1.458585,-0.151372 -0.610449,-0.529807 -1.187338,-0.189216 -0.712236,-0.529805 -1.298835,-0.282646 c 0.945221,1.374192 1.454887,3.033808 1.454983,4.737818 3.2e-5,1.397603 -0.342837,2.770901 -0.994578,3.9836 l 0.634857,-0.188918 0.814022,-0.71903 h 1.322964 l 0.101786,-0.49196 h 1.051436 l 0.84814,-0.264903 0.406871,-0.567657 0.237414,-0.03781 0.508935,0.41628 1.797789,0.151371 v 0.302748 l 0.101502,0.870401 0.40715,0.567641 0.271252,0.719029 0.610724,0.454119 v 9.801423 l 0.678401,1.002847 0.152543,2.95145 1.017601,0.01894 0.203571,-3.140667 0.695321,-0.756863 0.03387,-10.974563 0.373312,-0.56765 0.203298,-2.15707 0.780187,-0.643335 v -1.438042 l -0.406877,-0.794714 -0.440983,-0.189219 0.271252,-0.378428 -0.03387,-0.8704 c 0,0 -0.271284,-0.529807 -0.373037,-1.097458 C 52.144921,20.380052 51.737742,20.53143 51.737742,20.53143 V 9.556837 L 51.161131,9.0270307 51.025516,6.0752485 Z M 15.898226,7.7569211 H 16.35391 V 42.276543 h -0.455684 z m 34.330728,0 h 0.455684 V 42.276543 H 50.228954 Z M 33.299198,17.182268 c -4.02411,0 -7.295983,3.486879 -7.295983,7.776514 5e-6,4.289627 3.271878,7.776807 7.295983,7.776807 4.024104,0 7.295982,-3.48718 7.295982,-7.776807 0,-4.289635 -3.271874,-7.776514 -7.295982,-7.776514 z m -1.252517,1.201524 h 2.284264 v 1.017039 h -2.284264 z m 5.179246,1.127615 c 0.108177,0.08866 0.213329,0.181075 0.315905,0.276728 l -1.377328,1.537096 c -0.677425,-0.608002 -1.526493,-1.004379 -2.457877,-1.094802 h 2.75825 z m -8.006835,0.128594 0.518095,0.509999 3.156802,0.08012 c -0.987039,0.0953 -1.882195,0.534298 -2.57825,1.204481 l -1.392855,-1.51935 c 0.09625,-0.09489 0.194642,-0.186695 0.296208,-0.275255 z m 8.722399,0.554351 c 0.679786,0.752308 1.200331,1.668936 1.502685,2.690423 l -1.932024,0.532472 C 37.307957,22.784491 36.982401,22.211919 36.56417,21.731446 Z m -20.724188,0.0059 h 0.455965 v 9.178199 h -0.455965 z m 31.69229,0 h 0.455967 v 9.178199 h -0.455967 z m -20.376663,0.132457 1.397015,1.523193 c -0.406057,0.500453 -0.716015,1.091728 -0.898618,1.741385 l -1.927028,-0.530984 c 0.275941,-1.031063 0.770125,-1.963132 1.428631,-2.733594 z m 4.969846,0.487823 c 0.861708,0.0472 1.648497,0.39224 2.2715,0.940474 l -1.383982,1.543882 c -0.256852,-0.193387 -0.559628,-0.321285 -0.887518,-0.358914 z m -0.552206,0.01215 v 2.137263 c -0.315713,0.06302 -0.604343,0.208859 -0.844809,0.416869 l -1.394798,-1.521123 c 0.605674,-0.576124 1.382056,-0.952063 2.239607,-1.033009 z m 3.223091,1.334574 c 0.58348,0.68255 0.955084,1.574164 1.005948,2.558857 h -1.994705 c -0.04128,-0.380357 -0.182187,-0.728681 -0.394114,-1.015558 z m -5.84766,0.120913 1.404779,1.531771 c -0.169587,0.264224 -0.281169,0.573276 -0.317289,0.90617 h -1.994707 c 0.04793,-0.9277 0.380941,-1.772433 0.907217,-2.437941 z m 9.226344,1.009059 c 0.123647,0.532021 0.19054,1.088252 0.19054,1.661556 0,0.65546 -0.08776,1.288299 -0.247953,1.888329 l -1.85603,-0.818367 c 0.07459,-0.344154 0.115369,-0.701975 0.115383,-1.069962 0,-0.389585 -0.04508,-0.76804 -0.12841,-1.13056 z m -12.546231,0.184189 1.927034,0.531288 c -0.0582,0.305826 -0.08903,0.622174 -0.08903,0.946079 0,0.423913 0.05302,0.834712 0.151154,1.22607 l -1.851035,0.815998 c -0.18759,-0.644929 -0.288722,-1.330655 -0.288722,-2.042068 0,-0.507551 0.05302,-1.001456 0.150599,-1.477367 z m 6.293084,0.05825 c 0.738613,0 1.331289,0.631773 1.331282,1.419119 0,0.787346 -0.592669,1.419127 -1.331282,1.419127 -0.738611,0 -1.331279,-0.631781 -1.331279,-1.419127 -6e-6,-0.787346 0.592663,-1.419119 1.331279,-1.419119 z m -3.88235,1.614549 h 1.992206 c 0.03543,0.390053 0.176446,0.747338 0.390786,1.041579 l -1.383978,1.544775 c -0.585665,-0.690007 -0.955885,-1.59198 -0.999014,-2.586354 z m 5.772494,0 h 1.992209 c -0.04411,1.017288 -0.431093,1.93721 -1.040341,2.633066 L 34.746136,26.26581 c 0.2442,-0.306502 0.404953,-0.69028 0.443206,-1.111646 z m 2.340838,1.289925 1.842995,0.81274 c -0.311494,0.937763 -0.808382,1.780604 -1.443885,2.480221 l -1.393132,-1.51935 c 0.443984,-0.501075 0.786913,-1.1045 0.994022,-1.773611 z m -8.413706,0.150483 c 0.203985,0.591292 0.515577,1.127134 0.908879,1.581739 l -1.3776,1.536986 C 28.056137,29.055854 27.586562,28.27335 27.276808,27.405542 Z m 3.081644,0.0093 c 0.220817,0.168587 0.475935,0.288349 0.752452,0.343547 V 29.08562 C 32.141361,29.0092 31.404137,28.67014 30.814693,28.147818 Z m 2.132827,0.05115 1.405612,1.532949 c -0.617009,0.529737 -1.389072,0.863146 -2.233781,0.909424 V 26.97111 c 0.302895,-0.03473 0.584449,-0.146823 0.828169,-0.316049 z M 30.424182,28.5833 c 0.375618,0.339201 0.80443,0.612969 1.271097,0.805648 v 2.224474 c -0.997105,-0.271585 -1.899404,-0.791723 -2.64842,-1.493164 z m 5.709262,0.03754 1.394799,1.521123 c -0.786865,0.729829 -1.74151,1.258592 -2.795419,1.513141 v -2.200262 c 0.51546,-0.187317 0.989289,-0.47153 1.40062,-0.834028 z m -3.785559,0.978007 c 0.196377,0.04571 0.397646,0.07701 0.602685,0.09402 v 1.053692 h -0.602685 z m 1.757296,0.03107 v 1.116971 H 33.502776 V 29.70351 c 0.20478,-0.0098 0.405673,-0.03514 0.602405,-0.07363 z"
       sodipodi:nodetypes="ccccscccccccccccccccccccccccccccccccccccccccccccccccccccccccccccccccccccccccccccccccccccccccccccccccccccscccccccccccccccsssssccccccccccccccccccccccccccccccccccccccccccccccccccccccccccsccsccccsccscssssscccccccccccccccccccccccccccccccccccccccccccccccccc" />
  </g>
</svg>
