<?xml version="1.0" encoding="UTF-8" standalone="no"?>
<svg
   xmlns:dc="http://purl.org/dc/elements/1.1/"
   xmlns:cc="http://creativecommons.org/ns#"
   xmlns:rdf="http://www.w3.org/1999/02/22-rdf-syntax-ns#"
   xmlns:svg="http://www.w3.org/2000/svg"
   xmlns="http://www.w3.org/2000/svg"
   xmlns:sodipodi="http://sodipodi.sourceforge.net/DTD/sodipodi-0.dtd"
   xmlns:inkscape="http://www.inkscape.org/namespaces/inkscape"
   width="256"
   height="256"
   viewBox="0 0 67.733332 67.733335"
   version="1.1"
   id="svg8"
   inkscape:version="1.0.1 (3bc2e813f5, 2020-09-07)"
   sodipodi:docname="tie-reaper.svg"
   inkscape:export-filename="C:\Users\keath\Workspace\KMX\elite-streamdeck-icons\chaff.png"
   inkscape:export-xdpi="96"
   inkscape:export-ydpi="96">
  <defs
     id="defs2" />
  <sodipodi:namedview
     id="base"
     pagecolor="#000000"
     bordercolor="#666666"
     borderopacity="1.0"
     inkscape:pageopacity="0"
     inkscape:pageshadow="2"
     inkscape:zoom="3.959798"
     inkscape:cx="81.785341"
     inkscape:cy="138.89873"
     inkscape:document-units="px"
     inkscape:current-layer="layer2"
     showgrid="true"
     units="px"
     inkscape:snap-grids="true"
     objecttolerance="10000"
     guidetolerance="10000"
     inkscape:window-width="2321"
     inkscape:window-height="1879"
     inkscape:window-x="4802"
     inkscape:window-y="103"
     inkscape:window-maximized="0"
     inkscape:document-rotation="0"
     showguides="true"
     inkscape:snap-to-guides="false"
     inkscape:snap-others="false"
     inkscape:snap-nodes="false"
     inkscape:snap-global="true">
    <inkscape:grid
       type="xygrid"
       id="grid4623" />
    <sodipodi:guide
       position="-3.96875,62.441667"
       orientation="0,256"
       id="guide3351" />
    <sodipodi:guide
       position="62.177083,70.379167"
       orientation="256,0"
       id="guide3353" />
    <sodipodi:guide
       position="-2.6458333,22.754167"
       orientation="0,-256"
       id="guide3355" />
    <sodipodi:guide
       position="5.2916667,70.379167"
       orientation="-256,0"
       id="guide3357" />
    <sodipodi:guide
       position="0,67.733334"
       orientation="0,256"
       id="guide3359" />
    <sodipodi:guide
       position="67.733334,67.733334"
       orientation="256,0"
       id="guide3361" />
    <sodipodi:guide
       position="67.733334,0"
       orientation="0,-256"
       id="guide3363" />
    <sodipodi:guide
       position="0,0"
       orientation="-256,0"
       id="guide3365" />
    <sodipodi:guide
       position="0,67.733334"
       orientation="0,256"
       id="guide3367" />
    <sodipodi:guide
       position="67.733334,67.733334"
       orientation="256,0"
       id="guide3369" />
    <sodipodi:guide
       position="67.733334,0"
       orientation="0,-256"
       id="guide3371" />
    <sodipodi:guide
       position="0,0"
       orientation="-256,0"
       id="guide3373" />
    <sodipodi:guide
       position="0,67.733334"
       orientation="0,256"
       id="guide3375" />
    <sodipodi:guide
       position="67.733334,67.733334"
       orientation="256,0"
       id="guide3377" />
    <sodipodi:guide
       position="67.733334,0"
       orientation="0,-256"
       id="guide3379" />
    <sodipodi:guide
       position="0,0"
       orientation="-256,0"
       id="guide3381" />
  </sodipodi:namedview>
  <metadata
     id="metadata5">
    <rdf:RDF>
      <cc:Work
         rdf:about="">
        <dc:format>image/svg+xml</dc:format>
        <dc:type
           rdf:resource="http://purl.org/dc/dcmitype/StillImage" />
        <dc:title />
      </cc:Work>
    </rdf:RDF>
  </metadata>
  <g
     inkscape:groupmode="layer"
     id="layer2"
     inkscape:label="Icon">
    <path
       id="path2409"
       style="fill:#808080;fill-opacity:1;stroke:none;stroke-width:0.931049;stroke-linecap:square;stroke-miterlimit:4;stroke-dasharray:none;stroke-dashoffset:6.00002;stroke-opacity:1;paint-order:markers fill stroke"
       d="M 30.264311,5.0332514 19.998017,28.156212 v 2.57383 l 2.952699,9.215977 6.359646,4.815555 1.40821,0.415129 v -1.660534 h 2.362163 3.088968 2.362162 v 1.660534 l 1.40821,-0.415129 6.359648,-4.815555 2.952698,-9.215977 v -2.57383 l -10.2663,-23.1229606 -1.63534,1.3284307 v 2.4908034 l 0.408842,0.37362 V 12.962314 H 37.396211 V 11.71691 H 35.579168 33.67127 31.854227 v 1.245404 H 31.490816 V 9.2261055 l 0.408833,-0.37362 V 6.3616821 Z m 0.236017,1.7257292 h 0.642707 V 26.044871 h -0.642707 z m 7.535411,0 h 0.642345 V 26.044871 H 38.035739 Z M 30.128037,7.8976804 V 26.160006 h -0.02197 l -0.355959,0.237403 0.180636,-16.385468 0.03091,-0.1579437 -0.02913,-0.00505 0.0156,-1.4254016 0.0013,-0.1005371 z m 8.812662,0 0.15972,0.380102 0.0021,0.1456228 0.01567,1.4254015 -0.02912,0.00505 0.03082,0.1579443 0.181363,16.453249 -0.36023,-0.240324 z M 39.884,10.142319 42.736265,16.93073 H 41.23012 Z m -10.734042,0.08302 -1.329768,6.705385 h -1.487707 z m 0.01141,3.669394 -0.03373,3.035991 h -0.568531 z m 10.727671,0 0.602237,3.035991 h -0.568564 z m -5.37416,0.144323 h 6.88e-4 c 0.727309,-5e-6 1.316917,0.34165 1.317013,0.763135 -7.5e-5,0.421488 -0.589704,0.763143 -1.317013,0.763136 -0.72729,1.2e-5 -1.316926,-0.341643 -1.316993,-0.763136 6.7e-5,-0.421328 0.589263,-0.762915 1.316285,-0.763135 z m -2.761768,1.995888 h 0.610419 v 4.638151 h -0.610398 z m 5.025274,0 h 0.610397 v 4.638151 h -0.610397 z m -3.80444,1.409185 h 3.05135 v 0.968756 h -3.05135 z m -6.920737,0.150813 h 1.63534 l -0.955018,4.814904 h -2.703219 z m 2.374222,0 h 0.693096 l -0.05323,4.814904 h -1.59489 z m 11.502381,0 h 0.693109 l 0.955004,4.814904 h -1.594876 z m 1.431996,0 h 1.653779 l 2.022883,4.814904 h -2.721645 z m -8.548632,3.635666 h 0.578113 v 4.814258 h -0.578113 z m 2.937437,0 h 0.578106 v 4.814258 h -0.578106 z m -11.999597,1.843456 h 2.850849 l -0.695581,3.508201 H 22.27681 Z m 3.589732,0 h 1.719089 l -0.03866,3.508201 h -2.376351 z m 12.64975,0 h 1.719091 l 0.695947,3.508205 h -2.376352 z m 2.457972,0 h 2.869298 l 1.474219,3.508201 h -3.647914 z m -12.229558,3.75372 h 0.976657 l 6.86e-4,1.307669 h -2.554506 l 0.282475,-0.415136 0.684957,-0.472216 0.131296,0.0013 v -0.0025 h 0.0042 v -0.09178 z m 7.633728,0 h 0.976664 l 0.476608,0.328538 v 0.09048 h 0.0042 v 0.0025 l 0.128834,-0.0013 0.684951,0.472215 0.282474,0.415134 h -2.554486 z m -5.842577,0.273722 h 1.606227 v 3.464098 h -1.606227 z m 3.505969,0 h 1.605883 v 3.464098 h -1.605882 z m -13.518174,0.145299 h 3.776398 l -0.296341,1.49416 H 21.40625 v -0.0866 z m 4.51528,0 h 1.976406 l -0.824777,1.232106 v 0.262054 h -0.06599 -1.381933 z m 13.946892,0 h 2.077534 l 0.296322,1.49416 h -1.381933 -0.167169 v -0.262054 z m 2.816052,0 h 3.794859 l 0.591594,1.407563 v 0.0866 h -4.09011 z M 28.40187,28.571343 h 2.794428 l 3.45e-4,0.560433 H 28.40187 Z m 9.449697,0 h 2.794779 v 0.560433 h -2.794779 z m -9.390774,0.996321 h 2.735853 l 6.89e-4,1.259672 -1.04942,-0.256859 -0.08125,-0.05936 -0.02802,0.03244 -0.0013,-3.33e-4 -1.067515,-0.435889 z m 9.390432,0 h 2.736195 l -0.508898,0.539678 -1.067175,0.435564 -0.02767,-0.03176 -0.08021,0.05838 -1.052977,0.257829 z M 21.40625,29.737608 h 4.536227 l 0.07417,0.012 0.0027,-0.012 h 1.579266 0.107534 l 0.665075,0.884106 0.555052,0.304217 v 0.508215 0.384 l -5.323413,6.096307 -2.196785,-7.267442 z m 19.837011,0 h 0.208691 1.579266 l 0.0027,0.012 0.07417,-0.012 h 4.554675 v 0.909403 l -2.201388,7.283007 -5.337208,-6.111872 v -0.384 -0.56335 l 0.45425,-0.249082 z m -2.752528,1.805837 0.179216,0.205295 v 4.734475 h -1.604858 l 0.814831,-0.474815 0.642342,-0.778046 0.06421,-2.553728 -0.289236,-0.587348 -0.770828,-0.440108 0.899316,-0.08821 z m -7.948153,0.01946 0.880484,0.08627 -0.771172,0.44011 -0.271503,0.552001 v -0.892539 z m 3.228085,0.573084 v 3.845501 l -0.546162,-0.41092 -0.546184,-0.660646 v -1.834695 l 0.658674,-0.748543 z m 1.45151,0 0.43368,0.190699 0.658675,0.748542 v 1.834695 l -0.546164,0.660647 -0.546191,0.410918 z m -4.014883,0.469618 h 0.594085 v 2.539129 h -0.594085 z m 6.023208,0 h 0.59445 v 2.539129 H 37.2305 Z m -6.850111,0.762483 0.04683,1.862271 0.642365,0.778047 0.73356,0.474813 h -1.422769 z m -1.453981,0.04638 v 3.068753 h -0.02308 v 1.328751 h 0.02308 v 4.334251 H 28.40187 l -4.087625,-3.448206 z m 11.197534,0 4.619966,5.292637 -4.076995,3.439126 h -0.542971 v -4.334259 h 0.02274 v -1.328759 h -0.02274 z m -9.743553,4.397502 h 3.020836 1.521071 0.726815 3.020838 v 4.334264 h -3.363316 -1.544489 -3.381755 z" />
  </g>
</svg>
