<?xml version="1.0" encoding="UTF-8" standalone="no"?>
<svg
   xmlns:dc="http://purl.org/dc/elements/1.1/"
   xmlns:cc="http://creativecommons.org/ns#"
   xmlns:rdf="http://www.w3.org/1999/02/22-rdf-syntax-ns#"
   xmlns:svg="http://www.w3.org/2000/svg"
   xmlns="http://www.w3.org/2000/svg"
   xmlns:sodipodi="http://sodipodi.sourceforge.net/DTD/sodipodi-0.dtd"
   xmlns:inkscape="http://www.inkscape.org/namespaces/inkscape"
   width="256"
   height="256"
   viewBox="0 0 67.733332 67.733335"
   version="1.1"
   id="svg8"
   inkscape:version="1.0.1 (3bc2e813f5, 2020-09-07)"
   sodipodi:docname="tie-interceptor.svg"
   inkscape:export-filename="C:\Users\keath\Workspace\KMX\elite-streamdeck-icons\chaff.png"
   inkscape:export-xdpi="96"
   inkscape:export-ydpi="96">
  <defs
     id="defs2" />
  <sodipodi:namedview
     id="base"
     pagecolor="#000000"
     bordercolor="#666666"
     borderopacity="1.0"
     inkscape:pageopacity="0"
     inkscape:pageshadow="2"
     inkscape:zoom="3.959798"
     inkscape:cx="81.785341"
     inkscape:cy="138.89873"
     inkscape:document-units="px"
     inkscape:current-layer="layer2"
     showgrid="true"
     units="px"
     inkscape:snap-grids="true"
     objecttolerance="10000"
     guidetolerance="10000"
     inkscape:window-width="2321"
     inkscape:window-height="1879"
     inkscape:window-x="4802"
     inkscape:window-y="103"
     inkscape:window-maximized="0"
     inkscape:document-rotation="0"
     showguides="true"
     inkscape:snap-to-guides="false"
     inkscape:snap-others="false"
     inkscape:snap-nodes="false"
     inkscape:snap-global="true">
    <inkscape:grid
       type="xygrid"
       id="grid4623" />
    <sodipodi:guide
       position="-3.96875,62.441667"
       orientation="0,256"
       id="guide3351" />
    <sodipodi:guide
       position="62.177083,70.379167"
       orientation="256,0"
       id="guide3353" />
    <sodipodi:guide
       position="-2.6458333,22.754167"
       orientation="0,-256"
       id="guide3355" />
    <sodipodi:guide
       position="5.2916667,70.379167"
       orientation="-256,0"
       id="guide3357" />
    <sodipodi:guide
       position="0,67.733334"
       orientation="0,256"
       id="guide3359" />
    <sodipodi:guide
       position="67.733334,67.733334"
       orientation="256,0"
       id="guide3361" />
    <sodipodi:guide
       position="67.733334,0"
       orientation="0,-256"
       id="guide3363" />
    <sodipodi:guide
       position="0,0"
       orientation="-256,0"
       id="guide3365" />
    <sodipodi:guide
       position="0,67.733334"
       orientation="0,256"
       id="guide3367" />
    <sodipodi:guide
       position="67.733334,67.733334"
       orientation="256,0"
       id="guide3369" />
    <sodipodi:guide
       position="67.733334,0"
       orientation="0,-256"
       id="guide3371" />
    <sodipodi:guide
       position="0,0"
       orientation="-256,0"
       id="guide3373" />
    <sodipodi:guide
       position="0,67.733334"
       orientation="0,256"
       id="guide3375" />
    <sodipodi:guide
       position="67.733334,67.733334"
       orientation="256,0"
       id="guide3377" />
    <sodipodi:guide
       position="67.733334,0"
       orientation="0,-256"
       id="guide3379" />
    <sodipodi:guide
       position="0,0"
       orientation="-256,0"
       id="guide3381" />
  </sodipodi:namedview>
  <metadata
     id="metadata5">
    <rdf:RDF>
      <cc:Work
         rdf:about="">
        <dc:format>image/svg+xml</dc:format>
        <dc:type
           rdf:resource="http://purl.org/dc/dcmitype/StillImage" />
        <dc:title />
      </cc:Work>
    </rdf:RDF>
  </metadata>
  <g
     inkscape:groupmode="layer"
     id="layer2"
     inkscape:label="Icon">
    <path
       id="path1993"
       style="color:#000000;font-style:normal;font-variant:normal;font-weight:normal;font-stretch:normal;font-size:medium;line-height:normal;font-family:sans-serif;font-variant-ligatures:normal;font-variant-position:normal;font-variant-caps:normal;font-variant-numeric:normal;font-variant-alternates:normal;font-variant-east-asian:normal;font-feature-settings:normal;font-variation-settings:normal;text-indent:0;text-align:start;text-decoration:none;text-decoration-line:none;text-decoration-style:solid;text-decoration-color:#000000;letter-spacing:normal;word-spacing:normal;text-transform:none;writing-mode:lr-tb;direction:ltr;text-orientation:mixed;dominant-baseline:auto;baseline-shift:baseline;text-anchor:start;white-space:normal;shape-padding:0;shape-margin:0;inline-size:0;clip-rule:nonzero;display:inline;overflow:visible;visibility:visible;opacity:1;isolation:auto;mix-blend-mode:normal;color-interpolation:sRGB;color-interpolation-filters:linearRGB;solid-color:#000000;solid-opacity:1;vector-effect:none;fill:#808080;fill-opacity:1;fill-rule:nonzero;stroke:none;stroke-width:2.39078;stroke-linecap:round;stroke-linejoin:miter;stroke-miterlimit:4;stroke-dasharray:none;stroke-dashoffset:6.00002;stroke-opacity:1;paint-order:markers fill stroke;color-rendering:auto;image-rendering:auto;shape-rendering:auto;text-rendering:auto;enable-background:accumulate;stop-color:#000000;stop-opacity:1"
       d="m 26.912619,6.3269795 -0.73642,0.1866435 -1.180371,1.0132006 -1.013731,0.5865915 -9.915127,11.3318679 -0.10458,0.663247 -0.44091,0.344122 -0.01955,9.211307 c 0.05845,0.08257 0.462708,0.227176 0.66743,0.37037 0.190525,0.133276 0.378076,0.623489 0.439598,0.704076 2.544294,3.332465 6.994891,7.656156 10.087854,11.438515 l 1.120047,0.562445 1.196415,1.110683 0.373653,-0.326633 -0.833649,-1.229838 -0.418334,-1.258994 -8.497811,-11.113988 1.202945,-0.595341 0.927368,-0.887801 0.868353,-0.193307 0.64139,0.65408 1.469393,0.09249 0.416603,0.693243 1.638632,0.13332 0.527695,0.639916 h 1.055392 l 0.42529,0.380783 c -1.260003,-1.583972 -1.942676,-3.521677 -1.942852,-5.514703 4.5e-5,-2.209645 0.838689,-4.343578 2.35901,-6.002558 l -0.09155,0.01793 -0.916523,0.639917 -1.499768,0.02666 -0.472147,0.853222 -1.444221,0.13332 -0.777658,0.639917 -1.222031,-0.02666 -0.277736,0.239968 -0.666562,-0.319954 -2.138561,-1.186514 8.040415,-11.0919011 0.277734,-1.0531966 0.680452,-1.1331871 z m 15.059304,0 0.194413,0.733239 0.68045,1.1331856 0.277735,1.0531981 8.040418,11.0918998 -2.138556,1.186513 -0.666564,0.319958 -0.277735,-0.239969 -1.222033,0.02665 -0.777657,-0.639918 -1.44422,-0.13332 -0.472147,-0.853223 -1.499768,-0.02666 -0.916524,-0.639917 -0.09155,-0.01792 c 1.520319,1.65898 2.358968,3.792915 2.35899,6.00256 -1.77e-4,1.993028 -0.682828,3.930731 -1.942831,5.514703 l 0.425286,-0.380783 h 1.055392 l 0.527695,-0.639917 1.638634,-0.13332 0.416602,-0.693243 1.469373,-0.09249 0.641411,-0.654082 0.868353,0.193306 0.927367,0.887803 1.202946,0.59534 -8.497812,11.113988 -0.418334,1.258995 -0.833649,1.229835 0.373632,0.326637 1.196436,-1.110684 1.120046,-0.562445 c 3.092966,-3.782359 7.543118,-8.10605 10.087413,-11.438516 0.06153,-0.08058 0.249491,-0.570801 0.440041,-0.704074 0.204724,-0.143191 0.608971,-0.287806 0.667431,-0.370369 L 55.363047,20.452636 54.922139,20.108514 54.817129,19.445267 44.902002,8.1133989 43.888271,7.5268074 42.707898,6.5136053 Z M 25.030978,8.0209264 25.569073,8.400461 25.370324,8.657092 16.166021,20.104363 V 30.1314 l 9.392653,10.997742 0.210034,0.250399 -0.519896,0.39995 -0.210035,-0.248737 -9.636946,-11.2877 0.09806,-10.309919 9.33448,-11.6539088 z m 18.822163,0 0.19657,0.2582998 9.334482,11.6539088 0.09852,10.309919 -9.636947,11.2877 -0.210055,0.248737 -0.519875,-0.39995 0.210033,-0.250399 L 52.718081,30.1314 V 20.104363 L 43.513776,8.657092 43.315031,8.400461 Z m -9.393074,8.6842916 c -4.917723,0 -8.916145,3.83776 -8.916145,8.558896 0,4.721117 3.998422,8.558892 8.916145,8.558892 4.917704,0 8.916149,-3.837775 8.916149,-8.558892 0,-4.721136 -3.998445,-8.558896 -8.916149,-8.558896 z m -1.530584,1.32233 h 2.791232 v 1.119439 h -2.791232 z m 6.329307,1.241092 c 0.1322,0.09758 0.260447,0.199268 0.385805,0.304541 l -1.682916,1.691864 C 37.13383,20.595888 36.096014,20.159719 34.957813,20.060203 h 3.37101 z m -9.784926,0.141642 0.633148,0.561177 3.857911,0.08832 c -1.206235,0.104885 -2.300375,0.588066 -3.150998,1.325664 l -1.701981,-1.672285 c 0.117629,-0.104443 0.237785,-0.205416 0.36192,-0.302876 z m 10.659367,0.609922 c 0.830737,0.827986 1.466596,1.837053 1.83607,2.961283 l -2.360744,0.585757 c -0.24954,-0.696407 -0.647566,-1.326376 -1.158666,-1.855177 z m -11.497792,0.152479 1.707201,1.676452 c -0.496211,0.55079 -0.875197,1.201395 -1.098339,1.916416 L 26.8892,23.181049 c 0.337213,-1.134774 0.941521,-2.160396 1.746239,-3.008362 z m 6.073279,0.537016 c 1.053059,0.05193 2.014709,0.431494 2.776034,1.034866 l -1.691559,1.699364 c -0.313882,-0.212861 -0.683781,-0.353952 -1.084475,-0.395367 z m -0.674805,0.01328 v 2.352194 c -0.385831,0.06934 -0.738532,0.229756 -1.032396,0.458692 l -1.704603,-1.67395 c 0.740176,-0.634082 1.689004,-1.047852 2.736999,-1.136938 z m 3.938631,1.468561 c 0.713046,0.75121 1.167241,1.732565 1.22941,2.816302 h -2.437555 c -0.05047,-0.418618 -0.222722,-0.802034 -0.481704,-1.117772 z m -19.997335,0.02125 h 0.665695 v 0.319542 5.618441 0.321208 h -0.665695 v -0.321203 -5.618441 z m 32.267984,0 h 0.665695 v 0.319542 5.618441 0.321208 h -0.665695 v -0.321203 -5.618441 z m -19.416672,0.112071 1.716734,1.685616 c -0.207234,0.290801 -0.343814,0.630994 -0.387963,0.99737 h -2.437553 c 0.05854,-1.021014 0.465638,-1.950534 1.108782,-2.682986 z m 11.275137,1.110271 c 0.151106,0.58554 0.233053,1.197963 0.233053,1.828932 0,0.721391 -0.107593,1.417671 -0.303352,2.078066 l -2.26787,-0.900719 c 0.09116,-0.378774 0.141039,-0.77234 0.141039,-1.177347 0,-0.428766 -0.05526,-0.845444 -0.157108,-1.244422 z m -15.33224,0.202892 2.355101,0.584508 c -0.07111,0.336587 -0.108929,0.685049 -0.108929,1.041532 0,0.466562 0.06497,0.918684 0.184861,1.349408 l -2.262227,0.897802 c -0.229254,-0.709799 -0.352811,-1.464234 -0.352811,-2.24721 0,-0.558603 0.06477,-1.102255 0.183994,-1.62604 z m 7.690649,0.06416 c 0.902617,0 1.626926,0.695334 1.626905,1.561881 0,0.866546 -0.724288,1.561881 -1.626905,1.561881 -0.902636,0 -1.626925,-0.695335 -1.626925,-1.561881 0,-0.866547 0.724289,-1.561881 1.626925,-1.561881 z m -4.744483,1.776851 h 2.43451 c 0.04332,0.429299 0.21541,0.822679 0.477348,1.146519 l -1.691137,1.700198 c -0.715734,-0.759419 -1.168019,-1.752313 -1.220721,-2.846717 z m 7.054457,0 h 2.434512 c -0.05391,1.119622 -0.526962,2.132107 -1.271513,2.897959 l -1.705023,-1.67436 c 0.298418,-0.337329 0.495254,-0.759836 0.542024,-1.223593 z m 2.860224,1.419817 2.252251,0.894467 c -0.380653,1.032147 -0.987849,1.959707 -1.764483,2.729705 L 38.415609,28.85074 c 0.542582,-0.551479 0.96156,-1.215413 1.214656,-1.951832 z m -10.281823,0.165395 c 0.249293,0.650762 0.629857,1.240693 1.110514,1.741026 l -1.683338,1.69145 C 28.052619,29.773039 27.478642,28.91215 27.100102,27.957049 Z m 3.765903,0.01004 c 0.269847,0.185545 0.581643,0.317537 0.919568,0.378285 v 2.353444 c -0.988915,-0.08409 -1.88993,-0.457497 -2.610262,-1.032362 z m 2.60637,0.05666 1.718045,1.686867 c -0.754015,0.583024 -1.697759,0.95019 -2.730042,1.00112 v -2.340599 c 0.370165,-0.03821 0.714156,-0.161208 1.011997,-0.347454 z m -4.773991,2.12181 c 0.459019,0.373325 0.982849,0.674908 1.553138,0.886966 v 2.44802 c -1.218521,-0.298764 -2.321129,-0.871121 -3.236474,-1.643127 z m 6.976783,0.04167 1.70458,1.673949 c -0.961584,0.803237 -2.128181,1.38504 -3.416136,1.665201 v -2.421352 c 0.629925,-0.206161 1.20888,-0.518827 1.711556,-0.917798 z m -4.626037,1.076108 c 0.239986,0.05031 0.485879,0.08501 0.736443,0.103734 v 1.159435 H 33.29747 Z m 2.147245,0.03418 v 1.229423 h -0.735997 v -1.14819 c 0.25025,-0.01092 0.495591,-0.03883 0.735997,-0.08123 z" />
  </g>
</svg>
