<?xml version="1.0" encoding="UTF-8" standalone="no"?>
<svg
   xmlns:dc="http://purl.org/dc/elements/1.1/"
   xmlns:cc="http://creativecommons.org/ns#"
   xmlns:rdf="http://www.w3.org/1999/02/22-rdf-syntax-ns#"
   xmlns:svg="http://www.w3.org/2000/svg"
   xmlns="http://www.w3.org/2000/svg"
   xmlns:sodipodi="http://sodipodi.sourceforge.net/DTD/sodipodi-0.dtd"
   xmlns:inkscape="http://www.inkscape.org/namespaces/inkscape"
   width="256"
   height="256"
   viewBox="0 0 67.733332 67.733335"
   version="1.1"
   id="svg8"
   inkscape:version="1.0.1 (3bc2e813f5, 2020-09-07)"
   sodipodi:docname="tie-bomber.svg"
   inkscape:export-filename="C:\Users\keath\Workspace\KMX\elite-streamdeck-icons\chaff.png"
   inkscape:export-xdpi="96"
   inkscape:export-ydpi="96">
  <defs
     id="defs2" />
  <sodipodi:namedview
     id="base"
     pagecolor="#000000"
     bordercolor="#666666"
     borderopacity="1.0"
     inkscape:pageopacity="0"
     inkscape:pageshadow="2"
     inkscape:zoom="3.959798"
     inkscape:cx="81.785341"
     inkscape:cy="138.89873"
     inkscape:document-units="px"
     inkscape:current-layer="layer2"
     showgrid="true"
     units="px"
     inkscape:snap-grids="true"
     objecttolerance="10000"
     guidetolerance="10000"
     inkscape:window-width="2321"
     inkscape:window-height="1879"
     inkscape:window-x="4802"
     inkscape:window-y="103"
     inkscape:window-maximized="0"
     inkscape:document-rotation="0"
     showguides="true"
     inkscape:snap-to-guides="false"
     inkscape:snap-others="false"
     inkscape:snap-nodes="false"
     inkscape:snap-global="true">
    <inkscape:grid
       type="xygrid"
       id="grid4623" />
    <sodipodi:guide
       position="-3.96875,62.441667"
       orientation="0,256"
       id="guide3351" />
    <sodipodi:guide
       position="62.177083,70.379167"
       orientation="256,0"
       id="guide3353" />
    <sodipodi:guide
       position="-2.6458333,22.754167"
       orientation="0,-256"
       id="guide3355" />
    <sodipodi:guide
       position="5.2916667,70.379167"
       orientation="-256,0"
       id="guide3357" />
    <sodipodi:guide
       position="0,67.733334"
       orientation="0,256"
       id="guide3359" />
    <sodipodi:guide
       position="67.733334,67.733334"
       orientation="256,0"
       id="guide3361" />
    <sodipodi:guide
       position="67.733334,0"
       orientation="0,-256"
       id="guide3363" />
    <sodipodi:guide
       position="0,0"
       orientation="-256,0"
       id="guide3365" />
    <sodipodi:guide
       position="0,67.733334"
       orientation="0,256"
       id="guide3367" />
    <sodipodi:guide
       position="67.733334,67.733334"
       orientation="256,0"
       id="guide3369" />
    <sodipodi:guide
       position="67.733334,0"
       orientation="0,-256"
       id="guide3371" />
    <sodipodi:guide
       position="0,0"
       orientation="-256,0"
       id="guide3373" />
    <sodipodi:guide
       position="0,67.733334"
       orientation="0,256"
       id="guide3375" />
    <sodipodi:guide
       position="67.733334,67.733334"
       orientation="256,0"
       id="guide3377" />
    <sodipodi:guide
       position="67.733334,0"
       orientation="0,-256"
       id="guide3379" />
    <sodipodi:guide
       position="0,0"
       orientation="-256,0"
       id="guide3381" />
  </sodipodi:namedview>
  <metadata
     id="metadata5">
    <rdf:RDF>
      <cc:Work
         rdf:about="">
        <dc:format>image/svg+xml</dc:format>
        <dc:type
           rdf:resource="http://purl.org/dc/dcmitype/StillImage" />
        <dc:title />
      </cc:Work>
    </rdf:RDF>
  </metadata>
  <g
     inkscape:groupmode="layer"
     id="layer2"
     inkscape:label="Icon">
    <path
       id="path2094-0"
       style="fill:#808080;fill-opacity:1;stroke:none;stroke-width:2.1347;stroke-linecap:round;stroke-miterlimit:4;stroke-dasharray:none;stroke-dashoffset:6.00002;stroke-opacity:1;paint-order:markers fill stroke"
       d="m 17.11436,8.7683588 -1.112065,1.0600649 -1.064741,0.3383153 -8.2339981,9.450335 -0.023675,0.969847 -0.4258931,0.06765 v 8.525602 l 0.3075931,0.09022 0.023675,0.586421 8.0683641,9.923978 1.372334,0.04508 1.537959,1.466043 0.496877,-0.202992 0.02367,-0.383427 0.189286,-0.248098 0.378577,0.202993 0.283927,-0.202993 -1.395993,-1.646477 0.496878,-0.586421 -7.524169,-9.337567 0.757155,0.02257 1.041074,-0.766854 0.354918,-0.721742 0.09465,0.473644 1.703586,0.157881 0.35491,0.58642 1.395991,0.112763 0.449562,0.541308 h 0.899114 l 0.362308,0.322105 a 8.0642378,7.6871497 0 0 1 -1.655151,-4.664899 8.0642378,7.6871497 0 0 1 2.009697,-5.077591 l -0.07801,0.01514 -0.780812,0.541308 -1.277684,0.02257 -0.402235,0.721742 -1.230374,0.112776 -0.662503,0.541307 -1.041081,-0.02257 -0.236602,0.202993 -0.567862,-0.27065 -0.922779,-0.902182 6.412103,-8.886477 -0.02368,-0.947287 0.757146,-1.375826 -0.212944,-0.744301 z m 33.161489,0 -0.899112,0.1127629 -0.212947,0.7443024 0.757148,1.3758259 -0.02367,0.947287 6.412103,8.886476 -0.922779,0.902183 -0.567862,0.27065 -0.236609,-0.202993 -1.041081,0.02257 -0.662504,-0.541307 -1.230367,-0.112776 -0.402236,-0.721742 -1.27769,-0.02257 -0.780804,-0.541308 -0.07801,-0.01514 a 8.0642378,7.6871497 0 0 1 2.009697,5.077591 8.0642378,7.6871497 0 0 1 -1.655158,4.6649 l 0.362315,-0.322105 h 0.899114 l 0.449555,-0.541308 1.395997,-0.112763 0.354909,-0.58642 1.703585,-0.157882 0.09465,-0.473643 0.354908,0.721742 1.041082,0.766854 0.757153,-0.02257 -7.524169,9.337567 0.496878,0.58642 -1.39599,1.646476 0.283926,0.202995 0.378577,-0.202995 0.189285,0.248098 0.02367,0.383429 0.496879,0.202991 1.537958,-1.466041 1.372332,-0.04509 8.068365,-9.923981 0.02368,-0.586419 0.307586,-0.09022 v -8.525594 l -0.425891,-0.06765 -0.02367,-0.969847 -8.233998,-9.450337 -1.064738,-0.3383133 z m -33.865038,1.5456912 0.458433,0.321047 -0.169326,0.217081 -7.8413702,10.168211 v 8.45935 l 7.6668732,9.111667 0.178932,0.211797 -0.442899,0.338322 -0.178932,-0.210394 -7.7914639,-9.26109 V 20.841715 L 16.24334,10.532543 Z m 34.568578,0 0.167479,0.218493 7.952282,10.309172 v 8.828326 l -7.791463,9.26109 -0.178933,0.210394 -0.442908,-0.338322 0.178941,-0.211797 7.666872,-9.111667 v -8.45935 L 50.690282,10.852178 50.520966,10.635097 Z m -26.758628,7.346069 c -4.189521,0 -7.595889,3.246369 -7.595889,7.239993 7e-6,3.993608 3.406368,7.240004 7.595889,7.240004 4.189519,0 7.595888,-3.246396 7.595888,-7.240004 0,-3.993624 -3.406369,-7.239993 -7.595888,-7.239993 z m 18.919111,0.01904 c -4.206247,0 -7.627688,3.261454 -7.627688,7.271013 0,4.009548 3.421441,7.27101 7.627688,7.27101 4.20624,0 7.629164,-3.261462 7.629164,-7.27101 0,-4.009559 -3.422924,-7.271013 -7.629164,-7.271013 z m 0,1.082615 c 0.528041,0 1.04053,0.06138 1.53167,0.174093 l -1.106148,2.144794 2.447426,1.150988 1.116872,-2.165941 c 0.45602,0.338486 0.864421,0.73277 1.21114,1.17389 l -2.213775,1.037511 1.207445,2.332628 2.143902,-1.004382 c 0.100279,0.43302 0.154901,0.882543 0.154908,1.344817 0,0.375415 -0.0367,0.742386 -0.103517,1.099176 l -1.940932,-0.909575 -0.254357,-0.119118 -1.208182,2.334038 2.363499,1.107284 c -0.358547,0.496005 -0.791323,0.939077 -1.282863,1.315562 l -1.193764,-2.315362 -2.447426,1.150983 0.125705,0.243871 1.076573,2.087346 c -0.520145,0.127532 -1.06562,0.195231 -1.628167,0.195231 -0.427526,0 -0.844671,-0.0401 -1.248851,-0.114877 l 1.117609,-2.167694 0.125332,-0.242459 -2.448534,-1.151685 -1.306895,2.534203 c -0.559995,-0.379599 -1.054399,-0.84088 -1.46255,-1.367369 l 2.722482,-1.275741 -1.207079,-2.332627 -0.254725,0.119117 -2.383094,1.116448 c -0.09455,-0.421207 -0.145294,-0.858183 -0.145294,-1.30675 0,-0.535081 0.07053,-1.054424 0.203707,-1.549215 l 2.580515,1.208779 1.207078,-2.332628 -2.564253,-1.201733 c 0.395534,-0.469587 0.861213,-0.882727 1.382686,-1.22499 l 1.22852,2.381612 2.447051,-1.150983 -1.145338,-2.22056 c 0.373935,-0.06356 0.758177,-0.09868 1.151626,-0.09868 z m -20.22305,0.01691 h 2.377922 v 0.946933 h -2.377922 z m 18.504677,0.208278 0.952348,1.847002 -1.429637,0.672401 -0.952348,-1.847 z m 3.804597,0.10184 c 0.509858,0.164204 0.990938,0.386709 1.434812,0.659718 l -0.906511,1.75855 -1.428522,-0.671699 z m -13.730347,0.120181 -0.501686,0.60615 -0.906136,0.0307 a 7.8634684,7.4957684 0 0 1 1.603396,2.567337 l 0.367109,-1.512558 0.880263,0.194174 -0.633674,2.610336 -0.282446,-0.0624 a 7.8634684,7.4957684 0 0 1 0.109052,1.243668 7.8634684,7.4957684 0 0 1 -0.01116,0.398935 h 0.763801 v 0.956801 h -0.882475 a 7.8634684,7.4957684 0 0 1 -1.913208,3.684134 h 0.972313 l 0.267666,0.510307 0.702806,0.31892 0.40149,0.382725 h 2.342064 l 0.368218,-0.382725 0.568972,-0.255136 0.468412,-0.829233 1.104302,0.382724 -0.301306,0.606141 0.03698,0.01556 a 2.4426946,2.3284729 0 0 0 -1.333142,0.866584 l -0.510557,-0.116663 -0.401863,0.669942 0.06689,0.988519 0.370816,-0.05286 a 2.4426946,2.3284729 0 0 0 2.440028,2.221959 2.4426946,2.3284729 0 0 0 2.442617,-2.328399 2.4426946,2.3284729 0 0 0 -0.391886,-1.264463 7.8634684,7.4957684 0 0 1 -4.296668,-5.385938 h -0.849205 v -0.988873 h 0.729051 a 7.8634684,7.4957684 0 0 1 -0.0096,-0.367218 7.8634684,7.4957684 0 0 1 0.120154,-1.303579 l -0.41037,0.09058 -0.633665,-2.610337 0.880263,-0.194174 0.419241,1.728585 a 7.8634684,7.4957684 0 0 1 1.75941,-2.846091 h -1.29835 l -0.602245,-0.574068 z m -3.186828,0.619544 c 0.11262,0.08254 0.221874,0.168561 0.328664,0.257611 l -1.433704,1.431143 c -0.705279,-0.566043 -1.589403,-0.934998 -2.559072,-1.01918 h 2.871838 z m -8.33603,0.119826 0.539395,0.4747 3.286642,0.0747 c -1.027609,0.08872 -1.959731,0.497451 -2.684405,1.121387 L 19.66456,20.20455 c 0.100211,-0.08836 0.202584,-0.173765 0.308331,-0.256207 z m 9.080979,0.515933 c 0.707724,0.700395 1.249424,1.553967 1.564207,2.504958 l -2.011178,0.495497 c -0.212593,-0.589093 -0.55168,-1.121987 -0.987104,-1.5693 z m -9.795243,0.12899 1.454404,1.418113 c -0.422746,0.465918 -0.745613,1.016262 -0.935713,1.621102 l -2.006373,-0.494437 c 0.287291,-0.959911 0.802111,-1.827483 1.487682,-2.544778 z m 5.173975,0.454261 c 0.897133,0.04392 1.71637,0.365001 2.36498,0.875396 l -1.441099,1.437496 C 25.089075,23.180352 24.77397,23.061001 24.432602,23.025968 Z m -0.574887,0.01129 v 1.98973 c -0.32869,0.05866 -0.629173,0.194353 -0.879519,0.38801 l -1.452194,-1.416002 c 0.630574,-0.53637 1.43891,-0.886381 2.331713,-0.961738 z m 14.083414,0.556114 1.937231,0.907815 -0.705384,1.362788 -1.937241,-0.907816 z m 10.722085,0.07647 c 0.278047,0.427849 0.503002,0.890357 0.665831,1.379699 l -1.737232,0.814075 -0.704647,-1.361723 z m -21.450088,0.609677 c 0.607474,0.635453 0.994412,1.46558 1.047363,2.382315 h -2.076611 c -0.043,-0.354187 -0.18973,-0.678515 -0.41037,-0.945599 z m -16.813292,0.01793 h 0.567124 v 0.270304 4.752661 0.271708 h -0.567124 v -0.271708 -4.752661 z m 46.023415,0 h 0.567118 v 0.270304 4.752661 0.271708 h -0.567118 v -0.271708 -4.752661 z m -35.298002,0.0948 1.46254,1.425869 c -0.176558,0.24599 -0.292899,0.533759 -0.330515,0.843677 h -2.07661 c 0.04987,-0.86368 0.396676,-1.649963 0.944585,-2.269546 z m 19.77349,0.846146 -0.970471,1.307458 v 0.669941 l 0.970471,1.307806 h 4.851967 l 0.669159,-1.084374 -0.03363,-1.371599 -0.602238,-0.829232 z m -10.167904,0.09304 c 0.128721,0.495308 0.198536,1.013355 0.198536,1.547093 0,0.610229 -0.09164,1.199219 -0.258423,1.757849 l -1.93206,-0.761922 c 0.07765,-0.320408 0.120154,-0.653328 0.120154,-0.995927 0,-0.362687 -0.04707,-0.71516 -0.133844,-1.052656 z m -13.061926,0.171623 2.00637,0.494436 c -0.0606,0.28472 -0.0928,0.579485 -0.0928,0.881034 0,0.394666 0.05537,0.777124 0.157491,1.141471 l -1.927253,0.759454 c -0.195294,-0.600421 -0.300566,-1.238601 -0.300566,-1.900925 0,-0.472517 0.05516,-0.932399 0.156753,-1.37547 z m 6.551854,0.05429 c 0.768972,0 1.386018,0.588181 1.386011,1.321195 0,0.733014 -0.617039,1.321201 -1.386011,1.321201 -0.768973,0 -1.386013,-0.588187 -1.386013,-1.321201 -7e-6,-0.733014 0.61704,-1.321195 1.386013,-1.321195 z m 18.585269,0.286861 h 1.338323 v 1.881891 H 42.80603 Z m -22.627222,1.21618 h 2.074029 c 0.03693,0.363145 0.183518,0.695909 0.40667,0.969846 L 21.21878,27.490011 C 20.609038,26.847622 20.223716,26.00773 20.178808,25.081966 Z m 6.009876,0 h 2.074021 c -0.04593,0.947096 -0.448924,1.80356 -1.083227,2.451398 l -1.452552,-1.416439 c 0.254237,-0.285347 0.42193,-0.64275 0.461758,-1.035041 z m 12.985028,0.663951 0.704648,1.361731 -1.93834,0.908518 -0.705022,-1.361724 z m 8.419211,0 1.808215,0.847203 c -0.142683,0.496988 -0.34855,0.96849 -0.608899,1.406835 L 46.888273,27.10764 Z m -18.967538,0.53708 1.918755,0.756632 c -0.324299,0.873049 -0.84158,1.657674 -1.503211,2.309017 L 27.590593,27.93396 c 0.462231,-0.466496 0.819172,-1.028122 1.034792,-1.651061 z m -8.759341,0.139906 c 0.21237,0.550481 0.53659,1.049506 0.946066,1.472738 l -1.434073,1.4308 c -0.615939,-0.612164 -1.104925,-1.34039 -1.427413,-2.148313 z m 3.208269,0.0084 c 0.229892,0.156953 0.495519,0.268605 0.783402,0.31999 v 1.990786 C 23.01524,28.670931 22.247628,28.35507 21.633958,27.86879 Z m 2.220431,0.04793 1.463648,1.426925 c -0.642373,0.493182 -1.446365,0.803777 -2.32579,0.846855 v -1.979862 c 0.315349,-0.03232 0.608404,-0.136366 0.862142,-0.293918 z m 6.635772,0.927203 h 0.936823 v 0.957157 h -0.936823 z m 2.610461,0 h 1.037389 v 0.988873 h -1.037389 z m 6.404342,0.781661 1.428528,0.671697 -0.953092,1.848067 -1.428529,-0.671713 z m 4.808713,3.61e-4 0.952347,1.846658 -1.42853,0.672057 -0.952346,-1.84701 z m -24.526746,0.08563 c 0.391055,0.315796 0.837689,0.570906 1.323529,0.750288 v 2.070804 c -1.038083,-0.25268 -1.977426,-0.736826 -2.757229,-1.389866 z m 5.944066,0.03525 1.45218,1.416 c -0.819209,0.67946 -1.813057,1.171615 -2.910284,1.408602 V 29.08577 c 0.536648,-0.17439 1.029854,-0.438882 1.458104,-0.776372 z m -3.941021,0.910283 c 0.204444,0.04255 0.413918,0.07192 0.627384,0.08775 v 0.980766 h -0.627384 z m 1.829284,0.02892 v 1.039981 h -0.627013 v -0.971258 c 0.213201,-0.0092 0.422196,-0.03287 0.627013,-0.06873 z" />
  </g>
</svg>
