<?xml version="1.0" encoding="UTF-8" standalone="no"?>
<svg
   xmlns:dc="http://purl.org/dc/elements/1.1/"
   xmlns:cc="http://creativecommons.org/ns#"
   xmlns:rdf="http://www.w3.org/1999/02/22-rdf-syntax-ns#"
   xmlns:svg="http://www.w3.org/2000/svg"
   xmlns="http://www.w3.org/2000/svg"
   xmlns:sodipodi="http://sodipodi.sourceforge.net/DTD/sodipodi-0.dtd"
   xmlns:inkscape="http://www.inkscape.org/namespaces/inkscape"
   width="256"
   height="256"
   viewBox="0 0 67.733332 67.733335"
   version="1.1"
   id="svg8"
   inkscape:version="1.0.1 (3bc2e813f5, 2020-09-07)"
   sodipodi:docname="weapon-power.svg"
   inkscape:export-filename="C:\Users\keath\Workspace\KMX\elite-streamdeck-icons\chaff.png"
   inkscape:export-xdpi="96"
   inkscape:export-ydpi="96">
  <defs
     id="defs2" />
  <sodipodi:namedview
     id="base"
     pagecolor="#000000"
     bordercolor="#666666"
     borderopacity="1.0"
     inkscape:pageopacity="0"
     inkscape:pageshadow="2"
     inkscape:zoom="7.919596"
     inkscape:cx="82.577652"
     inkscape:cy="98.006454"
     inkscape:document-units="px"
     inkscape:current-layer="layer2"
     showgrid="true"
     units="px"
     inkscape:snap-grids="true"
     objecttolerance="10000"
     guidetolerance="10000"
     inkscape:window-width="3840"
     inkscape:window-height="2066"
     inkscape:window-x="3829"
     inkscape:window-y="-11"
     inkscape:window-maximized="1"
     inkscape:document-rotation="0"
     showguides="true"
     inkscape:snap-to-guides="false"
     inkscape:snap-others="false"
     inkscape:snap-nodes="false"
     inkscape:snap-global="true">
    <inkscape:grid
       type="xygrid"
       id="grid4623" />
    <sodipodi:guide
       position="-3.96875,62.441667"
       orientation="0,256"
       id="guide3351" />
    <sodipodi:guide
       position="62.177083,70.379167"
       orientation="256,0"
       id="guide3353" />
    <sodipodi:guide
       position="-2.6458333,22.754167"
       orientation="0,-256"
       id="guide3355" />
    <sodipodi:guide
       position="5.2916667,70.379167"
       orientation="-256,0"
       id="guide3357" />
    <sodipodi:guide
       position="0,67.733334"
       orientation="0,256"
       id="guide3359" />
    <sodipodi:guide
       position="67.733334,67.733334"
       orientation="256,0"
       id="guide3361" />
    <sodipodi:guide
       position="67.733334,0"
       orientation="0,-256"
       id="guide3363" />
    <sodipodi:guide
       position="0,0"
       orientation="-256,0"
       id="guide3365" />
    <sodipodi:guide
       position="0,67.733334"
       orientation="0,256"
       id="guide3367" />
    <sodipodi:guide
       position="67.733334,67.733334"
       orientation="256,0"
       id="guide3369" />
    <sodipodi:guide
       position="67.733334,0"
       orientation="0,-256"
       id="guide3371" />
    <sodipodi:guide
       position="0,0"
       orientation="-256,0"
       id="guide3373" />
    <sodipodi:guide
       position="0,67.733334"
       orientation="0,256"
       id="guide3375" />
    <sodipodi:guide
       position="67.733334,67.733334"
       orientation="256,0"
       id="guide3377" />
    <sodipodi:guide
       position="67.733334,0"
       orientation="0,-256"
       id="guide3379" />
    <sodipodi:guide
       position="0,0"
       orientation="-256,0"
       id="guide3381" />
  </sodipodi:namedview>
  <metadata
     id="metadata5">
    <rdf:RDF>
      <cc:Work
         rdf:about="">
        <dc:format>image/svg+xml</dc:format>
        <dc:type
           rdf:resource="http://purl.org/dc/dcmitype/StillImage" />
        <dc:title />
      </cc:Work>
    </rdf:RDF>
  </metadata>
  <g
     inkscape:groupmode="layer"
     id="layer2"
     inkscape:label="Icon">
    <path
       id="path2970"
       style="color:#000000;font-style:normal;font-variant:normal;font-weight:normal;font-stretch:normal;font-size:medium;line-height:normal;font-family:sans-serif;font-variant-ligatures:normal;font-variant-position:normal;font-variant-caps:normal;font-variant-numeric:normal;font-variant-alternates:normal;font-variant-east-asian:normal;font-feature-settings:normal;font-variation-settings:normal;text-indent:0;text-align:start;text-decoration:none;text-decoration-line:none;text-decoration-style:solid;text-decoration-color:#000000;letter-spacing:normal;word-spacing:normal;text-transform:none;writing-mode:lr-tb;direction:ltr;text-orientation:mixed;dominant-baseline:auto;baseline-shift:baseline;text-anchor:start;white-space:normal;shape-padding:0;shape-margin:0;inline-size:0;clip-rule:nonzero;display:inline;overflow:visible;visibility:visible;opacity:1;isolation:auto;mix-blend-mode:normal;color-interpolation:sRGB;color-interpolation-filters:linearRGB;solid-color:#000000;solid-opacity:1;vector-effect:none;fill:#808080;fill-opacity:1;fill-rule:nonzero;stroke:none;stroke-width:0.552171;stroke-linecap:square;stroke-linejoin:miter;stroke-miterlimit:4;stroke-dasharray:none;stroke-dashoffset:6.00002;stroke-opacity:1;paint-order:markers fill stroke;color-rendering:auto;image-rendering:auto;shape-rendering:auto;text-rendering:auto;enable-background:accumulate;stop-color:#000000;stop-opacity:1"
       d="m 43.743802,5.4693183 c -1.186063,0 -2.153941,0.9672998 -2.153941,2.1533548 0,1.186055 0.967878,2.1537926 2.153941,2.1537842 1.186063,0 2.153363,-0.9677292 2.153363,-2.1537842 0,-1.186055 -0.9673,-2.1533548 -2.153363,-2.1533548 z m 7.509311,0 c -1.186062,0 -2.153361,0.9672998 -2.153361,2.1533548 0,1.186055 0.967299,2.1537926 2.153361,2.1537842 1.186064,0 2.153364,-0.9677292 2.153364,-2.1537842 0,-1.186055 -0.9673,-2.1533548 -2.153364,-2.1533548 z m 7.50973,0 c -1.186064,0 -2.153859,0.9672998 -2.153859,2.1533548 0,1.186055 0.967795,2.1537842 2.153859,2.1537842 1.186063,8.4e-6 2.153362,-0.9677292 2.153362,-2.1537842 0,-1.186055 -0.967299,-2.1533548 -2.153362,-2.1533548 z M 43.743802,6.021595 c 0.887607,0 1.601045,0.7134383 1.601045,1.6010781 0,0.8876399 -0.713438,1.6015075 -1.601045,1.6015075 -0.887689,0 -1.601541,-0.7138676 -1.601541,-1.6015075 0,-0.027748 6.6e-4,-0.055331 0,-0.082715 0.03965,-0.794081 0.652326,-1.4312534 1.435135,-1.510162 0.02725,-0.00248 0.05451,-0.00495 0.08176,-0.00578 0.02725,-0.00165 0.05533,-0.00165 0.08267,-0.00165 z m 7.509311,0 c 0.887607,0 1.601458,0.7134383 1.601458,1.6010781 0,0.8876399 -0.713851,1.6015075 -1.601458,1.6015075 -0.887688,0 -1.601126,-0.7138676 -1.601126,-1.6015075 0,-0.8876398 0.713438,-1.6010781 1.601126,-1.6010781 z m 7.50973,0 c 0.887606,0 1.601044,0.7134383 1.601044,1.6010781 0,0.8876399 -0.713438,1.6015075 -1.601044,1.6015075 -0.88769,0 -1.601542,-0.7138676 -1.601542,-1.6015075 0,-0.8876398 0.713852,-1.6010781 1.601542,-1.6010781 z m -15.019041,4.516687 c -1.186063,0 -2.153941,0.967299 -2.153941,2.153355 0,1.186054 0.967878,2.153353 2.153941,2.153353 1.186063,0 2.153363,-0.967299 2.153363,-2.153353 0,-1.186056 -0.9673,-2.153355 -2.153363,-2.153355 z m 7.509311,0 c -1.186062,0 -2.153361,0.967299 -2.153361,2.153355 0,1.186054 0.967299,2.153353 2.153361,2.153353 1.186064,0 2.153364,-0.967299 2.153364,-2.153353 0,-1.186056 -0.9673,-2.153355 -2.153364,-2.153355 z m 7.50973,0 c -1.186064,0 -2.153859,0.967299 -2.153859,2.153355 0,1.186054 0.967795,2.153353 2.153859,2.153353 1.186063,0 2.153362,-0.967299 2.153362,-2.153353 0,-1.186056 -0.967299,-2.153355 -2.153362,-2.153355 z m -15.019041,0.552276 c 0.887607,0 1.601045,0.713439 1.601045,1.601079 0,0.887638 -0.713438,1.601506 -1.601045,1.601506 -0.887689,0 -1.601541,-0.713868 -1.601541,-1.601506 0,-0.88764 0.713852,-1.601079 1.601541,-1.601079 z m 7.509311,0 c 0.887607,0 1.601458,0.713439 1.601458,1.601079 0,0.887638 -0.713851,1.601506 -1.601458,1.601506 -0.887688,0 -1.601126,-0.713868 -1.601126,-1.601506 0,-0.88764 0.713438,-1.601079 1.601126,-1.601079 z m 7.50973,0 c 0.887606,0 1.601044,0.713439 1.601044,1.601079 0,0.887638 -0.713438,1.601506 -1.601044,1.601506 -0.88769,0 -1.601542,-0.713868 -1.601542,-1.601506 0,-0.88764 0.713852,-1.601079 1.601542,-1.601079 z m -15.019041,4.516686 c -1.186063,0 -2.153941,0.9673 -2.153941,2.153355 0,1.186055 0.967878,2.153462 2.153941,2.153462 1.186063,0 2.153363,-0.967407 2.153363,-2.153462 0,-1.186055 -0.9673,-2.153355 -2.153363,-2.153355 z m 7.509311,0 c -1.186062,0 -2.153361,0.9673 -2.153361,2.153355 0,1.186055 0.967299,2.153462 2.153361,2.153462 1.186064,0 2.153364,-0.967407 2.153364,-2.153462 0,-1.186055 -0.9673,-2.153355 -2.153364,-2.153355 z m 7.50973,0 c -1.186064,0 -2.153859,0.9673 -2.153859,2.153355 0,1.186055 0.967795,2.153462 2.153859,2.153462 1.186063,0 2.153362,-0.967407 2.153362,-2.153462 0,-1.186055 -0.967299,-2.153355 -2.153362,-2.153355 z M 43.743802,16.15952 c 0.887607,0 1.601045,0.713439 1.601045,1.601079 0,0.88764 -0.713438,1.601507 -1.601045,1.601507 -0.887689,0 -1.601541,-0.713867 -1.601541,-1.601507 0,-0.88764 0.713852,-1.601079 1.601541,-1.601079 z m 7.509311,0 c 0.887607,0 1.601458,0.713439 1.601458,1.601079 0,0.88764 -0.713851,1.601507 -1.601458,1.601507 -0.887688,0 -1.601126,-0.713867 -1.601126,-1.601507 0,-0.88764 0.713438,-1.601079 1.601126,-1.601079 z m 7.50973,0 c 0.887606,0 1.601044,0.713439 1.601044,1.601079 0,0.88764 -0.713438,1.601507 -1.601044,1.601507 -0.88769,0 -1.601542,-0.713867 -1.601542,-1.601507 0,-0.88764 0.713852,-1.601079 1.601542,-1.601079 z m -15.019041,4.516687 c -1.186063,0 -2.153941,0.967407 -2.153941,2.153462 0,1.186055 0.967878,2.153355 2.153941,2.153355 1.186063,0 2.153363,-0.9673 2.153363,-2.153355 0,-1.186055 -0.9673,-2.153462 -2.153363,-2.153462 z m 15.019041,0 c -1.186064,0 -2.153859,0.967407 -2.153859,2.153462 0,1.186055 0.967795,2.153355 2.153859,2.153355 1.186063,0 2.153362,-0.9673 2.153362,-2.153355 0,-1.186055 -0.967299,-2.153462 -2.153362,-2.153462 z m -7.50973,0.275977 a 1.8773778,1.8773778 0 0 0 -1.877368,1.877378 1.8773778,1.8773778 0 0 0 1.877368,1.877377 1.8773778,1.8773778 0 0 0 1.877369,-1.877377 1.8773778,1.8773778 0 0 0 -1.877369,-1.877378 z m -7.509311,0.275977 c 0.887607,0 1.601045,0.713869 1.601045,1.601508 0,0.88764 -0.713438,1.601078 -1.601045,1.601078 -0.887689,0 -1.601541,-0.713438 -1.601541,-1.601078 0,-0.887639 0.713852,-1.601508 1.601541,-1.601508 z m 15.019041,0 c 0.887606,0 1.601044,0.713869 1.601044,1.601508 0,0.88764 -0.713438,1.601078 -1.601044,1.601078 -0.88769,0 -1.601542,-0.713438 -1.601542,-1.601078 0,-0.887639 0.713852,-1.601508 1.601542,-1.601508 z m -15.019041,4.517116 c -1.186063,0 -2.153941,0.9673 -2.153941,2.153355 0,1.186055 0.967878,2.153363 2.153941,2.153355 1.186063,0 2.153363,-0.9673 2.153363,-2.153355 0,-1.186047 -0.9673,-2.153355 -2.153363,-2.153355 z m 15.019041,0 c -1.186064,0 -2.153859,0.967308 -2.153859,2.153355 0,1.186055 0.967795,2.153355 2.153859,2.153355 1.186063,8e-6 2.153362,-0.9673 2.153362,-2.153355 0,-1.186055 -0.967299,-2.153355 -2.153362,-2.153355 z m -7.50973,0.275871 a 1.8773778,1.8773778 0 0 0 -1.877368,1.877376 1.8773778,1.8773778 0 0 0 1.877368,1.877379 1.8773778,1.8773778 0 0 0 1.877369,-1.877379 1.8773778,1.8773778 0 0 0 -1.877369,-1.877376 z m -7.509311,0.275977 c 0.887607,0 1.601045,0.713867 1.601045,1.601507 0,0.88764 -0.713438,1.601078 -1.601045,1.601078 -0.887689,0 -1.601541,-0.713438 -1.601541,-1.601078 0,-0.88764 0.713852,-1.601507 1.601541,-1.601507 z m 15.019041,0 c 0.887606,0 1.601044,0.713867 1.601044,1.601507 0,0.88764 -0.713438,1.601078 -1.601044,1.601078 -0.88769,0 -1.601542,-0.713438 -1.601542,-1.601078 0,-0.88764 0.713852,-1.601507 1.601542,-1.601507 z m -15.019289,4.792877 a 1.8773778,1.8773778 0 0 0 -1.877369,1.877378 1.8773778,1.8773778 0 0 0 1.877369,1.877378 1.8773778,1.8773778 0 0 0 1.877369,-1.877378 1.8773778,1.8773778 0 0 0 -1.877369,-1.877378 z m 7.509559,0 a 1.8773778,1.8773778 0 0 0 -1.877368,1.877378 1.8773778,1.8773778 0 0 0 1.877368,1.877378 1.8773778,1.8773778 0 0 0 1.877369,-1.877378 1.8773778,1.8773778 0 0 0 -1.877369,-1.877378 z m 7.509481,0 a 1.8773778,1.8773778 0 0 0 -1.877369,1.877378 1.8773778,1.8773778 0 0 0 1.877369,1.877378 1.8773778,1.8773778 0 0 0 1.87737,-1.877378 1.8773778,1.8773778 0 0 0 -1.87737,-1.877378 z m -15.01904,5.068964 a 1.8773778,1.8773778 0 0 0 -1.877369,1.877376 1.8773778,1.8773778 0 0 0 1.877369,1.877379 1.8773778,1.8773778 0 0 0 1.877369,-1.877379 1.8773778,1.8773778 0 0 0 -1.877369,-1.877376 z m 7.509559,0 a 1.8773778,1.8773778 0 0 0 -1.877368,1.877376 1.8773778,1.8773778 0 0 0 1.877368,1.877379 1.8773778,1.8773778 0 0 0 1.877369,-1.877379 1.8773778,1.8773778 0 0 0 -1.877369,-1.877376 z m 7.509481,0 a 1.8773778,1.8773778 0 0 0 -1.877369,1.877376 1.8773778,1.8773778 0 0 0 1.877369,1.877379 1.8773778,1.8773778 0 0 0 1.87737,-1.877379 1.8773778,1.8773778 0 0 0 -1.87737,-1.877376 z m -15.01904,5.068964 a 1.8773778,1.8773778 0 0 0 -1.877369,1.877378 1.8773778,1.8773778 0 0 0 1.877369,1.877377 1.8773778,1.8773778 0 0 0 1.877369,-1.877377 1.8773778,1.8773778 0 0 0 -1.877369,-1.877378 z m 7.509559,0 a 1.8773778,1.8773778 0 0 0 -1.877368,1.877378 1.8773778,1.8773778 0 0 0 1.877368,1.877377 1.8773778,1.8773778 0 0 0 1.877369,-1.877377 1.8773778,1.8773778 0 0 0 -1.877369,-1.877378 z m 7.509481,0 a 1.8773778,1.8773778 0 0 0 -1.877369,1.877378 1.8773778,1.8773778 0 0 0 1.877369,1.877377 1.8773778,1.8773778 0 0 0 1.87737,-1.877377 1.8773778,1.8773778 0 0 0 -1.87737,-1.877378 z" />
    <path
       id="path1108"
       style="color:#000000;font-style:normal;font-variant:normal;font-weight:normal;font-stretch:normal;font-size:medium;line-height:normal;font-family:sans-serif;font-variant-ligatures:normal;font-variant-position:normal;font-variant-caps:normal;font-variant-numeric:normal;font-variant-alternates:normal;font-variant-east-asian:normal;font-feature-settings:normal;font-variation-settings:normal;text-indent:0;text-align:start;text-decoration:none;text-decoration-line:none;text-decoration-style:solid;text-decoration-color:#000000;letter-spacing:normal;word-spacing:normal;text-transform:none;writing-mode:lr-tb;direction:ltr;text-orientation:mixed;dominant-baseline:auto;baseline-shift:baseline;text-anchor:start;white-space:normal;shape-padding:0;shape-margin:0;inline-size:0;clip-rule:nonzero;display:inline;overflow:visible;visibility:visible;isolation:auto;mix-blend-mode:normal;color-interpolation:sRGB;color-interpolation-filters:linearRGB;solid-color:#000000;solid-opacity:1;vector-effect:none;fill:#808080;fill-opacity:1;fill-rule:nonzero;stroke:none;stroke-width:2.11667;stroke-linecap:round;stroke-linejoin:miter;stroke-miterlimit:4;stroke-dasharray:none;stroke-dashoffset:6.00002;stroke-opacity:1;paint-order:markers fill stroke;color-rendering:auto;image-rendering:auto;shape-rendering:auto;text-rendering:auto;enable-background:accumulate;stop-color:#000000"
       d="M 6.0786355,9.5536727 A 0.69509777,0.69508538 0 0 0 5.3840178,10.248827 v 29.051509 a 0.69509777,0.69508538 0 0 0 0.6946177,0.695285 H 35.964974 a 0.69509777,0.69508538 0 0 0 0.695297,-0.695285 V 10.248827 A 0.69509777,0.69508538 0 0 0 35.964974,9.5536727 Z m 0.695167,1.3897593 H 35.269805 V 38.605179 H 6.7738025 Z m 17.4276845,3.02345 v 0.278006 0.834297 2.432415 h 2.224089 v -1.32012 h 1.216577 v -2.224598 z m 4.135284,0 v 0.278006 1.946592 h 1.077425 v 1.32012 h 2.224089 v -3.544718 z m -4.135284,4.239872 v 0.278139 3.266572 h 3.440666 v -2.224049 h -1.216577 v -1.320662 z m 5.212709,0 v 0.278139 1.042523 h -1.077425 v 2.224049 h 3.301514 v -3.544711 z m -6.517916,3.753487 c -0.287957,0.0051 -0.563334,0.122114 -0.766977,0.325788 l -4.864924,4.865248 h -6.83e-4 c -0.431605,0.431882 -0.431605,1.140173 0,1.572062 h 6.83e-4 c 0.431953,0.431952 1.14068,0.431952 1.57264,0 l 4.865327,-4.864837 c 0.431959,-0.431945 0.431959,-1.140527 0,-1.572473 -0.206083,-0.206148 -0.485262,-0.323217 -0.776749,-0.325788 h -6.83e-4 c -0.0091,-5.6e-5 -0.01856,0 -0.02769,0 z m -6.949875,6.950294 c -0.288263,0.0049 -0.563265,0.121912 -0.767109,0.325788 l -4.865335,4.864838 c -0.4319588,0.431945 -0.4319588,1.140527 0,1.572472 h 6.83e-4 c 0.431891,0.431597 1.140061,0.431597 1.571952,0 l 4.865485,-4.865247 c 0.431599,-0.43189 0.431599,-1.14018 0,-1.572063 -0.213095,-0.213126 -0.504187,-0.330897 -0.80553,-0.325788 z" />
  </g>
</svg>
