<?xml version="1.0" encoding="UTF-8" standalone="no"?>
<svg
   xmlns:dc="http://purl.org/dc/elements/1.1/"
   xmlns:cc="http://creativecommons.org/ns#"
   xmlns:rdf="http://www.w3.org/1999/02/22-rdf-syntax-ns#"
   xmlns:svg="http://www.w3.org/2000/svg"
   xmlns="http://www.w3.org/2000/svg"
   xmlns:sodipodi="http://sodipodi.sourceforge.net/DTD/sodipodi-0.dtd"
   xmlns:inkscape="http://www.inkscape.org/namespaces/inkscape"
   width="256"
   height="256"
   viewBox="0 0 67.733332 67.733335"
   version="1.1"
   id="svg8"
   inkscape:version="1.0.1 (3bc2e813f5, 2020-09-07)"
   sodipodi:docname="weapon-power-max.svg"
   inkscape:export-filename="C:\Users\keath\Workspace\KMX\elite-streamdeck-icons\chaff.png"
   inkscape:export-xdpi="96"
   inkscape:export-ydpi="96">
  <defs
     id="defs2" />
  <sodipodi:namedview
     id="base"
     pagecolor="#000000"
     bordercolor="#666666"
     borderopacity="1.0"
     inkscape:pageopacity="0"
     inkscape:pageshadow="2"
     inkscape:zoom="3.959798"
     inkscape:cx="81.785341"
     inkscape:cy="138.89873"
     inkscape:document-units="px"
     inkscape:current-layer="layer2"
     showgrid="true"
     units="px"
     inkscape:snap-grids="true"
     objecttolerance="10000"
     guidetolerance="10000"
     inkscape:window-width="3840"
     inkscape:window-height="2066"
     inkscape:window-x="3829"
     inkscape:window-y="-11"
     inkscape:window-maximized="1"
     inkscape:document-rotation="0"
     showguides="true"
     inkscape:snap-to-guides="false"
     inkscape:snap-others="false"
     inkscape:snap-nodes="false"
     inkscape:snap-global="true">
    <inkscape:grid
       type="xygrid"
       id="grid4623" />
    <sodipodi:guide
       position="-3.96875,62.441667"
       orientation="0,256"
       id="guide3351" />
    <sodipodi:guide
       position="62.177083,70.379167"
       orientation="256,0"
       id="guide3353" />
    <sodipodi:guide
       position="-2.6458333,22.754167"
       orientation="0,-256"
       id="guide3355" />
    <sodipodi:guide
       position="5.2916667,70.379167"
       orientation="-256,0"
       id="guide3357" />
    <sodipodi:guide
       position="0,67.733334"
       orientation="0,256"
       id="guide3359" />
    <sodipodi:guide
       position="67.733334,67.733334"
       orientation="256,0"
       id="guide3361" />
    <sodipodi:guide
       position="67.733334,0"
       orientation="0,-256"
       id="guide3363" />
    <sodipodi:guide
       position="0,0"
       orientation="-256,0"
       id="guide3365" />
    <sodipodi:guide
       position="0,67.733334"
       orientation="0,256"
       id="guide3367" />
    <sodipodi:guide
       position="67.733334,67.733334"
       orientation="256,0"
       id="guide3369" />
    <sodipodi:guide
       position="67.733334,0"
       orientation="0,-256"
       id="guide3371" />
    <sodipodi:guide
       position="0,0"
       orientation="-256,0"
       id="guide3373" />
    <sodipodi:guide
       position="0,67.733334"
       orientation="0,256"
       id="guide3375" />
    <sodipodi:guide
       position="67.733334,67.733334"
       orientation="256,0"
       id="guide3377" />
    <sodipodi:guide
       position="67.733334,0"
       orientation="0,-256"
       id="guide3379" />
    <sodipodi:guide
       position="0,0"
       orientation="-256,0"
       id="guide3381" />
  </sodipodi:namedview>
  <metadata
     id="metadata5">
    <rdf:RDF>
      <cc:Work
         rdf:about="">
        <dc:format>image/svg+xml</dc:format>
        <dc:type
           rdf:resource="http://purl.org/dc/dcmitype/StillImage" />
        <dc:title />
      </cc:Work>
    </rdf:RDF>
  </metadata>
  <g
     inkscape:groupmode="layer"
     id="layer2"
     inkscape:label="Icon">
    <path
       id="path3135"
       style="color:#000000;font-style:normal;font-variant:normal;font-weight:normal;font-stretch:normal;font-size:medium;line-height:normal;font-family:sans-serif;font-variant-ligatures:normal;font-variant-position:normal;font-variant-caps:normal;font-variant-numeric:normal;font-variant-alternates:normal;font-variant-east-asian:normal;font-feature-settings:normal;font-variation-settings:normal;text-indent:0;text-align:start;text-decoration:none;text-decoration-line:none;text-decoration-style:solid;text-decoration-color:#000000;letter-spacing:normal;word-spacing:normal;text-transform:none;writing-mode:lr-tb;direction:ltr;text-orientation:mixed;dominant-baseline:auto;baseline-shift:baseline;text-anchor:start;white-space:normal;shape-padding:0;shape-margin:0;inline-size:0;clip-rule:nonzero;display:inline;overflow:visible;visibility:visible;opacity:1;isolation:auto;mix-blend-mode:normal;color-interpolation:sRGB;color-interpolation-filters:linearRGB;solid-color:#000000;solid-opacity:1;vector-effect:none;fill:#808080;fill-opacity:1;fill-rule:nonzero;stroke:none;stroke-width:0.550258;stroke-linecap:square;stroke-linejoin:miter;stroke-miterlimit:4;stroke-dasharray:none;stroke-dashoffset:6.00002;stroke-opacity:1;paint-order:markers fill stroke;color-rendering:auto;image-rendering:auto;shape-rendering:auto;text-rendering:auto;enable-background:accumulate;stop-color:#000000;stop-opacity:1"
       d="m 44.327905,5.4138778 c -1.181874,8.2e-6 -2.145988,0.9639584 -2.145988,2.145898 0,1.1819479 0.964114,2.1460052 2.145988,2.1460052 1.181956,1.65e-5 2.145906,-0.964049 2.145906,-2.1460052 0,-1.1819479 -0.96395,-2.1459062 -2.145906,-2.145898 z m 14.967028,0 c -1.181956,8.2e-6 -2.145989,0.9639584 -2.145989,2.145898 0,1.1819479 0.964033,2.1460052 2.145989,2.1460052 1.181956,1.65e-5 2.145906,-0.964049 2.145906,-2.1460052 0,-1.1819479 -0.96395,-2.1459062 -2.145906,-2.145898 z m -7.483555,0.2751286 a 1.8708767,1.8708767 0 0 0 -1.870951,1.8708764 1.8708767,1.8708767 0 0 0 1.870951,1.8708766 1.8708767,1.8708767 0 0 0 1.870868,-1.8708766 1.8708767,1.8708767 0 0 0 -1.870868,-1.8708764 z m -7.483473,0.2752357 c 0.884616,0 1.595583,0.7109677 1.595583,1.5955337 0,0.8845661 -0.710967,1.5959701 -1.595583,1.5959618 -0.884533,0 -1.595912,-0.7113957 -1.595912,-1.5959618 0,-0.027652 6.57e-4,-0.055057 0,-0.082322 0.0395,-0.791323 0.649985,-1.4262973 1.430083,-1.5049325 0.02716,-0.00247 0.05432,-0.00494 0.08147,-0.00576 0.02716,-0.00165 0.05514,-0.00247 0.08238,-0.00247 z m 14.967028,0 c 0.884615,0 1.595583,0.7109677 1.595583,1.5955337 0,0.8845661 -0.710968,1.5959701 -1.595583,1.5959618 -0.884533,0 -1.595913,-0.7113957 -1.595913,-1.5959618 0,-0.884566 0.71138,-1.5955337 1.595913,-1.5955337 z M 44.327905,10.465288 c -1.181874,8e-6 -2.145988,0.964065 -2.145988,2.146005 0,1.181948 0.964114,2.14589 2.145988,2.145898 1.181956,8e-6 2.145906,-0.963942 2.145906,-2.145898 0,-1.181956 -0.96395,-2.146013 -2.145906,-2.146005 z m 14.967028,0 c -1.181956,8e-6 -2.145989,0.964065 -2.145989,2.146005 0,1.181948 0.964033,2.14589 2.145989,2.145898 1.181956,8e-6 2.145906,-0.963942 2.145906,-2.145898 0,-1.181956 -0.96395,-2.146013 -2.145906,-2.146005 z m -7.483555,0.275128 a 1.8708767,1.8708767 0 0 0 -1.870951,1.870877 1.8708767,1.8708767 0 0 0 1.870951,1.870876 1.8708767,1.8708767 0 0 0 1.870868,-1.870876 1.8708767,1.8708767 0 0 0 -1.870868,-1.870877 z m -7.483473,0.275343 c 0.884616,0 1.595583,0.71096 1.595583,1.595534 0,0.884566 -0.710967,1.595863 -1.595583,1.595863 -0.884533,-8e-6 -1.595912,-0.711297 -1.595912,-1.595863 0,-0.884566 0.711379,-1.595526 1.595912,-1.595534 z m 14.967028,0 c 0.884615,0 1.595583,0.71096 1.595583,1.595534 0,0.884566 -0.710968,1.595863 -1.595583,1.595863 -0.884533,-8e-6 -1.595913,-0.711297 -1.595913,-1.595863 0,-0.884566 0.71138,-1.595526 1.595913,-1.595534 z m -14.967028,4.500939 c -1.181874,8e-6 -2.145988,0.964057 -2.145988,2.146005 0,1.181948 0.964114,2.145898 2.145988,2.145898 1.181956,8e-6 2.145906,-0.96395 2.145906,-2.145898 0,-1.181948 -0.96395,-2.146014 -2.145906,-2.146005 z m 14.967028,0 c -1.181956,8e-6 -2.145989,0.964057 -2.145989,2.146005 0,1.181948 0.964033,2.145898 2.145989,2.145898 1.181956,8e-6 2.145906,-0.96395 2.145906,-2.145898 0,-1.181948 -0.96395,-2.146014 -2.145906,-2.146005 z m -7.483555,0.275128 a 1.8708767,1.8708767 0 0 0 -1.870951,1.870877 1.8708767,1.8708767 0 0 0 1.870951,1.870876 1.8708767,1.8708767 0 0 0 1.870868,-1.870876 1.8708767,1.8708767 0 0 0 -1.870868,-1.870877 z m -7.483473,0.274915 c 0.884616,0 1.595583,0.711396 1.595583,1.595962 0,0.884574 -0.710967,1.595863 -1.595583,1.595854 -0.884533,0 -1.595912,-0.711288 -1.595912,-1.595854 0,-0.884566 0.711379,-1.595954 1.595912,-1.595962 z m 14.967028,0 c 0.884615,0 1.595583,0.711396 1.595583,1.595962 0,0.884574 -0.710968,1.595863 -1.595583,1.595854 -0.884533,0 -1.595913,-0.711288 -1.595913,-1.595854 0,-0.884566 0.71138,-1.595954 1.595913,-1.595962 z m -14.967028,4.501474 c -1.181874,8e-6 -2.145988,0.963958 -2.145988,2.145898 0,1.181947 0.964114,2.145898 2.145988,2.145898 1.181956,8e-6 2.145906,-0.963942 2.145906,-2.145898 0,-1.181948 -0.96395,-2.145907 -2.145906,-2.145898 z m 14.967028,0 c -1.181956,8e-6 -2.145989,0.963958 -2.145989,2.145898 0,1.181947 0.964033,2.145898 2.145989,2.145898 1.181956,8e-6 2.145906,-0.963942 2.145906,-2.145898 0,-1.181948 -0.96395,-2.145907 -2.145906,-2.145898 z m -7.483555,0.274914 a 1.8708767,1.8708767 0 0 0 -1.870951,1.870877 1.8708767,1.8708767 0 0 0 1.870951,1.870876 1.8708767,1.8708767 0 0 0 1.870868,-1.870876 1.8708767,1.8708767 0 0 0 -1.870868,-1.870877 z m -7.483473,0.275022 c 0.884616,-8e-6 1.595583,0.711396 1.595583,1.595962 0,0.884574 -0.710967,1.595542 -1.595583,1.595533 -0.884533,0 -1.595912,-0.710967 -1.595912,-1.595533 0,-0.884566 0.711379,-1.595962 1.595912,-1.595962 z m 14.967028,0 c 0.884615,-8e-6 1.595583,0.711396 1.595583,1.595962 0,0.884574 -0.710968,1.595542 -1.595583,1.595533 -0.884533,0 -1.595913,-0.710967 -1.595913,-1.595533 0,-0.884566 0.71138,-1.595962 1.595913,-1.595962 z m -14.967028,4.501045 c -1.181874,9e-6 -2.145988,0.964387 -2.145988,2.146326 0,1.181948 0.964114,2.145898 2.145988,2.145898 1.181956,1.8e-5 2.145906,-0.963941 2.145906,-2.145898 0,-1.181948 -0.96395,-2.146334 -2.145906,-2.146326 z m 14.967028,0 c -1.181956,9e-6 -2.145989,0.964387 -2.145989,2.146326 0,1.181948 0.964033,2.145898 2.145989,2.145898 1.181956,1.8e-5 2.145906,-0.963941 2.145906,-2.145898 0,-1.181948 -0.96395,-2.146334 -2.145906,-2.146326 z m -7.483555,0.275343 a 1.8708767,1.8708767 0 0 0 -1.870951,1.870876 1.8708767,1.8708767 0 0 0 1.870951,1.870878 1.8708767,1.8708767 0 0 0 1.870868,-1.870878 1.8708767,1.8708767 0 0 0 -1.870868,-1.870876 z m -7.483473,0.275022 c 0.884616,-9e-6 1.595583,0.711395 1.595583,1.595961 0,0.884575 -0.710967,1.595542 -1.595583,1.595533 -0.884533,0 -1.595912,-0.710967 -1.595912,-1.595533 0,-0.884557 0.711379,-1.595961 1.595912,-1.595961 z m 14.967028,0 c 0.884615,-9e-6 1.595583,0.711395 1.595583,1.595961 0,0.884575 -0.710968,1.595542 -1.595583,1.595533 -0.884533,0 -1.595913,-0.710967 -1.595913,-1.595533 0,-0.884557 0.71138,-1.595961 1.595913,-1.595961 z m -14.967028,4.501046 c -1.181874,8e-6 -2.145988,0.964065 -2.145988,2.146004 0,1.181948 0.964114,2.146327 2.145988,2.146327 1.181956,7e-6 2.145906,-0.96437 2.145906,-2.146327 0,-1.181948 -0.96395,-2.146013 -2.145906,-2.146004 z m 14.967028,0 c -1.181956,8e-6 -2.145989,0.964065 -2.145989,2.146004 0,1.181948 0.964033,2.146327 2.145989,2.146327 1.181956,7e-6 2.145906,-0.96437 2.145906,-2.146327 0,-1.181948 -0.96395,-2.146013 -2.145906,-2.146004 z m -7.483555,0.275234 a 1.8708767,1.8708767 0 0 0 -1.870951,1.870877 1.8708767,1.8708767 0 0 0 1.870951,1.870877 1.8708767,1.8708767 0 0 0 1.870868,-1.870877 1.8708767,1.8708767 0 0 0 -1.870868,-1.870877 z m -7.483473,0.275237 c 0.884616,-9e-6 1.595583,0.710967 1.595583,1.595533 0,0.884576 -0.710967,1.595862 -1.595583,1.595856 -0.884533,0 -1.595912,-0.711289 -1.595912,-1.595856 0,-0.884558 0.711379,-1.595524 1.595912,-1.595533 z m 14.967028,0 c 0.884615,-9e-6 1.595583,0.710967 1.595583,1.595533 0,0.884576 -0.710968,1.595862 -1.595583,1.595856 -0.884533,0 -1.595913,-0.711289 -1.595913,-1.595856 0,-0.884558 0.71138,-1.595524 1.595913,-1.595533 z m -14.96711,4.776175 a 1.8708767,1.8708767 0 0 0 -1.870868,1.870874 1.8708767,1.8708767 0 0 0 1.870868,1.870877 1.8708767,1.8708767 0 0 0 1.870868,-1.870877 1.8708767,1.8708767 0 0 0 -1.870868,-1.870874 z m 7.483555,0 a 1.8708767,1.8708767 0 0 0 -1.870951,1.870874 1.8708767,1.8708767 0 0 0 1.870951,1.870877 1.8708767,1.8708767 0 0 0 1.870868,-1.870877 1.8708767,1.8708767 0 0 0 -1.870868,-1.870874 z m 7.483472,0 a 1.8708767,1.8708767 0 0 0 -1.870868,1.870874 1.8708767,1.8708767 0 0 0 1.870868,1.870877 1.8708767,1.8708767 0 0 0 1.870869,-1.870877 1.8708767,1.8708767 0 0 0 -1.870869,-1.870874 z m -14.967027,5.051409 a 1.8708767,1.8708767 0 0 0 -1.870868,1.870877 1.8708767,1.8708767 0 0 0 1.870868,1.870877 1.8708767,1.8708767 0 0 0 1.870868,-1.870877 1.8708767,1.8708767 0 0 0 -1.870868,-1.870877 z m 7.483555,0 a 1.8708767,1.8708767 0 0 0 -1.870951,1.870877 1.8708767,1.8708767 0 0 0 1.870951,1.870877 1.8708767,1.8708767 0 0 0 1.870868,-1.870877 1.8708767,1.8708767 0 0 0 -1.870868,-1.870877 z m 7.483472,0 a 1.8708767,1.8708767 0 0 0 -1.870868,1.870877 1.8708767,1.8708767 0 0 0 1.870868,1.870877 1.8708767,1.8708767 0 0 0 1.870869,-1.870877 1.8708767,1.8708767 0 0 0 -1.870869,-1.870877 z" />
    <g
       id="g853">
      <path
         id="path947"
         style="color:#000000;font-style:normal;font-variant:normal;font-weight:normal;font-stretch:normal;font-size:medium;line-height:normal;font-family:sans-serif;font-variant-ligatures:normal;font-variant-position:normal;font-variant-caps:normal;font-variant-numeric:normal;font-variant-alternates:normal;font-variant-east-asian:normal;font-feature-settings:normal;font-variation-settings:normal;text-indent:0;text-align:start;text-decoration:none;text-decoration-line:none;text-decoration-style:solid;text-decoration-color:#000000;letter-spacing:normal;word-spacing:normal;text-transform:none;writing-mode:lr-tb;direction:ltr;text-orientation:mixed;dominant-baseline:auto;baseline-shift:baseline;text-anchor:start;white-space:normal;shape-padding:0;shape-margin:0;inline-size:0;clip-rule:nonzero;display:inline;overflow:visible;visibility:visible;opacity:1;isolation:auto;mix-blend-mode:normal;color-interpolation:sRGB;color-interpolation-filters:linearRGB;solid-color:#000000;solid-opacity:1;vector-effect:none;fill:#808080;fill-opacity:1;fill-rule:nonzero;stroke:none;stroke-width:2.0707;stroke-linecap:square;stroke-linejoin:miter;stroke-miterlimit:4;stroke-dasharray:none;stroke-dashoffset:6.00002;stroke-opacity:1;paint-order:markers fill stroke;color-rendering:auto;image-rendering:auto;shape-rendering:auto;text-rendering:auto;enable-background:accumulate;stop-color:#000000;stop-opacity:1"
         d="m 20.281551,6.2820527 -0.694522,11.5787253 3.429535,0.08117 -0.955078,-11.6598937 z m -8.940831,7.7656703 -2.3076638,0.59713 0.4196829,0.820415 c 1.7418419,3.402601 6.3001849,5.672137 11.3929849,5.672137 5.092805,-1e-6 9.651263,-2.269536 11.393092,-5.672137 l 0.420048,-0.820415 -2.307662,-0.59713 -0.419685,0.820415 c -1.391629,2.718479 -5.016945,4.523061 -9.085793,4.523063 -4.068854,0 -7.693694,-1.804584 -9.085317,-4.523063 z m 5.87846,8.236795 v 0.873187 16.414506 h 8.468981 V 22.284518 Z m 2.45551,1.74612 h 3.558078 V 37.826093 H 19.67469 Z m -6.012635,3.641435 v 16.698406 h 2.299503 V 27.672073 Z m 13.240303,0 v 16.698406 h 2.299511 V 27.672073 Z" />
      <rect
         style="fill:#808080;stroke-width:2.11667;stroke-linecap:round;stroke-linejoin:round;paint-order:markers fill stroke"
         id="rect849"
         width="6.0803819"
         height="14.499372"
         x="18.241144"
         y="23.586535" />
    </g>
  </g>
</svg>
