<?xml version="1.0" encoding="UTF-8" standalone="no"?>
<svg
   xmlns:dc="http://purl.org/dc/elements/1.1/"
   xmlns:cc="http://creativecommons.org/ns#"
   xmlns:rdf="http://www.w3.org/1999/02/22-rdf-syntax-ns#"
   xmlns:svg="http://www.w3.org/2000/svg"
   xmlns="http://www.w3.org/2000/svg"
   xmlns:sodipodi="http://sodipodi.sourceforge.net/DTD/sodipodi-0.dtd"
   xmlns:inkscape="http://www.inkscape.org/namespaces/inkscape"
   width="256"
   height="256"
   viewBox="0 0 67.733332 67.733335"
   version="1.1"
   id="svg8"
   inkscape:version="1.0.1 (3bc2e813f5, 2020-09-07)"
   sodipodi:docname="weapon-power.svg"
   inkscape:export-filename="C:\Users\keath\Workspace\KMX\elite-streamdeck-icons\chaff.png"
   inkscape:export-xdpi="96"
   inkscape:export-ydpi="96">
  <defs
     id="defs2" />
  <sodipodi:namedview
     id="base"
     pagecolor="#000000"
     bordercolor="#666666"
     borderopacity="1.0"
     inkscape:pageopacity="0"
     inkscape:pageshadow="2"
     inkscape:zoom="3.959798"
     inkscape:cx="81.785341"
     inkscape:cy="138.89873"
     inkscape:document-units="px"
     inkscape:current-layer="layer2"
     showgrid="true"
     units="px"
     inkscape:snap-grids="true"
     objecttolerance="10000"
     guidetolerance="10000"
     inkscape:window-width="3840"
     inkscape:window-height="2066"
     inkscape:window-x="3829"
     inkscape:window-y="-11"
     inkscape:window-maximized="1"
     inkscape:document-rotation="0"
     showguides="true"
     inkscape:snap-to-guides="false"
     inkscape:snap-others="false"
     inkscape:snap-nodes="false"
     inkscape:snap-global="true">
    <inkscape:grid
       type="xygrid"
       id="grid4623" />
    <sodipodi:guide
       position="-3.96875,62.441667"
       orientation="0,256"
       id="guide3351" />
    <sodipodi:guide
       position="62.177083,70.379167"
       orientation="256,0"
       id="guide3353" />
    <sodipodi:guide
       position="-2.6458333,22.754167"
       orientation="0,-256"
       id="guide3355" />
    <sodipodi:guide
       position="5.2916667,70.379167"
       orientation="-256,0"
       id="guide3357" />
    <sodipodi:guide
       position="0,67.733334"
       orientation="0,256"
       id="guide3359" />
    <sodipodi:guide
       position="67.733334,67.733334"
       orientation="256,0"
       id="guide3361" />
    <sodipodi:guide
       position="67.733334,0"
       orientation="0,-256"
       id="guide3363" />
    <sodipodi:guide
       position="0,0"
       orientation="-256,0"
       id="guide3365" />
    <sodipodi:guide
       position="0,67.733334"
       orientation="0,256"
       id="guide3367" />
    <sodipodi:guide
       position="67.733334,67.733334"
       orientation="256,0"
       id="guide3369" />
    <sodipodi:guide
       position="67.733334,0"
       orientation="0,-256"
       id="guide3371" />
    <sodipodi:guide
       position="0,0"
       orientation="-256,0"
       id="guide3373" />
    <sodipodi:guide
       position="0,67.733334"
       orientation="0,256"
       id="guide3375" />
    <sodipodi:guide
       position="67.733334,67.733334"
       orientation="256,0"
       id="guide3377" />
    <sodipodi:guide
       position="67.733334,0"
       orientation="0,-256"
       id="guide3379" />
    <sodipodi:guide
       position="0,0"
       orientation="-256,0"
       id="guide3381" />
  </sodipodi:namedview>
  <metadata
     id="metadata5">
    <rdf:RDF>
      <cc:Work
         rdf:about="">
        <dc:format>image/svg+xml</dc:format>
        <dc:type
           rdf:resource="http://purl.org/dc/dcmitype/StillImage" />
        <dc:title />
      </cc:Work>
    </rdf:RDF>
  </metadata>
  <g
     inkscape:groupmode="layer"
     id="layer2"
     inkscape:label="Icon">
    <path
       id="path2970"
       style="color:#000000;font-style:normal;font-variant:normal;font-weight:normal;font-stretch:normal;font-size:medium;line-height:normal;font-family:sans-serif;font-variant-ligatures:normal;font-variant-position:normal;font-variant-caps:normal;font-variant-numeric:normal;font-variant-alternates:normal;font-variant-east-asian:normal;font-feature-settings:normal;font-variation-settings:normal;text-indent:0;text-align:start;text-decoration:none;text-decoration-line:none;text-decoration-style:solid;text-decoration-color:#000000;letter-spacing:normal;word-spacing:normal;text-transform:none;writing-mode:lr-tb;direction:ltr;text-orientation:mixed;dominant-baseline:auto;baseline-shift:baseline;text-anchor:start;white-space:normal;shape-padding:0;shape-margin:0;inline-size:0;clip-rule:nonzero;display:inline;overflow:visible;visibility:visible;opacity:1;isolation:auto;mix-blend-mode:normal;color-interpolation:sRGB;color-interpolation-filters:linearRGB;solid-color:#000000;solid-opacity:1;vector-effect:none;fill:#808080;fill-opacity:1;fill-rule:nonzero;stroke:none;stroke-width:0.552171;stroke-linecap:square;stroke-linejoin:miter;stroke-miterlimit:4;stroke-dasharray:none;stroke-dashoffset:6.00002;stroke-opacity:1;paint-order:markers fill stroke;color-rendering:auto;image-rendering:auto;shape-rendering:auto;text-rendering:auto;enable-background:accumulate;stop-color:#000000;stop-opacity:1"
       d="m 43.743802,5.4693183 c -1.186063,0 -2.153941,0.9672998 -2.153941,2.1533548 0,1.186055 0.967878,2.1537926 2.153941,2.1537842 1.186063,0 2.153363,-0.9677292 2.153363,-2.1537842 0,-1.186055 -0.9673,-2.1533548 -2.153363,-2.1533548 z m 7.509311,0 c -1.186062,0 -2.153361,0.9672998 -2.153361,2.1533548 0,1.186055 0.967299,2.1537926 2.153361,2.1537842 1.186064,0 2.153364,-0.9677292 2.153364,-2.1537842 0,-1.186055 -0.9673,-2.1533548 -2.153364,-2.1533548 z m 7.50973,0 c -1.186064,0 -2.153859,0.9672998 -2.153859,2.1533548 0,1.186055 0.967795,2.1537842 2.153859,2.1537842 1.186063,8.4e-6 2.153362,-0.9677292 2.153362,-2.1537842 0,-1.186055 -0.967299,-2.1533548 -2.153362,-2.1533548 z M 43.743802,6.021595 c 0.887607,0 1.601045,0.7134383 1.601045,1.6010781 0,0.8876399 -0.713438,1.6015075 -1.601045,1.6015075 -0.887689,0 -1.601541,-0.7138676 -1.601541,-1.6015075 0,-0.027748 6.6e-4,-0.055331 0,-0.082715 0.03965,-0.794081 0.652326,-1.4312534 1.435135,-1.510162 0.02725,-0.00248 0.05451,-0.00495 0.08176,-0.00578 0.02725,-0.00165 0.05533,-0.00165 0.08267,-0.00165 z m 7.509311,0 c 0.887607,0 1.601458,0.7134383 1.601458,1.6010781 0,0.8876399 -0.713851,1.6015075 -1.601458,1.6015075 -0.887688,0 -1.601126,-0.7138676 -1.601126,-1.6015075 0,-0.8876398 0.713438,-1.6010781 1.601126,-1.6010781 z m 7.50973,0 c 0.887606,0 1.601044,0.7134383 1.601044,1.6010781 0,0.8876399 -0.713438,1.6015075 -1.601044,1.6015075 -0.88769,0 -1.601542,-0.7138676 -1.601542,-1.6015075 0,-0.8876398 0.713852,-1.6010781 1.601542,-1.6010781 z m -15.019041,4.516687 c -1.186063,0 -2.153941,0.967299 -2.153941,2.153355 0,1.186054 0.967878,2.153353 2.153941,2.153353 1.186063,0 2.153363,-0.967299 2.153363,-2.153353 0,-1.186056 -0.9673,-2.153355 -2.153363,-2.153355 z m 7.509311,0 c -1.186062,0 -2.153361,0.967299 -2.153361,2.153355 0,1.186054 0.967299,2.153353 2.153361,2.153353 1.186064,0 2.153364,-0.967299 2.153364,-2.153353 0,-1.186056 -0.9673,-2.153355 -2.153364,-2.153355 z m 7.50973,0 c -1.186064,0 -2.153859,0.967299 -2.153859,2.153355 0,1.186054 0.967795,2.153353 2.153859,2.153353 1.186063,0 2.153362,-0.967299 2.153362,-2.153353 0,-1.186056 -0.967299,-2.153355 -2.153362,-2.153355 z m -15.019041,0.552276 c 0.887607,0 1.601045,0.713439 1.601045,1.601079 0,0.887638 -0.713438,1.601506 -1.601045,1.601506 -0.887689,0 -1.601541,-0.713868 -1.601541,-1.601506 0,-0.88764 0.713852,-1.601079 1.601541,-1.601079 z m 7.509311,0 c 0.887607,0 1.601458,0.713439 1.601458,1.601079 0,0.887638 -0.713851,1.601506 -1.601458,1.601506 -0.887688,0 -1.601126,-0.713868 -1.601126,-1.601506 0,-0.88764 0.713438,-1.601079 1.601126,-1.601079 z m 7.50973,0 c 0.887606,0 1.601044,0.713439 1.601044,1.601079 0,0.887638 -0.713438,1.601506 -1.601044,1.601506 -0.88769,0 -1.601542,-0.713868 -1.601542,-1.601506 0,-0.88764 0.713852,-1.601079 1.601542,-1.601079 z m -15.019041,4.516686 c -1.186063,0 -2.153941,0.9673 -2.153941,2.153355 0,1.186055 0.967878,2.153462 2.153941,2.153462 1.186063,0 2.153363,-0.967407 2.153363,-2.153462 0,-1.186055 -0.9673,-2.153355 -2.153363,-2.153355 z m 7.509311,0 c -1.186062,0 -2.153361,0.9673 -2.153361,2.153355 0,1.186055 0.967299,2.153462 2.153361,2.153462 1.186064,0 2.153364,-0.967407 2.153364,-2.153462 0,-1.186055 -0.9673,-2.153355 -2.153364,-2.153355 z m 7.50973,0 c -1.186064,0 -2.153859,0.9673 -2.153859,2.153355 0,1.186055 0.967795,2.153462 2.153859,2.153462 1.186063,0 2.153362,-0.967407 2.153362,-2.153462 0,-1.186055 -0.967299,-2.153355 -2.153362,-2.153355 z M 43.743802,16.15952 c 0.887607,0 1.601045,0.713439 1.601045,1.601079 0,0.88764 -0.713438,1.601507 -1.601045,1.601507 -0.887689,0 -1.601541,-0.713867 -1.601541,-1.601507 0,-0.88764 0.713852,-1.601079 1.601541,-1.601079 z m 7.509311,0 c 0.887607,0 1.601458,0.713439 1.601458,1.601079 0,0.88764 -0.713851,1.601507 -1.601458,1.601507 -0.887688,0 -1.601126,-0.713867 -1.601126,-1.601507 0,-0.88764 0.713438,-1.601079 1.601126,-1.601079 z m 7.50973,0 c 0.887606,0 1.601044,0.713439 1.601044,1.601079 0,0.88764 -0.713438,1.601507 -1.601044,1.601507 -0.88769,0 -1.601542,-0.713867 -1.601542,-1.601507 0,-0.88764 0.713852,-1.601079 1.601542,-1.601079 z m -15.019041,4.516687 c -1.186063,0 -2.153941,0.967407 -2.153941,2.153462 0,1.186055 0.967878,2.153355 2.153941,2.153355 1.186063,0 2.153363,-0.9673 2.153363,-2.153355 0,-1.186055 -0.9673,-2.153462 -2.153363,-2.153462 z m 15.019041,0 c -1.186064,0 -2.153859,0.967407 -2.153859,2.153462 0,1.186055 0.967795,2.153355 2.153859,2.153355 1.186063,0 2.153362,-0.9673 2.153362,-2.153355 0,-1.186055 -0.967299,-2.153462 -2.153362,-2.153462 z m -7.50973,0.275977 a 1.8773778,1.8773778 0 0 0 -1.877368,1.877378 1.8773778,1.8773778 0 0 0 1.877368,1.877377 1.8773778,1.8773778 0 0 0 1.877369,-1.877377 1.8773778,1.8773778 0 0 0 -1.877369,-1.877378 z m -7.509311,0.275977 c 0.887607,0 1.601045,0.713869 1.601045,1.601508 0,0.88764 -0.713438,1.601078 -1.601045,1.601078 -0.887689,0 -1.601541,-0.713438 -1.601541,-1.601078 0,-0.887639 0.713852,-1.601508 1.601541,-1.601508 z m 15.019041,0 c 0.887606,0 1.601044,0.713869 1.601044,1.601508 0,0.88764 -0.713438,1.601078 -1.601044,1.601078 -0.88769,0 -1.601542,-0.713438 -1.601542,-1.601078 0,-0.887639 0.713852,-1.601508 1.601542,-1.601508 z m -15.019041,4.517116 c -1.186063,0 -2.153941,0.9673 -2.153941,2.153355 0,1.186055 0.967878,2.153363 2.153941,2.153355 1.186063,0 2.153363,-0.9673 2.153363,-2.153355 0,-1.186047 -0.9673,-2.153355 -2.153363,-2.153355 z m 15.019041,0 c -1.186064,0 -2.153859,0.967308 -2.153859,2.153355 0,1.186055 0.967795,2.153355 2.153859,2.153355 1.186063,8e-6 2.153362,-0.9673 2.153362,-2.153355 0,-1.186055 -0.967299,-2.153355 -2.153362,-2.153355 z m -7.50973,0.275871 a 1.8773778,1.8773778 0 0 0 -1.877368,1.877376 1.8773778,1.8773778 0 0 0 1.877368,1.877379 1.8773778,1.8773778 0 0 0 1.877369,-1.877379 1.8773778,1.8773778 0 0 0 -1.877369,-1.877376 z m -7.509311,0.275977 c 0.887607,0 1.601045,0.713867 1.601045,1.601507 0,0.88764 -0.713438,1.601078 -1.601045,1.601078 -0.887689,0 -1.601541,-0.713438 -1.601541,-1.601078 0,-0.88764 0.713852,-1.601507 1.601541,-1.601507 z m 15.019041,0 c 0.887606,0 1.601044,0.713867 1.601044,1.601507 0,0.88764 -0.713438,1.601078 -1.601044,1.601078 -0.88769,0 -1.601542,-0.713438 -1.601542,-1.601078 0,-0.88764 0.713852,-1.601507 1.601542,-1.601507 z m -15.019289,4.792877 a 1.8773778,1.8773778 0 0 0 -1.877369,1.877378 1.8773778,1.8773778 0 0 0 1.877369,1.877378 1.8773778,1.8773778 0 0 0 1.877369,-1.877378 1.8773778,1.8773778 0 0 0 -1.877369,-1.877378 z m 7.509559,0 a 1.8773778,1.8773778 0 0 0 -1.877368,1.877378 1.8773778,1.8773778 0 0 0 1.877368,1.877378 1.8773778,1.8773778 0 0 0 1.877369,-1.877378 1.8773778,1.8773778 0 0 0 -1.877369,-1.877378 z m 7.509481,0 a 1.8773778,1.8773778 0 0 0 -1.877369,1.877378 1.8773778,1.8773778 0 0 0 1.877369,1.877378 1.8773778,1.8773778 0 0 0 1.87737,-1.877378 1.8773778,1.8773778 0 0 0 -1.87737,-1.877378 z m -15.01904,5.068964 a 1.8773778,1.8773778 0 0 0 -1.877369,1.877376 1.8773778,1.8773778 0 0 0 1.877369,1.877379 1.8773778,1.8773778 0 0 0 1.877369,-1.877379 1.8773778,1.8773778 0 0 0 -1.877369,-1.877376 z m 7.509559,0 a 1.8773778,1.8773778 0 0 0 -1.877368,1.877376 1.8773778,1.8773778 0 0 0 1.877368,1.877379 1.8773778,1.8773778 0 0 0 1.877369,-1.877379 1.8773778,1.8773778 0 0 0 -1.877369,-1.877376 z m 7.509481,0 a 1.8773778,1.8773778 0 0 0 -1.877369,1.877376 1.8773778,1.8773778 0 0 0 1.877369,1.877379 1.8773778,1.8773778 0 0 0 1.87737,-1.877379 1.8773778,1.8773778 0 0 0 -1.87737,-1.877376 z m -15.01904,5.068964 a 1.8773778,1.8773778 0 0 0 -1.877369,1.877378 1.8773778,1.8773778 0 0 0 1.877369,1.877377 1.8773778,1.8773778 0 0 0 1.877369,-1.877377 1.8773778,1.8773778 0 0 0 -1.877369,-1.877378 z m 7.509559,0 a 1.8773778,1.8773778 0 0 0 -1.877368,1.877378 1.8773778,1.8773778 0 0 0 1.877368,1.877377 1.8773778,1.8773778 0 0 0 1.877369,-1.877377 1.8773778,1.8773778 0 0 0 -1.877369,-1.877378 z m 7.509481,0 a 1.8773778,1.8773778 0 0 0 -1.877369,1.877378 1.8773778,1.8773778 0 0 0 1.877369,1.877377 1.8773778,1.8773778 0 0 0 1.87737,-1.877377 1.8773778,1.8773778 0 0 0 -1.87737,-1.877378 z" />
    <g
       id="g853">
      <path
         id="path947"
         style="color:#000000;font-style:normal;font-variant:normal;font-weight:normal;font-stretch:normal;font-size:medium;line-height:normal;font-family:sans-serif;font-variant-ligatures:normal;font-variant-position:normal;font-variant-caps:normal;font-variant-numeric:normal;font-variant-alternates:normal;font-variant-east-asian:normal;font-feature-settings:normal;font-variation-settings:normal;text-indent:0;text-align:start;text-decoration:none;text-decoration-line:none;text-decoration-style:solid;text-decoration-color:#000000;letter-spacing:normal;word-spacing:normal;text-transform:none;writing-mode:lr-tb;direction:ltr;text-orientation:mixed;dominant-baseline:auto;baseline-shift:baseline;text-anchor:start;white-space:normal;shape-padding:0;shape-margin:0;inline-size:0;clip-rule:nonzero;display:inline;overflow:visible;visibility:visible;opacity:1;isolation:auto;mix-blend-mode:normal;color-interpolation:sRGB;color-interpolation-filters:linearRGB;solid-color:#000000;solid-opacity:1;vector-effect:none;fill:#808080;fill-opacity:1;fill-rule:nonzero;stroke:none;stroke-width:2.0707;stroke-linecap:square;stroke-linejoin:miter;stroke-miterlimit:4;stroke-dasharray:none;stroke-dashoffset:6.00002;stroke-opacity:1;paint-order:markers fill stroke;color-rendering:auto;image-rendering:auto;shape-rendering:auto;text-rendering:auto;enable-background:accumulate;stop-color:#000000;stop-opacity:1"
         d="m 20.281551,6.2820527 -0.694522,11.5787253 3.429535,0.08117 -0.955078,-11.6598937 z m -8.940831,7.7656703 -2.3076638,0.59713 0.4196829,0.820415 c 1.7418419,3.402601 6.3001849,5.672137 11.3929849,5.672137 5.092805,-1e-6 9.651263,-2.269536 11.393092,-5.672137 l 0.420048,-0.820415 -2.307662,-0.59713 -0.419685,0.820415 c -1.391629,2.718479 -5.016945,4.523061 -9.085793,4.523063 -4.068854,0 -7.693694,-1.804584 -9.085317,-4.523063 z m 5.87846,8.236795 v 0.873187 16.414506 h 8.468981 V 22.284518 Z m 2.45551,1.74612 h 3.558078 V 37.826093 H 19.67469 Z m -6.012635,3.641435 v 16.698406 h 2.299503 V 27.672073 Z m 13.240303,0 v 16.698406 h 2.299511 V 27.672073 Z" />
      <rect
         style="fill:#808080;stroke-width:2.11667;stroke-linecap:round;stroke-linejoin:round;paint-order:markers fill stroke"
         id="rect849"
         width="6.0803819"
         height="14.499372"
         x="18.241144"
         y="23.586535" />
    </g>
  </g>
</svg>
