<?xml version="1.0" encoding="UTF-8" standalone="no"?>
<svg
   xmlns:dc="http://purl.org/dc/elements/1.1/"
   xmlns:cc="http://creativecommons.org/ns#"
   xmlns:rdf="http://www.w3.org/1999/02/22-rdf-syntax-ns#"
   xmlns:svg="http://www.w3.org/2000/svg"
   xmlns="http://www.w3.org/2000/svg"
   xmlns:sodipodi="http://sodipodi.sourceforge.net/DTD/sodipodi-0.dtd"
   xmlns:inkscape="http://www.inkscape.org/namespaces/inkscape"
   width="256"
   height="256"
   viewBox="0 0 67.733332 67.733335"
   version="1.1"
   id="svg8"
   inkscape:version="1.0.1 (3bc2e813f5, 2020-09-07)"
   sodipodi:docname="x-wing.svg"
   inkscape:export-filename="C:\Users\keath\Workspace\KMX\elite-streamdeck-icons\chaff.png"
   inkscape:export-xdpi="96"
   inkscape:export-ydpi="96">
  <defs
     id="defs2" />
  <sodipodi:namedview
     id="base"
     pagecolor="#000000"
     bordercolor="#666666"
     borderopacity="1.0"
     inkscape:pageopacity="0"
     inkscape:pageshadow="2"
     inkscape:zoom="3.959798"
     inkscape:cx="81.785341"
     inkscape:cy="138.89873"
     inkscape:document-units="px"
     inkscape:current-layer="layer2"
     showgrid="true"
     units="px"
     inkscape:snap-grids="true"
     objecttolerance="10000"
     guidetolerance="10000"
     inkscape:window-width="2321"
     inkscape:window-height="1879"
     inkscape:window-x="4802"
     inkscape:window-y="103"
     inkscape:window-maximized="0"
     inkscape:document-rotation="0"
     showguides="true"
     inkscape:snap-to-guides="false"
     inkscape:snap-others="false"
     inkscape:snap-nodes="false"
     inkscape:snap-global="true">
    <inkscape:grid
       type="xygrid"
       id="grid4623" />
    <sodipodi:guide
       position="-3.96875,62.441667"
       orientation="0,256"
       id="guide3351" />
    <sodipodi:guide
       position="62.177083,70.379167"
       orientation="256,0"
       id="guide3353" />
    <sodipodi:guide
       position="-2.6458333,22.754167"
       orientation="0,-256"
       id="guide3355" />
    <sodipodi:guide
       position="5.2916667,70.379167"
       orientation="-256,0"
       id="guide3357" />
    <sodipodi:guide
       position="0,67.733334"
       orientation="0,256"
       id="guide3359" />
    <sodipodi:guide
       position="67.733334,67.733334"
       orientation="256,0"
       id="guide3361" />
    <sodipodi:guide
       position="67.733334,0"
       orientation="0,-256"
       id="guide3363" />
    <sodipodi:guide
       position="0,0"
       orientation="-256,0"
       id="guide3365" />
    <sodipodi:guide
       position="0,67.733334"
       orientation="0,256"
       id="guide3367" />
    <sodipodi:guide
       position="67.733334,67.733334"
       orientation="256,0"
       id="guide3369" />
    <sodipodi:guide
       position="67.733334,0"
       orientation="0,-256"
       id="guide3371" />
    <sodipodi:guide
       position="0,0"
       orientation="-256,0"
       id="guide3373" />
    <sodipodi:guide
       position="0,67.733334"
       orientation="0,256"
       id="guide3375" />
    <sodipodi:guide
       position="67.733334,67.733334"
       orientation="256,0"
       id="guide3377" />
    <sodipodi:guide
       position="67.733334,0"
       orientation="0,-256"
       id="guide3379" />
    <sodipodi:guide
       position="0,0"
       orientation="-256,0"
       id="guide3381" />
  </sodipodi:namedview>
  <metadata
     id="metadata5">
    <rdf:RDF>
      <cc:Work
         rdf:about="">
        <dc:format>image/svg+xml</dc:format>
        <dc:type
           rdf:resource="http://purl.org/dc/dcmitype/StillImage" />
        <dc:title />
      </cc:Work>
    </rdf:RDF>
  </metadata>
  <g
     inkscape:groupmode="layer"
     id="layer2"
     inkscape:label="Icon">
    <path
       id="path1539"
       style="fill:#808080;fill-opacity:1;stroke:none;stroke-width:13.1381;stroke-linecap:round;stroke-miterlimit:4;stroke-dasharray:none;stroke-dashoffset:6.00002;stroke-opacity:1;paint-order:markers fill stroke"
       d="m 32.795189,5.8150658 -0.743993,1.3879566 -0.257492,3.5089246 0.459185,0.112767 0.90732,-0.8639486 0.754747,-0.1106035 a 0.14879862,0.13879561 0 0 1 0.0154,-0.00192 0.14879862,0.13879561 0 0 1 0.0055,-2.782e-4 0.14879862,0.13879561 0 0 1 0.06771,0.014366 0.14879862,0.13879561 0 0 1 0.06394,-0.014089 0.14879862,0.13879561 0 0 1 0.02412,0.00192 l 0.7559,0.1106046 0.898313,0.8552737 0.424309,-0.104101 -0.25744,-3.5089155 -0.743992,-1.3879561 H 34.283191 33.68073 Z m 1.208115,4.2964262 a 0.14879862,0.13879561 0 0 1 -0.04127,0.0122 l -0.658842,0.09732 -0.895406,0.852563 a 0.14879862,0.13879561 0 0 1 -0.137172,0.03823 l -1.476652,18.026614 0.394665,0.46599 -0.210409,2.453595 -0.420822,-0.04905 v -1.300396 h -3.708921 v 1.34946 H 17.010629 V 30.684153 L 16.537203,30.193219 16.391312,19.403223 h 0.54259 a 0.29759615,0.27759022 0 0 0 0.297597,-0.277588 0.29759615,0.27759022 0 0 0 -0.297597,-0.277864 h -0.549855 l -0.03082,-2.271692 h -0.631522 l -0.04389,2.271692 h -0.46732 a 0.29759615,0.27759022 0 0 0 -0.297889,0.277864 0.29759615,0.27759022 0 0 0 0.297889,0.27759 h 0.456567 l -0.208376,10.789999 -0.552182,0.613463 v 1.570397 l -0.473713,0.220661 0.210409,3.484259 0.368509,0.294395 0.0526,1.39853 0.446976,0.441597 h 0.552474 l 0.605075,-0.343465 0.131362,-0.637864 9.732643,2.797059 0.841642,-0.539731 v 5.324108 h 2.788228 v -5.618509 l 1.15755,2.404252 h 2.219479 0.884364 2.219483 l 1.157546,-2.404252 v 5.618509 h 2.78823 v -5.324129 l 0.841641,0.53973 9.732645,-2.797058 0.131362,0.637865 0.605076,0.343465 h 0.55247 l 0.446977,-0.441598 0.0526,-1.39853 0.368506,-0.294396 0.210413,-3.48426 -0.473716,-0.22066 V 30.806664 L 52.50516,30.193203 52.296784,19.403204 h 0.456569 a 0.29759615,0.27759022 0 0 0 0.297888,-0.277591 0.29759615,0.27759022 0 0 0 -0.297888,-0.277863 h -0.467321 l -0.04387,-2.271691 h -0.631521 l -0.03081,2.271691 h -0.549855 a 0.29759615,0.27759022 0 0 0 -0.297596,0.277863 0.29759615,0.27759022 0 0 0 0.297596,0.277591 h 0.542592 l -0.145893,10.789999 -0.473424,0.490935 v 1.373859 h -9.837842 v -1.349466 h -3.70892 v 1.300396 l -0.420819,0.04906 -0.210412,-2.453589 0.394666,-0.465995 -1.476361,-18.023905 a 0.14879862,0.13879561 0 0 1 -0.09475,-0.04094 l -0.895115,-0.852564 -0.65797,-0.09731 a 0.14879862,0.13879561 0 0 1 -0.04243,-0.0122 z m -0.474004,12.054882 0.399895,0.0048 0.399896,-0.0048 -2.96e-4,0.0098 0.632682,0.0076 0.557996,3.643383 v 1.613498 l -0.539395,1.21446 -1.05089,-0.01463 -1.05089,0.01463 -0.539394,-1.21446 v -1.61353 l 0.557994,-3.643384 0.632685,-0.0076 z m 0.501905,7.355622 c 0.696759,0 1.265659,0.530384 1.265659,1.180304 0,0.649919 -0.5689,1.179216 -1.265659,1.179216 -0.696762,0 -1.264208,-0.529297 -1.264208,-1.179216 0,-0.64992 0.567446,-1.180304 1.264208,-1.180304 z m 0,0.277588 c -0.535928,0 -0.96632,0.402816 -0.96632,0.902716 0,0.4999 0.430392,0.90163 0.96632,0.90163 0.535926,0 0.96777,-0.40173 0.96777,-0.90163 0,-0.4999 -0.431844,-0.902716 -0.96777,-0.902716 z" />
  </g>
</svg>
