<?xml version="1.0" encoding="UTF-8" standalone="no"?>
<svg
   xmlns:dc="http://purl.org/dc/elements/1.1/"
   xmlns:cc="http://creativecommons.org/ns#"
   xmlns:rdf="http://www.w3.org/1999/02/22-rdf-syntax-ns#"
   xmlns:svg="http://www.w3.org/2000/svg"
   xmlns="http://www.w3.org/2000/svg"
   xmlns:sodipodi="http://sodipodi.sourceforge.net/DTD/sodipodi-0.dtd"
   xmlns:inkscape="http://www.inkscape.org/namespaces/inkscape"
   width="256"
   height="256"
   viewBox="0 0 67.733332 67.733335"
   version="1.1"
   id="svg8"
   inkscape:version="1.0.1 (3bc2e813f5, 2020-09-07)"
   sodipodi:docname="y-wing.svg"
   inkscape:export-filename="C:\Users\keath\Workspace\KMX\elite-streamdeck-icons\chaff.png"
   inkscape:export-xdpi="96"
   inkscape:export-ydpi="96">
  <defs
     id="defs2" />
  <sodipodi:namedview
     id="base"
     pagecolor="#000000"
     bordercolor="#666666"
     borderopacity="1.0"
     inkscape:pageopacity="0"
     inkscape:pageshadow="2"
     inkscape:zoom="3.959798"
     inkscape:cx="81.785341"
     inkscape:cy="138.89873"
     inkscape:document-units="px"
     inkscape:current-layer="layer2"
     showgrid="true"
     units="px"
     inkscape:snap-grids="true"
     objecttolerance="10000"
     guidetolerance="10000"
     inkscape:window-width="2321"
     inkscape:window-height="1879"
     inkscape:window-x="4802"
     inkscape:window-y="103"
     inkscape:window-maximized="0"
     inkscape:document-rotation="0"
     showguides="true"
     inkscape:snap-to-guides="false"
     inkscape:snap-others="false"
     inkscape:snap-nodes="false"
     inkscape:snap-global="true">
    <inkscape:grid
       type="xygrid"
       id="grid4623" />
    <sodipodi:guide
       position="-3.96875,62.441667"
       orientation="0,256"
       id="guide3351" />
    <sodipodi:guide
       position="62.177083,70.379167"
       orientation="256,0"
       id="guide3353" />
    <sodipodi:guide
       position="-2.6458333,22.754167"
       orientation="0,-256"
       id="guide3355" />
    <sodipodi:guide
       position="5.2916667,70.379167"
       orientation="-256,0"
       id="guide3357" />
    <sodipodi:guide
       position="0,67.733334"
       orientation="0,256"
       id="guide3359" />
    <sodipodi:guide
       position="67.733334,67.733334"
       orientation="256,0"
       id="guide3361" />
    <sodipodi:guide
       position="67.733334,0"
       orientation="0,-256"
       id="guide3363" />
    <sodipodi:guide
       position="0,0"
       orientation="-256,0"
       id="guide3365" />
    <sodipodi:guide
       position="0,67.733334"
       orientation="0,256"
       id="guide3367" />
    <sodipodi:guide
       position="67.733334,67.733334"
       orientation="256,0"
       id="guide3369" />
    <sodipodi:guide
       position="67.733334,0"
       orientation="0,-256"
       id="guide3371" />
    <sodipodi:guide
       position="0,0"
       orientation="-256,0"
       id="guide3373" />
    <sodipodi:guide
       position="0,67.733334"
       orientation="0,256"
       id="guide3375" />
    <sodipodi:guide
       position="67.733334,67.733334"
       orientation="256,0"
       id="guide3377" />
    <sodipodi:guide
       position="67.733334,0"
       orientation="0,-256"
       id="guide3379" />
    <sodipodi:guide
       position="0,0"
       orientation="-256,0"
       id="guide3381" />
  </sodipodi:namedview>
  <metadata
     id="metadata5">
    <rdf:RDF>
      <cc:Work
         rdf:about="">
        <dc:format>image/svg+xml</dc:format>
        <dc:type
           rdf:resource="http://purl.org/dc/dcmitype/StillImage" />
        <dc:title />
      </cc:Work>
    </rdf:RDF>
  </metadata>
  <g
     inkscape:groupmode="layer"
     id="layer2"
     inkscape:label="Icon">
    <path
       id="path1618"
       style="fill:#808080;fill-opacity:1;stroke:none;stroke-width:1.27065;stroke-linecap:round;stroke-miterlimit:4;stroke-dasharray:none;stroke-dashoffset:6.00002;stroke-opacity:1;paint-order:markers fill stroke"
       d="m 33.147481,4.7588022 v 1.8617612 h -1.13712 C 30.597765,10.000101 30.066493,13.379804 30.020836,16.759343 l 1.894968,0.905586 v 3.949777 l -0.757847,0.377469 v 4.326966 h -4.295172 c -0.01224,-1.578794 -0.08803,-1.98946 -0.157709,-2.515797 -0.998626,-2.238005 -4.061328,-3.201301 -5.305635,0 -0.123446,0.674306 -0.185107,1.422607 -0.189461,2.239229 v 7.119605 l 0.31577,0.150929 v 9.73602 l -0.252616,0.125917 v 1.584913 h 5.368788 v -0.452792 l 0.407185,-0.187344 V 43.50192 l -0.470338,-0.326876 v -9.962557 l 0.442077,-0.226534 v -1.559624 h 4.200266 v 1.408689 l 0.568384,1.006488 h 2.535582 0.590718 2.535579 l 0.568387,-1.006488 v -1.408689 h 4.200264 v 1.559624 l 0.442079,0.226534 v 9.962557 l -0.470339,0.326876 v 0.617901 l 0.407183,0.187344 v 0.452792 h 5.368789 v -1.584913 l -0.252617,-0.125917 v -9.73602 l 0.315771,-0.150929 v -7.119605 c -0.0042,-0.816622 -0.06602,-1.564923 -0.189461,-2.239229 -1.244305,-3.201301 -4.307013,-2.238005 -5.305635,0 -0.06967,0.526337 -0.145491,0.937003 -0.15771,2.515797 h -4.29517 v -4.326966 l -0.757848,-0.377469 v -3.949777 l 1.894968,-0.905586 C 39.174394,13.379804 38.643109,10.000101 37.230511,6.6205634 H 36.09339 V 4.7588022 H 35.177832 V 6.6205634 H 34.789487 34.451386 34.063041 V 4.7588022 Z m 1.420443,5.4593658 a 0.82108979,0.77989336 0 0 1 3.56e-4,0 0.82108979,0.77989336 0 0 1 0.821003,0.779949 0.82108979,0.77989336 0 0 1 -0.821003,0.779949 0.82108979,0.77989336 0 0 1 -0.821003,-0.779949 0.82108979,0.77989336 0 0 1 0.820653,-0.779949 z M 32.673651,10.9731 h 0.63154 v 5.962188 h -0.63154 z m 3.215275,0 h 0.631887 v 5.962188 h -0.631887 z m -1.352404,8.184739 c 0.70699,0 1.284364,0.459947 1.284364,1.023162 0,0.563216 -0.577374,1.022327 -1.284364,1.022327 -0.706997,0 -1.283318,-0.459111 -1.283318,-1.022327 0,-0.563215 0.576321,-1.023162 1.283318,-1.023162 z m 0,0.284629 c -0.513905,-5e-6 -0.926027,0.329147 -0.926027,0.738533 0,0.409385 0.412122,0.737425 0.926027,0.737425 0.513898,0 0.927073,-0.32804 0.927073,-0.737425 0,-0.409386 -0.413175,-0.738538 -0.927073,-0.738533 z m -1.978363,5.577498 h 4.209688 v 0.485312 h -4.209688 v -0.343555 z m -9.753627,11.010176 h 2.558259 v 7.295831 h -2.558259 z m 21.143332,0 h 2.55791 v 7.295831 h -2.55791 z" />
  </g>
</svg>
